<svg xmlns="http://www.w3.org/2000/svg" xmlns:xlink="http://www.w3.org/1999/xlink" width="150" height="150" viewBox="0 0 150 150">
  <defs>
    <clipPath id="clip-adt_colored">
      <rect width="150" height="150"/>
    </clipPath>
  </defs>
  <g id="adt_colored" clip-path="url(#clip-adt_colored)">
    <g id="adt" transform="translate(-3339.742 -1960.448)">
      <path id="Exclusion_2" data-name="Exclusion 2" d="M44.126,25.568H33.282l4.762-5.94H23.532l-11.705,5.94H0L48.954,0H59.745L44.126,25.568ZM48.551,5.458,31.5,15.123h9.951Z" transform="translate(3344.488 2016.578)" fill="#019ee5"/>
      <g id="Group_4" data-name="Group 4" transform="translate(3391.044 2016.435)">
        <path id="Exclusion_1" data-name="Exclusion 1" d="M23.773,25.63H0L30.1,0h20.3a8.159,8.159,0,0,1,1.781.513,7.061,7.061,0,0,1,1.522.846,4.982,4.982,0,0,1,1.316,1.422,5.878,5.878,0,0,1,.111,5.191,14.3,14.3,0,0,1-1.484,2.689,24.84,24.84,0,0,1-2.36,2.906,34.3,34.3,0,0,1-3.146,2.946A40.035,40.035,0,0,1,44.3,19.323a41.623,41.623,0,0,1-4.448,2.493,40.2,40.2,0,0,1-4.964,2A35.8,35.8,0,0,1,23.773,25.63ZM32.349,5.746,17.878,18.993H29.949a24.434,24.434,0,0,0,5.875-1.668,21.723,21.723,0,0,0,4.52-2.6,18.215,18.215,0,0,0,1.714-1.459,14.5,14.5,0,0,0,1.33-1.468A7.717,7.717,0,0,0,44.835,9.14,2.357,2.357,0,0,0,44.6,7.206,2.69,2.69,0,0,0,43.9,6.49a4.11,4.11,0,0,0-.8-.448,4.866,4.866,0,0,0-.939-.3H32.349Z" transform="translate(0 0)" fill="#019ee5"/>
      </g>
      <path id="Path_166" data-name="Path 166" d="M4524.086,2044.048l22.606-20.142h-11.461l5.577-5.4h32.074l-5.371,5.4h-9.418l-22.4,20.142Z" transform="translate(-1085.932 -1.901)" fill="#019ee5"/>
      <path id="Path_167" data-name="Path 167" d="M4791.044,2124.013v6.578l27.342-24.838v-6.383Z" transform="translate(-1331.256 -76.131)" fill="#006ab8"/>
      <path id="Path_168" data-name="Path 168" d="M3342.354,2403.641l117.435.065v6.57H3342.354Z" transform="translate(0 -355.816)" fill="#0285cf"/>
    </g>
  </g>
</svg>
