<svg xmlns="http://www.w3.org/2000/svg" xmlns:xlink="http://www.w3.org/1999/xlink" width="100" height="100" viewBox="0 0 100 100">
  <defs>
    <clipPath id="clip-adt_grayscale">
      <rect width="100" height="100"/>
    </clipPath>
  </defs>
  <g id="adt_grayscale" clip-path="url(#clip-adt_grayscale)">
    <g id="adt" transform="translate(-3341.354 -1979.46)">
      <path id="Exclusion_2" data-name="Exclusion 2" d="M29.759,17.244H22.446l3.212-4.006H15.87L7.976,17.244H0L33.015,0h7.277L29.759,17.244ZM32.743,3.681,21.243,10.2h6.711Z" transform="translate(3343.793 2016.531)" fill="#8e8e8e"/>
      <g id="Group_4" data-name="Group 4" transform="translate(3375.191 2016.435)">
        <path id="Exclusion_1" data-name="Exclusion 1" d="M16.033,17.286H0L20.3,0H33.994a5.5,5.5,0,0,1,1.2.346,4.762,4.762,0,0,1,1.026.571,3.36,3.36,0,0,1,.888.959,3.964,3.964,0,0,1,.075,3.5,9.646,9.646,0,0,1-1,1.814,16.753,16.753,0,0,1-1.592,1.96,23.132,23.132,0,0,1-2.122,1.987,27,27,0,0,1-2.591,1.894,28.071,28.071,0,0,1-3,1.682,27.111,27.111,0,0,1-3.348,1.349A24.141,24.141,0,0,1,16.033,17.286ZM21.817,3.875l-9.76,8.934H20.2a16.479,16.479,0,0,0,3.962-1.125,14.65,14.65,0,0,0,3.048-1.75,12.285,12.285,0,0,0,1.156-.984,9.78,9.78,0,0,0,.9-.99,5.2,5.2,0,0,0,.976-1.8,1.589,1.589,0,0,0-.161-1.3,1.814,1.814,0,0,0-.467-.483,2.772,2.772,0,0,0-.541-.3,3.282,3.282,0,0,0-.633-.2H21.817Z" transform="translate(0 0)" fill="#8e8e8e"/>
      </g>
      <path id="Path_166" data-name="Path 166" d="M4524.086,2035.731l15.246-13.584H4531.6l3.762-3.643H4557l-3.622,3.643h-6.352l-15.105,13.584Z" transform="translate(-1117.123 -1.956)" fill="#8e8e8e"/>
      <path id="Path_167" data-name="Path 167" d="M4791.045,2115.99v4.436l18.439-16.751v-4.3Z" transform="translate(-1369.491 -78.346)" fill="#8e8e8e"/>
      <path id="Path_168" data-name="Path 168" d="M3342.354,2403.642l79.2.044v4.431h-79.2Z" transform="translate(0 -366.037)" fill="#8e8e8e"/>
    </g>
  </g>
</svg>
