<svg id="Pfade" xmlns="http://www.w3.org/2000/svg" viewBox="0 0 334.29 54.08"><defs><style>.cls-1{fill:#fff;}</style></defs><title>ag-logo-horizontal</title><path class="cls-1" d="M0,34.71v8.11a20.73,20.73,0,0,1,33.16,0V34.71a25.38,25.38,0,0,0-16.57-6A25.25,25.25,0,0,0,0,34.71ZM0,23.08v6.44a37.5,37.5,0,0,1,33.16,0V23.08A43.51,43.51,0,0,0,0,23.08ZM16.59,11A86.74,86.74,0,0,0,0,12.59v6a81,81,0,0,1,33.16,0v-6A86.69,86.69,0,0,0,16.59,11Z"/><path class="cls-1" d="M66.38,37.93,64.72,33H57l-1.66,4.9H50.82l8.08-22H63l8,22ZM61.91,24.86c-.42-1.29-.84-2.61-1.06-3.42-.21.82-.63,2.13-1.06,3.42l-1.36,4h4.82Z"/><path class="cls-1" d="M91.07,37.93V29.86c0-1.2.06-4,.06-4.84-.3.82-.94,2.39-1.48,3.64l-4.28,9.77-4.28-9.77c-.54-1.26-1.18-2.83-1.48-3.64,0,.85.06,3.64.06,4.84v8.07H75.54v-22h4.07l4.4,10c.54,1.23,1.18,2.89,1.45,3.68.27-.82.87-2.42,1.42-3.68l4.25-10h4.16v22Z"/><path class="cls-1" d="M115.23,37.93,113.57,33h-7.72l-1.66,4.9H99.67l8.08-22h4.1l8,22Zm-4.46-13.06c-.42-1.29-.84-2.61-1.06-3.42-.21.82-.63,2.13-1.06,3.42l-1.36,4h4.83Z"/><path class="cls-1" d="M137.42,37.93l-7.75-12c-.51-.82-1.21-1.92-1.48-2.48,0,.82.06,3.58.06,4.8v9.67h-4.16v-22h4l7.48,11.62c.51.82,1.21,1.92,1.48,2.48,0-.82-.06-3.58-.06-4.8v-9.3h4.16v22Z"/><path class="cls-1" d="M161,37.93l-7.75-12c-.51-.82-1.21-1.92-1.48-2.48,0,.82.06,3.58.06,4.8v9.67h-4.16v-22h4l7.48,11.62c.51.82,1.21,1.92,1.48,2.48,0-.82-.06-3.58-.06-4.8v-9.3h4.16v22Z"/><path class="cls-1" d="M179.8,38.28c-5.8,0-9.6-4.87-9.6-11.31s4-11.37,9.7-11.37a8.94,8.94,0,0,1,7.56,3.52l-2.1,1.48a6.24,6.24,0,0,0-5.53-2.77c-4.07,0-7,3.74-7,9.08s3.05,9.14,7,9.14S186,33.78,186,29.48v-.19h-4.28V27h6.85v2.14C188.58,35.23,184.82,38.28,179.8,38.28Z"/><path class="cls-1" d="M193.57,37.93v-22h2.65v22Z"/><path class="cls-1" d="M215.18,28.38l5.22,9.55h-3.05l-5.09-9.36h-5.63v9.36H204v-22h9.4c4.17,0,7.39,2,7.39,6.22C220.78,25.59,218.57,27.72,215.18,28.38Zm-1.9-10.21h-6.65v8.2h6.31c3.53,0,5.19-1.35,5.19-4.12S216.43,18.17,213.28,18.17Z"/><path class="cls-1" d="M238.75,28.38,244,37.93h-3.05l-5.09-9.36h-5.63v9.36h-2.64v-22H237c4.17,0,7.39,2,7.39,6.22C244.35,25.59,242.15,27.72,238.75,28.38Zm-1.9-10.21h-6.65v8.2h6.31c3.53,0,5.19-1.35,5.19-4.12S240,18.17,236.86,18.17Z"/><path class="cls-1" d="M259.48,37.93H251v-22h8.68c3.77,0,6.45,1.73,6.45,5.5a4.5,4.5,0,0,1-3.43,4.49c2.17.54,4.54,1.95,4.54,5.5C267.22,35.76,264.47,37.93,259.48,37.93Zm.07-19.76h-5.94V25h5.73c3,0,4.11-1.57,4.11-3.49S262.2,18.17,259.55,18.17Zm0,9h-5.9V35.7h6c3.56,0,4.92-1.63,4.92-4.15C264.57,28.79,262.6,27.22,259.52,27.22Z"/><path class="cls-1" d="M287.67,37.93l-2-5.59h-9.8l-2.07,5.59h-2.71l8.24-22h2.92l8.24,22Zm-5.46-15c-.54-1.44-1.22-3.42-1.46-4.33-.24.88-.92,2.86-1.49,4.4l-2.61,7.16h8.18Z"/><path class="cls-1" d="M303.28,38.28c-5.8,0-9.6-4.87-9.6-11.31s4-11.37,9.7-11.37a8.94,8.94,0,0,1,7.56,3.52l-2.1,1.48a6.24,6.24,0,0,0-5.53-2.77c-4.07,0-7,3.74-7,9.08s3,9.14,7,9.14a7.19,7.19,0,0,0,5.87-2.89L311,34.63A9.58,9.58,0,0,1,303.28,38.28Z"/><path class="cls-1" d="M331.64,37.93V27.57H319.83V37.93h-2.65v-22h2.65v9.39h11.81V15.94h2.65v22Z"/></svg>