<svg xmlns="http://www.w3.org/2000/svg" xmlns:xlink="http://www.w3.org/1999/xlink" width="150" height="150" viewBox="0 0 150 150">
  <defs>
    <clipPath id="clip-amalienhof_colored">
      <rect width="150" height="150"/>
    </clipPath>
  </defs>
  <g id="amalienhof_colored" clip-path="url(#clip-amalienhof_colored)">
    <g id="svgg" transform="translate(9.637 25.557)">
      <path id="path0" d="M0,49.443V98.885H130.726V0H0V49.443M23.016,7.508a2.517,2.517,0,0,1,1.607,1.88c0,.8-.982.682-1.425-.175a1.283,1.283,0,0,0-1.842-.36c-1.1.808-.6,1.843,1.118,2.34,3.253.939,3.326,4.612.108,5.423-1.312.33-3.2-.932-3.2-2.139,0-.912.858-.938,1.314-.039a1.485,1.485,0,0,0,2.527.458c.858-.78.416-1.958-.9-2.394q-3.783-1.256-2.571-3.678a2.726,2.726,0,0,1,3.263-1.315m10.425.4c1.26.745,1.891,1.534,1.553,1.941q-.406.49-1.651-.523c-2.617-2.126-6.538.652-5.329,3.776.7,1.822,2.9,2.868,4.371,2.083a1.466,1.466,0,0,1,.4-.159,4.274,4.274,0,0,0,.771-.538c.994-.794,1.553-.833,1.553-.108,0,.319-.285.629-1.335,1.456-2.878,2.265-7.57-.431-7.232-4.155A4.58,4.58,0,0,1,27.1,9.713a2.634,2.634,0,0,0,.326-.476c.62-1.185,2.094-1.826,4.091-1.78l1.2.028.724.428m26-.295a1.353,1.353,0,0,1,.286.187,2.352,2.352,0,0,0,.459.243,4.552,4.552,0,0,1,2.064,5.239,4.783,4.783,0,0,1-8.642,1.065C52.295,12.4,53.129,9,55.155,8.056a5.074,5.074,0,0,0,.622-.349,7.857,7.857,0,0,1,3.664-.089m8.6,0a2.713,2.713,0,0,1,.638.468c.642.553.968,1.58.568,1.785a.89.89,0,0,1-1.151-.436c-.705-1.114-1.932-1.141-2.451-.052-.215.452.075,1.3.445,1.3a.57.57,0,0,1,.268.151,3.165,3.165,0,0,0,.848.346,3.883,3.883,0,0,1,.949.393,1.083,1.083,0,0,0,.362.2,3.508,3.508,0,0,1,1.008,1.305,2.826,2.826,0,0,1-3.382,3.5c-1.563-.474-2.7-2.248-1.739-2.707.4-.19.574-.088.979.568.615.995,1.465,1.256,2.285.7a1.418,1.418,0,0,0-.472-2.572c-2.51-.8-3.389-1.969-2.747-3.659a2.841,2.841,0,0,1,3.593-1.286m7.219.149c1.26.873,1.561,2.351.438,2.149a.783.783,0,0,1-.684-.578c-.233-.928-2.089-.922-2.351.007-.249.88.287,1.533,1.5,1.834,2.38.587,3.265,2.962,1.7,4.574A2.74,2.74,0,0,1,73.2,16.6a3.623,3.623,0,0,1-1.386-.808c-.724-.668-.96-1.588-.485-1.9.339-.222.677-.037,1.1.6.789,1.189,2.129,1.23,2.718.083a1.371,1.371,0,0,1,.239-.354c.119-.086-.178-.841-.47-1.2a2.243,2.243,0,0,0-.862-.5C71.8,11.7,71.289,11.2,71.286,9.788a2.086,2.086,0,0,1,.961-1.928,3.145,3.145,0,0,1,3.012-.093m7.8.021c3.015,1.524,1.742,5.265-1.792,5.265-1.373,0-1.364-.01-1.364,1.63,0,1.617-.43,2.218-1.084,1.516-.442-.474-.274-8.2.186-8.557a9.643,9.643,0,0,1,4.053.145m6.582.077a7.986,7.986,0,0,1,.892,1.706c.315.746.655,1.512.756,1.7a1.624,1.624,0,0,1,.184.468,4.468,4.468,0,0,0,.308.793c.17.368.388.847.487,1.065s.331.729.519,1.137c.682,1.486.405,2.167-.622,1.532a10.309,10.309,0,0,1-.988-2.008c0-.433-.624-.611-2.135-.61-1.994,0-1.8-.14-2.853,2.08-.361.76-.914.934-1.3.409-.12-.163.026-.786.3-1.281.246-.444,1.145-2.481,1.145-2.593a5.548,5.548,0,0,1,.346-.834,4.8,4.8,0,0,0,.346-.862,1.259,1.259,0,0,1,.179-.43,7.915,7.915,0,0,0,.414-.89c.662-1.663,1.341-2.127,2.024-1.381m10.192.073a2.537,2.537,0,0,1,1.479,2.528v.955l-.418.544a4.113,4.113,0,0,1-.791.785,6.143,6.143,0,0,0-.641.485l-.268.243.194.272a1.183,1.183,0,0,1,.194.353.741.741,0,0,0,.195.281,5.058,5.058,0,0,1,.991,1.237l.2.388-.231.269c-.352.409-.837.182-1.528-.715-.289-.375-.59-.761-.67-.858s-.351-.476-.6-.841-.521-.738-.6-.829c-.3-.352.044-.694.831-.824,1.705-.281,2.5-1.859,1.469-2.915a2.514,2.514,0,0,0-2.145-.58c-1.156.058-1.07-.244-1.072,3.78,0,3.943-.016,4.019-.692,3.884-.619-.124-.591.071-.591-4.165,0-5.095-.2-4.683,2.328-4.693l1.685-.007.689.423m4.9-.1c.008.012.041.777.074,1.7l.06,1.679.28.1c.224.078.3.067.368-.059.109-.194.8-1.118,1.132-1.519.136-.163.538-.662.892-1.108.9-1.133,1.372-1.38,1.836-.96.316.286-.072.892-1.962,3.058-.9,1.037-.908,1.474-.021,2.323a8.933,8.933,0,0,1,.612.791c.251.354.658.865.9,1.137.615.679.727.963.51,1.294-.242.369-.772.268-1.224-.235a30.123,30.123,0,0,1-1.942-2.46c-.575-.987-1.471-.124-1.448,1.395.019,1.278-.41,1.852-.968,1.295l-.255-.255-.029-3.681c-.034-4.245-.017-4.465.356-4.66a.767.767,0,0,1,.825.166m-65.977.193A9.167,9.167,0,0,1,38.862,9.7v1.366l.408.11a9.4,9.4,0,0,0,3.379-.129l.267-.175V9.441c0-1.751.149-2.029.928-1.733.4.154.442.568.424,4.537l-.017,3.692-.277.239c-.779.67-1.058.2-1.058-1.794v-1.6l-.293-.122a12.107,12.107,0,0,0-3.6-.013c-.139.115-.162.37-.162,1.722,0,1.816-.048,1.948-.7,1.948-.585,0-.581.027-.581-4.325,0-4.274,0-4.237.544-4.3.426-.049.517,0,.636.341m8.986-.321c.329,0,.381.58.352,3.858-.015,1.768,0,3.261.042,3.318.24.355.563.439,1.7.439,1.51,0,2.126.381,1.522.94a8.36,8.36,0,0,1-4.24.024l-.258-.223,0-4.044c0-4.4.017-4.51.546-4.368a1.683,1.683,0,0,0,.33.055M56.384,8.8A3.476,3.476,0,0,0,54.5,10.57a5.759,5.759,0,0,0,.029,2.925A5.405,5.405,0,0,0,56,15.031a1.37,1.37,0,0,1,.411.162,3.461,3.461,0,0,0,3.8-.916A3.421,3.421,0,0,0,56.384,8.8m23.738.079a4.069,4.069,0,0,0-.036,2.705c.3.369,2,.316,2.571-.08a1.468,1.468,0,0,0-.019-2.552,4.233,4.233,0,0,0-2.516-.073m8.667,1.038a1.614,1.614,0,0,0-.384.618,6.521,6.521,0,0,1-.317.774c-.455.9-.181,1.146,1.193,1.056l.754-.049.031-.374a1.194,1.194,0,0,0-.158-.692,4.8,4.8,0,0,1-.315-.664c-.37-1.009-.39-1.026-.8-.667M33.784,23.976c.246.172.19.742-.119,1.211-.1.152-.446.743-.77,1.314s-.765,1.35-.983,1.73-.5.893-.633,1.137-.435.779-.676,1.187-.508.9-.593,1.084a1.351,1.351,0,0,1-.239.4,2.3,2.3,0,0,0-.317.509c-.4.774-.958,1.8-1.274,2.313-.166.272-.4.694-.524.939s-.343.633-.491.863a2.711,2.711,0,0,0-.268.479,1.279,1.279,0,0,1-.186.323c-.1.144-.4.663-.655,1.152a9.744,9.744,0,0,1-.639,1.088,3.927,3.927,0,0,0-.39.643,9.092,9.092,0,0,1-.893,1.632,2.152,2.152,0,0,0-.3.544,2.2,2.2,0,0,1-.3.544,3.482,3.482,0,0,0-.365.593,10,10,0,0,1-.886,1.515.441.441,0,0,0,.349.714c.091,0,2.713,0,5.827,0,5.929-.008,5.921-.008,6.277.432.676.834.516.853-7.192.853-8.261,0-7.932.072-7-1.536.208-.359.511-.893.674-1.186s.471-.835.684-1.2c.567-.981.748-1.3,1.06-1.89a6.7,6.7,0,0,1,.475-.774,1.846,1.846,0,0,0,.263-.462,3.543,3.543,0,0,1,.321-.61c.139-.217.326-.529.415-.692s.3-.541.463-.84.448-.811.627-1.137a5.431,5.431,0,0,1,.389-.643,3.626,3.626,0,0,0,.315-.544,16.186,16.186,0,0,1,.975-1.73,3.253,3.253,0,0,0,.313-.544c.135-.272.4-.755.583-1.073.494-.849.937-1.624,1.278-2.24.166-.3.455-.811.643-1.137.649-1.13.889-1.562,1.12-2.016a3.932,3.932,0,0,1,.39-.633c.252-.282.426-.879.3-1.03-.085-.1-1.265-.128-5.833-.128-6.39,0-6.345,0-6.436-.608-.06-.405-.01-.554.2-.611.51-.135,13.825-.06,14.023.079m16.907.105a3.871,3.871,0,0,1,.544.915c.161.365.375.82.475,1.01a6.879,6.879,0,0,1,.349.864,1.929,1.929,0,0,0,.252.57,2.742,2.742,0,0,1,.3.693,2.744,2.744,0,0,0,.3.693,1.15,1.15,0,0,1,.2.421,25.123,25.123,0,0,0,1.045,2.419,2.511,2.511,0,0,1,.238.589,18.1,18.1,0,0,0,.9,2.108c.165.349.423.957,1.59,3.745.157.374.414.953.573,1.286a6.681,6.681,0,0,1,.356.878.689.689,0,0,0,.156.327.242.242,0,0,1,.088.188,4.835,4.835,0,0,0,.334.859c.6,1.3,1.05,2.332,1.05,2.4a9.177,9.177,0,0,0,.4.918c.8,1.694.817,1.931.112,2.064a1.3,1.3,0,0,1-1.107-.919,7.459,7.459,0,0,0-.433-1.1c-.238-.528-.6-1.361-.806-1.85-.4-.948-.577-1.359-1.212-2.769-.6-1.341-.007-1.228-6.417-1.22-6.374.008-5.83-.089-6.346,1.129-.182.43-.458,1.05-.611,1.376a7.415,7.415,0,0,0-.346.841,3.727,3.727,0,0,1-.286.643,7.709,7.709,0,0,0-.4.89,5.678,5.678,0,0,1-.363.791,1.248,1.248,0,0,0-.181.426,5.309,5.309,0,0,1-.915,1.713c-.761.407-1.3-.431-.765-1.2A2.151,2.151,0,0,0,40,45.289c.041-.136.225-.566.409-.955a4.541,4.541,0,0,0,.334-.845.383.383,0,0,1,.092-.232,5.89,5.89,0,0,0,.4-.885,7.191,7.191,0,0,1,.4-.9,2.572,2.572,0,0,0,.236-.525c.081-.229.278-.693.439-1.03a6.766,6.766,0,0,0,.359-.885c.037-.149.1-.272.137-.272a2.2,2.2,0,0,0,.3-.667,6.862,6.862,0,0,1,.413-.964,1.258,1.258,0,0,0,.18-.428,4.7,4.7,0,0,1,.346-.851A4.634,4.634,0,0,0,44.4,35a1.421,1.421,0,0,1,.2-.472,6.424,6.424,0,0,0,.41-.89,5.416,5.416,0,0,1,.339-.76,4.941,4.941,0,0,0,.324-.742,23.75,23.75,0,0,1,.936-2.22,1.457,1.457,0,0,0,.159-.391,24.33,24.33,0,0,1,.99-2.279,7.4,7.4,0,0,0,.389-1.009,1.571,1.571,0,0,1,.245-.551,2.469,2.469,0,0,0,.319-.653c.4-1.118,1.348-1.575,1.975-.948m17.834.433c.067.248.1,2.069.086,5.108l-.017,4.723.269.231.269.231H80.477l.3-.256.3-.256V24.317l.249-.249c.273-.273.546-.256.871.056.247.236.3,22.457.056,22.7a.748.748,0,0,1-.954.066l-.222-.192V36.5l-.331-.252-.331-.252H69.056l-.238.253-.237.253.032,4.668c.037,5.344.024,5.528-.409,5.737a.581.581,0,0,1-.853-.3c-.156-.342-.156-21.975,0-22.318.272-.6.989-.461,1.173.224m24.436-.428c.208.188.974,1.2,2.315,3.057.381.527.74,1.01.8,1.073a3.944,3.944,0,0,1,.3.41,15.975,15.975,0,0,0,.972,1.335,3.7,3.7,0,0,1,.321.449c.1.165.441.638.753,1.051a6.963,6.963,0,0,1,.568.815.909.909,0,0,0,.2.284c.279.308,1.449,1.9,1.592,2.168a1.871,1.871,0,0,0,.261.364,4.528,4.528,0,0,1,.383.5c.45.662.724,1.045,1.2,1.675.259.345.56.768.666.939a3.977,3.977,0,0,0,.3.423c.057.061.414.546.795,1.078.752,1.05,2.174,3,2.307,3.164.045.056.166.234.269.4a6.025,6.025,0,0,0,1.037,1.332.6.6,0,0,0,.434-.619c-.157-.5-.069-19.546.091-19.791a.6.6,0,0,1,1.036-.029c.271.542.189,22.4-.085,22.7-.677.727-1.554.057-3.279-2.5-.147-.218-.392-.561-.544-.763-.351-.465-1.615-2.208-1.8-2.488a5.265,5.265,0,0,0-.34-.435,4.739,4.739,0,0,1-.4-.562c-.112-.186-.416-.609-.674-.94a5.582,5.582,0,0,1-.47-.652,14.762,14.762,0,0,0-1.033-1.394,1.265,1.265,0,0,1-.252-.408.433.433,0,0,0-.162-.232,3.022,3.022,0,0,1-.4-.482c-.13-.191-.434-.615-.675-.941s-.6-.816-.79-1.088-.595-.828-.892-1.236-.659-.92-.8-1.137-.629-.885-1.076-1.483c-.7-.935-1.32-1.809-2.005-2.818a4.16,4.16,0,0,0-.39-.474A2.593,2.593,0,0,1,93.1,26.3c-.181-.351-.282-.365-.488-.071-.139.2-.155,1.293-.151,10.344,0,7.036-.027,10.161-.1,10.249a.762.762,0,0,1-.964.022l-.223-.2v-11c0-11.215.006-11.4.376-11.69a1.657,1.657,0,0,1,1.413.14M49.587,26.212a1.286,1.286,0,0,0-.145.41,1.886,1.886,0,0,1-.211.524,7.74,7.74,0,0,0-.4.933,4.586,4.586,0,0,1-.323.749,3.046,3.046,0,0,0-.264.648,3.053,3.053,0,0,1-.29.685,4.057,4.057,0,0,0-.336.791,5.364,5.364,0,0,1-.362.871,1.528,1.528,0,0,0-.19.428,5.46,5.46,0,0,1-.346.821,6.465,6.465,0,0,0-.349.808,4.627,4.627,0,0,1-.3.679,3.539,3.539,0,0,0-.293.714,7.368,7.368,0,0,1-.44,1.051c-.434.917-.477,1.2-.226,1.525.075.1,1.171.124,4.882.124h4.786l.158-.332c.154-.323.15-.35-.186-1.063-.189-.4-.4-.909-.47-1.127a2.924,2.924,0,0,0-.3-.643,2.138,2.138,0,0,1-.246-.494c-.069-.228-.446-1.124-1.312-3.115-.189-.435-.453-1.079-.586-1.431a5.1,5.1,0,0,0-.326-.742,3.018,3.018,0,0,1-.248-.546c-.091-.245-.267-.69-.392-.989s-.288-.743-.363-.985c-.183-.591-.694-.752-.931-.293M31.961,54.562c.179.153.081.489-.241.829-.069.073-.257.311-.417.528a5.444,5.444,0,0,1-.351.445,3.828,3.828,0,0,0-.3.4,4.218,4.218,0,0,1-.294.4c-.031.027-.321.405-.643.84s-.612.813-.643.841-.4.517-.825,1.088C27.041,61.56,26.857,61.8,26.7,61.982c-.084.092-.306.383-.494.645s-.526.711-.75,1c-.817,1.04-.813,1.072.309,2.575.272.364.694.937.939,1.273a10.22,10.22,0,0,0,.668.837.889.889,0,0,1,.223.3,3.448,3.448,0,0,0,.392.613c.215.3.627.863.915,1.262s.679.92.869,1.158.471.6.625.808.546.73.874,1.166c.747.993.837,1.2.615,1.447-.4.437-1.075.093-1.785-.9l-.775-1.088c-.136-.191-.391-.532-.567-.76s-.586-.784-.911-1.236-.636-.872-.692-.934-.28-.366-.5-.678c-.548-.786-1.268-1.771-1.337-1.831a4.321,4.321,0,0,1-.3-.4,11.018,11.018,0,0,0-.738-.954c-.3-.36-.786-.178-1.236.468-.354.508-1.137,1.524-1.518,1.969a8.185,8.185,0,0,0-.494.68l-.282.432-.015,2.517c-.016,2.808-.014,2.8-.72,2.8-.659,0-.621.628-.626-10.351,0-11.08-.057-10.316.708-10.316.694,0,.68-.147.649,6.7-.032,7.048-.054,6.956,1.237,5.073.171-.249.348-.5.394-.552.138-.163.939-1.234,1.554-2.077.318-.435.637-.859.71-.941s.347-.438.608-.791.528-.709.593-.792.249-.327.409-.544a5.512,5.512,0,0,1,.351-.443,3.832,3.832,0,0,0,.3-.4,4.626,4.626,0,0,1,.292-.4c.03-.027.316-.4.635-.829.6-.806.723-.963,1.159-1.484a3.879,3.879,0,0,0,.378-.538,2.912,2.912,0,0,1,.255-.4c.074-.091.385-.484.692-.874.7-.891,1.159-1.071,1.651-.648M64.306,54.4a2.837,2.837,0,0,1,.859.907.53.53,0,0,0,.176.253,8.157,8.157,0,0,1,.664.852c.513.729,1.054,1.464,1.293,1.757.078.1.411.563.741,1.038s.751,1.064.939,1.309.458.623.6.841a3.236,3.236,0,0,0,.333.445,1.62,1.62,0,0,1,.233.366,1.223,1.223,0,0,0,.294.4,7.65,7.65,0,0,1,.766,1.006c.349.51.755,1.088.9,1.285s.427.588.622.869a4.834,4.834,0,0,0,.5.63.387.387,0,0,1,.145.2,6.948,6.948,0,0,0,.618.914c.34.457.692.937.783,1.067s.469.649.84,1.155,1.032,1.406,1.467,2c1.343,1.84,1.25,2.44,1.239-7.992-.008-8.3,0-8.8.167-9a.692.692,0,0,1,.9-.165l.216.151v20.1l-.215.229c-.474.5-1.3.181-1.921-.756-.128-.192-.457-.638-.73-.989a4.981,4.981,0,0,1-.5-.708,7.681,7.681,0,0,0-.84-1.1,3.824,3.824,0,0,1-.353-.527,9.669,9.669,0,0,0-.614-.893l-.664-.865c-.561-.729-.884-1.178-1.289-1.79-.108-.163-.332-.475-.5-.692s-.421-.574-.567-.792-.581-.819-.965-1.335-.852-1.153-1.038-1.414-.451-.623-.587-.8-.559-.761-.939-1.291-.86-1.192-1.065-1.471c-.448-.611-.853-1.184-1.083-1.534-.094-.142-.249-.365-.346-.5a6.64,6.64,0,0,1-.376-.593.581.581,0,0,0-.582-.389l-.382-.031.047,8.832c.053,9.84.063,9.5-.293,9.731a.605.605,0,0,1-.915-.494c-.057-6.251.031-19.878.129-19.975a1.121,1.121,0,0,1,1.289-.24m45.074.1c.248.286.1.629-.611,1.439-.134.152-.464.588-.734.969s-.581.786-.692.9a8.628,8.628,0,0,0-.6.783,9.155,9.155,0,0,1-.6.794,4.057,4.057,0,0,0-.4.521c-.283.451-1.926,2.616-2.119,2.791a3.9,3.9,0,0,0-.431.544l-.558.831c-.412.616-.339,1.028.309,1.735.1.109.539.687.975,1.285s.828,1.132.871,1.187.185.255.317.445a3.7,3.7,0,0,0,.3.4,6.445,6.445,0,0,1,.4.534c.187.266.461.644.609.841s.387.531.531.745a6.522,6.522,0,0,0,.5.642,1.1,1.1,0,0,1,.235.321.454.454,0,0,0,.133.2,4.974,4.974,0,0,1,.4.526c.146.216.444.616.663.888.639.793.734,1.017.528,1.245-.425.47-1.076.145-1.786-.892-.464-.677-.975-1.37-1.123-1.522a5.94,5.94,0,0,1-.414-.53c-.146-.208-.569-.787-.94-1.288s-.851-1.161-1.069-1.467-.607-.831-.865-1.166-.7-.954-.989-1.374c-.751-1.1-.9-1.084-1.912.255-.322.427-.867,1.139-1.211,1.582-.937,1.209-.908,1.086-.908,3.848,0,2.635,0,2.644-.581,2.644-.765,0-.7.879-.7-10.33,0-11.281-.053-10.516.718-10.37.595.113.561-.264.59,6.515.031,7.352.009,7.256,1.253,5.333a14.227,14.227,0,0,1,.9-1.234c.029-.027.265-.339.523-.692.822-1.123,1.1-1.495,1.256-1.665.082-.092.259-.322.393-.511s.278-.389.321-.444.276-.366.52-.692.553-.727.687-.89c.213-.259.429-.548,1.162-1.551.092-.126.314-.422.494-.658.579-.759.809-1.068,1.462-1.96.9-1.225,1.155-1.488,1.569-1.6l.4-.107c.021-.006.121.086.223.2m-70.22.135c.074.09.106,2.97.1,9.545,0,8.67.011,9.439.165,9.7l.167.283H47.26l.361.317.361.317-.257.221c-.38.327-.734.349-5.106.314-4.714-.037-4.5.01-4.594-1-.033-.336-.047-4.876-.032-10.088l.028-9.477.214-.173a.776.776,0,0,1,.925.044m15.788.032c.226.3.185,20.111-.042,20.313a.83.83,0,0,1-1.005.032l-.206-.187V54.782l.207-.207a.8.8,0,0,1,1.046.092M88.6,54.638c.124.149.142,20.218.019,20.326a.813.813,0,0,1-.9.1l-.224-.169.009-10.079c.008-9.793.014-10.084.2-10.236a.776.776,0,0,1,.9.062m9.813,27.826c3.214.789,4.714,4.958,2.591,7.2-1.406,1.487-1.57,1.555-3.747,1.555-1.623,0-1.71-.01-2.24-.262a6.05,6.05,0,0,1-1.932-1.806,2.131,2.131,0,0,0-.231-.454,2.841,2.841,0,0,1-.284-.774,4.694,4.694,0,0,1,5.842-5.463m10.456.086c.933.455.285,1.008-1.182,1.008-1.576,0-1.781.154-1.782,1.335,0,1.351.1,1.434,1.748,1.434,1.2,0,1.485.141,1.368.674-.1.442-.295.512-1.435.512a4.2,4.2,0,0,0-1.341.143l-.343.143v1.42c0,1.739-.2,2.118-.921,1.739-.359-.189-.361-.209-.361-4.039,0-4.84-.227-4.375,2.173-4.454.9-.03,1.654-.061,1.681-.07a1.514,1.514,0,0,1,.4.154m-76.665.2a22.474,22.474,0,0,1,1.712,3.627,2.415,2.415,0,0,0,.2.494,6.61,6.61,0,0,1,.344.791c.562,1.454.937,1.5,1.433.171.178-.475.467-1.175.643-1.556s.508-1.115.738-1.631.5-1.118.6-1.335c.382-.853,1.614-1.127,1.981-.441a67.973,67.973,0,0,1-.027,7.928.7.7,0,0,1-1.011.04l-.25-.25.065-2.158a25.166,25.166,0,0,0-.007-2.542L38.55,85.5l-.385.437a2.657,2.657,0,0,0-.494.822,9.2,9.2,0,0,1-.4,1.016c-.159.347-.289.653-.289.68s-.178.426-.4.886a5.94,5.94,0,0,0-.4.97,2.121,2.121,0,0,1-.845.859,1.971,1.971,0,0,1-.9-.419c-.108-.17-1.6-3.8-2.033-4.95-.057-.152-.153-.259-.214-.239-.3.1-.354.535-.356,2.8,0,2.493-.013,2.547-.572,2.65a.609.609,0,0,1-.719-.456c-.073-2.025.038-7.577.156-7.756a1.247,1.247,0,0,1,1.5-.049m15.114.021a1.284,1.284,0,0,1,.25.474,3.766,3.766,0,0,0,.294.66,4.989,4.989,0,0,1,.346.791,3.62,3.62,0,0,0,.343.742,3.266,3.266,0,0,1,.326.742,6.291,6.291,0,0,0,.357.886,1.883,1.883,0,0,1,.206.526,3.093,3.093,0,0,0,.291.7c.967,1.865,1.1,2.294.838,2.67s-1.063.072-1.239-.462a6.333,6.333,0,0,0-.291-.707c-.1-.19-.247-.509-.339-.709-.221-.483-.28-.5-1.862-.554-1.766-.059-2.146.059-2.408.747-.1.253-.255.616-.352.806a1.707,1.707,0,0,0-.176.458c0,.225-.381.449-.8.469-.629.029-.736-.372-.316-1.186a8.093,8.093,0,0,0,.423-.969,2.466,2.466,0,0,1,.31-.631.856.856,0,0,0,.183-.374,4.485,4.485,0,0,1,.346-.852,4.075,4.075,0,0,0,.346-.885,3.248,3.248,0,0,1,.321-.8c.177-.343.448-.911.6-1.262.563-1.278.594-1.325.952-1.441a1.18,1.18,0,0,1,1.046.164M69.573,82.7c.233.2.25.253.139.43-.253.406-.473.458-1.854.442l-1.32-.016-.291.291c-.492.492-.379,2.214.159,2.42a11.409,11.409,0,0,0,1.521.061c1.559,0,1.747.079,1.626.684-.088.439-.314.5-1.783.5-1.767,0-1.813.033-1.813,1.3,0,1.336.045,1.37,1.836,1.37,1.537,0,1.823.073,1.821.467,0,.568-.014.571-2.156.571-2.065,0-2.316-.045-2.576-.46a60.222,60.222,0,0,1,.01-7.9c.3-.476,4.161-.614,4.681-.167m4.374-.168a1.238,1.238,0,0,1,.786.594l.4.595c1.094,1.646,1.45,2.169,1.508,2.212a7.413,7.413,0,0,1,.478.675c.348.527,1.248,1.831,1.378,2,.237.3.32-.474.32-3,0-2.975.012-3.03.652-3.03s.633.005.633,4.17c0,4.254-.034,4.432-.847,4.432a2.047,2.047,0,0,1-1-.672A13.212,13.212,0,0,0,77.228,89a4.619,4.619,0,0,1-.325-.512,4.156,4.156,0,0,0-.4-.594,2.092,2.092,0,0,1-.272-.389c-.077-.142-.415-.666-.751-1.164s-.625-.939-.643-.978c-.065-.144-.692-.531-.757-.467-.037.037-.073,1.357-.082,2.934-.015,2.8-.021,2.873-.232,3.1l-.216.23-.338-.2c-.462-.272-.463-.279-.4-3.662.031-1.647.058-3.3.059-3.666.005-.952.3-1.252,1.072-1.1m15.746.628c0,.192.021,1.942.041,3.887l.036,3.538-.247.293c-.3.361-.425.366-.825.03l-.313-.264.033-1.361c.046-1.906.085-1.869-1.947-1.869-2.084,0-2.023-.054-2.023,1.794,0,1.647-.043,1.766-.643,1.766-.655,0-.643.079-.643-4.174,0-4.213,0-4.231.616-4.231s.67.168.67,1.692c0,2.009-.048,1.967,2.245,1.967,1.682,0,1.74-.066,1.72-1.978-.014-1.338,0-1.4.431-1.621a.558.558,0,0,1,.849.53M24.561,82.89a4.471,4.471,0,0,1,.452.816c.114.272.295.656.4.854a1.756,1.756,0,0,1,.2.468,5.607,5.607,0,0,0,.346.847,5.791,5.791,0,0,1,.346.84,4.516,4.516,0,0,0,.279.722c.153.341.339.776.413.966a3.76,3.76,0,0,0,.3.593,2.978,2.978,0,0,1,.282.663,1.658,1.658,0,0,0,.265.561c.276.276.05.762-.418.9-.354.1-.965-.586-1.2-1.35-.3-.966-.6-1.161-1.91-1.235-2.085-.118-2.563.121-3,1.5-.312.993-1.358,1.432-1.562.655-.052-.2,0-.34.617-1.646.2-.435.494-1.1.642-1.483s.372-.914.5-1.186.309-.695.405-.94a5.979,5.979,0,0,1,.353-.742,1.26,1.26,0,0,0,.179-.427,4.988,4.988,0,0,1,.724-1.477.972.972,0,0,1,1.391.1m29.894-.107.229.215v6.845l.287.17a2.975,2.975,0,0,0,1.409.18c1.6.014,1.98.215,1.534.824-.333.456-3.734.329-4.22-.158l-.3-.3V82.979l.26-.2c.331-.261.51-.259.8.01m7.052-.021.247.19.028,3.738c.03,4.029.025,4.076-.486,4.288-.33.137-.776-.079-.782-.378a68.421,68.421,0,0,1,.17-7.855c.207-.228.51-.222.822.017m35.3.681a3.847,3.847,0,0,0-2.42,1.589c-.036.113-.1.206-.147.206-.553,0-.533,2.508.027,3.444a3.6,3.6,0,0,0,5.111.911,3.392,3.392,0,0,1,.359-.285c.954-.56,1.294-3.4.488-4.066a.412.412,0,0,1-.154-.243c0-.215-.838-.933-1.286-1.1-.245-.092-.578-.225-.742-.3a2.191,2.191,0,0,0-1.236-.16M23.742,84.83c-.27.131-.373.276-.551.771a2.9,2.9,0,0,1-.393.783c-.507.507-.06,1.027.885,1.027,1.328,0,1.543-.295.983-1.349a3.19,3.19,0,0,1-.344-.857c-.006-.43-.2-.559-.581-.376m22.734-.1a1.588,1.588,0,0,1-.225.42c-1.02,1.524-.911,2.259.337,2.262,1.088,0,1.291-.306.878-1.338-.353-.886-.991-1.75-.991-1.344" fill="#831b1b" fill-rule="evenodd"/>
      <path id="path1" d="M61.11,22.8A2.707,2.707,0,0,0,59.4,25.163c0,1.176.85,1.96,2.843,2.622,1.314.437,1.757,1.614.9,2.394a1.485,1.485,0,0,1-2.527-.458c-.456-.9-1.314-.874-1.314.039,0,1.207,1.888,2.469,3.2,2.139,3.218-.811,3.145-4.484-.108-5.423-1.719-.5-2.213-1.531-1.118-2.34a1.283,1.283,0,0,1,1.842.36c.443.857,1.425.977,1.425.175,0-1.324-1.745-2.276-3.435-1.875m8.724-.012a4.874,4.874,0,0,0-2.489,1.736,2.634,2.634,0,0,1-.326.476,4.58,4.58,0,0,0-.558,1.973c-.338,3.724,4.354,6.42,7.232,4.155,1.05-.827,1.335-1.137,1.335-1.456,0-.725-.559-.686-1.553.108a4.274,4.274,0,0,1-.771.538,1.466,1.466,0,0,0-.4.159c-1.471.785-3.667-.262-4.371-2.083-1.209-3.124,2.712-5.9,5.329-3.776q1.248,1.014,1.651.523c.338-.407-.293-1.2-1.553-1.941l-.724-.428-1.2-.028a12.233,12.233,0,0,0-1.6.044m26.508-.017a1.673,1.673,0,0,0-.643.223,5.073,5.073,0,0,1-.622.349c-2.026.948-2.86,4.342-1.546,6.3a4.783,4.783,0,0,0,8.642-1.065,4.552,4.552,0,0,0-2.064-5.239,2.353,2.353,0,0,1-.46-.243c-.225-.283-2.1-.466-3.307-.322m9.58.02a2.512,2.512,0,0,0-1.553,1.4c-.642,1.69.237,2.861,2.747,3.659a1.418,1.418,0,0,1,.472,2.572c-.82.554-1.67.292-2.285-.7-.694-1.123-1.759-.571-1.154.6,1.353,2.616,5.332,1.848,5.379-1.039.015-.9-.637-2.224-1.091-2.224a1.083,1.083,0,0,1-.362-.2,3.884,3.884,0,0,0-.949-.393,3.165,3.165,0,0,1-.848-.346.57.57,0,0,0-.268-.151c-.371,0-.661-.844-.445-1.3.519-1.089,1.746-1.062,2.451.052a.89.89,0,0,0,1.151.436c.4-.2.074-1.232-.568-1.785a2.713,2.713,0,0,0-.638-.468,5.274,5.274,0,0,0-2.04-.114m6.971,0a2.273,2.273,0,0,0-1.684,2.286c0,1.41.515,1.914,2.774,2.733a2.243,2.243,0,0,1,.862.5c.292.356.588,1.111.47,1.2a1.37,1.37,0,0,0-.239.354c-.589,1.147-1.929,1.106-2.718-.083-.425-.639-.763-.825-1.1-.6-.474.311-.239,1.231.485,1.9a3.623,3.623,0,0,0,1.386.808,2.74,2.74,0,0,0,2.664-.846c1.56-1.612.675-3.987-1.7-4.574-1.218-.3-1.753-.953-1.5-1.834.262-.929,2.119-.935,2.351-.007.212.846,1.328.818,1.328-.033,0-1.239-1.713-2.156-3.369-1.8m6.032.14c-.46.356-.628,8.082-.186,8.557.654.7,1.084.1,1.084-1.516,0-1.641-.009-1.63,1.364-1.63,3.534,0,4.807-3.741,1.792-5.265a9.642,9.642,0,0,0-4.053-.145m9.623-.006a3.652,3.652,0,0,0-1.013,1.609,7.914,7.914,0,0,1-.414.89,1.259,1.259,0,0,0-.179.43,4.8,4.8,0,0,1-.346.862,5.551,5.551,0,0,0-.346.834c0,.112-.9,2.148-1.145,2.593-.274.5-.419,1.119-.3,1.281.387.525.94.352,1.3-.409,1.054-2.22.859-2.078,2.853-2.08,1.511,0,2.135.177,2.135.61a10.309,10.309,0,0,0,.988,2.008c1.027.635,1.3-.046.622-1.532-.187-.408-.421-.92-.519-1.137s-.317-.7-.487-1.065a4.468,4.468,0,0,1-.308-.793,1.624,1.624,0,0,0-.184-.468c-.1-.19-.442-.955-.756-1.7-.785-1.861-1.194-2.276-1.9-1.934m6.928,0c-.394.19-.426.529-.426,4.581,0,4.236-.028,4.041.591,4.165.676.135.69.059.692-3.884,0-4.024-.083-3.722,1.072-3.78,3.069-.155,3.68,3,.676,3.5-.787.13-1.132.472-.831.824.078.091.348.464.6.829s.523.743.6.841.382.484.67.858c.691.9,1.176,1.124,1.528.715l.231-.269-.2-.388a5.058,5.058,0,0,0-.991-1.237.741.741,0,0,1-.195-.281,1.183,1.183,0,0,0-.194-.353l-.194-.272.268-.243a6.145,6.145,0,0,1,.641-.485,4.114,4.114,0,0,0,.791-.785l.418-.544V25.75a2.537,2.537,0,0,0-1.479-2.528l-.689-.423-1.685.007a10.151,10.151,0,0,0-1.9.112m8.355.04c-.373.2-.39.415-.356,4.66L143.5,31.3l.255.255c.558.558.988-.017.968-1.295-.023-1.518.874-2.382,1.448-1.395a30.12,30.12,0,0,0,1.942,2.46c.453.5.982.6,1.224.235.217-.331.1-.615-.51-1.294-.246-.272-.653-.784-.9-1.137a8.934,8.934,0,0,0-.612-.791c-.888-.848-.884-1.286.021-2.323,1.889-2.166,2.278-2.772,1.962-3.058-.464-.42-.936-.173-1.836.96-.354.446-.756.945-.892,1.108-.335.4-1.023,1.325-1.132,1.519-.07.125-.144.137-.368.059l-.28-.1-.06-1.679c-.033-.924-.066-1.689-.074-1.7a.767.767,0,0,0-.825-.166m-65.788.018c-.548.062-.544.025-.544,4.3,0,4.353,0,4.325.581,4.325.656,0,.7-.133.7-1.948,0-1.352.024-1.607.162-1.722a12.107,12.107,0,0,1,3.6.013l.293.122v1.6c0,1.993.278,2.464,1.058,1.794l.277-.239.017-3.692c.018-3.969-.021-4.383-.424-4.537-.779-.3-.928-.019-.928,1.733v1.431l-.267.175a9.4,9.4,0,0,1-3.379.129l-.408-.11V24.986c0-1.831-.093-2.084-.742-2.01m8.919.1c-.156.173-.171.541-.174,4.234l0,4.044.258.223a8.36,8.36,0,0,0,4.24-.024c.6-.56-.012-.94-1.522-.94-1.139,0-1.462-.084-1.7-.439-.039-.057-.058-1.551-.042-3.318.029-3.278-.024-3.855-.352-3.858a1.683,1.683,0,0,1-.33-.055.375.375,0,0,0-.373.135m11.673.932a3.96,3.96,0,0,1,1.484.858c2.251,1.935.376,6-2.684,5.822a3.354,3.354,0,0,1-1.1-.209,1.37,1.37,0,0,0-.411-.162,5.405,5.405,0,0,1-1.47-1.536,3,3,0,0,1-.191-1.481,2.925,2.925,0,0,1,1.254-2.805,4.012,4.012,0,0,1,3.117-.486m23.926.225a1.468,1.468,0,0,1,.019,2.552c-.573.4-2.272.45-2.571.08a4.069,4.069,0,0,1,.036-2.705,4.233,4.233,0,0,1,2.516.073m6.717,1.015c.061.15.167.428.237.618a4.806,4.806,0,0,0,.315.664,1.194,1.194,0,0,1,.158.692l-.031.374-.754.049c-1.375.09-1.648-.151-1.193-1.056a6.518,6.518,0,0,0,.317-.774c.228-.71.763-1.029.951-.569M59.683,39.182c-.215.057-.265.206-.2.611.091.612.046.608,6.436.608,4.567,0,5.748.026,5.833.128.125.151-.049.747-.3,1.03a3.932,3.932,0,0,0-.39.633c-.231.454-.471.886-1.12,2.016-.187.326-.477.838-.643,1.137-.342.615-.784,1.39-1.278,2.24-.185.318-.447.8-.583,1.073a3.251,3.251,0,0,1-.313.544,16.188,16.188,0,0,0-.975,1.73,3.626,3.626,0,0,1-.315.544,5.431,5.431,0,0,0-.389.643c-.179.326-.461.838-.627,1.137s-.374.677-.463.84-.276.475-.415.692a3.544,3.544,0,0,0-.321.61,1.844,1.844,0,0,1-.263.462,6.7,6.7,0,0,0-.475.774c-.312.587-.493.909-1.06,1.89-.213.369-.521.911-.684,1.2s-.467.827-.674,1.186c-.93,1.608-1.258,1.536,7,1.536,7.708,0,7.867-.019,7.192-.853-.357-.44-.348-.44-6.277-.432-3.114,0-5.736.006-5.827,0a.441.441,0,0,1-.349-.714,10,10,0,0,0,.886-1.515,3.482,3.482,0,0,1,.365-.593,2.2,2.2,0,0,0,.3-.544,2.152,2.152,0,0,1,.3-.544,9.093,9.093,0,0,0,.893-1.632,3.928,3.928,0,0,1,.39-.643,9.74,9.74,0,0,0,.639-1.088c.258-.489.552-1.008.655-1.152a1.279,1.279,0,0,0,.186-.323,2.711,2.711,0,0,1,.268-.479c.148-.23.368-.619.491-.863s.358-.667.524-.939c.316-.518.878-1.539,1.274-2.313a2.3,2.3,0,0,1,.317-.509,1.35,1.35,0,0,0,.239-.4c.085-.188.352-.676.593-1.084s.545-.942.676-1.187.416-.757.633-1.137.66-1.159.983-1.73.67-1.162.77-1.314c.309-.469.365-1.038.119-1.211-.2-.139-13.513-.214-14.023-.079m29.459.274a2.9,2.9,0,0,0-.5.858,2.469,2.469,0,0,1-.319.653,1.571,1.571,0,0,0-.245.551,7.4,7.4,0,0,1-.389,1.009,24.329,24.329,0,0,0-.99,2.279,1.457,1.457,0,0,1-.159.391,23.751,23.751,0,0,0-.936,2.22,4.943,4.943,0,0,1-.324.742,5.415,5.415,0,0,0-.339.76,6.424,6.424,0,0,1-.41.89,1.422,1.422,0,0,0-.2.472,4.632,4.632,0,0,1-.346.858,4.7,4.7,0,0,0-.346.851,1.257,1.257,0,0,1-.18.428,6.864,6.864,0,0,0-.413.964,2.2,2.2,0,0,1-.3.667c-.038,0-.1.123-.137.272a6.766,6.766,0,0,1-.359.885c-.16.337-.358.8-.439,1.03a2.573,2.573,0,0,1-.236.525,7.187,7.187,0,0,0-.4.9,5.891,5.891,0,0,1-.4.885.383.383,0,0,0-.092.232,4.54,4.54,0,0,1-.334.845c-.183.389-.367.819-.409.955a2.151,2.151,0,0,1-.246.494c-.531.769,0,1.607.765,1.2a5.309,5.309,0,0,0,.915-1.713,1.247,1.247,0,0,1,.181-.426,5.679,5.679,0,0,0,.363-.791,7.706,7.706,0,0,1,.4-.89,3.728,3.728,0,0,0,.286-.643,7.416,7.416,0,0,1,.346-.841c.154-.326.429-.945.611-1.376.516-1.218-.028-1.121,6.346-1.129,6.411-.008,5.813-.122,6.417,1.22.635,1.41.814,1.82,1.212,2.769.205.489.568,1.322.806,1.85a7.461,7.461,0,0,1,.433,1.1,1.3,1.3,0,0,0,1.107.919c.706-.132.693-.37-.112-2.063a9.177,9.177,0,0,1-.4-.918c0-.073-.448-1.1-1.05-2.4a4.836,4.836,0,0,1-.334-.859.242.242,0,0,0-.088-.188.689.689,0,0,1-.156-.327,6.682,6.682,0,0,0-.356-.878c-.159-.333-.416-.911-.573-1.286-1.167-2.788-1.425-3.4-1.59-3.745a18.1,18.1,0,0,1-.9-2.108,2.511,2.511,0,0,0-.238-.589,25.12,25.12,0,0,1-1.044-2.419,1.15,1.15,0,0,0-.2-.421,2.744,2.744,0,0,1-.3-.693,2.743,2.743,0,0,0-.3-.693,1.929,1.929,0,0,1-.252-.57,6.877,6.877,0,0,0-.349-.864c-.1-.19-.313-.645-.475-1.01-.55-1.246-1.32-1.561-2.015-.825m18.454-.219a.778.778,0,0,0-.321.338c-.156.343-.157,21.975,0,22.318a.581.581,0,0,0,.853.3c.432-.209.445-.393.409-5.737l-.032-4.668.237-.253.238-.253h11.368l.331.252.331.252v10.2l.222.192a.748.748,0,0,0,.954-.066c.245-.245.191-22.466-.056-22.7-.326-.312-.6-.329-.871-.056l-.249.249V49.58l-.3.256-.3.256H109.054l-.269-.231-.269-.231.017-4.723c.011-3.039-.02-4.86-.086-5.108-.124-.459-.513-.716-.852-.561m23.874-.006c-.369.288-.376.475-.376,11.69v11l.223.2a.762.762,0,0,0,.964-.022c.074-.089.1-3.213.1-10.249,0-9.051.011-10.145.151-10.344.206-.295.307-.28.488.071a2.593,2.593,0,0,0,.374.519,4.163,4.163,0,0,1,.39.474c.685,1.009,1.307,1.883,2.005,2.818.447.6.931,1.266,1.076,1.483s.507.729.8,1.137.7.964.892,1.236.549.761.79,1.088.545.75.675.941a3.023,3.023,0,0,0,.4.482.433.433,0,0,1,.162.232,1.266,1.266,0,0,0,.252.408,14.763,14.763,0,0,1,1.033,1.394,5.579,5.579,0,0,0,.47.652c.258.33.561.753.674.94a4.74,4.74,0,0,0,.4.562,5.257,5.257,0,0,1,.34.435c.189.279,1.453,2.023,1.8,2.488.152.2.4.545.544.763,1.725,2.56,2.6,3.229,3.279,2.5.274-.294.355-22.153.085-22.7a.6.6,0,0,0-1.036.029c-.161.245-.249,19.3-.092,19.791a.6.6,0,0,1-.434.619,6.025,6.025,0,0,1-1.037-1.332c-.1-.162-.224-.34-.269-.4-.133-.163-1.555-2.114-2.307-3.164-.381-.531-.738-1.017-.795-1.078a3.98,3.98,0,0,1-.3-.423c-.107-.171-.407-.594-.666-.939-.473-.629-.747-1.013-1.2-1.675a4.528,4.528,0,0,0-.383-.5,1.87,1.87,0,0,1-.261-.364c-.143-.268-1.312-1.86-1.592-2.168a.909.909,0,0,1-.2-.284,6.964,6.964,0,0,0-.568-.815c-.313-.413-.652-.886-.753-1.051a3.7,3.7,0,0,0-.321-.449,15.973,15.973,0,0,1-.972-1.335,3.944,3.944,0,0,0-.3-.41c-.058-.063-.417-.545-.8-1.073-1.341-1.857-2.107-2.87-2.315-3.057a1.657,1.657,0,0,0-1.413-.14M90.441,41.789c.075.243.238.686.363.985s.3.744.392.989a3.019,3.019,0,0,0,.248.546,5.1,5.1,0,0,1,.326.742c.133.352.4,1,.586,1.431.865,1.991,1.242,2.886,1.312,3.115a2.137,2.137,0,0,0,.246.494,2.925,2.925,0,0,1,.3.643c.069.218.281.725.47,1.127.336.713.34.74.186,1.063l-.158.332H89.923c-3.711,0-4.807-.028-4.882-.124-.251-.32-.208-.608.226-1.525a7.368,7.368,0,0,0,.44-1.051A3.54,3.54,0,0,1,86,49.842a4.624,4.624,0,0,0,.3-.679,6.467,6.467,0,0,1,.349-.808,5.46,5.46,0,0,0,.346-.821,1.528,1.528,0,0,1,.19-.428,5.365,5.365,0,0,0,.362-.871,4.057,4.057,0,0,1,.336-.791,3.054,3.054,0,0,0,.29-.685,3.047,3.047,0,0,1,.264-.648,4.588,4.588,0,0,0,.323-.749,7.735,7.735,0,0,1,.4-.933,1.886,1.886,0,0,0,.211-.524c0-.79.84-.881,1.076-.117M71.153,69.695c-.285.071-.483.243-.921.8-.307.39-.618.783-.692.874a2.913,2.913,0,0,0-.255.4,3.878,3.878,0,0,1-.378.538c-.436.521-.56.678-1.159,1.484-.319.429-.605.8-.635.829a4.624,4.624,0,0,0-.292.4,3.832,3.832,0,0,1-.3.4,5.511,5.511,0,0,0-.351.443c-.16.217-.344.461-.409.544s-.332.439-.593.792-.535.709-.608.791-.393.506-.71.941c-.615.843-1.416,1.913-1.554,2.077-.046.054-.223.3-.394.552-1.291,1.883-1.268,1.974-1.237-5.073.031-6.849.045-6.7-.649-6.7-.765,0-.713-.763-.708,10.316,0,10.979-.033,10.351.626,10.351.707,0,.7.01.72-2.8l.015-2.517.282-.432a8.181,8.181,0,0,1,.494-.68c.381-.445,1.165-1.462,1.518-1.969.45-.646.933-.829,1.236-.468a11.02,11.02,0,0,1,.738.954,4.322,4.322,0,0,0,.3.4c.069.059.788,1.045,1.337,1.831.218.312.442.617.5.678s.368.481.692.934.734,1.008.911,1.236.432.57.567.76l.775,1.088c.71,1,1.39,1.341,1.785.9.222-.245.132-.455-.615-1.447-.328-.435-.721-.96-.874-1.166s-.434-.57-.625-.808-.581-.759-.869-1.158-.7-.967-.915-1.262a3.447,3.447,0,0,1-.392-.613.889.889,0,0,0-.223-.3,10.216,10.216,0,0,1-.668-.837c-.244-.336-.667-.908-.939-1.273-1.122-1.5-1.126-1.535-.309-2.575.224-.285.562-.734.75-1s.411-.553.494-.645c.162-.179.346-.422,1.554-2.057.422-.571.793-1.061.825-1.088s.321-.405.644-.841.611-.813.643-.84a4.225,4.225,0,0,0,.294-.4,3.826,3.826,0,0,1,.3-.4,5.445,5.445,0,0,0,.351-.445c.16-.217.348-.455.417-.528.322-.34.42-.676.241-.829-.27-.232-.346-.247-.73-.151m32.1,0a1.887,1.887,0,0,0-.319.234c-.1.1-.186,13.724-.129,19.975a.605.605,0,0,0,.915.494c.356-.233.346.109.293-9.731l-.047-8.832.382.031a.581.581,0,0,1,.582.389,6.645,6.645,0,0,0,.376.593c.1.13.252.353.346.5.23.35.635.923,1.083,1.534.2.279.684.941,1.065,1.471s.8,1.111.939,1.291.4.542.587.8.654.9,1.038,1.414.819,1.117.965,1.335.4.574.567.792.389.529.5.692c.405.611.728,1.061,1.289,1.79l.664.865a9.672,9.672,0,0,1,.614.893,3.823,3.823,0,0,0,.353.527,7.682,7.682,0,0,1,.84,1.1,4.98,4.98,0,0,0,.5.708c.273.351.6.8.73.989.625.937,1.447,1.26,1.921.756l.215-.229v-20.1l-.216-.151a.692.692,0,0,0-.9.165c-.166.191-.175.7-.167,9,.011,10.432.1,9.832-1.239,7.992-.435-.6-1.1-1.5-1.467-2s-.75-1.025-.84-1.155-.443-.61-.783-1.067a6.947,6.947,0,0,1-.618-.914.386.386,0,0,0-.145-.2,4.835,4.835,0,0,1-.5-.63c-.194-.281-.474-.672-.622-.869s-.553-.776-.9-1.285a7.653,7.653,0,0,0-.766-1.006,1.222,1.222,0,0,1-.294-.4,1.62,1.62,0,0,0-.233-.366,3.239,3.239,0,0,1-.333-.445c-.144-.218-.416-.6-.6-.841s-.61-.834-.939-1.309-.662-.942-.741-1.038c-.238-.293-.779-1.028-1.293-1.757a8.161,8.161,0,0,0-.664-.852.53.53,0,0,1-.176-.253,2.837,2.837,0,0,0-.859-.907,1.126,1.126,0,0,0-.971.006m45.422,0c-.414.11-.673.374-1.569,1.6-.653.892-.883,1.2-1.462,1.96-.18.236-.4.532-.494.658-.733,1-.949,1.292-1.162,1.551-.134.163-.443.564-.687.89s-.478.638-.52.692-.187.254-.321.444-.31.42-.393.511c-.154.171-.434.542-1.256,1.665-.259.354-.494.665-.523.692a14.226,14.226,0,0,0-.9,1.234c-1.244,1.923-1.222,2.019-1.253-5.333-.029-6.779,0-6.4-.59-6.515-.771-.146-.718-.911-.718,10.37,0,11.21-.06,10.33.7,10.33.579,0,.581-.008.581-2.644,0-2.762-.029-2.639.908-3.848.344-.443.888-1.155,1.211-1.582,1.01-1.339,1.161-1.36,1.912-.255.286.421.731,1.039.989,1.374s.647.86.865,1.166.7.966,1.069,1.467.793,1.08.94,1.288a5.946,5.946,0,0,0,.414.53c.147.152.658.845,1.123,1.522.711,1.036,1.361,1.361,1.786.892.206-.228.111-.452-.528-1.245-.219-.272-.518-.672-.663-.888a4.969,4.969,0,0,0-.4-.526.454.454,0,0,1-.133-.2,1.1,1.1,0,0,0-.235-.321,6.518,6.518,0,0,1-.5-.642c-.144-.214-.383-.549-.531-.745s-.423-.574-.609-.841a6.442,6.442,0,0,0-.4-.534,3.707,3.707,0,0,1-.3-.4c-.132-.19-.275-.391-.317-.445s-.434-.588-.871-1.187-.875-1.177-.975-1.285c-.648-.707-.722-1.119-.31-1.735l.558-.831a3.9,3.9,0,0,1,.431-.544c.193-.175,1.836-2.34,2.119-2.791a4.054,4.054,0,0,1,.4-.521,9.15,9.15,0,0,0,.6-.794,8.629,8.629,0,0,1,.6-.783c.11-.115.422-.52.692-.9s.6-.817.734-.969a6.334,6.334,0,0,0,.8-1.167,1.365,1.365,0,0,0-.407-.475l-.4.107m-70.523.187-.214.173-.028,9.477c-.015,5.212,0,9.752.032,10.088.1,1.013-.12.965,4.594,1,4.371.035,4.725.013,5.106-.314l.257-.221-.361-.317-.361-.317H79.519l-.167-.283c-.154-.261-.167-1.03-.165-9.7,0-6.575-.03-9.455-.1-9.545a.776.776,0,0,0-.925-.044m15.667-.016-.207.207V90.109l.206.187a.83.83,0,0,0,1.005-.032c.226-.2.267-20.016.042-20.313a.8.8,0,0,0-1.046-.092m33.8,0c-.183.153-.189.443-.2,10.236l-.009,10.079.224.169a.813.813,0,0,0,.9-.1c.123-.108.1-20.178-.019-20.326a.776.776,0,0,0-.9-.062m8.239,27.9c-2.637.655-4.418,4.251-3.084,6.227a2.131,2.131,0,0,1,.231.454,6.05,6.05,0,0,0,1.932,1.806c.53.252.617.262,2.24.262,2.176,0,2.34-.068,3.747-1.555a4.4,4.4,0,0,0,.592-4.507,4.747,4.747,0,0,0-5.658-2.687m10.855-.007c-2.4.079-2.173-.385-2.173,4.454,0,3.831,0,3.85.361,4.039.72.379.921,0,.921-1.739v-1.42l.343-.143a4.2,4.2,0,0,1,1.341-.143c1.14,0,1.338-.071,1.435-.512.117-.534-.168-.674-1.368-.674-1.648,0-1.749-.082-1.748-1.434,0-1.181.206-1.335,1.782-1.335,1.127,0,1.62-.2,1.558-.628-.026-.181-.609-.584-.772-.534-.027.008-.784.04-1.681.07m-75.575.085c-.662.055-.656.016-.666,4.173,0,2.039-.007,3.763,0,3.831a.609.609,0,0,0,.719.456c.559-.1.571-.157.572-2.65,0-2.261.057-2.7.356-2.8.061-.02.157.088.214.239.432,1.145,1.925,4.779,2.033,4.95a1.971,1.971,0,0,0,.9.419,2.121,2.121,0,0,0,.845-.859,5.94,5.94,0,0,1,.4-.97c.217-.46.4-.859.4-.886s.13-.333.289-.68a9.194,9.194,0,0,0,.4-1.016,2.658,2.658,0,0,1,.494-.822l.385-.437.072.385a25.163,25.163,0,0,1,.007,2.542l-.065,2.158.25.25a.7.7,0,0,0,1.011-.04,67.974,67.974,0,0,0,.027-7.928c-.367-.686-1.6-.412-1.981.441-.1.217-.365.818-.6,1.335s-.562,1.251-.738,1.631-.465,1.081-.643,1.556c-.5,1.328-.87,1.283-1.433-.171a6.61,6.61,0,0,0-.344-.791,2.415,2.415,0,0,1-.2-.494,22.474,22.474,0,0,0-1.712-3.627,1.22,1.22,0,0,0-.986-.2m15.053.057c-.358.116-.389.162-.952,1.441-.155.351-.426.919-.6,1.262a3.248,3.248,0,0,0-.321.8,4.075,4.075,0,0,1-.346.885,4.485,4.485,0,0,0-.346.852.856.856,0,0,1-.183.374,2.466,2.466,0,0,0-.31.631,8.1,8.1,0,0,1-.423.969c-.42.815-.313,1.215.316,1.186.417-.02.8-.244.8-.469a1.708,1.708,0,0,1,.176-.458c.1-.19.255-.553.352-.806.262-.688.642-.806,2.408-.747,1.581.053,1.641.071,1.862.554.091.2.243.519.339.709a6.334,6.334,0,0,1,.291.707c.175.533.978.833,1.239.462s.129-.8-.838-2.67a3.1,3.1,0,0,1-.291-.7,1.883,1.883,0,0,0-.206-.526,6.291,6.291,0,0,1-.357-.886,3.266,3.266,0,0,0-.326-.742,3.62,3.62,0,0,1-.342-.742,4.989,4.989,0,0,0-.346-.791,3.767,3.767,0,0,1-.294-.66.943.943,0,0,0-1.3-.638m18.935-.025c-.423.206-.433.307-.443,4.223-.012,4.822-.26,4.416,2.692,4.416,2.141,0,2.152,0,2.156-.571,0-.394-.284-.467-1.821-.467-1.791,0-1.836-.034-1.836-1.37,0-1.267.046-1.3,1.813-1.3,1.469,0,1.695-.064,1.783-.5.121-.6-.066-.684-1.626-.684a11.407,11.407,0,0,1-1.521-.061c-.538-.206-.651-1.928-.159-2.42l.291-.291,1.32.016c1.382.016,1.6-.036,1.854-.442.111-.177.094-.23-.139-.43a13.205,13.205,0,0,0-4.363-.116m7.911.131c-.209.209-.243.336-.246.914,0,.37-.029,2.019-.059,3.666-.063,3.382-.062,3.389.4,3.662l.338.2.216-.23c.211-.224.216-.3.232-3.1.009-1.577.045-2.9.082-2.934.064-.064.692.323.757.467.018.039.307.479.643.978s.674,1.023.751,1.164a2.092,2.092,0,0,0,.272.389,4.154,4.154,0,0,1,.4.594,4.61,4.61,0,0,0,.325.512,13.214,13.214,0,0,1,1.018,1.5,2.047,2.047,0,0,0,1,.672c.813,0,.847-.178.847-4.432,0-4.165,0-4.171-.633-4.171s-.652.055-.652,3.03c0,2.528-.082,3.3-.32,3-.13-.164-1.03-1.468-1.378-2a7.41,7.41,0,0,0-.478-.675c-.057-.043-.414-.566-1.508-2.212l-.4-.595a1.238,1.238,0,0,0-.786-.594c-.478-.1-.568-.076-.826.182m15.723-.084c-.429.223-.445.282-.431,1.621.02,1.912-.038,1.978-1.72,1.978-2.294,0-2.245.042-2.245-1.967,0-1.524-.066-1.692-.67-1.692s-.616.018-.616,4.231c0,4.253-.012,4.174.643,4.174.6,0,.643-.119.643-1.766,0-1.847-.061-1.794,2.023-1.794,2.031,0,1.993-.037,1.947,1.869l-.033,1.361.313.264c.4.336.521.331.825-.03l.247-.293-.036-3.538c-.02-1.946-.038-3.7-.041-3.887a.558.558,0,0,0-.849-.53m-65.673.162a4.988,4.988,0,0,0-.724,1.477,1.26,1.26,0,0,1-.179.426,5.982,5.982,0,0,0-.353.742c-.1.245-.278.667-.405.94s-.352.806-.5,1.186-.437,1.048-.642,1.483c-.616,1.306-.669,1.446-.617,1.646.2.777,1.249.338,1.562-.655.435-1.382.912-1.622,3-1.5,1.312.074,1.614.269,1.91,1.235.235.765.846,1.453,1.2,1.35.467-.136.694-.622.418-.9a1.658,1.658,0,0,1-.265-.561,2.978,2.978,0,0,0-.282-.663,3.759,3.759,0,0,1-.3-.593c-.074-.19-.259-.625-.413-.966a4.515,4.515,0,0,1-.279-.722,5.792,5.792,0,0,0-.346-.84,5.608,5.608,0,0,1-.346-.847,1.756,1.756,0,0,0-.2-.468c-.108-.2-.289-.582-.4-.854-.471-1.128-1.284-1.532-1.842-.915m30.488-.017-.26.2v7.584l.3.3c.487.487,3.887.614,4.22.158.445-.609.071-.81-1.534-.824a2.975,2.975,0,0,1-1.409-.18l-.287-.17V98.283l-.229-.215c-.286-.268-.465-.271-.8-.01m7.026-.028a68.418,68.418,0,0,0-.17,7.855c.006.3.452.515.782.378.511-.211.516-.259.486-4.288l-.028-3.738-.247-.19c-.311-.239-.615-.245-.822-.017m37.36.858c.163.071.5.2.742.3.447.167,1.286.884,1.286,1.1a.412.412,0,0,0,.154.243c.806.669.466,3.506-.488,4.066a3.389,3.389,0,0,0-.359.285,3.6,3.6,0,0,1-5.111-.911c-.56-.936-.579-3.444-.027-3.444.045,0,.111-.093.147-.206a3.3,3.3,0,0,1,1.575-1.295c1.058-.4,1.412-.425,2.081-.133m-73.722,1.6a3.19,3.19,0,0,0,.344.857c.559,1.054.344,1.349-.983,1.349-.945,0-1.392-.52-.885-1.027a2.9,2.9,0,0,0,.393-.783c.338-.943,1.119-1.215,1.131-.4m22.626-.14c1.052,1.557.93,2.35-.36,2.347-1.248,0-1.357-.738-.337-2.262a1.588,1.588,0,0,0,.225-.42c0-.2.209-.054.472.335" transform="translate(-39.923 -15.284)" fill="#e0cbc9" fill-rule="evenodd"/>
    </g>
  </g>
</svg>
