<svg xmlns="http://www.w3.org/2000/svg" xmlns:xlink="http://www.w3.org/1999/xlink" width="150" height="150" viewBox="0 0 150 150">
  <defs>
    <clipPath id="clip-amalienhof_grayscale">
      <rect width="150" height="150"/>
    </clipPath>
  </defs>
  <g id="amalienhof_grayscale" clip-path="url(#clip-amalienhof_grayscale)">
    <g id="svgg" transform="translate(9.637 25.557)">
      <path id="path0" d="M0,49.443V98.885H130.726V0H0V49.443M23.016,7.508a2.517,2.517,0,0,1,1.607,1.88c0,.8-.982.682-1.425-.175a1.283,1.283,0,0,0-1.842-.36c-1.1.808-.6,1.843,1.118,2.34,3.253.939,3.326,4.612.108,5.423-1.312.33-3.2-.932-3.2-2.139,0-.912.858-.938,1.314-.039a1.485,1.485,0,0,0,2.527.458c.858-.78.416-1.958-.9-2.394q-3.783-1.256-2.571-3.678a2.726,2.726,0,0,1,3.263-1.315m10.425.4c1.26.745,1.891,1.534,1.553,1.941q-.406.49-1.651-.523c-2.617-2.126-6.538.652-5.329,3.776.7,1.822,2.9,2.868,4.371,2.083a1.466,1.466,0,0,1,.4-.159,4.274,4.274,0,0,0,.771-.538c.994-.794,1.553-.833,1.553-.108,0,.319-.285.629-1.335,1.456-2.878,2.265-7.57-.431-7.232-4.155A4.58,4.58,0,0,1,27.1,9.713a2.634,2.634,0,0,0,.326-.476c.62-1.185,2.094-1.826,4.091-1.78l1.2.028.724.428m26-.295a1.353,1.353,0,0,1,.286.187,2.352,2.352,0,0,0,.459.243,4.552,4.552,0,0,1,2.064,5.239,4.783,4.783,0,0,1-8.642,1.065C52.295,12.4,53.129,9,55.155,8.056a5.074,5.074,0,0,0,.622-.349,7.857,7.857,0,0,1,3.664-.089m8.6,0a2.713,2.713,0,0,1,.638.468c.642.553.968,1.58.568,1.785a.89.89,0,0,1-1.151-.436c-.705-1.114-1.932-1.141-2.451-.052-.215.452.075,1.3.445,1.3a.57.57,0,0,1,.268.151,3.165,3.165,0,0,0,.848.346,3.883,3.883,0,0,1,.949.393,1.083,1.083,0,0,0,.362.2,3.508,3.508,0,0,1,1.008,1.305,2.826,2.826,0,0,1-3.382,3.5c-1.563-.474-2.7-2.248-1.739-2.707.4-.19.574-.088.979.568.615.995,1.465,1.256,2.285.7a1.418,1.418,0,0,0-.472-2.572c-2.51-.8-3.389-1.969-2.747-3.659a2.841,2.841,0,0,1,3.593-1.286m7.219.149c1.26.873,1.561,2.351.438,2.149a.783.783,0,0,1-.684-.578c-.233-.928-2.089-.922-2.351.007-.249.88.287,1.533,1.5,1.834,2.38.587,3.265,2.962,1.7,4.574A2.74,2.74,0,0,1,73.2,16.6a3.623,3.623,0,0,1-1.386-.808c-.724-.668-.96-1.588-.485-1.9.339-.222.677-.037,1.1.6.789,1.189,2.129,1.23,2.718.083a1.371,1.371,0,0,1,.239-.354c.119-.086-.178-.841-.47-1.2a2.243,2.243,0,0,0-.862-.5C71.8,11.7,71.289,11.2,71.285,9.788a2.086,2.086,0,0,1,.961-1.928,3.145,3.145,0,0,1,3.012-.093m7.8.021c3.015,1.524,1.742,5.265-1.792,5.265-1.373,0-1.364-.01-1.364,1.63,0,1.617-.43,2.218-1.084,1.516-.442-.474-.274-8.2.186-8.557a9.643,9.643,0,0,1,4.053.145m6.582.077a7.986,7.986,0,0,1,.892,1.706c.315.746.655,1.512.756,1.7a1.624,1.624,0,0,1,.184.468,4.468,4.468,0,0,0,.308.793c.17.368.388.847.487,1.065s.331.729.519,1.137c.682,1.486.405,2.167-.622,1.532a10.309,10.309,0,0,1-.988-2.008c0-.433-.624-.611-2.135-.61-1.994,0-1.8-.14-2.853,2.08-.361.76-.914.934-1.3.409-.12-.163.026-.786.3-1.281.246-.444,1.145-2.481,1.145-2.593a5.548,5.548,0,0,1,.346-.834,4.8,4.8,0,0,0,.346-.862,1.259,1.259,0,0,1,.179-.43,7.915,7.915,0,0,0,.414-.89c.662-1.663,1.341-2.127,2.024-1.381m10.192.073a2.537,2.537,0,0,1,1.479,2.528v.955l-.418.544a4.113,4.113,0,0,1-.791.785,6.143,6.143,0,0,0-.641.485l-.268.243.194.272a1.183,1.183,0,0,1,.194.353.741.741,0,0,0,.195.281,5.058,5.058,0,0,1,.991,1.237l.2.388-.231.269c-.352.409-.837.182-1.528-.715-.289-.375-.59-.761-.67-.858s-.351-.476-.6-.841-.521-.738-.6-.829c-.3-.352.044-.694.831-.824,1.705-.281,2.5-1.859,1.469-2.915a2.514,2.514,0,0,0-2.145-.58c-1.156.058-1.07-.244-1.072,3.78,0,3.943-.016,4.019-.692,3.884-.619-.124-.591.071-.591-4.165,0-5.095-.2-4.683,2.328-4.693l1.685-.007.689.423m4.9-.1c.008.012.041.777.074,1.7l.06,1.679.28.1c.224.078.3.067.368-.059.109-.194.8-1.118,1.132-1.519.136-.163.538-.662.892-1.108.9-1.133,1.372-1.38,1.836-.96.316.286-.072.892-1.962,3.058-.9,1.037-.908,1.474-.021,2.323a8.932,8.932,0,0,1,.612.791c.251.354.658.865.9,1.137.615.679.727.963.51,1.294-.242.369-.772.268-1.224-.235a30.121,30.121,0,0,1-1.942-2.46c-.575-.987-1.471-.124-1.448,1.395.019,1.278-.41,1.852-.968,1.295l-.255-.255-.029-3.681c-.034-4.245-.017-4.465.356-4.66a.767.767,0,0,1,.825.166m-65.977.193A9.168,9.168,0,0,1,38.862,9.7v1.366l.408.11a9.4,9.4,0,0,0,3.379-.129l.267-.175V9.441c0-1.751.149-2.029.928-1.733.4.154.442.568.424,4.537l-.017,3.692-.277.239c-.779.67-1.058.2-1.058-1.794v-1.6l-.293-.122a12.107,12.107,0,0,0-3.6-.013c-.139.115-.162.37-.162,1.722,0,1.816-.048,1.948-.7,1.948-.585,0-.581.027-.581-4.325,0-4.274,0-4.237.544-4.3.426-.049.517,0,.636.341m8.986-.321c.329,0,.381.58.352,3.858-.015,1.768,0,3.261.042,3.318.24.355.563.439,1.7.439,1.51,0,2.126.381,1.522.94a8.36,8.36,0,0,1-4.24.024l-.258-.223,0-4.044c0-4.4.017-4.51.546-4.368a1.683,1.683,0,0,0,.33.055M56.384,8.8A3.476,3.476,0,0,0,54.5,10.57a5.759,5.759,0,0,0,.029,2.925A5.406,5.406,0,0,0,56,15.031a1.37,1.37,0,0,1,.411.162,3.461,3.461,0,0,0,3.8-.916A3.421,3.421,0,0,0,56.384,8.8m23.738.079a4.069,4.069,0,0,0-.036,2.705c.3.369,2,.316,2.571-.08a1.468,1.468,0,0,0-.019-2.552,4.233,4.233,0,0,0-2.516-.073m8.667,1.038a1.614,1.614,0,0,0-.384.618,6.521,6.521,0,0,1-.317.774c-.455.9-.181,1.146,1.193,1.056l.754-.049.031-.374a1.194,1.194,0,0,0-.158-.692,4.8,4.8,0,0,1-.315-.664c-.37-1.009-.39-1.026-.8-.667M33.784,23.976c.246.172.19.742-.119,1.211-.1.152-.446.743-.77,1.314s-.765,1.35-.983,1.73-.5.893-.633,1.137-.435.779-.676,1.187-.508.9-.593,1.084a1.351,1.351,0,0,1-.239.4,2.3,2.3,0,0,0-.317.509c-.4.774-.958,1.8-1.274,2.313-.166.272-.4.694-.524.939s-.343.633-.491.863a2.711,2.711,0,0,0-.268.479,1.279,1.279,0,0,1-.186.323c-.1.144-.4.663-.655,1.152a9.744,9.744,0,0,1-.639,1.088,3.927,3.927,0,0,0-.39.643,9.092,9.092,0,0,1-.893,1.632,2.152,2.152,0,0,0-.3.544,2.2,2.2,0,0,1-.3.544,3.482,3.482,0,0,0-.365.593,10,10,0,0,1-.886,1.515.441.441,0,0,0,.349.714c.091,0,2.713,0,5.827,0,5.929-.008,5.921-.009,6.277.432.676.834.516.853-7.192.853-8.261,0-7.932.072-7-1.536.208-.359.511-.893.674-1.186s.471-.835.684-1.2c.567-.981.748-1.3,1.06-1.89a6.7,6.7,0,0,1,.475-.774,1.846,1.846,0,0,0,.263-.462,3.543,3.543,0,0,1,.321-.61c.139-.217.326-.529.415-.692s.3-.541.463-.84.448-.811.627-1.137a5.431,5.431,0,0,1,.389-.643,3.626,3.626,0,0,0,.315-.544,16.185,16.185,0,0,1,.975-1.73,3.253,3.253,0,0,0,.313-.544c.135-.272.4-.755.583-1.073.494-.849.937-1.624,1.278-2.24.166-.3.455-.811.643-1.137.649-1.13.889-1.562,1.12-2.016a3.932,3.932,0,0,1,.39-.633c.252-.282.426-.879.3-1.03-.085-.1-1.265-.128-5.833-.128-6.39,0-6.345,0-6.436-.608-.06-.405-.01-.554.2-.611.51-.135,13.825-.06,14.023.079m16.907.105a3.871,3.871,0,0,1,.544.915c.161.365.375.82.475,1.01a6.878,6.878,0,0,1,.349.864,1.929,1.929,0,0,0,.252.57,2.742,2.742,0,0,1,.3.693,2.744,2.744,0,0,0,.3.693,1.15,1.15,0,0,1,.2.421,25.124,25.124,0,0,0,1.044,2.419,2.511,2.511,0,0,1,.238.589,18.1,18.1,0,0,0,.9,2.108c.165.349.423.957,1.59,3.745.157.374.414.953.573,1.286a6.681,6.681,0,0,1,.356.878.689.689,0,0,0,.156.327.242.242,0,0,1,.088.188,4.834,4.834,0,0,0,.334.859c.6,1.3,1.05,2.332,1.05,2.4a9.178,9.178,0,0,0,.4.918c.8,1.694.817,1.931.112,2.064a1.3,1.3,0,0,1-1.107-.919,7.459,7.459,0,0,0-.433-1.1c-.238-.528-.6-1.361-.806-1.85-.4-.948-.577-1.359-1.212-2.769-.6-1.341-.007-1.228-6.417-1.22-6.374.008-5.83-.089-6.346,1.129-.182.43-.458,1.05-.611,1.376a7.414,7.414,0,0,0-.346.841,3.727,3.727,0,0,1-.286.643,7.709,7.709,0,0,0-.4.89,5.679,5.679,0,0,1-.363.791,1.248,1.248,0,0,0-.181.426,5.309,5.309,0,0,1-.915,1.713c-.761.407-1.3-.431-.765-1.2A2.15,2.15,0,0,0,40,45.289c.041-.136.225-.566.409-.955a4.541,4.541,0,0,0,.334-.845.383.383,0,0,1,.092-.232,5.89,5.89,0,0,0,.4-.885,7.19,7.19,0,0,1,.4-.9,2.572,2.572,0,0,0,.236-.525c.081-.229.278-.693.439-1.03a6.766,6.766,0,0,0,.359-.885c.037-.149.1-.272.137-.272a2.2,2.2,0,0,0,.3-.667,6.862,6.862,0,0,1,.413-.964,1.258,1.258,0,0,0,.18-.428,4.7,4.7,0,0,1,.346-.851A4.634,4.634,0,0,0,44.4,35a1.421,1.421,0,0,1,.2-.472,6.423,6.423,0,0,0,.41-.89,5.416,5.416,0,0,1,.339-.76,4.942,4.942,0,0,0,.324-.742,23.749,23.749,0,0,1,.936-2.22,1.457,1.457,0,0,0,.159-.391,24.33,24.33,0,0,1,.99-2.279,7.4,7.4,0,0,0,.389-1.009,1.571,1.571,0,0,1,.245-.551,2.469,2.469,0,0,0,.319-.653c.4-1.118,1.348-1.575,1.975-.948m17.834.433c.067.248.1,2.069.086,5.108l-.017,4.723.269.231.269.231H80.477l.3-.256.3-.256V24.317l.249-.249c.273-.273.546-.256.871.056.247.236.3,22.457.056,22.7a.748.748,0,0,1-.954.066l-.222-.192V36.5l-.331-.252-.331-.252H69.056l-.238.253-.237.253.032,4.668c.037,5.344.024,5.528-.409,5.737a.581.581,0,0,1-.853-.3c-.156-.343-.156-21.975,0-22.318.272-.6.989-.461,1.173.224m24.436-.428c.208.188.974,1.2,2.315,3.057.381.527.74,1.01.8,1.073a3.944,3.944,0,0,1,.3.41,15.975,15.975,0,0,0,.972,1.335,3.7,3.7,0,0,1,.321.449c.1.165.441.638.753,1.051a6.963,6.963,0,0,1,.568.815.909.909,0,0,0,.2.284c.279.308,1.449,1.9,1.592,2.168a1.871,1.871,0,0,0,.261.364,4.529,4.529,0,0,1,.383.5c.45.662.724,1.045,1.2,1.675.259.345.56.768.666.939a3.974,3.974,0,0,0,.3.423c.057.061.414.546.795,1.078.752,1.05,2.174,3,2.307,3.164.045.056.166.234.269.4a6.025,6.025,0,0,0,1.037,1.332.6.6,0,0,0,.434-.619c-.157-.5-.069-19.546.091-19.791a.6.6,0,0,1,1.036-.029c.271.542.189,22.4-.085,22.7-.677.727-1.554.057-3.279-2.5-.147-.218-.392-.561-.544-.763-.351-.465-1.615-2.208-1.8-2.488a5.262,5.262,0,0,0-.34-.435,4.738,4.738,0,0,1-.4-.562c-.112-.186-.416-.609-.674-.94a5.583,5.583,0,0,1-.47-.652,14.762,14.762,0,0,0-1.033-1.394,1.265,1.265,0,0,1-.252-.408.433.433,0,0,0-.162-.232,3.021,3.021,0,0,1-.4-.482c-.13-.191-.434-.615-.675-.941s-.6-.816-.79-1.088-.595-.828-.892-1.236-.659-.92-.8-1.137-.629-.885-1.076-1.483c-.7-.935-1.32-1.809-2.005-2.818a4.16,4.16,0,0,0-.39-.474A2.593,2.593,0,0,1,93.1,26.3c-.181-.351-.282-.365-.488-.071-.139.2-.155,1.293-.151,10.344,0,7.036-.027,10.161-.1,10.249a.762.762,0,0,1-.964.022l-.223-.2v-11c0-11.215.006-11.4.376-11.69a1.657,1.657,0,0,1,1.413.14M49.587,26.212a1.286,1.286,0,0,0-.145.41,1.886,1.886,0,0,1-.211.524,7.74,7.74,0,0,0-.4.933,4.586,4.586,0,0,1-.323.749,3.046,3.046,0,0,0-.264.648,3.053,3.053,0,0,1-.29.685,4.057,4.057,0,0,0-.336.791,5.364,5.364,0,0,1-.362.871,1.528,1.528,0,0,0-.19.428,5.46,5.46,0,0,1-.346.821,6.464,6.464,0,0,0-.349.808,4.627,4.627,0,0,1-.3.679,3.539,3.539,0,0,0-.293.714,7.368,7.368,0,0,1-.44,1.051c-.434.917-.477,1.2-.226,1.525.075.1,1.171.124,4.882.124h4.786l.158-.332c.154-.323.15-.35-.186-1.063-.189-.4-.4-.909-.47-1.127a2.924,2.924,0,0,0-.3-.643,2.138,2.138,0,0,1-.246-.494c-.069-.228-.446-1.124-1.312-3.115-.189-.435-.453-1.079-.586-1.431a5.1,5.1,0,0,0-.326-.742,3.018,3.018,0,0,1-.248-.546c-.091-.245-.267-.69-.392-.989s-.288-.743-.363-.985c-.183-.591-.694-.752-.931-.293M31.961,54.562c.179.153.081.489-.241.829-.069.073-.257.311-.417.528a5.442,5.442,0,0,1-.351.445,3.829,3.829,0,0,0-.3.4,4.218,4.218,0,0,1-.294.4c-.031.027-.321.405-.643.84s-.612.813-.643.841-.4.517-.825,1.088c-1.208,1.635-1.392,1.879-1.554,2.057-.084.092-.306.383-.494.645s-.526.711-.75,1c-.817,1.04-.813,1.072.309,2.575.272.364.694.937.939,1.273a10.221,10.221,0,0,0,.668.837.889.889,0,0,1,.223.3,3.448,3.448,0,0,0,.392.613c.215.3.627.863.915,1.262s.679.92.869,1.158.471.6.625.808.546.73.874,1.166c.747.993.837,1.2.615,1.447-.4.437-1.075.093-1.785-.9l-.775-1.088c-.136-.191-.391-.532-.567-.76s-.586-.784-.911-1.236-.636-.872-.692-.934-.28-.366-.5-.678c-.548-.786-1.268-1.771-1.337-1.831a4.321,4.321,0,0,1-.3-.4,11.018,11.018,0,0,0-.738-.954c-.3-.36-.786-.178-1.236.468-.354.508-1.137,1.524-1.518,1.969a8.185,8.185,0,0,0-.494.68l-.282.432-.015,2.517c-.016,2.808-.014,2.8-.72,2.8-.659,0-.621.628-.626-10.351,0-11.08-.057-10.316.708-10.316.694,0,.68-.147.649,6.7-.032,7.048-.054,6.956,1.237,5.073.171-.249.348-.5.394-.552.138-.163.939-1.234,1.554-2.077.318-.435.637-.859.71-.941s.347-.438.608-.791.528-.709.593-.792.249-.327.409-.544a5.513,5.513,0,0,1,.351-.443,3.831,3.831,0,0,0,.3-.4,4.626,4.626,0,0,1,.292-.4c.03-.027.316-.4.635-.829.6-.806.723-.963,1.159-1.484a3.878,3.878,0,0,0,.378-.538,2.912,2.912,0,0,1,.255-.4c.074-.091.385-.484.692-.874.7-.891,1.159-1.071,1.651-.648M64.306,54.4a2.837,2.837,0,0,1,.859.907.53.53,0,0,0,.176.253,8.157,8.157,0,0,1,.664.852c.513.729,1.054,1.464,1.293,1.757.078.1.411.563.741,1.038s.751,1.064.939,1.309.458.623.6.841a3.235,3.235,0,0,0,.333.445,1.62,1.62,0,0,1,.233.366,1.223,1.223,0,0,0,.294.4,7.65,7.65,0,0,1,.766,1.006c.349.51.755,1.088.9,1.285s.427.588.622.869a4.833,4.833,0,0,0,.5.63.387.387,0,0,1,.145.2,6.949,6.949,0,0,0,.618.914c.34.457.692.937.783,1.067s.469.649.84,1.155,1.032,1.406,1.467,2c1.343,1.84,1.25,2.44,1.239-7.992-.009-8.3,0-8.8.167-9a.692.692,0,0,1,.9-.165l.216.151v20.1l-.215.229c-.474.5-1.3.181-1.921-.756-.128-.192-.457-.638-.73-.989a4.98,4.98,0,0,1-.5-.708,7.682,7.682,0,0,0-.84-1.1,3.824,3.824,0,0,1-.353-.527,9.672,9.672,0,0,0-.614-.893l-.664-.865c-.561-.729-.884-1.178-1.289-1.79-.108-.163-.332-.475-.5-.692s-.421-.574-.567-.792-.581-.819-.965-1.335-.852-1.153-1.038-1.414-.451-.623-.587-.8-.559-.761-.939-1.291-.86-1.192-1.065-1.471c-.448-.611-.853-1.184-1.083-1.534-.094-.142-.249-.365-.346-.5a6.64,6.64,0,0,1-.376-.593.581.581,0,0,0-.582-.389l-.382-.031.047,8.832c.053,9.84.063,9.5-.293,9.731a.605.605,0,0,1-.915-.494c-.057-6.251.031-19.878.129-19.975a1.121,1.121,0,0,1,1.289-.24m45.074.1c.248.286.1.629-.611,1.439-.134.152-.464.588-.734.969s-.581.786-.692.9a8.627,8.627,0,0,0-.6.783,9.155,9.155,0,0,1-.6.794,4.056,4.056,0,0,0-.4.521c-.283.451-1.926,2.616-2.119,2.791a3.9,3.9,0,0,0-.431.544l-.558.831c-.412.616-.339,1.028.309,1.735.1.109.539.687.975,1.285s.828,1.132.871,1.187.185.255.317.445a3.7,3.7,0,0,0,.3.4,6.444,6.444,0,0,1,.4.534c.187.266.461.644.609.841s.387.531.531.745a6.524,6.524,0,0,0,.5.642,1.1,1.1,0,0,1,.235.321.454.454,0,0,0,.133.2,4.972,4.972,0,0,1,.4.526c.146.216.444.616.663.888.639.793.734,1.017.528,1.245-.425.47-1.076.145-1.786-.892-.464-.677-.975-1.37-1.123-1.522a5.938,5.938,0,0,1-.414-.53c-.146-.208-.569-.787-.94-1.288s-.851-1.161-1.069-1.467-.607-.831-.865-1.166-.7-.954-.989-1.374c-.751-1.1-.9-1.084-1.912.255-.322.427-.867,1.139-1.211,1.582-.937,1.209-.908,1.086-.908,3.848,0,2.635,0,2.644-.581,2.644-.765,0-.7.879-.7-10.33,0-11.281-.053-10.516.718-10.37.595.113.561-.264.59,6.515.031,7.352.009,7.256,1.253,5.333a14.229,14.229,0,0,1,.9-1.234c.029-.027.265-.339.523-.692.822-1.123,1.1-1.495,1.256-1.665.082-.092.259-.322.393-.511s.278-.389.321-.444.276-.366.52-.692.553-.727.687-.89c.213-.259.429-.548,1.162-1.551.092-.126.314-.422.494-.658.579-.759.809-1.068,1.462-1.96.9-1.225,1.155-1.488,1.569-1.6l.4-.107c.021-.006.121.086.223.2m-70.22.135c.074.09.106,2.97.1,9.545,0,8.67.011,9.439.165,9.7l.167.283H47.26l.361.317.361.317-.257.221c-.38.327-.734.349-5.106.314-4.714-.037-4.5.01-4.594-1-.033-.336-.047-4.876-.032-10.088l.028-9.477.214-.173a.776.776,0,0,1,.925.044m15.788.032c.226.3.185,20.111-.042,20.313a.83.83,0,0,1-1.005.032l-.206-.187V54.782l.207-.207a.8.8,0,0,1,1.046.092M88.6,54.638c.124.149.142,20.218.019,20.326a.813.813,0,0,1-.9.1l-.224-.169L87.5,64.812c.008-9.793.014-10.084.2-10.236a.776.776,0,0,1,.9.062m9.813,27.826c3.214.789,4.714,4.958,2.591,7.2-1.406,1.487-1.57,1.555-3.747,1.555-1.623,0-1.71-.01-2.24-.262a6.05,6.05,0,0,1-1.932-1.806,2.131,2.131,0,0,0-.231-.454,2.841,2.841,0,0,1-.284-.774,4.694,4.694,0,0,1,5.842-5.463m10.456.086c.933.455.285,1.008-1.182,1.008-1.576,0-1.781.154-1.782,1.335,0,1.351.1,1.434,1.748,1.434,1.2,0,1.485.141,1.368.674-.1.442-.295.512-1.435.512a4.2,4.2,0,0,0-1.341.143l-.343.143v1.42c0,1.739-.2,2.118-.921,1.739-.359-.189-.361-.209-.361-4.039,0-4.84-.227-4.375,2.173-4.454.9-.03,1.654-.061,1.681-.07a1.515,1.515,0,0,1,.4.154m-76.665.2a22.474,22.474,0,0,1,1.712,3.627,2.415,2.415,0,0,0,.2.494,6.61,6.61,0,0,1,.344.791c.562,1.454.937,1.5,1.433.171.178-.475.467-1.175.643-1.556s.508-1.115.738-1.631.5-1.118.6-1.335c.382-.853,1.614-1.127,1.981-.441a67.974,67.974,0,0,1-.027,7.928.7.7,0,0,1-1.011.04l-.25-.25.065-2.158a25.167,25.167,0,0,0-.007-2.542L38.55,85.5l-.385.437a2.657,2.657,0,0,0-.494.822,9.2,9.2,0,0,1-.4,1.016c-.159.347-.289.653-.289.68s-.178.426-.4.886a5.939,5.939,0,0,0-.4.97,2.121,2.121,0,0,1-.845.859,1.971,1.971,0,0,1-.9-.419c-.108-.17-1.6-3.8-2.033-4.95-.057-.152-.153-.259-.214-.239-.3.1-.354.535-.356,2.8,0,2.493-.013,2.547-.572,2.65a.609.609,0,0,1-.719-.456c-.073-2.025.038-7.577.156-7.756a1.247,1.247,0,0,1,1.5-.049m15.114.021a1.284,1.284,0,0,1,.25.474,3.766,3.766,0,0,0,.294.66,4.989,4.989,0,0,1,.346.791,3.62,3.62,0,0,0,.343.742,3.266,3.266,0,0,1,.326.742,6.291,6.291,0,0,0,.357.886,1.883,1.883,0,0,1,.206.526,3.093,3.093,0,0,0,.291.7c.967,1.865,1.1,2.294.838,2.67s-1.063.072-1.239-.462a6.334,6.334,0,0,0-.291-.707c-.1-.19-.247-.509-.339-.709-.221-.483-.28-.5-1.862-.554-1.766-.059-2.146.059-2.408.747-.1.253-.255.616-.352.806a1.707,1.707,0,0,0-.176.458c0,.225-.381.449-.8.469-.629.029-.736-.372-.316-1.186a8.093,8.093,0,0,0,.423-.969,2.466,2.466,0,0,1,.31-.631.856.856,0,0,0,.183-.374,4.485,4.485,0,0,1,.346-.852,4.075,4.075,0,0,0,.346-.885,3.248,3.248,0,0,1,.321-.8c.177-.343.448-.911.6-1.262.563-1.278.594-1.325.952-1.441a1.18,1.18,0,0,1,1.046.164M69.573,82.7c.233.2.25.253.139.43-.253.406-.473.458-1.854.442l-1.32-.016-.291.291c-.492.492-.379,2.214.159,2.42a11.411,11.411,0,0,0,1.521.061c1.559,0,1.747.079,1.626.684-.088.439-.314.5-1.783.5-1.767,0-1.813.033-1.813,1.3,0,1.336.045,1.37,1.836,1.37,1.537,0,1.823.073,1.821.467,0,.568-.014.571-2.156.571-2.065,0-2.316-.045-2.576-.46a60.221,60.221,0,0,1,.01-7.9c.3-.476,4.161-.614,4.681-.167m4.374-.168a1.238,1.238,0,0,1,.786.594l.4.595c1.094,1.646,1.45,2.169,1.508,2.212a7.414,7.414,0,0,1,.478.675c.348.527,1.248,1.831,1.378,2,.237.3.32-.474.32-3,0-2.975.012-3.03.652-3.03s.633.005.633,4.17c0,4.254-.034,4.432-.847,4.432a2.047,2.047,0,0,1-1-.672A13.213,13.213,0,0,0,77.228,89a4.616,4.616,0,0,1-.325-.512,4.156,4.156,0,0,0-.4-.594,2.091,2.091,0,0,1-.272-.389c-.077-.142-.415-.666-.751-1.164s-.625-.939-.643-.978c-.065-.144-.692-.531-.757-.467-.037.037-.073,1.357-.082,2.934-.015,2.8-.021,2.873-.232,3.1l-.216.23-.338-.2c-.462-.272-.463-.279-.4-3.662.031-1.647.058-3.3.059-3.666.005-.952.3-1.252,1.072-1.1m15.746.628c0,.192.021,1.942.041,3.887l.036,3.538-.247.293c-.3.361-.425.366-.825.03l-.313-.264.033-1.361c.046-1.906.085-1.869-1.947-1.869-2.084,0-2.023-.054-2.023,1.794,0,1.647-.043,1.766-.643,1.766-.655,0-.643.079-.643-4.174,0-4.213,0-4.231.616-4.231s.67.168.67,1.692c0,2.009-.048,1.967,2.245,1.967,1.682,0,1.74-.066,1.72-1.978-.014-1.338,0-1.4.431-1.621a.558.558,0,0,1,.849.53M24.561,82.89a4.471,4.471,0,0,1,.452.816c.114.272.295.656.4.854a1.756,1.756,0,0,1,.2.468,5.607,5.607,0,0,0,.346.847,5.791,5.791,0,0,1,.346.84,4.516,4.516,0,0,0,.279.722c.153.341.339.776.413.966a3.76,3.76,0,0,0,.3.593,2.978,2.978,0,0,1,.282.663,1.658,1.658,0,0,0,.265.561c.276.276.05.762-.418.9-.354.1-.965-.586-1.2-1.35-.3-.966-.6-1.161-1.91-1.235-2.085-.118-2.563.121-3,1.5-.312.993-1.358,1.432-1.562.655-.052-.2,0-.34.617-1.646.2-.435.494-1.1.642-1.483s.372-.914.5-1.186.309-.695.405-.94a5.98,5.98,0,0,1,.353-.742,1.26,1.26,0,0,0,.179-.427,4.988,4.988,0,0,1,.724-1.477.972.972,0,0,1,1.391.1m29.894-.107.229.215v6.845l.287.17a2.975,2.975,0,0,0,1.409.18c1.6.014,1.98.215,1.534.824-.333.456-3.734.329-4.22-.158l-.3-.3V82.979l.26-.2c.331-.261.51-.259.8.01m7.052-.021.247.19.028,3.738c.03,4.029.025,4.076-.486,4.288-.33.137-.776-.079-.782-.378a68.423,68.423,0,0,1,.17-7.855c.207-.228.51-.222.822.017m35.3.681a3.847,3.847,0,0,0-2.42,1.589c-.036.113-.1.206-.147.206-.553,0-.533,2.508.027,3.444a3.6,3.6,0,0,0,5.111.911,3.392,3.392,0,0,1,.359-.285c.954-.56,1.294-3.4.488-4.066a.413.413,0,0,1-.154-.243c0-.215-.838-.933-1.286-1.1-.245-.092-.578-.225-.742-.3a2.192,2.192,0,0,0-1.236-.16M23.742,84.83c-.27.131-.373.276-.551.771a2.9,2.9,0,0,1-.393.783c-.507.507-.06,1.027.885,1.027,1.328,0,1.543-.295.983-1.349a3.19,3.19,0,0,1-.344-.857c-.006-.43-.2-.559-.581-.376m22.734-.1a1.588,1.588,0,0,1-.225.42c-1.02,1.524-.911,2.259.337,2.262,1.088,0,1.291-.306.878-1.338-.353-.886-.991-1.75-.991-1.344" fill="#8e8e8e" fill-rule="evenodd"/>
    </g>
  </g>
</svg>
