<svg xmlns="http://www.w3.org/2000/svg" xmlns:xlink="http://www.w3.org/1999/xlink" width="150" height="150" viewBox="0 0 150 150">
  <defs>
    <clipPath id="clip-amann-girrbach_grayscale">
      <rect width="150" height="150"/>
    </clipPath>
  </defs>
  <g id="amann-girrbach_grayscale" clip-path="url(#clip-amann-girrbach_grayscale)">
    <g id="amann_girrbach" data-name="amann girrbach" transform="translate(1.667 57.02)">
      <path id="Path_2" data-name="Path 2" d="M0,21.4v3.558a9.1,9.1,0,0,1,14.549,0V21.4a11.135,11.135,0,0,0-7.27-2.632A11.078,11.078,0,0,0,0,21.4Zm0-5.1v2.825a16.453,16.453,0,0,1,14.549,0V16.3A19.09,19.09,0,0,0,0,16.3ZM7.279,11A38.056,38.056,0,0,0,0,11.7V14.33a35.538,35.538,0,0,1,14.549,0V11.7a38.034,38.034,0,0,0-7.27-.7Z" fill="#838487"/>
      <path id="Path_3" data-name="Path 3" d="M57.647,25.565,56.918,23.4H53.531l-.728,2.15H50.82L54.365,15.9h1.8l3.51,9.652Zm-1.961-5.734c-.184-.566-.369-1.145-.465-1.5-.092.36-.276.935-.465,1.5l-.6,1.755h2.115Z" transform="translate(-28.523 -2.75)" fill="#838487"/>
      <path id="Path_4" data-name="Path 4" d="M82.354,25.582V22.042c0-.526.026-1.755.026-2.124-.132.36-.412,1.049-.649,1.6L79.853,25.8l-1.878-4.287c-.237-.553-.518-1.242-.649-1.6,0,.373.026,1.6.026,2.124v3.541H75.54V15.93h1.786l1.93,4.387c.237.54.518,1.268.636,1.615.118-.36.382-1.062.623-1.615L82.38,15.93h1.825v9.652Z" transform="translate(-42.397 -2.767)" fill="#838487"/>
      <path id="Path_5" data-name="Path 5" d="M106.5,25.565l-.728-2.163h-3.387l-.728,2.15H99.67l3.545-9.652h1.8l3.51,9.652Zm-1.957-5.73c-.184-.566-.369-1.145-.465-1.5-.092.36-.276.935-.465,1.5l-.6,1.755h2.119Z" transform="translate(-55.941 -2.75)" fill="#838487"/>
      <path id="Path_6" data-name="Path 6" d="M129.938,25.577l-3.4-5.265c-.224-.36-.531-.842-.649-1.088,0,.36.026,1.571.026,2.106v4.243H124.09V15.92h1.755l3.282,5.1c.224.36.531.842.649,1.088,0-.36-.026-1.571-.026-2.106V15.92h1.825v9.652Z" transform="translate(-69.647 -2.761)" fill="#838487"/>
      <path id="Path_7" data-name="Path 7" d="M153.518,25.577l-3.4-5.265c-.224-.36-.531-.842-.649-1.088,0,.36.026,1.571.026,2.106v4.243H147.67V15.92h1.755l3.282,5.1c.224.36.531.842.649,1.088,0-.36-.026-1.571-.026-2.106V15.92h1.825v9.652Z" transform="translate(-82.881 -2.761)" fill="#838487"/>
      <path id="Path_8" data-name="Path 8" d="M174.412,25.544c-2.545,0-4.212-2.137-4.212-4.962s1.755-4.988,4.256-4.988a3.922,3.922,0,0,1,3.317,1.544l-.921.649a2.738,2.738,0,0,0-2.426-1.215c-1.786,0-3.071,1.641-3.071,3.984s1.338,4.01,3.071,4.01,2.707-1,2.707-2.883V21.6h-1.878v-1h3.005v.939A3.631,3.631,0,0,1,174.412,25.544Z" transform="translate(-95.526 -2.576)" fill="#838487"/>
      <path id="Path_9" data-name="Path 9" d="M193.57,25.582V15.93h1.163v9.652Z" transform="translate(-108.643 -2.767)" fill="#838487"/>
      <path id="Path_10" data-name="Path 10" d="M208.905,21.392l2.29,4.19h-1.338l-2.233-4.107h-2.47v4.107H204V15.93h4.124c1.83,0,3.242.877,3.242,2.729A2.71,2.71,0,0,1,208.905,21.392Zm-.834-4.48h-2.918v3.6h2.768c1.549,0,2.277-.592,2.277-1.808s-.746-1.79-2.128-1.79Z" transform="translate(-114.497 -2.767)" fill="#838487"/>
      <path id="Path_11" data-name="Path 11" d="M232.486,21.392l2.3,4.19h-1.338l-2.233-4.107h-2.47v4.107H227.59V15.93h4.129c1.83,0,3.242.877,3.242,2.729A2.729,2.729,0,0,1,232.486,21.392Zm-.834-4.48h-2.918v3.6H231.5c1.549,0,2.277-.592,2.277-1.808s-.746-1.79-2.124-1.79Z" transform="translate(-127.737 -2.767)" fill="#838487"/>
      <path id="Path_12" data-name="Path 12" d="M254.72,25.582H251V15.93h3.808c1.654,0,2.83.759,2.83,2.413a1.974,1.974,0,0,1-1.5,1.97,2.352,2.352,0,0,1,1.992,2.413C258.116,24.63,256.91,25.582,254.72,25.582Zm.031-8.67h-2.606v3h2.514c1.316,0,1.8-.689,1.8-1.531S255.914,16.913,254.751,16.913Zm0,3.949h-2.589V24.6H254.8c1.562,0,2.159-.715,2.159-1.821,0-1.211-.864-1.9-2.216-1.9Z" transform="translate(-140.876 -2.767)" fill="#838487"/>
      <path id="Path_13" data-name="Path 13" d="M278.364,25.582l-.878-2.453h-4.3l-.908,2.453H271.09l3.615-9.652h1.281l3.615,9.652ZM275.969,19c-.237-.632-.535-1.5-.641-1.9-.105.386-.4,1.255-.654,1.93l-1.145,3.141h3.589Z" transform="translate(-152.152 -2.767)" fill="#838487"/>
      <path id="Path_14" data-name="Path 14" d="M297.892,25.544c-2.545,0-4.212-2.137-4.212-4.962s1.755-4.988,4.256-4.988a3.922,3.922,0,0,1,3.317,1.544l-.921.649a2.738,2.738,0,0,0-2.426-1.215c-1.786,0-3.071,1.641-3.071,3.984s1.316,4.01,3.071,4.01A3.155,3.155,0,0,0,300.48,23.3l.8.645A4.2,4.2,0,0,1,297.892,25.544Z" transform="translate(-164.831 -2.576)" fill="#838487"/>
      <path id="Path_15" data-name="Path 15" d="M323.524,25.582V21.037h-5.182v4.545H317.18V15.93h1.163v4.12h5.182V15.934h1.163v9.652Z" transform="translate(-178.02 -2.767)" fill="#838487"/>
    </g>
  </g>
</svg>
