<svg xmlns="http://www.w3.org/2000/svg" xmlns:xlink="http://www.w3.org/1999/xlink" width="100" height="100" viewBox="0 0 100 100">
  <defs>
    <clipPath id="clip-amann-girrbach_grayscale">
      <rect width="100" height="100"/>
    </clipPath>
  </defs>
  <g id="amann-girrbach_grayscale" clip-path="url(#clip-amann-girrbach_grayscale)">
    <g id="amann_girrbach" data-name="amann girrbach" transform="translate(0.434 31.39)">
      <path id="Path_2" data-name="Path 2" d="M0,17.991v2.391a6.112,6.112,0,0,1,9.777,0V17.991a7.483,7.483,0,0,0-4.886-1.769A7.445,7.445,0,0,0,0,17.991Zm0-3.429v1.9a11.057,11.057,0,0,1,9.777,0v-1.9A12.829,12.829,0,0,0,0,14.562ZM4.892,11A25.575,25.575,0,0,0,0,11.469v1.769a23.883,23.883,0,0,1,9.777,0V11.469A25.561,25.561,0,0,0,4.892,11Z" transform="translate(0 0)" fill="#8e8e8e"/>
      <path id="Path_3" data-name="Path 3" d="M55.408,22.4l-.489-1.454H52.642l-.489,1.445H50.82L53.2,15.9h1.209l2.359,6.487ZM54.09,18.542c-.124-.38-.248-.77-.313-1.008-.062.242-.186.628-.313,1.008l-.4,1.179h1.421Z" transform="translate(-35.836 -3.455)" fill="#8e8e8e"/>
      <path id="Path_4" data-name="Path 4" d="M80.119,22.417V20.037c0-.354.018-1.179.018-1.427-.088.242-.277.7-.436,1.073l-1.262,2.881-1.262-2.881c-.159-.372-.348-.834-.436-1.073,0,.251.018,1.073.018,1.427v2.379H75.54V15.93h1.2l1.3,2.949c.159.363.348.852.428,1.085.08-.242.257-.714.419-1.085l1.253-2.949h1.227v6.487Z" transform="translate(-53.267 -3.476)" fill="#8e8e8e"/>
      <path id="Path_5" data-name="Path 5" d="M104.258,22.4l-.489-1.454h-2.276L101,22.387H99.67l2.382-6.487h1.209l2.359,6.487Zm-1.315-3.851c-.124-.38-.248-.77-.313-1.008-.062.242-.186.628-.313,1.008l-.4,1.179h1.424Z" transform="translate(-70.282 -3.455)" fill="#8e8e8e"/>
      <path id="Path_6" data-name="Path 6" d="M128.02,22.41l-2.285-3.538c-.15-.242-.357-.566-.436-.731,0,.242.018,1.056.018,1.415v2.851H124.09V15.92h1.179l2.206,3.426c.15.242.357.566.436.731,0-.242-.018-1.056-.018-1.415V15.92h1.227v6.487Z" transform="translate(-87.502 -3.469)" fill="#8e8e8e"/>
      <path id="Path_7" data-name="Path 7" d="M151.6,22.41l-2.285-3.538c-.15-.242-.357-.566-.436-.731,0,.242.018,1.056.018,1.415v2.851H147.67V15.92h1.179l2.205,3.426c.15.242.357.566.436.731,0-.242-.018-1.056-.018-1.415V15.92H152.7v6.487Z" transform="translate(-104.129 -3.469)" fill="#8e8e8e"/>
      <path id="Path_8" data-name="Path 8" d="M173.031,22.28c-1.71,0-2.831-1.436-2.831-3.335s1.179-3.352,2.86-3.352a2.636,2.636,0,0,1,2.229,1.038l-.619.436a1.84,1.84,0,0,0-1.631-.817c-1.2,0-2.064,1.1-2.064,2.677s.9,2.695,2.064,2.695a1.692,1.692,0,0,0,1.819-1.937v-.056H173.6v-.675h2.02v.631A2.44,2.44,0,0,1,173.031,22.28Z" transform="translate(-120.016 -3.236)" fill="#8e8e8e"/>
      <path id="Path_9" data-name="Path 9" d="M193.57,22.417V15.93h.781v6.487Z" transform="translate(-136.495 -3.476)" fill="#8e8e8e"/>
      <path id="Path_10" data-name="Path 10" d="M207.3,19.6l1.539,2.816h-.9l-1.5-2.76h-1.66v2.76H204V15.93h2.772c1.23,0,2.179.59,2.179,1.834A1.821,1.821,0,0,1,207.3,19.6Zm-.56-3.01h-1.961v2.418h1.861c1.041,0,1.53-.4,1.53-1.215s-.5-1.2-1.43-1.2Z" transform="translate(-143.85 -3.476)" fill="#8e8e8e"/>
      <path id="Path_11" data-name="Path 11" d="M230.881,19.6l1.548,2.816h-.9l-1.5-2.76h-1.66v2.76h-.778V15.93h2.775c1.23,0,2.179.59,2.179,1.834A1.834,1.834,0,0,1,230.881,19.6Zm-.56-3.01H228.36v2.418h1.861c1.041,0,1.53-.4,1.53-1.215s-.5-1.2-1.427-1.2Z" transform="translate(-160.484 -3.476)" fill="#8e8e8e"/>
      <path id="Path_12" data-name="Path 12" d="M253.5,22.417H251V15.93h2.559c1.112,0,1.9.51,1.9,1.622a1.327,1.327,0,0,1-1.011,1.324,1.581,1.581,0,0,1,1.339,1.622C255.783,21.777,254.972,22.417,253.5,22.417Zm.021-5.826H251.77V18.6h1.69c.885,0,1.212-.463,1.212-1.029S254.3,16.59,253.521,16.59Zm0,2.654h-1.74v2.515h1.769c1.05,0,1.451-.481,1.451-1.224,0-.814-.581-1.277-1.489-1.277Z" transform="translate(-176.992 -3.476)" fill="#8e8e8e"/>
      <path id="Path_13" data-name="Path 13" d="M275.979,22.417l-.59-1.648H272.5l-.61,1.648h-.8l2.43-6.487h.861l2.43,6.487Zm-1.61-4.423c-.159-.425-.36-1.008-.431-1.277-.071.259-.271.843-.439,1.3l-.77,2.111h2.412Z" transform="translate(-191.158 -3.476)" fill="#8e8e8e"/>
      <path id="Path_14" data-name="Path 14" d="M296.511,22.28c-1.71,0-2.831-1.436-2.831-3.335s1.179-3.352,2.86-3.352a2.636,2.636,0,0,1,2.229,1.038l-.619.436a1.84,1.84,0,0,0-1.631-.817c-1.2,0-2.064,1.1-2.064,2.677s.885,2.695,2.064,2.695a2.12,2.12,0,0,0,1.731-.852l.537.433A2.825,2.825,0,0,1,296.511,22.28Z" transform="translate(-207.088 -3.236)" fill="#8e8e8e"/>
      <path id="Path_15" data-name="Path 15" d="M321.444,22.417V19.362h-3.482v3.055h-.781V15.93h.781V18.7h3.482V15.933h.781V22.42Z" transform="translate(-223.659 -3.476)" fill="#8e8e8e"/>
    </g>
  </g>
</svg>
