<svg xmlns="http://www.w3.org/2000/svg" xmlns:xlink="http://www.w3.org/1999/xlink" width="150" height="150" viewBox="0 0 150 150">
  <defs>
    <clipPath id="clip-dentsply_grayscale">
      <rect width="150" height="150"/>
    </clipPath>
  </defs>
  <g id="dentsply_grayscale" clip-path="url(#clip-dentsply_grayscale)">
    <g id="dentsply" transform="translate(2.8 54.512)">
      <path id="Path_149" data-name="Path 149" d="M205.989,17.172l.124.041a21.324,21.324,0,0,0,5.414.93,10.669,10.669,0,0,0,7.108-2.852A8.518,8.518,0,0,0,221.4,8.947a8.511,8.511,0,0,0-2.748-6.365A10.471,10.471,0,0,0,211.526,0h-5.538V17.172Zm5.517-1.2a14.482,14.482,0,0,1-3.079-.351l-.062-.021V2.149h3.141c4.36,0,7.4,2.769,7.4,6.736a7.084,7.084,0,0,1-7.4,7.088ZM229.69,4.339a6.445,6.445,0,0,0-4.753,2.025,7,7,0,0,0-1.88,4.856,6.73,6.73,0,0,0,2.025,4.959,6.89,6.89,0,0,0,4.877,1.922,7.233,7.233,0,0,0,5.683-2.48l.124-.124-1.508-1.281-.1.1a5.5,5.5,0,0,1-4.133,1.777,4.392,4.392,0,0,1-4.546-3.885l-.021-.083h10.663l.021-.145c.021-.227.021-.434.021-.62a7.508,7.508,0,0,0-1.694-4.959,6.087,6.087,0,0,0-4.773-2.066Zm4.071,6.013h-8.328l.021-.083a4.3,4.3,0,0,1,4.195-3.988,4.078,4.078,0,0,1,4.112,3.988Zm14.485,7.48h2.335v-8.2a5.473,5.473,0,0,0-1.405-3.864,5.313,5.313,0,0,0-3.926-1.488,14.772,14.772,0,0,0-6.716,1.446l-.083.041V17.812h2.335V7.129l.041-.021a8.812,8.812,0,0,1,3.843-.765,3.569,3.569,0,0,1,2.645.992,3.944,3.944,0,0,1,.93,2.748Zm25.065,4.009h2.335V17.213l.1.041a11.078,11.078,0,0,0,4.567.868c3.864,0,6.261-2.645,6.261-6.922a6.919,6.919,0,0,0-1.86-5.083,6.973,6.973,0,0,0-5.021-1.8,14.611,14.611,0,0,0-6.282,1.446l-.083.041Zm6.964-5.786a9.175,9.175,0,0,1-4.67-1.157l-.041-.021V7.212l.041-.021a8.765,8.765,0,0,1,3.885-.827c3.1,0,4.67,1.632,4.67,4.856,0,3.12-1.384,4.835-3.885,4.835Zm-4.918,10.993c-4.195,0-6.9,2.707-6.9,6.9a7.437,7.437,0,0,0,1.694,5.083,5.6,5.6,0,0,0,4.236,1.839,10.39,10.39,0,0,0,4.9-1.219l.1-.041V40.6h2.335V28.558l-.083-.041a14.354,14.354,0,0,0-6.282-1.467Zm-.6,11.778a3.5,3.5,0,0,1-2.893-1.261,5.7,5.7,0,0,1-1.013-3.575c0-4.029,2.562-4.856,4.691-4.856a8.676,8.676,0,0,1,3.885.827l.041.021v7.294l-.041.021A9.238,9.238,0,0,1,274.758,38.828Zm13.907-20.995H291V.661h-2.335Zm4.959,3.348.145.062a6.408,6.408,0,0,0,2.934.661c2.149,0,3.492-1.1,4.649-3.761l5.765-13.6h-2.5l-4.236,10.539L295.588,4.546H293l6.22,13.06-.021.021c-.744,1.632-1.426,2.232-2.583,2.232a4.2,4.2,0,0,1-2.046-.455l-.145-.083ZM205.1,37.9l.124.1a11.09,11.09,0,0,0,7.584,2.852,7.345,7.345,0,0,0,4.587-1.384,4.593,4.593,0,0,0,1.818-3.761c0-2.707-1.818-4.257-6.075-5.145-4.091-.847-4.835-1.756-4.835-3.265,0-1.591,1.529-2.686,3.719-2.686a8.1,8.1,0,0,1,5.166,1.86l.124.1,1.405-1.777-.124-.1a9.946,9.946,0,0,0-6.53-2.19c-3.575,0-6.179,2.087-6.179,4.959a4.059,4.059,0,0,0,1.55,3.43,11.591,11.591,0,0,0,4.711,1.818c3.905.785,4.629,1.694,4.629,3.182,0,1.694-1.57,2.831-3.906,2.831a8.671,8.671,0,0,1-6.158-2.438l-.124-.1L205.1,37.9Zm38.848-10.849a6.927,6.927,0,1,0-.041,13.845,7.31,7.31,0,0,0,5.187-2.066,6.819,6.819,0,0,0,2.066-4.877A7.025,7.025,0,0,0,243.948,27.049Zm0,11.8a4.8,4.8,0,0,1-4.815-4.9,4.949,4.949,0,0,1,1.322-3.451,4.687,4.687,0,0,1,3.451-1.405,4.956,4.956,0,0,1,3.513,8.348A4.924,4.924,0,0,1,243.948,38.848ZM263.455,40.6h2.335V32.4a5.473,5.473,0,0,0-1.405-3.864,5.313,5.313,0,0,0-3.926-1.488,14.771,14.771,0,0,0-6.716,1.446l-.083.041V40.6H256V29.921l.041-.021a8.812,8.812,0,0,1,3.844-.765,3.569,3.569,0,0,1,2.645.992,3.943,3.943,0,0,1,.93,2.748Zm-41.349,0h2.335V27.338h-2.335Zm5.869,0h2.335V29.777l.021-.021a4.26,4.26,0,0,1,2.335-.682,5.8,5.8,0,0,1,3.1.93l.248.145,1.013-1.86-.145-.083a7.721,7.721,0,0,0-4.215-1.157,8.158,8.158,0,0,0-4.629,1.24l-.062.041ZM253.64.661V14.382a3.747,3.747,0,0,0,1.075,2.934,3.2,3.2,0,0,0,2.149.744,4.963,4.963,0,0,0,2.108-.455l-.7-1.839a2.1,2.1,0,0,1-.889.227c-.62,0-1.405,0-1.405-1.86V6.592h2.335V4.567h-2.335V.661ZM222.065,25.706h2.5V23.433h-2.5Z" transform="translate(-162.718)" fill="#838487"/>
      <g id="Group_2" data-name="Group 2" transform="translate(0 0)">
        <path id="Path_150" data-name="Path 150" d="M9.216,0c12.956,0,22.09,8.224,22.028,20.023a20.817,20.817,0,0,1-.847,5.91c-1.984-5.476-7.6-7.666-16.1-9.443C2.108,13.576.455,10.869.041,7.108V.021ZM25.4,32.442c0-4.381-2.356-6.509-13.246-8.865C5.559,22.152,2.728,20.974,0,18.763v18.6a26.654,26.654,0,0,0,11.675,3.616C20.933,40.977,25.4,36.927,25.4,32.442Z" transform="translate(0)" fill="#838487"/>
      </g>
      <g id="Group_3" data-name="Group 3" transform="translate(97.637 4.36)">
        <path id="Path_151" data-name="Path 151" d="M472.5,32.8l.124.1a9.671,9.671,0,0,0,5.683,1.942,5.767,5.767,0,0,0,3.513-1.054,3.635,3.635,0,0,0,1.467-3V30.75c0-2.583-2.686-3.348-4.443-3.864l-.041-.021c-1.694-.5-3.306-.971-3.306-2.046v-.041c0-1.013,1.012-1.715,2.438-1.715a7.688,7.688,0,0,1,3.905,1.219l.145.083,1.1-1.736-.145-.083A9.659,9.659,0,0,0,478,21.1c-2.81,0-4.753,1.591-4.753,3.864v.041c0,2.562,2.645,3.286,4.587,3.8,1.777.475,3.244.971,3.244,2.128v.041c0,1.137-1.054,1.88-2.624,1.88a7.99,7.99,0,0,1-4.587-1.612l-.124-.1Z" transform="translate(-472.5 -21.1)" fill="#838487"/>
      </g>
    </g>
  </g>
</svg>
