<svg xmlns="http://www.w3.org/2000/svg" xmlns:xlink="http://www.w3.org/1999/xlink" width="100" height="100" viewBox="0 0 100 100">
  <defs>
    <clipPath id="clip-dentsply_colored">
      <rect width="100" height="100"/>
    </clipPath>
  </defs>
  <g id="dentsply_colored" clip-path="url(#clip-dentsply_colored)">
    <g id="dentsply" transform="translate(2.196 36.434)">
      <path id="Path_149" data-name="Path 149" d="M205.688,11.37l.082.027a14.119,14.119,0,0,0,3.585.616,7.064,7.064,0,0,0,4.707-1.888,5.64,5.64,0,0,0,1.833-4.2,5.635,5.635,0,0,0-1.82-4.214A6.933,6.933,0,0,0,209.355,0h-3.667V11.37Zm3.653-.794a9.589,9.589,0,0,1-2.039-.233l-.041-.014V1.423h2.08c2.887,0,4.9,1.833,4.9,4.46a4.691,4.691,0,0,1-4.9,4.693Zm12.04-7.7a4.267,4.267,0,0,0-3.147,1.341,4.637,4.637,0,0,0-1.245,3.215,4.456,4.456,0,0,0,1.341,3.284,4.562,4.562,0,0,0,3.229,1.272,4.789,4.789,0,0,0,3.762-1.642l.082-.082-1-.848-.068.068a3.639,3.639,0,0,1-2.736,1.177,2.908,2.908,0,0,1-3.01-2.572l-.014-.055h7.06l.014-.1c.014-.15.014-.287.014-.41a4.971,4.971,0,0,0-1.122-3.284,4.03,4.03,0,0,0-3.16-1.368Zm2.7,3.981h-5.514l.014-.055a2.85,2.85,0,0,1,2.777-2.641A2.7,2.7,0,0,1,224.077,6.8Zm9.591,4.953h1.546V6.376a3.623,3.623,0,0,0-.93-2.558,3.518,3.518,0,0,0-2.6-.985,9.78,9.78,0,0,0-4.447.958l-.055.027v7.976h1.546V4.72l.027-.014A5.835,5.835,0,0,1,231.3,4.2a2.363,2.363,0,0,1,1.751.657,2.611,2.611,0,0,1,.616,1.82Zm16.6,2.654h1.546V11.4l.068.027A7.335,7.335,0,0,0,254.9,12c2.559,0,4.146-1.751,4.146-4.583a4.581,4.581,0,0,0-1.231-3.366,4.617,4.617,0,0,0-3.325-1.19,9.674,9.674,0,0,0-4.159.958l-.055.027Zm4.611-3.831a6.075,6.075,0,0,1-3.092-.766l-.027-.014V4.775l.027-.014a5.8,5.8,0,0,1,2.572-.547c2.052,0,3.092,1.081,3.092,3.215,0,2.066-.917,3.2-2.572,3.2Zm-3.256,7.279a4.281,4.281,0,0,0-4.57,4.57,4.924,4.924,0,0,0,1.122,3.366,3.71,3.71,0,0,0,2.8,1.218,6.879,6.879,0,0,0,3.243-.807l.068-.027v.657h1.546V18.908l-.055-.027a9.5,9.5,0,0,0-4.159-.971Zm-.4,7.8a2.32,2.32,0,0,1-1.915-.835,3.776,3.776,0,0,1-.67-2.367c0-2.668,1.7-3.215,3.106-3.215a5.744,5.744,0,0,1,2.572.547l.027.014v4.83l-.027.014A6.117,6.117,0,0,1,251.221,25.708Zm9.208-13.9h1.546V.438h-1.546Zm3.284,2.216.1.041a4.243,4.243,0,0,0,1.943.438c1.423,0,2.312-.725,3.078-2.49l3.817-9h-1.655l-2.8,6.978L265.012,3.01H263.3l4.118,8.647-.014.014c-.493,1.081-.944,1.478-1.71,1.478a2.779,2.779,0,0,1-1.354-.3l-.1-.055ZM205.1,25.092l.082.068a7.343,7.343,0,0,0,5.021,1.888,4.863,4.863,0,0,0,3.037-.917,3.041,3.041,0,0,0,1.2-2.49c0-1.792-1.2-2.818-4.022-3.407-2.709-.561-3.2-1.163-3.2-2.162,0-1.053,1.012-1.779,2.463-1.779a5.366,5.366,0,0,1,3.42,1.231l.082.068.93-1.177-.082-.068a6.586,6.586,0,0,0-4.323-1.45c-2.367,0-4.091,1.382-4.091,3.284a2.687,2.687,0,0,0,1.026,2.271,7.674,7.674,0,0,0,3.119,1.2c2.586.52,3.065,1.122,3.065,2.107,0,1.122-1.04,1.874-2.586,1.874a5.741,5.741,0,0,1-4.077-1.614l-.082-.068-.985,1.136Zm25.722-7.183a4.587,4.587,0,1,0-.027,9.167,4.84,4.84,0,0,0,3.434-1.368,4.515,4.515,0,0,0,1.368-3.229A4.651,4.651,0,0,0,230.822,17.909Zm0,7.812a3.178,3.178,0,0,1-3.188-3.243,3.277,3.277,0,0,1,.876-2.285,3.1,3.1,0,0,1,2.285-.93,3.282,3.282,0,0,1,2.326,5.527A3.26,3.26,0,0,1,230.822,25.722Zm12.916,1.163h1.546V21.453a3.624,3.624,0,0,0-.93-2.558,3.518,3.518,0,0,0-2.6-.985,9.78,9.78,0,0,0-4.447.958l-.055.027v7.99H238.8V19.811l.027-.014a5.835,5.835,0,0,1,2.545-.506,2.363,2.363,0,0,1,1.751.657,2.611,2.611,0,0,1,.616,1.82Zm-27.377,0h1.546V18.1H216.36Zm3.886,0h1.546V19.715l.014-.014a2.82,2.82,0,0,1,1.546-.451,3.841,3.841,0,0,1,2.052.616l.164.1.67-1.231-.1-.055a5.112,5.112,0,0,0-2.791-.766,5.4,5.4,0,0,0-3.065.821l-.041.027ZM237.238.438V9.522a2.481,2.481,0,0,0,.711,1.943,2.117,2.117,0,0,0,1.423.493,3.286,3.286,0,0,0,1.4-.3l-.465-1.218a1.389,1.389,0,0,1-.588.15c-.41,0-.93,0-.93-1.231V4.364h1.546V3.024h-1.546V.438ZM216.333,17.02h1.656v-1.5h-1.656Z" transform="translate(-177.039)" fill="#555759"/>
      <g id="Group_2" data-name="Group 2" transform="translate(0 0)">
        <path id="Path_150" data-name="Path 150" d="M6.1,0c8.578,0,14.626,5.445,14.585,13.258a13.783,13.783,0,0,1-.561,3.913c-1.313-3.626-5.035-5.076-10.658-6.253C1.4,8.989.3,7.2.027,4.707V.014ZM16.815,21.48c0-2.9-1.56-4.31-8.77-5.869C3.68,14.667,1.806,13.887,0,12.423V24.737a17.648,17.648,0,0,0,7.73,2.394C13.86,27.131,16.815,24.449,16.815,21.48Z" transform="translate(0)" fill="#555759"/>
      </g>
      <g id="Group_3" data-name="Group 3" transform="translate(64.646 2.887)">
        <path id="Path_151" data-name="Path 151" d="M472.5,28.844l.082.068a6.4,6.4,0,0,0,3.763,1.286,3.818,3.818,0,0,0,2.326-.7,2.407,2.407,0,0,0,.971-1.984v-.027c0-1.71-1.779-2.216-2.942-2.558l-.027-.014c-1.122-.328-2.189-.643-2.189-1.354v-.027c0-.67.67-1.136,1.614-1.136a5.09,5.09,0,0,1,2.586.807l.1.055.725-1.149-.1-.055a6.4,6.4,0,0,0-3.27-.958c-1.861,0-3.147,1.053-3.147,2.558v.027c0,1.7,1.751,2.175,3.037,2.517,1.177.315,2.148.643,2.148,1.409v.027c0,.752-.7,1.245-1.738,1.245a5.29,5.29,0,0,1-3.037-1.067l-.082-.068Z" transform="translate(-472.5 -21.1)" fill="#555759"/>
      </g>
    </g>
  </g>
</svg>
