<svg xmlns="http://www.w3.org/2000/svg" xmlns:xlink="http://www.w3.org/1999/xlink" width="150" height="150" viewBox="0 0 150 150">
  <defs>
    <clipPath id="clip-dgaez_grayscale">
      <rect width="150" height="150"/>
    </clipPath>
  </defs>
  <g id="dgaez_grayscale" clip-path="url(#clip-dgaez_grayscale)">
    <g id="layer1" transform="translate(-68.141 -188.422)">
      <g id="g1331" transform="translate(106.823 205.893)">
        <path id="path1345" d="M81.162,292.558a14.565,14.565,0,0,1-4.026-3.359l-1.487-1.992-.226-36.363L75.2,214.482l.788-2.691.788-2.691,2.239-1.884,2.239-1.884h61.52l2.489,2.489,2.489,2.489v78.141l-1.194,1.7a9.763,9.763,0,0,1-3.636,2.725l-2.443,1.021H110.417l-1.464-1.464-1.464-1.464v-5.856h-1.607l.254,4.209.254,4.209-11.346.2-11.346.2Zm33.111-10.807c5.789-2.923,22.82-16.744,22.089-17.926a2.483,2.483,0,0,0-1.869-.667c-2.22,0-5.644-2.013-9.4-5.53a23.483,23.483,0,0,0-5.426-3.949l-2.029-.771-1.962.491a49.291,49.291,0,0,0-5.826,2.2,27.357,27.357,0,0,1-4.534,1.706h-.671l.143-4.177.143-4.177-3.66-2.41c-6.6-4.344-6.912-6.009-2.337-12.33,5.811-8.028,5.615-8.334-.46-.72-4.743,5.946-5.07,6.815-3.654,9.738l1.057,2.182,3.612,1.966,3.612,1.966.11,1.784c.06.981.143,2.2.183,2.7l.073.915-4.026-.22-4.026-.22-5.155,3.234a51.471,51.471,0,0,1-6.771,3.746c-1.3.413-2.363,1.878-1.362,1.878.6,0,5.559-2.609,9.438-4.966l4.2-2.553h5.9l1.324,1.2c1.716,1.553,2.924,1.51,7.43-.266a21.95,21.95,0,0,1,6.486-1.464h2.772l4.635,4.014,4.635,4.014,2.447.459c1.346.253,2.447.724,2.447,1.047,0,1.573-15.825,13.9-20.661,16.1l-3.128,1.42h-6.588l-3.114-1.413c-3.717-1.687-5.884-3.909-10.014-10.266a39.9,39.9,0,0,0-4.258-5.715C83.444,262.6,93.8,277.139,96.6,279.539l3.045,2.606,3.005.713a18.6,18.6,0,0,0,11.618-1.107Zm2.922-11.607c3.317-1.794,6.691-3.748,7.5-4.342l1.464-1.08-6.222.224c-3.422.123-7.869.46-9.882.749l-3.66.525-5.811-1.531a47.513,47.513,0,0,0-7.879-1.531H90.634l4.807,4.078c5.638,4.783,8.346,6.1,12.6,6.141l3.118.029Z" transform="translate(-75.196 -205.248)" fill="#c6cccf"/>
        <path id="path1343" d="M81.592,292.405a10.55,10.55,0,0,1-4.209-2.927l-1.891-2.247V210.509l2.135-2.39,2.135-2.39,30.429-.206,30.429-.206,2.192,1.134a9.018,9.018,0,0,1,3.3,3.281l1.11,2.147-.011,37.184-.011,37.184L146.3,288a11.836,11.836,0,0,1-2.969,3.294l-2.065,1.535-15.975.233-15.975.234-1.175-1.677-1.175-1.677v-5.9l4.208-1.255,4.208-1.255,6.374-4.81c6.959-5.252,14.487-11.9,14.487-12.788,0-.31-1.154-.75-2.565-.979-2.728-.443-8.373-4.011-8.4-5.309-.009-.427,1.521-2.568,3.4-4.758,4.649-5.421,8.655-11.725,10.6-16.685l1.623-4.133.048-7.32.048-7.32-1.286-2.352-1.286-2.352-3.788-1.125c-6.345-1.884-15.7-1.274-19.111,1.247l-1.248.922-1.479,5.354a74.2,74.2,0,0,1-4.391,11.146l-2.912,5.792v4.447l2.192,3.884a24.9,24.9,0,0,1,2.646,7.2l.454,3.313-2.829,1.134a8.248,8.248,0,0,1-3.289.855c-.253-.153-.3-1.717-.1-3.476l.36-3.2-.841-1.572a7.461,7.461,0,0,0-3.254-2.58c-2.6-1.087-5.586-4.365-5.586-6.135,0-.6,1.608-3.274,3.573-5.94,3.666-4.973,8.16-13.223,8.111-14.891-.015-.515-.857.711-1.87,2.724a71.072,71.072,0,0,1-6.569,9.516c-2.6,3.221-4.938,6.66-5.2,7.642l-.472,1.786,1.4,2.538a10.991,10.991,0,0,0,3.766,3.79,26,26,0,0,1,3.477,2.171l1.106.918v5.043l-1.647-.585a13.909,13.909,0,0,0-4.026-.543c-1.308.022-2.379-.167-2.379-.423a29.4,29.4,0,0,0-3.4-4.447,33.447,33.447,0,0,1-4.428-6.424l-1.024-2.442.811-2.459c.446-1.352,2.811-5.03,5.256-8.172,4.861-6.249,7.14-10.533,7.164-13.469l.016-1.9-1.491-1.35-1.491-1.35-4.181-.292-4.181-.293-2.562,1.737-2.562,1.737-.874,2.537c-1.134,3.292-1.114,9.883.051,16.993l.93,5.673-.93,5.673a140.377,140.377,0,0,0-.968,16.809l-.039,11.137,1.512.809a12.61,12.61,0,0,0,5.076.62l3.564-.189,2.937,3.027c3.205,3.3,5.785,4.853,9.352,5.621l2.312.5.035,3.067c.019,1.687.131,3.726.25,4.531l.215,1.464-10.98.126c-6.039.069-12.023-.18-13.3-.554Zm19.245-11.261C97.23,279.859,93.65,276.4,90.4,271.076a30.342,30.342,0,0,0-5.15-6.331l-2.6-2.141,1.724-.542a36.385,36.385,0,0,0,5.75-3.111l4.026-2.57,3.08-.348,3.08-.348,2.339,1.481,2.339,1.481,4.663-1.755a27.353,27.353,0,0,1,6.732-1.755h2.069l2.855,2.074a27.63,27.63,0,0,1,3.9,3.342,10.988,10.988,0,0,0,6.6,3.368c2.526,0,1.729,1.149-4.172,6.013-14.689,12.106-19.11,13.955-26.809,11.211Zm16.785-11.428a53.737,53.737,0,0,0,7.315-4.392l.415-.672h-4.94a54.705,54.705,0,0,0-9.127.865l-4.187.865-5.827-1.6a44.8,44.8,0,0,0-8.586-1.6h-2.76l3.48,3.111a53.376,53.376,0,0,0,6.874,5.118l3.394,2.007,3.524.006,3.524.005,6.9-3.72Z" transform="translate(-74.674 -205.278)" fill="#bcc4c8"/>
        <path id="path1341" d="M75.492,310.37v-9.882H85.523L88,302.158a11.81,11.81,0,0,1,3.391,3.477,12.143,12.143,0,0,1-.21,9.588l-1.146,2.217-3.062,1.39-3.062,1.39-4.209.017-4.209.017Zm12.2,4.464,1.706-1.983v-2.191c0-2.669-1.715-6.17-3.327-6.788a19.788,19.788,0,0,0-4.785-.455h-3.6v14.089l4.15-.344,4.15-.344Zm10.425,3.749c-3.125-2.106-4.3-4.424-4.317-8.492l-.011-3.207,1.478-2.391,1.478-2.391,2.929-1.172c3.666-1.467,6.032-1.482,8.791-.055,2.309,1.194,2.5,1.6,1.5,3.189l-.641,1.012-1.706-1.2a8.511,8.511,0,0,0-4.162-1.2H101l-2.14,2.14-2.14,2.14v2.584c0,3.717,1.313,6.074,4.125,7.409l2.459,1.167,2.564-.481,2.564-.481v-5.6l-2.013-.231L104.4,311.1v-2.2l3.477-.223,3.477-.223v10.364l-1.878.714a19.223,19.223,0,0,1-5.382.714h-3.5Zm14.475,1.12c-.173-.3,1.52-4.763,3.762-9.913l4.077-9.364,1.461.215,1.461.215,3.883,9.137c2.136,5.025,3.883,9.389,3.883,9.7s-.628.562-1.4.562h-1.4l-2.2-5.307c-1.209-2.919-2.681-6.46-3.271-7.869l-1.073-2.562-1.574,3.58c-.865,1.969-1.4,3.75-1.2,3.957a10.517,10.517,0,0,0,3.069.814c1.481.241,2.83.848,3,1.35l.3.912H117.14l-1.07,2.562c-.982,2.351-2.708,3.35-3.475,2.013Zm19.649-.842-.459-1.445,5.069-6.816,5.069-6.817-4.844-.366-4.844-.366-.243-1.281-.243-1.281h14.015v1.3c0,.715-2.279,4.42-5.066,8.235l-5.066,6.935,5.249.366,5.249.366v2.2l-6.713.21-6.713.21Zm-16.554-15.884-.9-1.085.8-.8c1.011-1.011,3.092-.253,3.092,1.125,0,1.525-1.944,2.019-2.99.759Zm10.081.7a3.148,3.148,0,0,1-.5-1.845v-1.342h3.03l-.234,1.59C127.819,303.729,126.642,304.549,125.769,303.676ZM77.981,289.948l-2.489-2.489V210.782l1.142-1.631a10.64,10.64,0,0,1,3.258-2.725l2.115-1.094h58.7l2.147,1.11a8.924,8.924,0,0,1,3.258,3.258l1.11,2.147v74.074l-1.094,2.115a10.64,10.64,0,0,1-2.725,3.258l-1.631,1.142H108.482l-.758-1.416a11.8,11.8,0,0,1-.758-4.392v-2.976l1.647-.017a15.1,15.1,0,0,0,4.575-1.349c5.064-2.306,23.057-16.556,23.057-18.261,0-.311-1.443-.951-3.207-1.423a17.079,17.079,0,0,1-5.536-2.818l-2.33-1.96,2.521-2.641c9-9.428,14.691-21.414,15.642-32.941l.4-4.834-.859-3.166-.859-3.166-2.5-1.042-2.5-1.043H112.177l-.547.885a21.171,21.171,0,0,0-.645,5.753l-.1,4.869-2.654,5.409c-1.46,2.975-3.892,7.334-5.405,9.687l-2.751,4.277,3.388,3.042c4.145,3.723,4.967,5.3,4.967,9.533v3.293l-1.281.407a5.01,5.01,0,0,1-2.013.247l-.732-.159.244-3.757.244-3.757-1.99-1.565a7.333,7.333,0,0,0-2.924-1.565c-1.223,0-4.724-4.18-4.724-5.639,0-.624,1.654-3.366,3.675-6.093,4.113-5.547,8.013-12.8,8.027-14.919l.009-1.4-2.2,4.326a70.27,70.27,0,0,1-6.613,9.79c-2.428,3.005-4.619,6.279-4.869,7.276l-.455,1.812,1.4,2.606,1.4,2.606,2.37,1.184a23.147,23.147,0,0,1,3.477,2.1l1.107.918v2.472c0,1.36-.186,2.472-.414,2.472-1.007,0-3.247-1.629-7.129-5.184L90.854,246.1l-.822-2.744-.822-2.744.481-2.561.481-2.562,4.446-5.744a77.354,77.354,0,0,0,6.2-9.2l1.756-3.453V213.92c0-1.745-.4-3.567-.878-4.05l-.878-.878H83.431l-2.14,2.14-2.14,2.14v59.955l1.21,1,1.21,1,4.96.076,4.96.076L94,278.043c2.477,2.626,7.809,5.563,10.157,5.594l1.212.017-.339,1.3a12.973,12.973,0,0,0,.357,4.392l.7,3.1H80.47Zm22.856-8.834c-3.606-1.285-7.187-4.741-10.431-10.068a30.344,30.344,0,0,0-5.15-6.331l-2.6-2.141,1.724-.542a36.372,36.372,0,0,0,5.75-3.111l4.026-2.57,3.08-.348,3.08-.348,2.339,1.481,2.339,1.481,4.663-1.755a27.3,27.3,0,0,1,6.8-1.755H118.6l4.253,3.54c4.956,4.124,6.867,5.244,8.95,5.244.832,0,1.512.3,1.512.669,0,.731-9.121,8.416-15.109,12.731-6.848,4.934-11.428,5.943-17.372,3.824Zm15.479-10.6c3.111-1.589,6.645-3.563,7.852-4.387l2.2-1.5-5.983-.006a53.529,53.529,0,0,0-9.542.817l-3.559.822-5.993-1.554a48.547,48.547,0,0,0-8.654-1.553h-2.66l3.836,3.477a43.7,43.7,0,0,0,6.85,5.091l3.014,1.614,3.493.033,3.493.033Z" transform="translate(-74.674 -205.248)" fill="#b5bdc2"/>
        <path id="path1339" d="M75.98,319.764c-.268-.268-.488-4.715-.488-9.882v-9.394H85.08l2.192,1.134c4.506,2.33,6.191,7.906,3.985,13.187l-1.07,2.562L87.048,318.8,83.91,320.22l-3.721.017c-2.046.008-3.94-.2-4.209-.472Zm11.371-4.671,2.231-2.231-.385-3.413-.385-3.413-1.618-1.31-1.618-1.31H77.688v13.907H85.12ZM98.4,318.818a9.915,9.915,0,0,1-4.61-8.874v-3.061l1.493-2.416,1.493-2.416,3.233-1.235,3.233-1.235,2.466.463a11.4,11.4,0,0,1,3.874,1.5l1.408,1.039-.933.946-.933.946-1.436-.9a9.3,9.3,0,0,0-4.064-.9H101l-2.14,2.14-2.14,2.14v2.584c0,3.717,1.313,6.074,4.125,7.409l2.459,1.167,2.564-.481,2.564-.481v-5.6l-2.013-.232L104.4,311.1v-2.2l3.477-.223,3.477-.223v10.364l-1.878.714a18.819,18.819,0,0,1-5.307.711l-3.429,0L98.4,318.818Zm14.676.973-.843-.345,4.132-9.506,4.132-9.506,1.429.211,1.429.211,3.883,9.137c2.136,5.025,3.883,9.39,3.883,9.7s-.628.562-1.4.562h-1.4l-2.2-5.307c-1.209-2.919-2.681-6.46-3.271-7.869l-1.073-2.562-1.581,3.6c-.869,1.979-1.322,3.849-1.006,4.157a7.382,7.382,0,0,0,3.08.794c1.378.129,2.641.647,2.806,1.15l.3.915H117.14l-1.07,2.562c-1.063,2.545-1.374,2.763-2.992,2.1Zm19.151-.975-.456-1.436,5.133-6.8,5.133-6.8-3.445-.191c-5.012-.278-6.739-.8-6.739-2.019v-1.084h13.907v1.337c0,.735-2.326,4.441-5.169,8.235l-5.169,6.9,5.169.215,5.169.215v2.864H132.684Zm-16.421-15.7c-1.032-1.243-.483-2.631,1.041-2.631,1.585,0,2.111,1.5.939,2.669l-1.064,1.064Zm10.373.5a1.889,1.889,0,0,1-.915-1.731v-1.4h2.928v1.421C128.194,303.523,127.515,304.1,126.181,303.623Zm-48.2-13.674-2.489-2.489V210.782l1.142-1.631a10.64,10.64,0,0,1,3.258-2.725l2.115-1.094h58.77l2.114,1.249a9.706,9.706,0,0,1,3.224,3.587l1.11,2.339v73.414l-1.11,2.147a8.923,8.923,0,0,1-3.258,3.257l-2.147,1.11H108.395l-.714-1.878a14.922,14.922,0,0,1-.714-4.392v-2.514l1.647-.017c2.436-.025,7.668-2.589,12.247-6,7.094-5.292,15.385-12.48,15.385-13.339,0-.458-1.412-1.21-3.139-1.671a17.027,17.027,0,0,1-5.118-2.4l-1.979-1.557,4.2-4.994a59.057,59.057,0,0,0,11.63-20.161l1.9-5.856.371-7.465.371-7.465-2.249-2.249-2.249-2.249-14.863.2-14.863.2-.383,6.588L109.5,221.8l-1.242,2.782a84.938,84.938,0,0,1-5.315,8.841l-4.073,6.058.464,1.209a8.48,8.48,0,0,0,2.941,2.74,18.1,18.1,0,0,1,3.953,3.407l1.476,1.876v7.071l-1.368.732c-1.9,1.017-2.125.548-1.725-3.618l.35-3.643L104,248.1a15.063,15.063,0,0,0-3.742-2.575,12.126,12.126,0,0,1-3.952-3.2l-1.169-1.785.419-1.322a35.594,35.594,0,0,1,3.731-5.709c3.86-5.114,7.686-12.375,7.676-14.569l-.007-1.53-1.715,3.66A72.092,72.092,0,0,1,98.3,231.317l-5.22,6.588-.011,2.452-.011,2.452,2.4,2.306a25.925,25.925,0,0,0,4.758,3.553l2.359,1.247V252.1c0,2.64-1.028,3.462-2.335,1.867-.527-.644-2.824-3.039-5.1-5.323l-4.144-4.152-.49-2.627-.49-2.626,1.062-2.5a47.2,47.2,0,0,1,5.128-7.565,64.427,64.427,0,0,0,5.95-8.794l1.885-3.727v-2.783a11.111,11.111,0,0,0-.758-4.2l-.758-1.416H83.613l-1.784.813a7.056,7.056,0,0,0-2.779,2.674l-1,1.861.085,29.957.085,29.958,1.221,1.222,1.221,1.222,5.5.131,5.5.131,2.84,2.566a22.94,22.94,0,0,0,6.434,3.842l3.593,1.276.7,4.262.7,4.262H80.47Zm22.865-8.792c-3.794-1.406-6.5-4.1-10.781-10.741l-3.579-5.552-2.02-.952-2.02-.952,2.2-.934a71.767,71.767,0,0,0,6.545-3.561l4.349-2.627,2.6.005,2.6.006,2.134,1.407,2.134,1.407,4.723-1.778a27.757,27.757,0,0,1,6.768-1.778h2.045l4.273,3.551c4.939,4.1,6.876,5.233,8.982,5.233,2.318,0,1.85.9-2.331,4.467-11.183,9.551-17.185,13.192-22.4,13.589l-3.4.258Zm15.47-10.64c3.111-1.589,6.645-3.563,7.852-4.387l2.2-1.5-5.983-.005a53.522,53.522,0,0,0-9.542.817l-3.559.822-5.993-1.554a48.544,48.544,0,0,0-8.654-1.553h-2.66l3.836,3.477a43.7,43.7,0,0,0,6.85,5.091l3.014,1.614,3.493.033,3.493.033Z" transform="translate(-74.674 -205.248)" fill="#a6aeb2"/>
        <path id="path1337" d="M79.71,291.345a8.988,8.988,0,0,1-3.111-3.228l-1.107-2.141,0-37.184,0-37.184,1.426-2.339,1.426-2.339,2.78-.814,2.78-.814,29.038.225,29.038.225,1.9,1.786a11.582,11.582,0,0,1,2.663,4.392l.763,2.606-.226,36.4-.226,36.4-2.392,2.392-2.392,2.392-16.778.221-16.778.221-.773-2.783a21.516,21.516,0,0,1-.777-4.35l0-1.567,2.64-.308,2.64-.308.748,1.643a5.955,5.955,0,0,0,2.789,2.488l2.041.845,8.335.04,8.335.04,2.776-.916,2.776-.916,1.376-3.03,1.376-3.03.035-22.691.035-22.691,1.426-6.222c1.709-7.453,1.852-13.758.392-17.251l-1.072-2.565-2.565-1.072-2.565-1.072H110.175l-1.2.915-1.2.915.714,3.66a23.146,23.146,0,0,1,.257,6.588c-.537,3.442-4.276,10.593-8.385,16.035-1.6,2.124-2.915,4.588-2.915,5.476v1.614l2.288,1.247c5.929,3.231,7.521,5.827,6.694,10.919l-.39,2.4h-1.886l.729-2.641.729-2.641-.856-2.066-.856-2.066-2.677-1.243a20.96,20.96,0,0,1-3.958-2.361l-1.281-1.118v-4.33l3.373-4.487c4.261-5.669,7.429-11.912,8.066-15.9l.5-3.1-.843.521a2.642,2.642,0,0,0-.843,2.045c0,2.507-2.852,7.456-8.164,14.165l-5.012,6.331v4.954l2.013,2.225a18.383,18.383,0,0,0,4.575,3.488l2.562,1.263v4.27l-1.017.339-1.017.339.515-.833c.9-1.457-.287-3.561-2.535-4.492a14.906,14.906,0,0,1-4.367-3.4L91.6,243.4v-6.3l4.783-6.071a112.762,112.762,0,0,0,6.739-9.408l1.955-3.337-.046-5.059-.046-5.06-1.02-.646c-.561-.355-5.747-.651-11.524-.657l-10.5-.011-2.489,2.489-2.489,2.489v62.917l1.005.834c.553.459,1.218,2.437,1.478,4.4l.472,3.561,1.9,1.9c2.219,2.219,5.7,3.038,9.984,2.353,3.578-.572,5.657-2.2,5.657-4.431v-1.59l3.65,1.154,3.65,1.154.01,2.331a14.411,14.411,0,0,0,.724,4.209l.714,1.878-12.242-.029-12.242-.029Zm22.133-9.962c-4.087-1.161-7.108-3.956-11.522-10.658-2.267-3.442-4.719-6.414-5.449-6.605s-1.319-.556-1.308-.811,2.772-2.028,6.135-3.94l6.115-3.477h5.1l1.966,1.546,1.966,1.546,3.806-1.584a33.808,33.808,0,0,1,6.759-1.99l2.954-.406,4.366,3.629c5.031,4.182,6.961,5.311,9.076,5.311.832,0,1.512.257,1.512.571,0,.685-9.121,8.389-14.335,12.109-7.3,5.207-11.48,6.367-17.14,4.759ZM115.672,271.1c2.257-1.237,5.586-3.1,7.4-4.143l3.294-1.893-4.392-.5-4.392-.5-5.025,1.042-5.025,1.042-6.2-1.472a52.643,52.643,0,0,0-9.249-1.449l-3.053.022,1.464.83a49.2,49.2,0,0,1,5.358,4.362l3.894,3.533,3.426,1.078,3.426,1.078,2.484-.391a26.881,26.881,0,0,0,6.588-2.64Z" transform="translate(-74.674 -205.302)" fill="#8a8f91"/>
        <path id="path1335" d="M99.226,287.175l-2.983-1.355-1.225-2.582a13.106,13.106,0,0,1-1.225-4.508,12.687,12.687,0,0,1,3.387-7.875c2.823-2.51,10.683-2.918,12.931-.67l.811.81-.771.771-.771.771-2.627-1.253-2.627-1.253-2.787,1.044-2.787,1.045-1.375,2.8-1.375,2.8.844,2.817a10.055,10.055,0,0,0,2.755,4.32l1.911,1.5H104a8.2,8.2,0,0,0,3.985-.947l1.3-.947-.241-2.53-.241-2.53-2.013-.232c-3.274-.377-2.295-1.6,1.281-1.6h3.294v8.858L108.82,287.5c-3.362,1.4-5.978,1.316-9.595-.327Zm-23.733-8.86V268.8H84.42l2.447,1.161c2.883,1.368,4.441,3.515,5.1,7.031l.478,2.551-1.113,2.664L90.22,284.87,87.8,286.348l-2.423,1.477-4.941,0-4.941,0ZM87.6,283.838l1.8-1.8v-7.256l-2.252-1.9-2.252-1.9H77.688v14.639h8.118Zm25.561,2.607c.242-.762,2.04-4.962,4-9.333l3.556-7.947,1.041-.21,1.041-.21,4.094,9.543,4.094,9.543h-2.655l-2.2-5.307c-1.209-2.919-2.684-6.46-3.277-7.869l-1.078-2.562-1.915,4.23a48.724,48.724,0,0,0-1.915,4.575c0,.19,1.447.345,3.216.345h3.216l.421,1.1.421,1.1h-8.594l-.765,2.2-.765,2.2h-2.371Zm19.216.44c-.2-.52,2.038-4.226,4.972-8.235l5.335-7.289-5.416-.214-5.416-.214V268.8h13.907v1.1c0,.6-2.306,4.2-5.124,8a87.068,87.068,0,0,0-5.124,7.322c0,.228,2.306.414,5.124.414h5.124v2.2H132.742ZM115.75,270.263V268.8h2.2v2.928h-2.2Zm9.842.668a1.334,1.334,0,0,1,.259-1.547c.923-.924,2.342-.144,2.342,1.288,0,1.232-1.884,1.42-2.6.259Zm-24.073-21.485c-4.507-1.666-6.343-3.352-10.455-9.6a45.2,45.2,0,0,0-5.856-7.457c-1.117-.9-1.686-1.645-1.266-1.647a37.758,37.758,0,0,0,6.222-3.285l5.456-3.282,2.2-.008a10.792,10.792,0,0,1,4.662,1.494l2.466,1.5,5.334-1.946,5.334-1.945,2.214.486a6.643,6.643,0,0,1,3.179,1.659,43.708,43.708,0,0,0,4.508,3.979l3.543,2.806h2.13c1.172,0,2.13.165,2.13.368,0,1.231-15.582,13.6-19.944,15.825a20.61,20.61,0,0,1-5.856,1.761l-3.113.359Zm13.986-10.009c3.154-1.656,6.888-3.713,8.3-4.571l2.562-1.56-4.026-.538-4.026-.538-5.55,1.08-5.55,1.08-5.43-1.444a45.021,45.021,0,0,0-8.964-1.461l-3.534-.017,2.956,2.379c1.626,1.309,4.121,3.323,5.545,4.478,2.881,2.335,7.067,4.042,10.032,4.091,1.073.017,4.531-1.323,7.686-2.979Z" transform="translate(-74.674 -173.559)" fill="#8e8e8e"/>
        <path id="path1333" d="M99.226,258.16,96.242,256.8l-1.225-2.582a13.106,13.106,0,0,1-1.225-4.508,12.688,12.688,0,0,1,3.387-7.875c2.823-2.51,10.683-2.918,12.931-.67l.811.811-.771.771-.771.771-2.627-1.253-2.627-1.253-2.787,1.044-2.787,1.044-1.375,2.8-1.375,2.8.844,2.817a10.055,10.055,0,0,0,2.755,4.32l1.911,1.5H104a8.2,8.2,0,0,0,3.985-.947l1.3-.947-.241-2.53-.241-2.53-2.013-.231c-3.274-.377-2.295-1.6,1.281-1.6h3.294v8.858l-2.538,1.061c-3.362,1.4-5.978,1.316-9.595-.327ZM75.492,249.3v-9.516H84.42l2.447,1.161c2.883,1.368,4.441,3.515,5.1,7.031l.478,2.551-1.113,2.664-1.113,2.664L87.8,257.332l-2.423,1.477-4.941,0-4.941,0ZM87.6,254.822l1.8-1.8V245.77l-2.252-1.9L84.9,241.98H77.688v14.639h8.118Zm25.561,2.607c.242-.762,2.04-4.962,4-9.333l3.556-7.947,1.041-.21,1.041-.21,4.094,9.543,4.094,9.543h-2.655l-2.2-5.307c-1.209-2.919-2.684-6.46-3.277-7.869l-1.078-2.562-1.915,4.23a48.727,48.727,0,0,0-1.915,4.575c0,.19,1.447.345,3.216.345h3.216l.421,1.1.421,1.1h-8.594l-.765,2.2-.765,2.2h-2.371Zm19.216.44c-.2-.52,2.038-4.226,4.972-8.235l5.335-7.289-5.416-.214-5.416-.214v-2.134h13.907v1.1c0,.6-2.306,4.2-5.124,8a87.086,87.086,0,0,0-5.124,7.322c0,.228,2.306.415,5.124.415h5.124v2.2H132.742ZM115.75,241.248v-1.464h2.2v2.928h-2.2Zm9.842.668a1.334,1.334,0,0,1,.259-1.547c.923-.923,2.342-.144,2.342,1.288,0,1.232-1.884,1.42-2.6.259Z" transform="translate(-74.674 -144.543)" fill="#8e8e8e"/>
      </g>
    </g>
  </g>
</svg>
