<svg id="Layer_1" data-name="Layer 1" xmlns="http://www.w3.org/2000/svg" viewBox="0 0 360 60"><defs><style>.cls-1{fill:#838487;}.cls-2{fill:none;}</style></defs><title>Artboard 20</title><path class="cls-1" d="M308.62,42.76C310.63,58.25,325,60,335.09,60,347.17,60,360,55.79,360,42.29c0-11.85-11.29-13.5-22.1-15-8-1.14-15.57-1-15.57-6.1,0-4.66,4.87-6.52,10.89-6.52,4.68,0,11.53,1.93,12.87,7.62h13.46c-1.1-12.61-14.79-16.83-26.13-16.83-10.42,0-23.77,4.34-23.77,16.92,0,9.77,7.88,13.39,17.64,14.75,12.89,1.8,20,1,20,7.09,0,4.58-6.2,6.34-12.32,6.34-5.83,0-13.1-2.89-13.1-7.77Z"/><path class="cls-1" d="M119,57.15h12.47V32.64c0-7.29.56-12.85,9.62-12.85h6V7.84h-1.87c-4.38,0-12,4.07-14.66,11.44V7.81H119Z"/><path class="cls-1" d="M269,7.73c-4.81,0-4.29,0-12.22,0V37.94c0,10.51,7.39,20.79,20.94,20.79a20.77,20.77,0,0,0,17.12-9.36c0,2.56,0,5.2,0,7.77l12.22,0,0-49.36H294.91l0,28c0,6.69-4.87,13.49-13.86,13.49-7.34,0-12-4.23-12-13.39V7.73"/><polygon class="cls-1" points="-0.04 57.1 12.74 57.1 12.74 34.71 44.27 34.71 44.27 57.1 57.05 57.1 57.05 0 44.27 0 44.27 24.61 12.74 24.61 12.74 0 -0.04 0 -0.04 57.1"/><path class="cls-1" d="M211,25.75C211,24.07,214.8,14,226,14S241,22.21,241,25.75Zm43.45,9c0-.65,0-1.25,0-2.08C254.5,15.9,241.73,5.44,226,5.44c-15.83,0-28.67,11-28.67,27.77,0,16,11.58,26.79,28.91,26.79,16.92,0,26.26-13,26.63-17.34H239.58c-1.42,4.25-6,8.47-13.06,8.47-10.94,0-16.11-8.67-16.11-16.33Z"/><path class="cls-1" d="M73.21,25.75C73.21,24.07,77,14,88.23,14s14.94,8.18,14.94,11.73Zm43.59,9c0-.65,0-1.25,0-2.08,0-16.82-12.9-27.28-28.58-27.28s-28.66,11-28.66,27.77c0,16,11.59,26.79,28.91,26.79,16.92,0,26.25-13,26.63-17.34H101.77c-1.42,4.25-6,8.47-13.05,8.47-10.95,0-16.11-8.67-16.11-16.33Z"/><path class="cls-1" d="M159.56,19.74c.49-5.42,6.45-7,11.56-7,5.87,0,11.54,1.11,11.54,7.25,0,2.79-.29,6-11.14,6H158.29c-7.57,0-16.92,4.54-16.92,15.71,0,8.08,5.06,17,18.77,17,13.08,0,18.75-4,22.67-8.72.09,1.64,0,5.45,0,7.28h12l0-11.7V24.74c0-9.32-4.14-19.18-24.23-19.18-18.24,0-21.71,8-22.16,14.18ZM182.76,40c0,4.7-6.67,10.24-17.51,10.24-6.66,0-11.08-3-11.08-9.07,0-3.13,1.93-7.34,9.69-7.34,1.41,0,4.62-.06,6.82-.06,7.42,0,10.81-1.72,12.09-4.38Z"/><rect class="cls-2" x="-0.04" width="360" height="60"/></svg>