<svg xmlns="http://www.w3.org/2000/svg" xmlns:xlink="http://www.w3.org/1999/xlink" width="100" height="100" viewBox="0 0 100 100">
  <defs>
    <clipPath id="clip-heraeus_grayscale">
      <rect width="100" height="100"/>
    </clipPath>
  </defs>
  <g id="heraeus_grayscale" clip-path="url(#clip-heraeus_grayscale)">
    <g id="heraeus" transform="translate(1.768 41.967)">
      <path id="Path_16" data-name="Path 16" d="M308.62,15.448c.538,4.148,4.386,4.616,7.088,4.616,3.235,0,6.67-1.127,6.67-4.742,0-3.173-3.023-3.615-5.918-4.017-2.142-.305-4.169-.268-4.169-1.633,0-1.248,1.3-1.746,2.916-1.746,1.253,0,3.087.517,3.446,2.04h3.6c-.295-3.377-3.96-4.507-7-4.507-2.79,0-6.365,1.162-6.365,4.531,0,2.616,2.11,3.585,4.723,3.95,3.452.482,5.355.268,5.355,1.9,0,1.226-1.66,1.7-3.3,1.7-1.561,0-3.508-.774-3.508-2.081Z" transform="translate(-226.011 -3.998)" fill="#8e8e8e"/>
      <path id="Path_17" data-name="Path 17" d="M119,21.022h3.339V14.459c0-1.952.15-3.441,2.576-3.441h1.607v-3.2h-.5a4.775,4.775,0,0,0-3.926,3.063V7.81H119Z" transform="translate(-87.165 -5.719)" fill="#8e8e8e"/>
      <path id="Path_18" data-name="Path 18" d="M260.052,7.73H256.78v8.089a5.414,5.414,0,0,0,5.607,5.567,5.561,5.561,0,0,0,4.584-2.506V20.96h3.272V7.743H266.99v7.5a3.563,3.563,0,0,1-3.711,3.612c-1.965,0-3.213-1.133-3.213-3.585V7.73" transform="translate(-188.052 -5.66)" fill="#8e8e8e"/>
      <path id="Path_19" data-name="Path 19" d="M-.04,15.29H3.382v-6h8.443v6h3.422V0H11.825V6.59H3.382V0H-.04Z" transform="translate(0)" fill="#8e8e8e"/>
      <path id="Path_20" data-name="Path 20" d="M200.99,10.878a4.058,4.058,0,0,1,4.017-3.146c3,0,4.017,2.2,4.017,3.146Zm11.634,2.41v-.557c.013-4.49-3.406-7.291-7.618-7.291a7.324,7.324,0,0,0-7.677,7.436c0,4.284,3.1,7.174,7.741,7.174,4.531,0,7.032-3.481,7.131-4.643h-3.559a3.557,3.557,0,0,1-3.5,2.268,4.215,4.215,0,0,1-4.314-4.373Z" transform="translate(-144.521 -3.983)" fill="#8e8e8e"/>
      <path id="Path_21" data-name="Path 21" d="M63.215,10.842A4.057,4.057,0,0,1,67.237,7.7c3.007,0,4,2.19,4,3.141Zm11.672,2.41v-.557c0-4.5-3.454-7.3-7.653-7.3a7.345,7.345,0,0,0-7.674,7.436C59.56,17.11,62.663,20,67.3,20c4.531,0,7.029-3.481,7.131-4.643H70.862a3.556,3.556,0,0,1-3.494,2.268,4.213,4.213,0,0,1-4.314-4.373Z" transform="translate(-43.641 -3.947)" fill="#8e8e8e"/>
      <path id="Path_22" data-name="Path 22" d="M146.241,9.357c.131-1.451,1.727-1.874,3.1-1.874,1.572,0,3.09.3,3.09,1.941,0,.747-.078,1.607-2.983,1.607H145.9c-2.027,0-4.531,1.216-4.531,4.207,0,2.164,1.355,4.552,5.026,4.552,3.5,0,5.021-1.071,6.07-2.335.024.439,0,1.459,0,1.949h3.213V10.7c0-2.5-1.109-5.136-6.488-5.136-4.884,0-5.813,2.142-5.934,3.8Zm6.212,5.425c0,1.259-1.786,2.742-4.689,2.742-1.783,0-2.967-.8-2.967-2.429,0-.838.517-1.965,2.595-1.965.378,0,1.237-.016,1.826-.016,1.987,0,2.895-.461,3.237-1.173Z" transform="translate(-103.545 -4.071)" fill="#8e8e8e"/>
      <rect id="Rectangle_1" data-name="Rectangle 1" width="96.544" height="15.887" transform="translate(-0.04)" fill="none"/>
    </g>
  </g>
</svg>
