<svg xmlns="http://www.w3.org/2000/svg" xmlns:xlink="http://www.w3.org/1999/xlink" width="150" height="150" viewBox="0 0 150 150">
  <defs>
    <clipPath id="clip-heraeus_colored">
      <rect width="150" height="150"/>
    </clipPath>
  </defs>
  <g id="heraeus_colored" clip-path="url(#clip-heraeus_colored)">
    <g id="heraeus" transform="translate(2.037 62.851)">
      <path id="Path_16" data-name="Path 16" d="M308.62,20.565c.814,6.273,6.633,6.981,10.719,6.981,4.892,0,10.087-1.7,10.087-7.172,0-4.8-4.572-5.467-8.949-6.074-3.24-.462-6.305-.4-6.305-2.47,0-1.887,1.972-2.64,4.41-2.64,1.9,0,4.669.782,5.212,3.086h5.451c-.445-5.106-5.989-6.815-10.581-6.815-4.22,0-9.626,1.758-9.626,6.852,0,3.956,3.191,5.422,7.143,5.973,5.22.729,8.1.4,8.1,2.871,0,1.855-2.511,2.567-4.989,2.567-2.361,0-5.3-1.17-5.3-3.146Z" transform="translate(-183.667 -3.249)"/>
      <path id="Path_17" data-name="Path 17" d="M119,27.79h5.05V17.865c0-2.952.227-5.2,3.9-5.2h2.43V7.822h-.757a7.222,7.222,0,0,0-5.937,4.633V7.81H119Z" transform="translate(-70.834 -4.647)"/>
      <path id="Path_18" data-name="Path 18" d="M261.729,7.73H256.78V19.964a8.188,8.188,0,0,0,8.48,8.419,8.411,8.411,0,0,0,6.933-3.79v3.146h4.949V7.75h-4.92V19.089a5.389,5.389,0,0,1-5.613,5.463c-2.972,0-4.859-1.713-4.859-5.422V7.73" transform="translate(-152.82 -4.6)"/>
      <path id="Path_19" data-name="Path 19" d="M-.04,23.123H5.135V14.056H17.9v9.067h5.175V0H17.9V9.966H5.135V0H-.04Z" transform="translate(0)"/>
      <path id="Path_20" data-name="Path 20" d="M202.866,13.665a6.136,6.136,0,0,1,6.074-4.758c4.535,0,6.074,3.325,6.074,4.758Zm17.6,3.645v-.842c.02-6.791-5.151-11.027-11.521-11.027-6.41,0-11.61,4.455-11.61,11.246,0,6.479,4.689,10.849,11.707,10.849,6.852,0,10.634-5.264,10.784-7.022h-5.382a5.379,5.379,0,0,1-5.289,3.43,6.374,6.374,0,0,1-6.524-6.613Z" transform="translate(-117.444 -3.237)"/>
      <path id="Path_21" data-name="Path 21" d="M65.088,13.635A6.135,6.135,0,0,1,71.17,8.877c4.548,0,6.05,3.313,6.05,4.75ZM82.74,17.279v-.842c0-6.811-5.224-11.047-11.574-11.047S59.56,9.844,59.56,16.636c0,6.479,4.693,10.849,11.707,10.849,6.852,0,10.63-5.264,10.784-7.022h-5.4a5.377,5.377,0,0,1-5.285,3.43,6.372,6.372,0,0,1-6.524-6.613Z" transform="translate(-35.465 -3.207)"/>
      <path id="Path_22" data-name="Path 22" d="M148.736,11.3c.2-2.195,2.612-2.835,4.681-2.835,2.377,0,4.673.45,4.673,2.936,0,1.13-.117,2.43-4.511,2.43h-5.358c-3.065,0-6.852,1.838-6.852,6.362,0,3.272,2.049,6.884,7.6,6.884,5.3,0,7.593-1.62,9.18-3.531.036.664,0,2.207,0,2.948h4.859V13.327c0-3.774-1.677-7.767-9.812-7.767-7.386,0-8.792,3.24-8.974,5.742Zm9.395,8.2c0,1.9-2.7,4.147-7.091,4.147-2.7,0-4.487-1.215-4.487-3.673,0-1.268.782-2.972,3.924-2.972.571,0,1.871-.024,2.762-.024,3,0,4.378-.7,4.9-1.774Z" transform="translate(-84.145 -3.308)"/>
      <rect id="Rectangle_1" data-name="Rectangle 1" width="146.007" height="24.026" transform="translate(-0.04)" fill="none"/>
    </g>
  </g>
</svg>
