<?xml version="1.0" encoding="utf-8"?>
<!-- Generator: Adobe Illustrator 24.1.1, SVG Export Plug-In . SVG Version: 6.00 Build 0)  -->
<svg version="1.1" id="Ebene_1" xmlns="http://www.w3.org/2000/svg" xmlns:xlink="http://www.w3.org/1999/xlink" x="0px" y="0px"
	 viewBox="0 0 1368.2 251.5" style="enable-background:new 0 0 1368.2 251.5;" xml:space="preserve">
<style type="text/css">
	.st0{fill:#FFFFFF;}
</style>
<path class="st0" d="M102.1,16.7c14.3,6.3,28.9,5.4,44,3.2c18.9-2.7,43.7-14.4,56.3,5c10.4,16,7,31,5.2,48.4
	c-1.8,17.8-2.8,36.1-6.3,53.7c-1.8,9.3,12.4,13.2,14.2,3.9c3.8-18.9,4.9-38.4,6.8-57.6c1.9-18.5,4.5-34-4.6-51.3
	C192.9-25.1,147.3,20.6,109.5,4C100.9,0.2,93.3,12.9,102.1,16.7L102.1,16.7z"/>
<path class="st0" d="M151.3,32.3c-26.5,4.7-50.5-1-74.2-12.9C65,13.3,52.5,4.4,38.9,2.1C14.3-2.2,4.3,19.3,1.6,39.7
	c-6.3,46,7.3,94.8,25.6,136.6c5.1,11.6,13.3,30.3,24.7,36.8c13.4,7.8,23.7-8.5,28.2-19.2c3.7-8.6-9-16.1-12.7-7.4
	c-1,2.4-2.2,5.7-4,7.8c-5.3,6-3.4,5-8.6,0.6c-4.1-3.6-7.8-11.6-10.4-16.4c-10-18.7-16.8-40.4-21.9-61c-6.5-26-13.8-62.6-3.5-88.9
	c9.3-23.6,33.9-5,49,2.8c28,14.3,55.8,20.8,87.3,15.3C164.5,44.9,160.6,30.7,151.3,32.3L151.3,32.3z"/>
<path class="st0" d="M146.5,158.5c-3.5-19.5-14.8-59.3-43-48.8c-21,7.8-21.2,36.6-27.4,54.3c-3.1,9,11.1,12.8,14.2,3.9
	c4.6-13.2,4.1-31.6,14.8-41.9c16.1-15.4,25.5,27.1,27.1,36.4S148.1,167.8,146.5,158.5L146.5,158.5z"/>
<path class="st0" d="M238.3,236.5c0.1-0.1,0.1-0.3,0.1-0.4C238.3,236.2,238.3,236.4,238.3,236.5z"/>
<path class="st0" d="M187.1,235.1l0.6-0.2C187.3,234.9,187.2,235,187.1,235.1z"/>
<path class="st0" d="M269,236.2C269,236.2,269,236.2,269,236.2l2.1,0.1L269,236.2z"/>
<path class="st0" d="M105.9,221.8l-0.1,0.1C105.8,221.9,106,221.8,105.9,221.8z"/>
<path class="st0" d="M143.1,233c-0.3,0.1-0.6,0.2-0.9,0.2C142.6,233.3,142.9,233.2,143.1,233z"/>
<path class="st0" d="M285.8,243.9l-0.9-0.5C284.9,243.6,285.3,243.9,285.8,243.9z"/>
<path class="st0" d="M316.8,239.5c0,0-0.1-0.1-0.1-0.1C316.7,239.5,316.7,239.5,316.8,239.5z"/>
<path class="st0" d="M304.5,238c-0.3,0.1-0.6,0.2-0.9,0.3C304,238.3,304.5,238.2,304.5,238z"/>
<path class="st0" d="M303.3,238.5l0.4-0.2C303.4,238.3,303.3,238.4,303.3,238.5z"/>
<path class="st0" d="M104,50.7c-0.7-0.2-1.5-0.2-2.2,0C102.6,50.8,103.3,50.8,104,50.7z"/>
<path class="st0" d="M177.7,160.7v0.3C177.8,160.8,177.8,160.7,177.7,160.7z"/>
<path class="st0" d="M101.3,55.1l-0.5-0.4C100.9,54.9,101.1,55,101.3,55.1z"/>
<path class="st0" d="M269.3,246.4c-0.9,0.6-2.8,0-2.7,0.6C267.6,246.9,268.9,247.2,269.3,246.4z"/>
<path class="st0" d="M182.8,131l0.5-0.4C183.1,130.7,183,130.8,182.8,131z"/>
<path class="st0" d="M101.3,55.1c0.2,0.1,0.4,0.3,0.6,0.4c0-0.1-0.1-0.2-0.1-0.3C101.6,55.2,101.4,55.2,101.3,55.1L101.3,55.1z"/>
<path class="st0" d="M264,101.4L264,101.4l-0.1,0.3L264,101.4L264,101.4z"/>
<path class="st0" d="M269.1,97.7l-0.8,1.1C268.7,98.6,269,98.2,269.1,97.7z"/>
<path class="st0" d="M101.8,50.7l-1.3-0.1C101,50.7,101.4,50.7,101.8,50.7z"/>
<path class="st0" d="M232.7,46.1h0.6C233.1,46.1,232.9,46.1,232.7,46.1z"/>
<path class="st0" d="M147.1,233.6c0.1,0.1,0.3,0.1,0.5,0.1C147.6,233.6,147.6,233.5,147.1,233.6z"/>
<polygon class="st0" points="104.2,242.9 104.2,242.9 104.2,242.9 104.2,242.9 "/>
<path class="st0" d="M106.7,242.9c-0.8-0.3-1.7-0.3-2.5,0C105,243.2,105.9,243.2,106.7,242.9z"/>
<path class="st0" d="M98.5,240.5l0.3,0.2C98.7,240.7,98.6,240.6,98.5,240.5z"/>
<polygon class="st0" points="144.5,249.5 144.5,249.5 144.5,249.5 144.5,249.5 "/>
<path class="st0" d="M135.6,249c-0.2-0.1-0.4-0.2-0.6-0.3C135.2,248.8,135.4,248.9,135.6,249z"/>
<path class="st0" d="M87.5,215.2L87.5,215.2L87.5,215.2L87.5,215.2L87.5,215.2z"/>
<path class="st0" d="M148.3,152.9c-6.5,5.3-14.5,12.8-21.1,17.9c-0.7,2.1-2.7,3.8-4.5,5.7l-1.2-1l-1.4,1.8c-1,0.2,1.1-1.3-0.5-0.7
	v1.3c-0.5-0.3-4.6,3.5-2.5,0.2c-2.2,1.9-4.4,3.8-6.5,5.8c-1.4,1.3,0.1,1.7-1.8,2.9c-0.6,0,0.4-0.8-0.2-1.1c-5.5,3.6-3.3,7.3-8,11.1
	l0.2-0.5c-0.4,1-1.8,2.4-1.7,2.6c1.7,0.5,0.1-1.4,2.1-2.1c0.9,1.1-1.1,2.1-0.3,2.8c-1.3,0.7-1.3,1.8-2.1,2.8c-2.1,1-3.6,3.6-5.4,4.2
	c-0.3,1-0.3,3-1.9,5.2c-2.1,1.1-0.5-1.1-2.6,1.2l0.4,0.8c-1.6,2.2-1.6,1.8-1.8,1.5c-0.5,0.7-0.9,1.6-1.1,2.4c-0.1,1-0.5,2-1.1,2.9
	v-1.9c-0.3,1-0.6,2-0.9,3.1c-0.4,1.3-0.5,2.6-0.6,3.9c-0.5,0-0.3-1.5-0.2-2.5c-1.4,2,0.4,3.3,0.3,4.3c0.3-0.4,0.3-2.8,1.2-1.7
	c-0.1,1.8,1.5,3.3,1.1,4.6c-0.5-0.5-0.9-1-1.3-1.5c1.8,3.2,1.4,1.6,3.3,5c-0.2-0.1-0.3,0-0.5,0c2.4,1.5,4.2,4.2,7.8,6.2l-0.8-0.2
	c1.6,0.6,2.8,0.4,3.6,0.7c-1.9-1.3-1.1-1.2-0.9-1.9c0.9,1.1,2.2,1.2,3.5,1.3c1.4-0.1,2.8,0.1,4.1,0.8c-0.2,0.4-1.1,0.7-1.9-0.1
	c-0.8,0.4-1.4,0.8-2.1,1.2c-1,0.4-2.1,0.4-3.2,0.1c2.1,0.6,3.8,1,3.2,1.3l0.9-1l2.1,0.7c0.6-0.6-1.2-1.6,0.7-1.6
	c2.1,0.2,0.7,1.5,1.2,1.1c2.9,0.3,1.5-1,4,0.1c-0.3,0-0.8,0.1-1-0.1c1.8,1,4.6,0.8,4.8,2.3c-0.3,0.3-0.5,0.7-1.2,0.4l0.1-0.2
	c-2.3,0.6,1.8,0.1,0.9,1.2c0-0.8,2.6-0.1,3.8,0.2l-0.2-1c4.4-2-0.5,1.7,3.5,2c2.6-0.3-0.9-0.4,0.7-0.8c1.6,0.4,2.2,1.3,4.7,1.2
	c0.6,0.4,1.9,1.1,1.9,2.1c1.5-0.3,4.5,1,5.4,0c-2.4-1.1-2.6,0.8-5.5-0.8l1-0.9c2,0.3,4.7,0,6.1,0.5c-0.3-0.2-0.4-0.5-0.2-0.7
	c2.9-0.1,3.8-1,6.6-0.5c0.3,0.9-1.3,0.6-2.5,0.6c1.8,0.8,1.9,0.2,4.7,0.7c0.1,0.8-1.9-0.2-2.3,0.6h3.1c0,0.1,0,0.1,0,0.2
	c0.5-1.3,2.4,0.3,4.3,0c4.5,0.2,5.3-1.5,7.8-2.5c0.7,0.4,0.8,0.7,0.5,1c-1.1-0.6-0.9-0.2-1.3,0.2c1.5-0.1,3.3,1.4,2.4,1.9
	c2.4-0.3-0.9-0.7,0.6-1.1l3.3,0.2c-0.4-0.7-1.5-0.9,0.2-1.3c1.3-0.1,2.7,0,4,0.1c-0.3,0.3,0.6,1-0.8,1c0.9,0.3,2.3,0.3,2.9-0.3
	c-2.1-0.6,3.4-0.5,1.9-1.6l2,0.6c-0.5,0-0.5,0.4-1.2,0.3c0.6,1,1.7-0.3,2.4-0.4c0.7,0.2,2.6,0.3,2.8,0.7c0.9-0.3,1.8-0.1,2.5,0.5
	c1-0.2,0.1-0.7,0.4-1l3.3,0.1c0.2,0.6,0.4,2.1,0,2.3c1.2-0.5,0.4-1.7,2.3-1.6c-1.1,1.1,2.5,0.9,1,2.2c1.1,0.8,4.1,0.8,5.8,0.5
	c1-0.9-1.8-0.5-1.7-1.4c4.7-0.4,5-2.8,8.5-2.4l-0.9-0.2c2.1-0.5,1.9-0.4,3.2-1.2c-0.6,1.1,2.5,2.9,6.1,2.6c0.3-0.6-2-1-1.4-1.9
	l2.4-0.2c0.2,0.1-0.1,0.3-0.4,0.4c2.1-0.4,4,1.3,4.6,0l2.2,1.6l-0.9-0.7c0.3-0.6,2.6-0.8,3.1-1c1.5-0.6,3.2-0.4,4.6,0.4
	c-0.4-0.4-1.5-1.4,0.4-1.7c0,1.8,4,0.5,4,1.5c0.8,0,2.1,0.5,2.2-0.3l-0.1,1.1c0.1-1.6,2.9-1.6,5-1.9c-0.4,2.1,2.4-0.3,3.4,1.6
	c0.4-1.4,3.8-0.7,4.1-1.9c1.7-0.1,1.5,1.2,1.9,1.6l0.8-0.6c0.9,0.6,4,0.6,5.8,1l1.6-1.3l0.7,0.6c0.3-0.3,1.7-0.6,0.8-1h1
	c0-1.4,1.3-0.4,3.1-1.1c0.4,0.2,0.4,0.5,0,0.7c0.9,0,0.6,0.7,1.1,1.1c-0.7-0.3,3.2-2.6,0.7-3.1c-0.2-0.6,1.2-1,2.1-0.8l0.6,1.2
	l1-1.4c1.4-0.3,2,0.5,3.2,0.6c-1.2,0.1-2.5,2.5,0.5,2.3c-1.1,0.3-2.2,0.7-3.2,1.3c0.6,0,1,0.1,0,0.7c2.4-0.5,0.8-0.8,3.1-1.1
	c-0.1,1.1,0.6,1.4,2.7,1.7l-1.6-0.7c0.1-0.1,0.2-0.2,0.3-0.3c-0.6-0.1-0.8-0.3-0.9-0.7c0.5,0,2.7-1.5,3.1-0.9
	c-2.5-1.6,4-1.5,2.5-2.5c0.3-0.3,1.9-0.5,2.1,0.1c-1.9,1,1.5,1.2,1.3,1.9c0.7-0.4-1.6-0.8-0.6-1.2c1,0,1.9,0.3,2.7,0.8l-0.5,0.2
	l1.8,0.4c0.3-0.6-1.8-0.8-0.1-1.2c0.5,0.2,2.1-0.2,2.1,0.3c-0.7,0.8-0.1,1.8-1.5,2c1.2-0.1,4.9-0.5,3.4-1.4h1.4
	c-0.9-0.4-3.4-1.1-0.6-1.4v0.2l1.9-1l0.9,0.5c0-0.3,0.3-0.6,1-0.6c0.2,0.3,0.9,0.4,0.9,0.9c2.1-0.2,1.9-0.7,2.2-1.1
	c1.2-0.2,1.6,0,1.1,0.7c1.6,0,4.4-0.3,5.6,0.3c2.1-0.6-0.5-0.2,0.8-1c2,1.8,7.2,0.3,10.7-0.2c-1.1-1.6,1-0.3,1.5-1.8
	c-0.7,0.6,3.4,1.1,0.4,1.8l1.9-0.3c1.4,0.8-3.1,0.9-1,2c2.1-0.2,3.4-2.1,5.9-1.7c-0.8,1.3,1.9-0.5,1.4,0.8c-0.5,0.5-1.2,0.4-1.9,0.5
	l0.5,0.2c4.6,0,1.2-1.5,3.6-2.5c2.8-0.3,2.3,0.8,2.5,1.3c0.9,0.1,1.8,0,2.6-0.4c-1.7,0.8-3.2-0.5-2.5-1.4c1.3,1.3,4.2-0.1,4.9-0.7
	c-4.1-1.2-2.8,0.1-6.6-1.2c-0.5,0.5-0.3,1.7-2.6,1.3c1.4-0.7-0.1-0.7-0.6-0.8c0.5,0.7-1.5,0.4-2.2,0.7c-0.7-0.5,1.3-1.7-1.1-1.8
	l-0.3,1.7c-0.9-0.2,0.3-1.2-1.6-0.7c1-1-0.4-1.3,2.2-1.8c-3.2-1.2-4.7,1.1-7.1,1.8c0.2-0.1,0.3-0.3,0.5-0.5
	c-0.6,0.4-1.4,0.6-2.1,0.6c-1.6-0.3,1.2-0.8,0.8-1.3l-2.6,0.2c0,0-0.1-0.1-0.1-0.1c-0.7,0.3-1.3,0.5-1.6,0.1c0.5-0.5,1-1,1.5-1.6
	l-2.9,1.6c0.3-0.6-2.3-0.8-0.4-1.3l-4,0.5l-0.4-1.1c-1,0.3-1,0.5,0.2,0.6c-1.4-0.2-5.9,2.3-5.4,0.1c-3.1,1.1-4.2,0.8-8,1.6
	c2.9-1.2-3.4-1.1-0.4-1.8c-1.8-0.4-2.1,0.8-3.5,1.1c-1.4-0.4-0.8-1.5,0.6-2l-1.7,0.6v-0.2l-1.4,0.7c-1.6-0.5-0.4-1.1-2-1.2l-0.3,1
	l-1.1-0.5c0.4,0.4-0.5,0.7-1.7,0.8v-0.2l-1.4,0.3c1.4-0.7-1.3-0.2-0.7-0.9c-1.2,0-2.3,0.1-3.4,0.3l0.4,0.6c-2.8,0.8-0.2-1-2.5-1
	l0.2,0.8c-3.4-1.1-5.6,1-8.1,0.3c1.4-0.2,1-1.1,1-0.9c-2.1,0.4-5.6,0.3-7.8,1.4c-0.9-1.1-1.1-1.4-3.4-1.8c-1.6,0.1-1.9,0.3-2.4,1
	c-1.6-0.4-4.6,0.4-4.7-0.4c-0.4,0.7-1.4-0.1-2.3,0.5l-0.2-0.3l0.2,0.8c-2.9-1.6-4.8,1.2-7.7-0.3l0.5-0.2l-1.2,0.3
	c-0.2-0.3,0.3-0.6,0.3-1h-5.6l1.1,0.6c-1.2,0.1-1.9,0.9-3.3,0.5c2.2-1.2-1.9,0-2.2-0.9l1.2-0.3c-1.6,0.1-1.6,0.1-1.5,0.9
	c-2.1,0.3-1.5-1.4-3.4-0.6h1.4c0.4,0.4-0.6,1.1-1.5,1.1c-0.2-0.1-0.9-0.4-0.2-0.6c-1.7,0.3-4.2,0-4.9,0.3c-0.9-0.2-0.6-0.8-0.1-1
	c-3.6,0.8-1.6-0.1-5.2,0.6v-0.5l-1.2,0.6l-1.8-1l0.6,0.6c-1.1,0.2-2.2,0.3-3.3,0.2l0.6-0.7c-3.3,0.4-3.9-1.1-7-0.1
	c-0.2-0.1,0.3-0.3,0.5-0.4c-2.9,1.1-2.2-1.2-5.1,0.1c0.2-0.2-0.1-0.5,0-0.7l-1.3,0.4l0.1-0.9l-1.1,1.3l-0.8-0.9l-0.5,0.4
	c-1.4-1.7-3.4-0.4-5.4-1.7l0.3,1.1c-4.9,2.3-11.2-1.4-17.1-0.5l0.1-0.9l-2.5,1c-1.3-0.7,0.8-0.7,0.4-1.2c-2.6,0.4-1.1,1.3-4.2,1.4
	c-1.5-0.7,0.6-0.6,1.3-1c-2.8,0.3-7,0.6-9,0c-0.1,0.1-0.2,0.3-0.1,0.3c-1.9,0.3-4.4-0.3-6.4-0.4c0.1-0.4,0.6-0.4,1.1-0.5
	c-0.7-0.1-1.7-0.5-2.4-0.1l0.8-0.7c-1.6-0.3-4.6,0.2-4.9-0.8c0.2,0.4,0,1-1.3,0.9c-0.6-1.4-3.7,0.2-5.8-0.8c0.3-0.3,1.9-0.2,1.4-0.2
	c-1-0.5-2.1,0-3.1,0.3l0.4-0.5l-5.1,0.1c-0.5-1.4-4.7-0.5-4.1-1.5c-1.7-0.4,1.3,0.9-0.9,0.6c-0.5-0.7-2-0.1-1.8-1l0.3-0.1l-1.5-0.3
	l1.1-0.6c-1-0.2-2.1,0.3-2.6,1.2c-1.1-0.8-2.9-0.8-3.2-1.7l0.5-0.1c-1.3-0.2-2.4-0.9-3.1-1.9c-0.2-0.6-0.1-0.9-1-0.5
	c0-0.1,0.2-0.3,0.3-0.2l-0.4-0.3l0.6-0.4c-0.5,0.1-1,0.2-1.6,0.1l0.5-0.2c-0.4-0.6-0.6-1.3-0.4-1.9l0.2,0.1
	c-0.3-0.9,0.8-0.4,0.7-1.1c0.1,0.1,0.1,0.1,0.1,0.2l0.8-1l0.2,0.5c0-0.7,0.5-1,1.3-1.3s1.4-0.6,0.8-0.4c0.3-1,1-2.5,0.7-3.1
	c1.6-1.8,0.8-0.1,2.1-0.9c1.2-1.3,0.8-2,2.8-3.5l0.3,0.4c0.7-0.9,1-1.6,2-2.8l-0.2,0.5c1.1-2.5,3.2-1.3,3.2-4.1
	c1-0.5,2.3-2.1,2.9-1.4c1.8-2.4,3.7-4.7,5.8-6.9c1.4,0.8,0.5-0.5,2.5-1.2l-0.6-0.5c3.4-3.1,8.6-5,12.3-8.4l0.6,0.5l0.2-1.3
	c4.4-3.1,10.2-7.2,13.7-9.8c0.9-1.2,2-3.3,4-4.4l-0.1,0.2c3-2.9,6.3-5.4,9.9-7.6c0,0.4,0.4,0.4,0.2,0.8c0.3-1.3,2-1.5,2.8-2
	l-1.2,0.1c0.7-1.1,2-1.8,3.3-1.6l1.1-1.8c0.2,0,0.3,0,0.5,0.1V160l1.4,0.3c0.3-0.5,2.3-2.1,2.4-3.4c0.4,0.2,2-0.6,1,0.3l6-3.8
	l-1.1,0.3c-0.6-0.6,1-2.2,2-2.5c-0.9,1.3,0.5,1,1.4,1.1c0.6-0.9-1.1-0.1-0.9-0.8c0.7-1.1,2.7-2.8,3.4-2.8l-0.4,0.7
	c1.2-1.2,2.6-0.4,3.9-1.4c0.9-1.3,2.1-1.4,1.1-2.4c1.6-1.4,1.2,0.3,1.8,0c0.5-1.1,3.2-2.4,3.9-2c-0.1-2.3,5.2-2.5,4.7-4.1l1.9-0.2
	c-0.4-0.8-0.1-1.8,0.7-2.4c1.4-0.3,1.5,0.5,2.1,0.7l-0.1-1.9c7.7-2.7,15.7-9.2,23.7-12.8c3-2.4,6.6-5.8,10.4-8.3l-0.3,0.5l4-2.3
	l-3.1,1.3c0.6-0.7,1.2-1.4,1.9-1.9c4.4-2.4,10.4-5.8,14.7-10.9c1.8-4.3,3.3-0.7,5.3-4.9c-0.1,0.4,0,0.7-0.1,1.1
	c1.3-1.7,2.4-3.5,3.4-5.4c0.5-1,0.9-1.7,1.5-3c0.7-1.5,1.3-3,1.6-4.6c1.6,1.4,1.5-4.3,2.2-3.5l-0.6-0.7c0.9-1.4,1.1-5.1,1.6-4.6
	c-0.4-1-0.8-2-1.3-3l0.7-0.4c-0.6-2.4-1.6-4.7-3-6.8c-1-1.2-2-2.5-2.8-3.9c-0.7-0.8-1.2-1.7-1.5-2.7c-3.9-2.8-8-5.2-12.3-7.2
	c-4.3-1.8-8.7-3.3-13.2-4.4c-1.3,0.4-3.6,0-5.5-0.2l-1.8-1.2c-1.9,0-3.9,1.1-5.6,0.3c0-0.1,0.1-0.2,0.2-0.2c-1.9,0-3.6-0.6-5.3,0.2
	c-2-0.2-3.9-0.7-3.3-1.6c-0.2,1.5-4.2-0.3-4.2-0.3s-6.4-0.3-16-0.1s-22.5,1.2-35.8,2.4s-27,2.6-38.4,3.2s-20.4,0.4-25.7,0.7
	c-1,0.6-2.7,0.2-2.5,1.3c-1.5-0.3-1.5-1.8-2.1-1.2c1.6,1.3-1.5,1.5,0,3.2l-1.3-0.4c-0.5,0.4,1.9,0.2,1.2,1l1-1.2
	c0.7,0.4,1.2,1,1.5,1.7c1.2-0.2,2.4-1.9,4.4-0.3l-0.6-0.1c1.9,0.5,1,1.2,1.3,1.5l-0.5-0.1l1.5,1.1c-1.1-0.7-3.5-0.2-2.4,0
	c2.3,1-0.5-0.5,1.3-0.2c1.1,0.2,0.6,0.9,0.5,1.3l2,0.4c-0.2,0.6-1.3-0.4-0.6,0.5c0.9,0,1.8-0.1,2.7-0.2c0.2,1.7,2.9-0.3,3.9,1.4
	c-1.9,0.2,0.1,0.6-0.3,1.1l4.7,0.4c0.4,0.3-1.3,0.4-0.6,0.4c0.9,0.5,1.5-0.3,1.9-0.3c0.4,0.5,3.5,0.2,3.3,1.3
	c3.2,0.9,1.4-1.4,4.4-0.6c0.4,0.7-2.4,0.1-1.1,0.8l3.1-0.2c-0.3,0.7-1.1,1-1.8,0.9c8.4,1,13.1,4.3,20.8,3c1.1,0.7-0.8,0.6-1.5,1.1
	c5.5-1.4,8,1.3,12.7,0.8v-0.7c6.7,1.5,14.5-0.4,21.9-0.2l-0.9-0.4c1.2-0.6,2.4-1.1,3.7-1.3c0.2,0.3-0.7,1.5,1.4,1
	c-0.4-0.2-1.4-0.4-1.1-0.7c6.4,1.2,19.6-0.3,29.5,0.5c13.3-0.8,28,1.7,36.2,6c-1.3-0.6,0-1.8,0.9-1c0.6,3.4,3.9,3.1,3.1,3.8
	c-0.1,0.1-0.2,0.2-0.3,0.3c0.7,0.2,0.2,0.9-0.2,1c-0.1,0.1,0-0.1,0-0.1c-0.1,0.2-0.3,0.4-0.5,0.6l-1.2,1.5c-0.9,1.2-1.7,2.5-2.4,3.9
	l-0.6-0.5c-0.9,0.4-0.8,1-1.4,1.7l-0.1-0.2c-1.9,1.4-3.8,4-5.2,4.6L244,90c-1.2,1-1.1,0-1.9,1.4l-0.2-0.4l-1,1.8
	c-0.8-1.3-3.6,2.6-5.1,2.7c-2.1,2.2-4.5,4.2-7.1,5.8c-1-0.3-4.1,1.9-6.4,2.9c-3.9,2.9-9.6,6.9-15,10l0.6,0.8l-1.3,1
	c-0.1-0.2-0.4-0.2-0.2-0.4c-1.7-0.3-3,2.3-4.5,2.4c1.2,0.3,1.1-0.5,1.9-1c1.4-0.3,0.8,1.2-1,1.7l-0.1-0.2l-0.8,1.1
	c-0.5-0.6-1.7-0.3-2.2-0.9c-4.4,3.1-6.8,6.2-11.7,9c0-1.1-3.2,2.4-3.1,0.5c-2.5,2.3,1.1,0.7,0.4,2.5c-0.8,0.5-1.4,1.4-1.8,1
	c0.2-0.5-1.2-0.4-0.6-0.9l-1.8,1.4c-0.3,0,0.1-0.4,0.2-0.7c-3.4,3.3-7.3,3.7-10.2,6.8c0.1,0.6,1.4-0.8,1.5-0.2
	c-2.8,3.3-3.6,1.2-6.3,4.1l0.2-1.1c-0.7,1.2-0.8,2-2.8,2.7c-0.8-0.5,1-1.6,1.6-2.5c-1.2,0.8-4,3.1-2.6,3.1c-1.2,1.2-2.2,0.9-3.1,1.3
	c0.1,0.2,1.6-0.4,1.1,0.5c-2.6,1.3-5.1,2.9-7.4,4.6c-0.1-0.2-0.5-0.4-0.3-0.6c-1.1,2.3-2.1,0.5-4.5,2.6L148.3,152.9z"/>
<path class="st0" d="M145.6,249.8l-1.1-0.2c0,0.2-0.1,0.4-0.6,0.6L145.6,249.8z"/>
<path class="st0" d="M87.9,233.8c-0.2-0.1-0.4-0.3-0.6-0.4C87.6,233.8,87.8,233.8,87.9,233.8z"/>
<path class="st0" d="M86.6,215.5c-0.7,1.4,0.3,0.3,1-0.3C87.4,215.1,87.2,215.1,86.6,215.5z"/>
<path class="st0" d="M176.3,248.3c-0.2,0.1-0.3,0.2-0.3,0.4C176.3,248.6,176.3,248.5,176.3,248.3z"/>
<path class="st0" d="M260.1,246.9l-0.3-0.1C259.8,246.8,259.9,246.9,260.1,246.9z"/>
<path class="st0" d="M255.4,245.7c-0.3,0-0.7,0.1-1,0.2C254.7,245.9,255.1,245.9,255.4,245.7z"/>
<path class="st0" d="M155.9,248.2c-0.3,0-0.6,0.1-0.9,0.3C155.3,248.5,155.6,248.4,155.9,248.2z"/>
<path class="st0" d="M253.5,246.1h-1.2v0.2L253.5,246.1L253.5,246.1z"/>
<path class="st0" d="M261.6,246.9c-0.5,0-1,0-1.5,0C260.6,247.1,261.1,247.1,261.6,246.9z"/>
<path class="st0" d="M207.1,247.1h-0.1C206,247.4,206.6,247.3,207.1,247.1z"/>
<polygon class="st0" points="248.4,247.9 248.3,247.9 247.9,248.1 248.4,247.9 "/>
<path class="st0" d="M266.6,247c-0.2,0-0.4,0.1-0.6,0.2l0.7,0.1C266.6,247.2,266.6,247.1,266.6,247z"/>
<path class="st0" d="M224.6,247.9c0.2-0.2,0.4-0.5,0.5-0.8C224.7,247.2,224.4,247.4,224.6,247.9z"/>
<path class="st0" d="M337.3,85.4c-0.1-0.6,0.3-1.1,0.9-1.2c0.1,0,0.2,0,0.3,0h6.9c4.4,0,7.7,1.1,9.8,3.3c2.1,2.2,3.1,5.7,3.1,10.6
	c0.1,2.5-0.3,4.9-1,7.3c-0.6,1.8-1.5,3.4-2.8,4.7c-1.2,1.2-2.6,2-4.1,2.6c-1.6,0.5-3.3,0.8-4.9,0.8H343v18.8c0,0.2,0,0.5-0.1,0.7
	c-0.1,0.2-0.3,0.3-0.6,0.4c-0.6,0.1-1.1,0.1-1.7,0.1h-3.3V85.4z M352,97.4c0.1-2.1-0.3-4.1-1.2-6c-0.9-1.5-2.5-2.4-4.3-2.3H343v18.9
	h3.1c1.8,0.1,3.5-0.8,4.5-2.4C351.5,104.1,352,101.4,352,97.4L352,97.4z"/>
<path class="st0" d="M362.5,85.4c0-0.2,0.1-0.4,0.1-0.6c0.1-0.2,0.2-0.3,0.4-0.4c0.2-0.2,0.4-0.2,0.7-0.2h6.9c4.4,0,7.7,1.1,9.8,3.3
	s3.1,5.7,3.1,10.6c0.1,3.1-0.4,6.1-1.7,8.9c-1,2-2.5,3.7-4.4,4.8c0.7,0.9,1.3,1.8,1.9,2.8c0.8,1.4,1.4,2.8,2,4.2
	c0.7,1.9,1.3,3.8,1.7,5.7c0.5,2.4,0.9,4.9,1,7.4c0,0.4-0.1,0.8-0.4,1.1c-0.8,0.3-1.6,0.4-2.5,0.3h-1.5c-0.6,0-1.2-0.1-1.8-0.1
	c-0.2-2.6-0.5-5.2-1-7.8c-0.4-2-0.9-3.9-1.5-5.8c-0.5-1.4-1-2.7-1.7-4c-0.5-0.8-1-1.6-1.5-2.4c-0.2,0-0.5,0.1-0.7,0.1h-3.1v18.8
	c0,0.2,0,0.5-0.1,0.7c-0.1,0.2-0.3,0.3-0.6,0.4c-0.6,0.1-1.1,0.1-1.7,0.1h-3.3L362.5,85.4z M377.2,97.8c0.1-2.2-0.3-4.3-1.2-6.3
	c-0.8-1.6-2.6-2.5-4.3-2.3h-3.5v18.9h3.1c1.8,0.1,3.5-0.8,4.5-2.3C376.7,104.2,377.2,101.6,377.2,97.8z"/>
<path class="st0" d="M388.6,86.8c0-0.5,0-1,0.1-1.5c0.1-0.4,0.3-0.6,0.6-0.8c0.5-0.2,1.1-0.3,1.7-0.3c0.8,0,1.9,0,3.3,0v47.9
	c0,0.2,0,0.5-0.1,0.7c-0.1,0.2-0.3,0.3-0.6,0.4c-0.6,0.1-1.1,0.1-1.7,0.1h-3.3L388.6,86.8z"/>
<path class="st0" d="M397.9,85.9c-0.1-0.4-0.2-0.9-0.1-1.3c0.1-0.3,0.5-0.4,1.3-0.4h4.6l5.8,27.1c0.6,3.1,1.1,6.2,1.6,9.2
	s0.8,5.6,1.2,7.9c0.3-2.2,0.6-4.9,1-7.9s0.9-6.1,1.5-9.2l5.2-25.4c0.1-0.4,0.2-0.9,0.4-1.3c0.3-0.3,0.7-0.5,1-0.4h5l-10.8,49.2
	c-0.8,0.1-1.5,0.2-2.2,0.2s-1.5,0.1-2.6,0.1c-0.9,0-1.7-0.4-2.2-1.1c-0.6-0.9-1-1.9-1.2-2.9c-0.4-1.4-0.8-3.1-1.3-5.1
	s-1-4.2-1.5-6.5c-0.5-2.3-1-4.7-1.6-7.2c-0.6-2.5-1.1-4.9-1.6-7.3C400.5,97.9,399.2,92.1,397.9,85.9z"/>
<path class="st0" d="M443.4,120.8h-12l-2.8,11.5c-0.1,0.3-0.3,0.6-0.6,0.8c-0.7,0.3-1.4,0.3-2.1,0.3h-1.6c-0.7,0-1.3-0.1-2-0.2
	l12.5-48.2c0.1-0.6,0.9-1,2.2-1c0.9,0,1.8,0.1,2.7,0.2l12.5,48c0.1,0.3,0,0.7-0.3,0.9c-0.7,0.3-1.4,0.4-2.1,0.3h-1.5
	c-0.6,0-1.3,0-1.9-0.1L443.4,120.8z M432.6,115.6h9.7l-2.4-9.9c-0.3-1.2-0.5-2.4-0.8-3.6s-0.5-2.4-0.7-3.6s-0.4-2.3-0.6-3.4
	s-0.3-2-0.4-2.9c-0.1,0.8-0.2,1.8-0.4,2.9s-0.4,2.2-0.6,3.4s-0.4,2.4-0.7,3.6s-0.5,2.4-0.8,3.6L432.6,115.6z"/>
<path class="st0" d="M464.3,89.6v42.6c0,0.2,0,0.5-0.1,0.7c-0.1,0.2-0.3,0.3-0.6,0.4c-0.6,0.1-1.1,0.1-1.7,0.1h-3.3V89.6h-9.5v-4.1
	c-0.1-0.6,0.4-1.1,0.9-1.2c0.1,0,0.2,0,0.3,0h23.8v4.2c0,0.8-0.4,1.1-1.2,1.1L464.3,89.6z"/>
<path class="st0" d="M477.5,85.4c0-0.2,0-0.4,0.1-0.7c0.1-0.2,0.3-0.3,0.6-0.4c0.6-0.1,1.1-0.1,1.7-0.1c0.8,0,1.9,0,3.3,0v21.1
	l11.1-20.8c0.6-0.1,1.3-0.2,1.9-0.3c0.6-0.1,1.1-0.1,1.7-0.1c2.1,0,2.9,0.6,2.3,1.7l-11.3,19.5c2.8,2.1,5.1,5.4,7,9.8
	c2.1,5.4,3.5,11,4.2,16.8c0.1,0.4-0.1,0.8-0.4,1.1c-0.6,0.3-1.3,0.4-1.9,0.3c-1.3,0-2.6-0.1-4-0.2c-0.8-4.6-1.9-9.1-3.2-13.6
	c-0.9-3.2-2.5-6.1-4.6-8.6c-0.4-0.4-0.9-0.8-1.4-1.1c-0.5-0.3-1-0.6-1.5-0.8v23c0,0.2,0,0.5-0.1,0.7c-0.1,0.2-0.3,0.3-0.6,0.4
	c-0.6,0.1-1.1,0.1-1.7,0.1h-3.3L477.5,85.4z"/>
<path class="st0" d="M510.9,127.9h12v4.2c0,0.5-0.1,0.8-0.3,0.9c-0.3,0.2-0.6,0.2-0.9,0.2h-16.6V85.9c0-0.3,0-0.6,0.1-0.9
	c0.1-0.2,0.3-0.4,0.7-0.5c0.6-0.1,1.1-0.2,1.7-0.2c0.8,0,1.8,0,3.3,0L510.9,127.9z"/>
<path class="st0" d="M527.3,86.8c0-0.5,0-1,0.1-1.5c0.1-0.4,0.3-0.6,0.6-0.8c0.5-0.2,1.1-0.3,1.7-0.3c0.8,0,1.9,0,3.3,0v47.9
	c0,0.2,0,0.5-0.1,0.7c-0.1,0.2-0.3,0.3-0.6,0.4c-0.6,0.1-1.1,0.1-1.7,0.1h-3.3V86.8z"/>
<path class="st0" d="M550.7,114c-0.3-0.8-0.8-2-1.3-3.7c-0.6-1.7-1.2-3.4-1.8-5.4s-1.3-3.9-1.9-5.8s-1.2-3.6-1.6-4.9
	c0.1,1.1,0.2,2.7,0.3,4.8c0.1,2.1,0.2,4.2,0.2,6.3c0.1,2.1,0.1,4.1,0.1,6s0,3.1,0,3.9v17c0,0.2,0,0.5-0.1,0.7
	c-0.1,0.2-0.3,0.3-0.6,0.4c-0.6,0.1-1.1,0.1-1.7,0.1H539V85.5c-0.1-0.6,0.3-1.1,0.9-1.2c0.1,0,0.2,0,0.3,0h4.3l7.8,18.9l1.4,3.9
	c0.6,1.6,1.2,3.4,1.9,5.4c0.6,1.9,1.3,3.8,1.9,5.7l1.5,4.8v-0.2c-0.1-1-0.3-2.5-0.3-4.6c-0.1-2-0.1-4.1-0.2-6.2
	c-0.1-2.1-0.1-4.1-0.1-6s0-3.2,0-4.1V85.5c0-0.2,0-0.4,0.1-0.7c0.1-0.2,0.3-0.3,0.7-0.4c0.6-0.1,1.1-0.1,1.7-0.1c0.8,0,1.8,0,3.3,0
	v47.9c0,0.8-0.4,1.1-1.2,1.1h-4.3L550.7,114z"/>
<path class="st0" d="M570.1,86.8c0-0.5,0-1,0.1-1.5c0.1-0.4,0.3-0.6,0.6-0.8c0.5-0.2,1.1-0.3,1.7-0.3c0.8,0,1.9,0,3.3,0v47.9
	c0,0.2,0,0.5-0.1,0.7c-0.1,0.2-0.3,0.3-0.6,0.4c-0.6,0.1-1.1,0.1-1.7,0.1h-3.3L570.1,86.8z"/>
<path class="st0" d="M581.8,85.4c0-0.2,0-0.4,0.1-0.7c0.1-0.2,0.3-0.3,0.6-0.4c0.6-0.1,1.1-0.1,1.7-0.1c0.8,0,1.9,0,3.3,0v21.1
	l11.1-20.8c0.6-0.1,1.3-0.2,1.9-0.3c0.6-0.1,1.1-0.1,1.7-0.1c2.1,0,2.9,0.6,2.3,1.7l-11.3,19.5c2.8,2.1,5.1,5.4,7,9.8
	c2.1,5.4,3.5,11,4.2,16.8c0.1,0.4-0.1,0.8-0.4,1.1c-0.6,0.3-1.3,0.4-1.9,0.3c-1.3,0-2.6-0.1-4-0.2c-0.8-4.6-1.9-9.1-3.2-13.6
	c-0.9-3.2-2.5-6.1-4.6-8.6c-0.4-0.4-0.9-0.8-1.4-1.1c-0.5-0.3-1-0.6-1.5-0.8v23c0,0.2,0,0.5-0.1,0.7c-0.1,0.2-0.3,0.3-0.6,0.4
	c-0.6,0.1-1.1,0.1-1.7,0.1h-3.3L581.8,85.4z"/>
<path class="st0" d="M620.5,133.3V85.5c0-0.2,0-0.4,0.1-0.6c0.1-0.2,0.2-0.3,0.4-0.4c0.2-0.1,0.4-0.2,0.7-0.2h16.7V87
	c0,0.5,0,1-0.1,1.5c-0.1,0.3-0.2,0.5-0.3,0.6c-0.2,0.1-0.4,0.1-0.6,0.1h-11.1V104h10.5c0,1.4,0,2.8-0.1,4.2c-0.1,0.7-0.4,1-0.9,1
	h-9.5v23c0,0.2-0.1,0.4-0.1,0.6c-0.2,0.4-0.6,0.6-1,0.6L620.5,133.3z"/>
<path class="st0" d="M643.5,119.1c0,1.3,0.1,2.6,0.2,3.9c0.1,1.1,0.4,2.1,0.9,3c0.5,0.8,1.2,1.5,2,2c1.1,0.5,2.3,0.8,3.5,0.7
	c1.2,0,2.4-0.1,3.5-0.4c0.9-0.2,1.8-0.5,2.6-0.9v-42c0-0.2,0-0.4,0.1-0.7c0.1-0.2,0.3-0.3,0.6-0.4c0.6-0.1,1.1-0.1,1.7-0.1
	c0.8,0,1.9,0,3.3,0v47.2c-1.4,0.8-2.9,1.3-4.5,1.7c-2.4,0.6-4.9,0.9-7.4,0.8c-2.3,0.1-4.6-0.3-6.7-1.2c-1.6-0.7-2.9-1.8-3.8-3.3
	c-0.9-1.4-1.5-3.1-1.7-4.8c-0.3-1.9-0.4-3.8-0.4-5.8V85.5c0-0.2,0-0.4,0.1-0.7c0.1-0.2,0.3-0.3,0.6-0.4c0.6-0.1,1.1-0.1,1.7-0.1
	c0.8,0,1.9,0,3.4,0L643.5,119.1z M641.8,74.5c0-0.9,0.3-1.8,0.9-2.5c0.6-0.7,1.6-1.1,2.5-1.1c1-0.1,2,0.3,2.7,1
	c0.6,0.7,0.9,1.7,0.8,2.6c0,1-0.3,1.9-1,2.6c-0.7,0.7-1.6,1.1-2.6,1c-1,0.1-2-0.2-2.7-0.9C642,76.4,641.7,75.5,641.8,74.5z
	 M651.8,74.5c0-0.9,0.3-1.8,0.9-2.5c0.6-0.7,1.5-1.1,2.5-1.1c1-0.1,2,0.3,2.7,1c0.6,0.7,0.8,1.7,0.8,2.6c0,0.9-0.3,1.9-0.9,2.6
	c-0.7,0.7-1.6,1.1-2.6,1c-1,0.1-1.9-0.2-2.6-0.9C652,76.4,651.8,75.5,651.8,74.5L651.8,74.5z"/>
<path class="st0" d="M668.2,85.4c0-0.2,0-0.4,0.1-0.6c0.1-0.2,0.2-0.3,0.3-0.4c0.2-0.2,0.4-0.2,0.7-0.2h6.9c4.4,0,7.7,1.1,9.8,3.3
	s3.1,5.7,3.1,10.6c0.1,3.1-0.4,6.1-1.7,8.9c-1,2-2.5,3.7-4.4,4.8c0.7,0.9,1.3,1.8,1.8,2.8c0.8,1.4,1.4,2.8,2,4.2
	c0.7,1.9,1.3,3.8,1.7,5.7c0.5,2.4,0.9,4.9,1,7.4c0,0.4-0.1,0.8-0.4,1.1c-0.8,0.3-1.6,0.4-2.4,0.3h-1.5c-0.6,0-1.2-0.1-1.8-0.1
	c-0.2-2.6-0.5-5.2-1-7.8c-0.4-2-0.9-3.9-1.5-5.8c-0.5-1.4-1-2.7-1.7-4c-0.4-0.8-0.9-1.6-1.5-2.4c-0.2,0-0.5,0.1-0.7,0.1h-3.1v18.8
	c0,0.2,0,0.5-0.1,0.7c-0.1,0.2-0.3,0.3-0.6,0.4c-0.6,0.1-1.1,0.1-1.7,0.1h-3.3V85.4z M682.9,97.8c0.1-2.2-0.3-4.3-1.2-6.3
	c-0.8-1.6-2.6-2.5-4.3-2.3h-3.5v18.9h3.1c1.8,0.1,3.5-0.8,4.4-2.3C682.4,104.2,682.9,101.6,682.9,97.8z"/>
<path class="st0" d="M705.4,85.4c-0.1-0.6,0.3-1.1,0.9-1.2c0.1,0,0.2,0,0.3,0h20.9c0.2,0.3,0.3,0.5,0.4,0.8c0.1,0.4,0.2,0.7,0.1,1.1
	c0,0.9-0.2,1.7-0.6,2.5l-17.8,39.5h13.5c0.8,0,1.5,0,2.2-0.1c0.6,0,1.3-0.2,1.9-0.4v4.5c0,0.3-0.1,0.6-0.2,0.8
	c-0.1,0.2-0.5,0.3-1,0.3h-21.8c-0.3-0.3-0.5-0.6-0.6-0.9c-0.2-0.4-0.3-0.9-0.3-1.3c0-0.9,0.2-1.7,0.6-2.5l17.6-39.1h-13
	c-0.7,0-1.3,0-1.8,0c-0.4,0-0.9,0.1-1.3,0.2L705.4,85.4z"/>
<path class="st0" d="M750.6,120.8h-12l-2.8,11.5c-0.1,0.3-0.3,0.6-0.6,0.8c-0.7,0.3-1.4,0.3-2.1,0.3h-1.6c-0.7,0-1.3-0.1-2-0.2
	l12.5-48.2c0.1-0.6,0.9-1,2.2-1c0.9,0,1.8,0.1,2.7,0.2l12.5,48c0.1,0.3,0,0.7-0.3,0.9c-0.7,0.3-1.4,0.4-2.1,0.3h-1.5
	c-0.6,0-1.3,0-1.9-0.1L750.6,120.8z M739.8,115.6h9.7l-2.4-9.9c-0.3-1.2-0.6-2.4-0.8-3.6c-0.3-1.2-0.5-2.4-0.7-3.6
	c-0.2-1.2-0.4-2.3-0.6-3.4c-0.2-1.1-0.3-2-0.4-2.9c-0.1,0.8-0.2,1.8-0.4,2.9c-0.2,1.1-0.4,2.2-0.6,3.4s-0.4,2.4-0.7,3.6
	s-0.5,2.4-0.8,3.6L739.8,115.6z"/>
<path class="st0" d="M779.7,109.5h-11.1v22.7c0,0.2,0,0.5-0.1,0.7c0,0.2-0.3,0.3-0.6,0.4c-0.6,0.1-1.1,0.1-1.7,0.1h-3.3V85.4
	c0-0.2,0-0.4,0.1-0.7c0-0.2,0.2-0.3,0.6-0.4c0.6-0.1,1.1-0.1,1.7-0.1c0.8,0,1.9,0,3.3,0v20h11.1V85.5c0-0.2,0-0.4,0.1-0.7
	c0-0.2,0.2-0.3,0.6-0.4c0.6-0.1,1.1-0.1,1.7-0.1c0.8,0,1.9,0,3.3,0v47.9c0,0.2,0,0.5-0.1,0.7c0,0.2-0.3,0.3-0.6,0.4
	c-0.6,0.1-1.1,0.1-1.7,0.1h-3.3L779.7,109.5z"/>
<path class="st0" d="M803.1,114c-0.3-0.8-0.8-2-1.3-3.7c-0.6-1.7-1.2-3.4-1.8-5.4s-1.3-3.9-1.9-5.8s-1.2-3.6-1.6-4.9
	c0.1,1.1,0.2,2.7,0.3,4.8c0.1,2.1,0.2,4.2,0.2,6.3c0.1,2.1,0.1,4.1,0.1,6s0,3.1,0,3.9v17c0,0.2,0,0.5-0.1,0.7
	c-0.1,0.2-0.3,0.3-0.6,0.4c-0.6,0.1-1.1,0.1-1.7,0.1h-3.2V85.5c-0.1-0.6,0.3-1.1,0.9-1.2c0.1,0,0.2,0,0.3,0h4.3l7.8,18.9
	c0.3,0.9,0.8,2.2,1.4,3.9s1.2,3.4,1.9,5.4c0.7,1.9,1.3,3.8,1.9,5.7s1.1,3.5,1.5,4.8v-0.2c-0.1-1-0.3-2.5-0.3-4.6
	c-0.1-2-0.1-4.1-0.2-6.2c-0.1-2.1-0.1-4.1-0.1-6s0-3.2,0-4.1V85.4c0-0.2,0-0.4,0.1-0.7c0.1-0.2,0.3-0.3,0.7-0.4
	c0.6-0.1,1.1-0.1,1.7-0.1c0.8,0,1.9,0,3.3,0v47.9c0,0.8-0.4,1.1-1.2,1.1h-4.3L803.1,114z"/>
<path class="st0" d="M840.9,120.8h-12l-2.8,11.5c-0.1,0.3-0.3,0.6-0.6,0.8c-0.7,0.3-1.4,0.3-2.1,0.3h-1.6c-0.7,0-1.3-0.1-2-0.2
	l12.5-48.2c0.1-0.6,0.9-1,2.2-1c0.9,0,1.8,0.1,2.7,0.2l12.5,48c0.1,0.3,0,0.7-0.3,0.9c-0.7,0.3-1.4,0.4-2.1,0.3h-1.5
	c-0.6,0-1.3,0-1.9-0.1L840.9,120.8z M826.6,74.5c0-0.9,0.3-1.8,0.9-2.5c0.6-0.7,1.6-1.1,2.5-1.1c1-0.1,2,0.3,2.7,1
	c0.6,0.7,0.8,1.7,0.8,2.6c0,1-0.3,1.9-1,2.6c-0.7,0.7-1.6,1.1-2.5,1c-1,0.1-2-0.2-2.7-0.9C826.7,76.4,826.5,75.5,826.6,74.5z
	 M830.1,115.6h9.7l-2.4-9.9c-0.3-1.2-0.5-2.4-0.8-3.6c-0.3-1.2-0.5-2.4-0.7-3.6c-0.2-1.2-0.4-2.3-0.6-3.4c-0.2-1.1-0.3-2-0.4-2.9
	c-0.1,0.8-0.2,1.8-0.4,2.9c-0.2,1.1-0.4,2.2-0.6,3.4s-0.4,2.4-0.7,3.6s-0.5,2.4-0.8,3.6L830.1,115.6z M836.6,74.5
	c0-0.9,0.3-1.8,0.9-2.5c0.6-0.7,1.5-1.1,2.5-1.1c1-0.1,2,0.3,2.7,1c0.6,0.7,0.9,1.7,0.8,2.6c0,0.9-0.3,1.9-0.9,2.6
	c-0.7,0.7-1.6,1.1-2.6,1c-1,0.1-1.9-0.2-2.6-0.9C836.8,76.4,836.5,75.5,836.6,74.5z"/>
<path class="st0" d="M853.2,85.4c0-0.2,0-0.4,0.1-0.6c0.1-0.2,0.2-0.3,0.3-0.4c0.2-0.2,0.4-0.2,0.7-0.2h6.9c4.4,0,7.7,1.1,9.8,3.3
	c2.1,2.2,3.1,5.7,3.1,10.6c0.1,3.1-0.4,6.1-1.7,8.9c-1,2-2.5,3.7-4.4,4.8c0.7,0.9,1.3,1.8,1.8,2.8c0.8,1.4,1.4,2.8,2,4.2
	c0.7,1.9,1.3,3.8,1.7,5.7c0.5,2.4,0.9,4.9,1,7.4c0,0.4-0.1,0.8-0.4,1.1c-0.8,0.3-1.6,0.4-2.5,0.3h-1.5c-0.6,0-1.2-0.1-1.8-0.1
	c-0.2-2.6-0.5-5.2-1-7.8c-0.4-2-0.9-3.9-1.5-5.8c-0.5-1.4-1-2.7-1.7-4c-0.4-0.8-0.9-1.6-1.5-2.4c-0.2,0-0.5,0.1-0.7,0.1h-3.2v18.8
	c0,0.2,0,0.5-0.1,0.7c-0.1,0.2-0.3,0.3-0.6,0.4c-0.6,0.1-1.1,0.1-1.7,0.1h-3.3L853.2,85.4z M867.8,97.8c0.1-2.2-0.3-4.3-1.2-6.3
	c-0.8-1.6-2.6-2.5-4.3-2.3h-3.5v18.9h3.1c1.8,0.1,3.5-0.8,4.4-2.3C867.3,104.2,867.8,101.6,867.8,97.8z"/>
<path class="st0" d="M879.3,85.4c-0.1-0.5,0.2-1.1,0.8-1.2c0.1,0,0.3,0,0.4,0h20.9c0.2,0.3,0.3,0.5,0.4,0.8c0.1,0.4,0.1,0.7,0.1,1.1
	c0,0.9-0.2,1.7-0.6,2.5l-17.9,39.5h13.5c0.8,0,1.5,0,2.2-0.1c0.7,0,1.3-0.2,1.9-0.4v4.5c0,0.3-0.1,0.6-0.2,0.8
	c-0.2,0.2-0.5,0.3-1,0.3h-21.8c-0.3-0.3-0.5-0.6-0.6-0.9c-0.2-0.4-0.3-0.9-0.3-1.3c0-0.9,0.2-1.7,0.6-2.5l17.6-39.1h-13
	c-0.7,0-1.3,0-1.8,0c-0.4,0-0.9,0.1-1.3,0.2L879.3,85.4z"/>
<path class="st0" d="M918.9,89.6v42.6c0,0.2,0,0.5-0.1,0.7c-0.1,0.2-0.3,0.3-0.6,0.4c-0.6,0.1-1.1,0.1-1.7,0.1h-3.3V89.6h-9.5v-4.1
	c-0.1-0.6,0.3-1.1,0.9-1.2c0.1,0,0.2,0,0.3,0h23.8v4.2c0,0.8-0.4,1.1-1.2,1.1H918.9z"/>
<path class="st0" d="M938.1,127.9h12v4.2c0,0.5-0.1,0.8-0.3,0.9c-0.3,0.2-0.6,0.2-0.9,0.2h-16.6V85.9c0-0.3,0-0.6,0.1-0.9
	c0.1-0.2,0.3-0.4,0.7-0.5c0.6-0.1,1.1-0.2,1.7-0.2c0.8,0,1.8,0,3.3,0L938.1,127.9z"/>
<path class="st0" d="M954.5,86.8c0-0.5,0-1,0.1-1.5c0.1-0.4,0.3-0.6,0.6-0.8c0.5-0.2,1.1-0.3,1.7-0.3c0.8,0,1.9,0,3.3,0v47.9
	c0,0.2,0,0.5-0.1,0.7c-0.1,0.2-0.3,0.3-0.6,0.4c-0.6,0.1-1.1,0.1-1.7,0.1h-3.3V86.8z"/>
<path class="st0" d="M979.2,83.6c1.1,0,2.2,0.1,3.2,0.4c0.7,0.2,1.4,0.5,2,0.9c0.4,0.3,0.8,0.7,1,1.2c0.2,0.4,0.3,0.9,0.3,1.4
	c0,0.6-0.1,1.3-0.3,1.9c-0.2,0.5-0.4,1.1-0.6,1.5c-0.5-0.4-1.1-0.8-1.8-1.1c-0.9-0.4-1.8-0.7-2.8-0.6c-1.1,0-2.2,0.3-3.3,0.8
	c-1.2,0.7-2.2,1.7-2.8,3c-1,2-1.7,4.2-2,6.5c-0.6,3.7-0.8,7.4-0.8,11.2c0,2.9,0.1,5.8,0.5,8.7c0.2,1.8,0.7,3.6,1.4,5.3
	c0.4,1.1,1.2,2,2.2,2.5c0.9,0.4,1.9,0.6,2.8,0.6c1.3,0,2.6-0.2,3.8-0.7c1-0.4,1.9-0.9,2.7-1.5c0.3,0.5,0.5,1.1,0.6,1.6
	c0.2,0.6,0.2,1.2,0.2,1.8c0,1.4-0.8,2.5-2.4,3.5c-1.9,1.1-4.1,1.6-6.3,1.5c-1.6,0.2-3.1,0-4.6-0.6c-1.5-0.7-2.8-1.8-3.7-3.3
	c-1.3-2.2-2.1-4.6-2.5-7.1c-0.7-4-1-8.1-0.9-12.3c-0.1-4.8,0.3-9.7,1.3-14.4c0.6-3,1.7-5.8,3.3-8.3c1-1.7,2.6-3,4.4-3.7
	C976,83.8,977.6,83.6,979.2,83.6z"/>
<path class="st0" d="M1006.9,109.5h-11.1v22.7c0,0.2,0,0.5-0.1,0.7c0,0.2-0.2,0.3-0.6,0.4c-0.6,0.1-1.1,0.1-1.7,0.1h-3.3V85.4
	c0-0.2,0-0.4,0.1-0.7c0.1-0.2,0.3-0.3,0.6-0.4c0.6-0.1,1.1-0.1,1.7-0.1c0.8,0,1.9,0,3.3,0v20h11.1V85.5c0-0.2,0-0.4,0.1-0.7
	c0-0.2,0.3-0.3,0.6-0.4c0.6-0.1,1.1-0.1,1.7-0.1c0.8,0,1.9,0,3.3,0v47.9c0,0.2,0,0.5-0.1,0.7c0,0.2-0.2,0.3-0.6,0.4
	c-0.6,0.1-1.1,0.1-1.7,0.1h-3.3V109.5z"/>
<path class="st0" d="M1036.4,128.1c0,1.2,0,2.2,0,2.8c0,0.5-0.1,1-0.1,1.5c0,0.2-0.1,0.5-0.3,0.6c-0.2,0.1-0.4,0.2-0.6,0.1h-16.6
	V85.4c0-0.2,0.1-0.4,0.1-0.6c0.1-0.2,0.2-0.3,0.4-0.4c0.2-0.1,0.4-0.2,0.7-0.2h16.7V87c0,0.5,0,1-0.1,1.5c0,0.3-0.1,0.5-0.3,0.7
	c-0.2,0.1-0.4,0.2-0.6,0.1h-11.1V104h10.5v2.7c0,0.5,0,1.1-0.1,1.6c0,0.3-0.1,0.5-0.3,0.8c-0.2,0.2-0.4,0.2-0.6,0.2h-9.4v18.9
	L1036.4,128.1z"/>
<path class="st0" d="M1052,86.8c0-0.5,0-1,0.1-1.5c0.1-0.4,0.3-0.6,0.6-0.8c0.5-0.2,1.1-0.3,1.7-0.3c0.8,0,1.9,0,3.3,0v47.9
	c0,0.2,0,0.5-0.1,0.7c-0.1,0.2-0.3,0.3-0.6,0.4c-0.6,0.1-1.1,0.1-1.7,0.1h-3.3V86.8z"/>
<path class="st0" d="M1063.8,85.4c0-0.6,0.1-0.9,0.3-1c0.3-0.1,0.5-0.2,0.8-0.2h4.1l6.7,21.1c0.2,0.7,0.4,1.5,0.7,2.3
	s0.5,1.7,0.7,2.4s0.4,1.5,0.6,2s0.3,0.9,0.3,1.1c0,0,0.1-0.4,0.2-0.9s0.3-1.3,0.5-2s0.4-1.6,0.6-2.4s0.4-1.6,0.7-2.2l6.2-20.2
	c0.1-0.3,0.2-0.6,0.3-0.9c0.2-0.2,0.5-0.4,0.8-0.3h4.6v47.9c0,0.2,0,0.5-0.1,0.7c-0.1,0.2-0.3,0.3-0.6,0.4c-0.6,0.1-1.1,0.1-1.7,0.1
	h-3.4l0.2-17c0.1-1.7,0.1-3.6,0.3-5.7c0.1-2.1,0.2-4.2,0.4-6.3c0.1-2,0.3-3.8,0.4-5.4c0.1-1.6,0.2-2.7,0.2-3.2l-1.3,4.5
	c-0.5,1.6-0.9,3.2-1.3,4.8c-0.4,1.5-0.8,2.9-1.2,4.1s-0.6,2-0.7,2.4l-3.7,10.6c-0.1,0.2-0.2,0.4-0.3,0.5c-0.1,0.1-0.3,0.1-0.4,0.1
	h-2.4l-3.6-11.2c-0.1-0.4-0.4-1.1-0.7-2.3s-0.8-2.6-1.2-4.1s-0.9-3.1-1.4-4.8s-0.9-3.2-1.3-4.5v0.1c0.2,2.5,0.4,5,0.6,7.4
	c0.2,2.1,0.3,4.3,0.5,6.7c0.1,2.4,0.2,4.5,0.2,6.3l0.1,16.2c0,0.2,0,0.5-0.1,0.7c-0.2,0.2-0.4,0.3-0.7,0.4c-0.6,0.1-1.1,0.1-1.7,0.1
	h-3.1L1063.8,85.4z"/>
<path class="st0" d="M1098,85.4c-0.1-0.6,0.3-1.1,0.9-1.2c0.1,0,0.2,0,0.3,0h6.9c4.4,0,7.7,1.1,9.8,3.3c2.1,2.2,3.1,5.7,3.1,10.6
	c0.1,2.5-0.3,4.9-1,7.3c-0.6,1.8-1.5,3.4-2.8,4.7c-1.2,1.2-2.6,2-4.1,2.6c-1.6,0.5-3.3,0.8-4.9,0.8h-2.4v18.8c0,0.2,0,0.5-0.1,0.7
	c-0.1,0.2-0.3,0.3-0.6,0.4c-0.6,0.1-1.1,0.1-1.7,0.1h-3.3L1098,85.4z M1112.7,97.4c0.1-2.1-0.3-4.1-1.2-6c-0.9-1.5-2.5-2.4-4.3-2.3
	h-3.5v18.9h3.1c1.8,0.1,3.5-0.8,4.4-2.4C1112.2,104.1,1112.7,101.4,1112.7,97.4L1112.7,97.4z"/>
<path class="st0" d="M1128.9,127.9h12v4.2c0,0.5-0.1,0.8-0.3,0.9c-0.3,0.2-0.6,0.2-0.9,0.2h-16.6V85.9c0-0.3,0-0.6,0.1-0.9
	c0.1-0.2,0.3-0.4,0.7-0.5c0.6-0.1,1.1-0.2,1.7-0.2c0.8,0,1.8,0,3.3,0L1128.9,127.9z"/>
<path class="st0" d="M1163.7,120.8h-12l-2.8,11.5c-0.1,0.3-0.3,0.6-0.6,0.8c-0.7,0.3-1.4,0.3-2.1,0.3h-1.6c-0.7,0-1.3-0.1-2-0.2
	l12.5-48.2c0.1-0.6,0.9-1,2.2-1c0.9,0,1.8,0.1,2.7,0.2l12.5,48c0.1,0.3,0,0.7-0.3,0.9c-0.7,0.3-1.4,0.4-2.1,0.3h-1.5
	c-0.6,0-1.3,0-1.9-0.1L1163.7,120.8z M1152.9,115.6h9.7l-2.4-9.9c-0.3-1.2-0.6-2.4-0.8-3.6c-0.3-1.2-0.5-2.4-0.7-3.6
	c-0.2-1.2-0.4-2.3-0.6-3.4s-0.3-2-0.4-2.9c-0.1,0.8-0.2,1.8-0.4,2.9s-0.4,2.2-0.6,3.4s-0.4,2.4-0.7,3.6s-0.5,2.4-0.8,3.6
	L1152.9,115.6z"/>
<path class="st0" d="M1187.6,114c-0.3-0.8-0.8-2-1.3-3.7s-1.2-3.4-1.8-5.4s-1.3-3.9-1.9-5.8s-1.2-3.6-1.6-4.9
	c0.1,1.1,0.2,2.7,0.3,4.8s0.2,4.2,0.2,6.3s0.1,4.1,0.1,6s0,3.1,0,3.9v17c0,0.2,0,0.5-0.1,0.7c-0.1,0.2-0.3,0.3-0.6,0.4
	c-0.6,0.1-1.1,0.1-1.7,0.1h-3.3V85.5c-0.1-0.6,0.3-1.1,0.9-1.2c0.1,0,0.2,0,0.3,0h4.3l7.8,18.9l1.4,3.9c0.6,1.6,1.2,3.4,1.9,5.4
	s1.3,3.8,1.9,5.7l1.5,4.8v-0.2c-0.1-1-0.3-2.5-0.3-4.6s-0.1-4.1-0.2-6.2s-0.1-4.1-0.1-6s0-3.2,0-4.1V85.4c0-0.2,0-0.4,0.1-0.7
	c0.1-0.2,0.3-0.3,0.7-0.4c0.6-0.1,1.1-0.1,1.7-0.1c0.8,0,1.8,0,3.3,0v47.9c0,0.8-0.4,1.1-1.2,1.1h-4.3L1187.6,114z"/>
<path class="st0" d="M1219.8,89.6v42.6c0,0.2,0,0.5-0.1,0.7c-0.1,0.2-0.3,0.3-0.6,0.4c-0.6,0.1-1.1,0.1-1.7,0.1h-3.3V89.6h-9.5v-4.1
	c-0.1-0.6,0.3-1.1,0.9-1.2c0.1,0,0.2,0,0.3,0h23.8v4.2c0,0.8-0.4,1.1-1.2,1.1H1219.8z"/>
<path class="st0" d="M1230.7,108.5c-0.1-3.9,0.2-7.9,0.8-11.8c0.4-2.7,1.2-5.3,2.5-7.7c1-1.8,2.4-3.2,4.2-4.2
	c1.8-0.9,3.8-1.3,5.9-1.3c2-0.1,4,0.4,5.8,1.2c1.7,0.9,3,2.3,3.8,4c1.1,2.4,1.8,5,2.1,7.6c0.5,3.9,0.7,7.9,0.7,11.8
	c0,4.1-0.2,8.1-0.8,12.1c-0.4,2.7-1.2,5.4-2.4,7.9c-0.9,1.8-2.3,3.3-4.1,4.3c-1.9,0.9-3.9,1.3-6,1.3c-2,0.1-4-0.3-5.8-1.1
	c-1.7-0.9-3.1-2.3-3.9-4c-1.2-2.5-1.9-5.1-2.2-7.8C1230.9,116.8,1230.6,112.6,1230.7,108.5z M1237.1,109.9c0,3.3,0.1,6,0.3,8.3
	c0.1,1.9,0.5,3.8,1.1,5.6c0.4,1.2,1.1,2.3,2,3.2c0.9,0.7,2,1,3.1,1c1.2,0,2.3-0.3,3.2-1.1c1-0.9,1.7-2.1,2.1-3.4c0.6-2,1-4,1.2-6.1
	c0.2-2.5,0.3-5.5,0.3-9.1c0-3.6-0.1-6.5-0.3-8.8c-0.1-2-0.5-4-1-5.9c-0.3-1.3-1-2.4-2-3.3c-0.9-0.7-2-1-3.1-1
	c-1.1,0-2.2,0.4-3.1,1.1c-1,1-1.7,2.2-2.1,3.5c-0.6,2-1.1,4.2-1.2,6.3C1237.2,102.9,1237.1,106.1,1237.1,109.9L1237.1,109.9z"/>
<path class="st0" d="M1267.3,127.9h12v4.2c0,0.5-0.1,0.8-0.3,0.9c-0.3,0.2-0.6,0.2-0.9,0.2h-16.6V85.9c0-0.3,0-0.6,0.1-0.9
	c0.1-0.2,0.3-0.4,0.7-0.5c0.6-0.1,1.1-0.2,1.7-0.2c0.8,0,1.9,0,3.3,0L1267.3,127.9z"/>
<path class="st0" d="M1280.6,108.5c-0.1-3.9,0.2-7.9,0.8-11.8c0.4-2.7,1.2-5.3,2.5-7.7c1-1.8,2.4-3.2,4.2-4.2
	c1.8-0.9,3.8-1.3,5.9-1.3c2-0.1,4,0.3,5.8,1.2c1.7,0.9,3,2.3,3.8,4c1.1,2.4,1.8,5,2.1,7.6c0.5,3.9,0.7,7.9,0.7,11.8
	c0,4.1-0.2,8.1-0.8,12.1c-0.4,2.8-1.2,5.5-2.4,8c-0.9,1.8-2.3,3.3-4.1,4.3c-1.9,0.9-3.9,1.3-6,1.3c-2,0.1-4-0.3-5.8-1.1
	c-1.7-0.9-3.1-2.3-3.9-4c-1.2-2.5-1.9-5.1-2.2-7.8C1280.8,116.8,1280.5,112.7,1280.6,108.5z M1287,109.9c0,3.3,0.1,6,0.3,8.3
	c0.1,1.9,0.5,3.8,1.1,5.6c0.4,1.2,1.1,2.3,2,3.2c0.9,0.7,2,1,3.1,1c1.2,0,2.3-0.3,3.2-1.1c1-0.9,1.7-2.1,2.1-3.4c0.6-2,1-4,1.2-6.1
	c0.2-2.5,0.3-5.5,0.3-9.1c0-3.6-0.1-6.5-0.3-8.8c-0.1-2-0.5-4-1-5.9c-0.3-1.3-1-2.4-2-3.3c-0.9-0.7-2-1-3.1-1
	c-1.1,0-2.2,0.4-3.1,1.1c-1,1-1.7,2.2-2.1,3.5c-0.6,2-1.1,4.2-1.2,6.3C1287.1,102.9,1287,106.1,1287,109.9L1287,109.9z"/>
<path class="st0" d="M1325.4,83.6c1.9-0.1,3.8,0.3,5.5,1c1.3,0.7,2,1.5,2,2.5c0,0.6-0.1,1.3-0.2,1.9c-0.1,0.6-0.3,1.1-0.6,1.7
	c-0.7-0.6-1.5-1-2.3-1.2c-1-0.3-2.1-0.5-3.2-0.5c-1.6,0-3.2,0.3-4.6,1c-1.4,0.8-2.5,1.9-3.2,3.4c-0.9,2-1.5,4.1-1.8,6.3
	c-0.4,3.3-0.6,6.5-0.6,9.8c0,3.3,0.1,6.6,0.5,9.9c0.2,2,0.7,3.9,1.4,5.7c0.4,1.1,1.2,2,2.3,2.6c1,0.4,2,0.6,3.1,0.6
	c1,0.1,1.9-0.2,2.8-0.6c0.5-0.3,0.9-0.6,1.3-1.1v-17.4h-5.1v-3.6c0-0.8,0.4-1.2,1.3-1.2h9.2l-0.1,26.3c-1.1,0.9-2.3,1.6-3.5,2.1
	c-1.9,0.7-4,1.1-6,1c-2,0-4.1-0.3-6-1c-1.7-0.7-3.2-2-4.1-3.6c-1.2-2.3-2-4.8-2.3-7.4c-0.5-4-0.8-8-0.7-12
	c-0.1-4.5,0.3-8.9,1.1-13.3c0.5-2.8,1.5-5.5,3-8c1.1-1.8,2.8-3.1,4.7-3.9C1321.2,84,1323.2,83.6,1325.4,83.6z"/>
<path class="st0" d="M1338.5,86.8c0-0.5,0-1,0.1-1.5c0.1-0.4,0.3-0.6,0.6-0.8c0.5-0.2,1.1-0.3,1.7-0.3c0.8,0,1.9,0,3.3,0v47.9
	c0,0.2,0,0.5-0.1,0.7c-0.1,0.2-0.3,0.3-0.6,0.4c-0.6,0.1-1.1,0.1-1.7,0.1h-3.3V86.8z"/>
<path class="st0" d="M1368,128.1c0,1.2,0,2.2,0,2.8c0,0.5-0.1,1-0.1,1.5c0,0.2-0.1,0.5-0.3,0.6c-0.2,0.1-0.4,0.2-0.6,0.1h-16.6V85.4
	c0-0.2,0-0.4,0.1-0.6c0.1-0.2,0.2-0.3,0.4-0.4c0.2-0.1,0.4-0.2,0.7-0.2h16.7V87c0,0.5,0,1-0.1,1.5c0,0.3-0.1,0.5-0.3,0.7
	c-0.2,0.1-0.4,0.2-0.6,0.1H1356V104h10.5v2.7c0,0.5,0,1.1-0.1,1.6c0,0.3-0.1,0.5-0.3,0.8c-0.2,0.2-0.4,0.2-0.6,0.2h-9.4v18.9
	L1368,128.1z"/>
<path class="st0" d="M343.2,203.1c0,1.3,0.1,2.6,0.2,3.9c0.1,1.1,0.4,2.1,1,3c0.5,0.8,1.2,1.5,2,2c1.1,0.5,2.3,0.8,3.5,0.7
	c1.2,0,2.4-0.1,3.5-0.4c0.9-0.2,1.8-0.5,2.6-0.9v-42c0-0.2,0-0.4,0.1-0.7c0.1-0.2,0.3-0.3,0.6-0.4c0.6-0.1,1.1-0.1,1.7-0.1
	c0.8,0,1.9,0,3.3,0v47.2c-1.4,0.8-2.9,1.3-4.5,1.7c-2.4,0.6-4.9,0.9-7.4,0.8c-2.3,0.1-4.6-0.3-6.7-1.2c-1.6-0.7-2.9-1.8-3.8-3.3
	c-0.9-1.4-1.5-3.1-1.7-4.8c-0.3-1.9-0.4-3.8-0.4-5.8v-33.5c0-0.2,0-0.4,0.1-0.7c0.1-0.2,0.3-0.3,0.6-0.4c0.6-0.1,1.1-0.1,1.7-0.1
	c0.8,0,1.9,0,3.4,0L343.2,203.1z"/>
<path class="st0" d="M379.5,198c-0.3-0.8-0.8-2-1.3-3.7s-1.2-3.5-1.8-5.4s-1.3-3.9-1.9-5.8s-1.2-3.6-1.6-4.9
	c0.1,1.1,0.2,2.7,0.3,4.8s0.2,4.2,0.3,6.3s0.1,4.1,0.1,6s0,3.1,0,3.9v17c0,0.2,0,0.5-0.1,0.7c-0.1,0.2-0.3,0.3-0.6,0.4
	c-0.6,0.1-1.1,0.1-1.7,0.1h-3.3v-47.8c-0.1-0.6,0.3-1.1,0.9-1.2c0.1,0,0.2,0,0.3,0h4.3l7.8,18.9c0.3,0.9,0.8,2.2,1.4,3.9
	s1.2,3.4,1.9,5.4s1.3,3.8,1.9,5.7l1.5,4.8v-0.2c-0.1-1-0.2-2.5-0.3-4.6s-0.1-4.1-0.2-6.2s-0.1-4.1-0.1-6s0-3.2,0-4.1v-16.4
	c0-0.2,0-0.4,0.1-0.7c0.1-0.2,0.3-0.3,0.7-0.4c0.6-0.1,1.1-0.1,1.7-0.1c0.8,0,1.9,0,3.3,0v47.9c0,0.8-0.4,1.1-1.2,1.1h-4.3
	L379.5,198z"/>
<path class="st0" d="M407.7,168.3c2-0.1,4.1,0.3,6,1c1.8,0.7,3.3,2,4.3,3.6c1.3,2.1,2.2,4.4,2.5,6.8c0.6,3.5,0.9,7,0.8,10.6
	c0.1,4.3-0.2,8.6-0.9,12.9c-0.4,2.9-1.3,5.7-2.7,8.3c-1,1.9-2.5,3.4-4.3,4.5c-1.8,0.9-3.8,1.4-5.8,1.3H399v-47.7
	c0-0.4,0.1-0.7,0.4-1c0.5-0.3,1-0.4,1.5-0.4L407.7,168.3z M414.9,189.7c0-2.7-0.1-5.3-0.4-8c-0.2-1.7-0.6-3.4-1.3-5
	c-0.4-1.1-1.2-1.9-2.2-2.5c-1-0.5-2-0.7-3.1-0.7h-3.2v38.4h3.1c0.9,0,1.8-0.3,2.6-0.7c1.1-0.8,1.9-1.8,2.3-3.1
	c0.8-2.2,1.3-4.4,1.6-6.7C414.8,197.5,415,193.6,414.9,189.7L414.9,189.7z"/>
<path class="st0" d="M455.8,204.8h-12l-2.8,11.5c-0.1,0.3-0.3,0.6-0.6,0.8c-0.7,0.3-1.4,0.3-2.1,0.3h-1.6c-0.7,0-1.3-0.1-2-0.2
	l12.5-48.2c0.1-0.6,0.9-1,2.2-1c0.9,0,1.8,0.1,2.7,0.2l12.5,47.9c0.1,0.3,0,0.7-0.3,0.9c-0.7,0.3-1.4,0.4-2.1,0.3h-1.5
	c-0.6,0-1.3,0-1.9-0.1L455.8,204.8z M441.5,158.5c0-0.9,0.3-1.8,0.9-2.5c0.6-0.7,1.6-1.1,2.5-1.1c1-0.1,2,0.3,2.7,1
	c0.6,0.7,0.8,1.7,0.8,2.6c0,0.9-0.3,1.9-0.9,2.6c-0.7,0.7-1.6,1-2.6,1c-1,0.1-2-0.2-2.7-0.9C441.7,160.4,441.4,159.5,441.5,158.5z
	 M445,199.6h9.7l-2.4-9.9c-0.3-1.2-0.5-2.4-0.8-3.6s-0.5-2.4-0.7-3.6s-0.4-2.3-0.6-3.4s-0.3-2-0.4-2.9c-0.1,0.8-0.2,1.8-0.4,2.9
	s-0.4,2.2-0.6,3.4s-0.4,2.4-0.7,3.6s-0.5,2.4-0.8,3.6L445,199.6z M451.5,158.5c0-0.9,0.3-1.8,0.9-2.5c0.6-0.7,1.5-1.1,2.5-1.1
	c1-0.1,2,0.3,2.7,1c0.6,0.7,0.8,1.7,0.8,2.6c0,0.9-0.3,1.9-0.9,2.6c-0.7,0.7-1.6,1.1-2.6,1c-1,0.1-1.9-0.2-2.6-0.9
	C451.7,160.4,451.4,159.5,451.5,158.5L451.5,158.5z"/>
<path class="st0" d="M478.9,167.6c3.3,0,5.7,0.3,7.1,1c1.4,0.7,2.1,1.5,2.1,2.5c0,0.6-0.1,1.1-0.3,1.6c-0.2,0.6-0.6,1.2-1.1,1.6
	c-0.8-0.5-1.7-0.9-2.6-1.1c-1.4-0.4-2.8-0.6-4.3-0.6c-1.8-0.1-3.5,0.4-5,1.3c-1.2,0.8-1.9,2.1-1.8,3.5c0,1.2,0.3,2.4,0.8,3.5
	c0.7,1.2,1.5,2.4,2.4,3.4l7.6,8.6c0.8,1,1.6,2,2.2,3.1c0.6,0.9,1.1,1.9,1.5,2.9c0.4,0.9,0.6,1.9,0.8,2.9c0.1,1,0.2,2,0.2,3
	c0,1.7-0.2,3.4-0.6,5c-0.4,1.5-1.1,3-2.1,4.2c-1,1.3-2.3,2.3-3.8,2.9c-1.9,0.7-4,1.1-6,1c-3.2,0-5.5-0.5-7-1.4
	c-1.5-0.9-2.2-1.9-2.2-2.8c0-0.7,0.1-1.4,0.4-2c0.2-0.8,0.6-1.5,1.1-2.1c0.9,0.7,1.9,1.3,2.9,1.7c1.4,0.5,2.8,0.8,4.3,0.7
	c2.5,0,4.3-0.7,5.3-2c1.1-1.5,1.6-3.3,1.5-5.2c0-1.5-0.3-3-0.9-4.4c-0.8-1.7-1.9-3.3-3.2-4.7l-6.9-8c-1.4-1.6-2.5-3.4-3.4-5.3
	c-0.6-1.5-1-3.1-1-4.8c-0.1-2.7,1-5.4,3-7.2C472,168.5,475,167.6,478.9,167.6z"/>
<path class="st0" d="M505.9,173.6v42.6c0,0.2,0,0.5-0.1,0.7c-0.1,0.2-0.3,0.3-0.6,0.4c-0.6,0.1-1.1,0.1-1.7,0.1h-3.3v-43.7h-9.5
	v-4.1c-0.1-0.6,0.4-1.1,0.9-1.2c0.1,0,0.2,0,0.3,0h23.8v4.2c0,0.8-0.4,1.1-1.2,1.1L505.9,173.6z"/>
<path class="st0" d="M536.1,193.5H525v22.7c0,0.2,0,0.5-0.1,0.7c0,0.2-0.3,0.3-0.6,0.4c-0.6,0.1-1.1,0.1-1.7,0.1h-3.4v-47.8
	c0-0.2,0-0.4,0.1-0.7c0-0.2,0.2-0.3,0.6-0.4c0.6-0.1,1.1-0.1,1.7-0.1c0.8,0,1.9,0,3.3,0v19.9h11.1v-18.8c0-0.2,0-0.4,0.1-0.7
	c0.1-0.2,0.2-0.3,0.6-0.4c0.6-0.1,1.1-0.1,1.7-0.1c0.8,0,1.9,0,3.3,0v47.9c0,0.2,0,0.5-0.1,0.7c0,0.2-0.3,0.3-0.6,0.4
	c-0.6,0.1-1.1,0.1-1.7,0.1h-3.3L536.1,193.5z"/>
<path class="st0" d="M565.7,212.1c0,1.2,0,2.2,0,2.8c0,0.5-0.1,1-0.1,1.5c0,0.2-0.1,0.5-0.3,0.6c-0.2,0.1-0.4,0.2-0.6,0.1h-16.6
	v-47.8c0-0.2,0.1-0.4,0.1-0.6c0.1-0.2,0.2-0.3,0.4-0.4c0.2-0.1,0.4-0.2,0.7-0.2h16.7v2.8c0,0.5,0,1-0.1,1.5c0,0.3-0.1,0.5-0.3,0.7
	c-0.2,0.1-0.4,0.2-0.6,0.1h-11.1V188h10.5v2.7c0,0.5,0,1.1-0.1,1.6c0,0.3-0.1,0.5-0.3,0.8c-0.2,0.2-0.4,0.2-0.6,0.2h-9.5v18.9
	L565.7,212.1z"/>
<path class="st0" d="M583,173.6v42.6c0,0.2,0,0.5-0.1,0.7c-0.1,0.2-0.3,0.3-0.6,0.4c-0.6,0.1-1.1,0.1-1.7,0.1h-3.3v-43.7h-9.5v-4.1
	c-0.1-0.6,0.3-1.1,0.9-1.2c0.1,0,0.2,0,0.3,0h23.8v4.2c0,0.8-0.4,1.1-1.2,1.1L583,173.6z"/>
<path class="st0" d="M596.4,170.8c0-0.5,0-1,0.1-1.5c0.1-0.4,0.3-0.6,0.6-0.8c0.5-0.2,1.1-0.3,1.7-0.3c0.8,0,1.9,0,3.3,0v47.9
	c0,0.2,0,0.5-0.1,0.7c-0.1,0.2-0.3,0.3-0.6,0.4c-0.6,0.1-1.1,0.1-1.7,0.1h-3.3L596.4,170.8z"/>
<path class="st0" d="M619,167.6c3.3,0,5.7,0.3,7.1,1c1.4,0.7,2.1,1.5,2.1,2.5c0,0.6-0.1,1.1-0.3,1.6c-0.2,0.6-0.6,1.2-1.1,1.6
	c-0.8-0.5-1.7-0.9-2.6-1.1c-1.4-0.4-2.8-0.6-4.3-0.6c-1.8-0.1-3.5,0.4-5,1.3c-1.2,0.8-1.9,2.1-1.8,3.5c0,1.2,0.3,2.4,0.8,3.5
	c0.7,1.2,1.5,2.4,2.4,3.4l7.6,8.6c0.8,1,1.6,2,2.2,3.1c0.6,0.9,1.1,1.9,1.5,2.9c0.4,0.9,0.6,1.9,0.8,2.9c0.1,1,0.2,2,0.2,3
	c0,1.7-0.2,3.4-0.6,5c-0.4,1.5-1.1,3-2.1,4.2c-1,1.3-2.3,2.3-3.8,2.9c-1.9,0.7-4,1.1-6,1c-3.2,0-5.5-0.5-7-1.4
	c-1.5-0.9-2.2-1.9-2.2-2.8c0-0.7,0.1-1.4,0.3-2c0.2-0.8,0.6-1.5,1.1-2.1c0.9,0.7,1.8,1.3,2.9,1.7c1.4,0.5,2.8,0.8,4.3,0.7
	c2.5,0,4.3-0.7,5.3-2c1.1-1.5,1.6-3.3,1.5-5.2c0-1.5-0.3-3-0.9-4.4c-0.8-1.7-1.9-3.3-3.2-4.7l-7-8c-1.4-1.6-2.5-3.4-3.4-5.3
	c-0.7-1.5-1-3.1-1-4.8c-0.1-2.7,1-5.4,3-7.2C612,168.5,615,167.6,619,167.6z"/>
<path class="st0" d="M646.2,167.6c1.1,0,2.2,0.1,3.2,0.4c0.7,0.2,1.4,0.5,2,0.9c0.4,0.3,0.8,0.7,1,1.2c0.2,0.4,0.3,0.9,0.3,1.4
	c0,0.6-0.1,1.3-0.3,1.9c-0.2,0.5-0.4,1-0.6,1.5c-0.5-0.4-1.1-0.8-1.8-1.1c-0.9-0.4-1.8-0.7-2.8-0.6c-1.1,0-2.2,0.3-3.3,0.8
	c-1.2,0.7-2.2,1.7-2.8,3c-1,2-1.7,4.2-2,6.5c-0.6,3.7-0.8,7.4-0.8,11.2c0,2.9,0.1,5.8,0.5,8.7c0.2,1.8,0.7,3.6,1.4,5.3
	c0.4,1.1,1.2,2,2.2,2.5c0.9,0.4,1.9,0.6,2.8,0.6c1.3,0,2.6-0.2,3.7-0.7c1-0.4,1.9-0.9,2.7-1.5c0.2,0.5,0.4,1.1,0.6,1.6
	c0.2,0.6,0.2,1.2,0.3,1.8c0,1.4-0.8,2.5-2.4,3.5c-1.9,1.1-4.1,1.6-6.3,1.5c-1.6,0.2-3.1,0-4.6-0.6c-1.5-0.7-2.8-1.8-3.7-3.3
	c-1.3-2.2-2.1-4.6-2.5-7.1c-0.7-4-0.9-8.1-0.9-12.3c-0.1-4.8,0.3-9.7,1.3-14.4c0.6-3,1.7-5.8,3.3-8.3c1-1.7,2.6-3,4.5-3.7
	C642.9,167.8,644.5,167.6,646.2,167.6z"/>
<path class="st0" d="M673.8,193.5h-11.1v22.7c0,0.2,0,0.5-0.1,0.7c0,0.2-0.3,0.3-0.6,0.4c-0.6,0.1-1.1,0.1-1.7,0.1H657v-47.8
	c0-0.2,0-0.4,0.1-0.7c0-0.2,0.2-0.3,0.6-0.4c0.6-0.1,1.1-0.1,1.7-0.1c0.8,0,1.9,0,3.3,0v19.9h11.1v-18.8c0-0.2,0-0.4,0.1-0.7
	c0-0.2,0.2-0.3,0.6-0.4c0.6-0.1,1.1-0.1,1.7-0.1c0.8,0,1.9,0,3.3,0v47.9c0,0.2,0,0.5-0.1,0.7c0,0.2-0.3,0.3-0.6,0.4
	c-0.6,0.1-1.1,0.1-1.7,0.1h-3.3L673.8,193.5z"/>
<path class="st0" d="M703.3,212.1c0,1.2,0,2.2,0,2.8c0,0.5-0.1,1-0.1,1.5c0,0.2-0.1,0.5-0.3,0.6c-0.2,0.1-0.4,0.2-0.6,0.1h-16.6
	v-47.8c0-0.2,0-0.4,0.1-0.6c0.1-0.2,0.2-0.3,0.4-0.4c0.2-0.1,0.4-0.2,0.7-0.2h16.7v2.8c0,0.5,0,1-0.1,1.5c0,0.3-0.1,0.5-0.3,0.7
	c-0.2,0.1-0.4,0.2-0.6,0.1h-11.1V188h10.5v2.7c0,0.5,0,1.1-0.1,1.6c0,0.3-0.1,0.5-0.3,0.8c-0.2,0.2-0.4,0.2-0.6,0.2h-9.4v18.9
	L703.3,212.1z"/>
<path class="st0" d="M719,169.4c-0.1-0.5,0.2-1.1,0.8-1.2c0.1,0,0.3,0,0.4,0h20.9c0.2,0.3,0.3,0.5,0.4,0.8c0.1,0.4,0.2,0.7,0.1,1.1
	c0,0.9-0.2,1.7-0.6,2.5l-17.9,39.5h13.5c0.8,0,1.5,0,2.2-0.1c0.7,0,1.3-0.2,1.9-0.4v4.5c0,0.3-0.1,0.6-0.2,0.8
	c-0.2,0.2-0.5,0.3-1,0.3h-21.8c-0.3-0.3-0.5-0.6-0.6-0.9c-0.2-0.4-0.3-0.9-0.3-1.3c0-0.9,0.2-1.7,0.6-2.5l17.6-39.1h-13
	c-0.7,0-1.3,0-1.8,0c-0.4,0-0.9,0.1-1.3,0.2L719,169.4z"/>
<path class="st0" d="M764.3,204.8h-12l-2.8,11.5c-0.1,0.3-0.3,0.6-0.6,0.8c-0.7,0.3-1.4,0.3-2.1,0.3h-1.6c-0.7,0-1.3-0.1-2-0.2
	l12.5-48.2c0.1-0.6,0.9-1,2.2-1c0.9,0,1.8,0.1,2.7,0.2l12.5,47.9c0.1,0.3,0,0.7-0.3,0.9c-0.7,0.3-1.4,0.4-2.1,0.3h-1.5
	c-0.6,0-1.2,0-1.9-0.1L764.3,204.8z M753.4,199.6h9.7l-2.4-9.9c-0.3-1.2-0.5-2.4-0.8-3.6s-0.5-2.4-0.7-3.6c-0.2-1.2-0.4-2.3-0.6-3.4
	c-0.2-1.1-0.3-2-0.4-2.9c-0.1,0.8-0.2,1.8-0.4,2.9c-0.2,1.1-0.4,2.2-0.6,3.4c-0.2,1.2-0.4,2.4-0.7,3.6s-0.5,2.4-0.8,3.6L753.4,199.6
	z"/>
<path class="st0" d="M793.4,193.5h-11.1v22.7c0,0.2,0,0.5-0.1,0.7c0,0.2-0.2,0.3-0.6,0.4c-0.6,0.1-1.1,0.1-1.7,0.1h-3.3v-47.8
	c0-0.2,0-0.4,0.1-0.7c0-0.2,0.3-0.3,0.6-0.4c0.6-0.1,1.1-0.1,1.7-0.1c0.8,0,1.9,0,3.3,0v19.9h11.1v-18.8c0-0.2,0-0.4,0.1-0.7
	c0-0.2,0.3-0.3,0.6-0.4c0.6-0.1,1.1-0.1,1.7-0.1c0.8,0,1.9,0,3.3,0v47.9c0,0.2,0,0.5-0.1,0.7c0,0.2-0.2,0.3-0.6,0.4
	c-0.6,0.1-1.1,0.1-1.7,0.1h-3.3L793.4,193.5z"/>
<path class="st0" d="M816.7,198c-0.3-0.8-0.8-2-1.3-3.7c-0.6-1.7-1.2-3.5-1.8-5.4s-1.3-3.9-1.9-5.8s-1.2-3.6-1.6-4.9
	c0.1,1.1,0.2,2.7,0.3,4.8c0.1,2,0.2,4.2,0.3,6.3c0.1,2.1,0.1,4.1,0.1,6s0,3.1,0,3.9v17c0,0.2,0,0.5-0.1,0.7
	c-0.1,0.2-0.3,0.3-0.6,0.4c-0.6,0.1-1.1,0.1-1.7,0.1h-3.3v-47.8c-0.1-0.6,0.4-1.1,0.9-1.2c0.1,0,0.2,0,0.3,0h4.3l7.8,18.9
	c0.3,0.9,0.8,2.2,1.4,3.9c0.6,1.7,1.2,3.4,1.8,5.4c0.6,1.9,1.3,3.8,1.9,5.7l1.5,4.8v-0.2c-0.1-1-0.2-2.5-0.3-4.6
	c-0.1-2-0.1-4.1-0.2-6.2c-0.1-2.1-0.1-4.1-0.1-6s0-3.2,0-4.1v-16.4c0-0.2,0-0.4,0.1-0.7c0.1-0.2,0.3-0.3,0.7-0.4
	c0.6-0.1,1.1-0.1,1.7-0.1c0.8,0,1.8,0,3.3,0v47.9c0,0.8-0.4,1.1-1.2,1.1h-4.3L816.7,198z"/>
<path class="st0" d="M853.1,193.5h-11.1v22.7c0,0.2,0,0.5-0.1,0.7c0,0.2-0.2,0.3-0.6,0.4c-0.6,0.1-1.1,0.1-1.7,0.1h-3.3v-47.8
	c0-0.2,0-0.4,0.1-0.7c0.1-0.2,0.3-0.3,0.6-0.4c0.6-0.1,1.1-0.1,1.7-0.1c0.8,0,1.9,0,3.3,0v19.9h11.1v-18.8c0-0.2,0-0.4,0.1-0.7
	c0-0.2,0.3-0.3,0.6-0.4c0.6-0.1,1.1-0.1,1.7-0.1c0.8,0,1.9,0,3.3,0v47.9c0,0.2,0,0.5-0.1,0.7c0,0.2-0.2,0.3-0.6,0.4
	c-0.6,0.1-1.1,0.1-1.7,0.1h-3.3L853.1,193.5z"/>
<path class="st0" d="M882.6,212.1c0,1.2,0,2.2,0,2.8c0,0.5-0.1,1-0.1,1.5c0,0.2-0.1,0.5-0.3,0.6c-0.2,0.1-0.4,0.2-0.6,0.1h-16.6
	v-47.8c0-0.2,0.1-0.4,0.1-0.6c0.1-0.2,0.2-0.3,0.4-0.4c0.2-0.1,0.4-0.2,0.7-0.2h16.7v2.8c0,0.5,0,1-0.1,1.5c0,0.3-0.1,0.5-0.3,0.7
	c-0.2,0.1-0.4,0.2-0.6,0.1h-11.1V188h10.5v2.7c0,0.5,0,1.1-0.1,1.6c0,0.3-0.1,0.5-0.3,0.8c-0.2,0.2-0.4,0.2-0.6,0.2h-9.4v18.9
	L882.6,212.1z"/>
<path class="st0" d="M887.3,170.8c0-0.5,0-1,0.1-1.5c0.1-0.4,0.3-0.6,0.6-0.8c0.5-0.2,1.1-0.3,1.7-0.3c0.8,0,1.9,0,3.3,0v47.9
	c0,0.2,0,0.5-0.1,0.7c-0.1,0.2-0.3,0.3-0.6,0.4c-0.6,0.1-1.1,0.1-1.7,0.1h-3.3V170.8z"/>
<path class="st0" d="M904.7,211.9h12v4.2c0,0.5-0.1,0.8-0.3,0.9c-0.3,0.2-0.6,0.2-0.9,0.2H899v-47.4c0-0.3,0-0.6,0.1-0.9
	c0.1-0.2,0.3-0.4,0.7-0.5c0.6-0.1,1.1-0.2,1.7-0.2c0.8,0,1.8,0,3.3,0V211.9z"/>
<path class="st0" d="M921.1,169.4c0-0.2,0-0.4,0.1-0.7c0.1-0.2,0.3-0.3,0.6-0.4c0.6-0.1,1.1-0.1,1.7-0.1c0.8,0,1.9,0,3.3,0v21.1
	l11.1-20.8c0.6-0.1,1.3-0.2,1.9-0.3c0.6-0.1,1.1-0.1,1.7-0.1c2.1,0,2.9,0.6,2.3,1.7l-11.3,19.5c2.8,2.1,5.1,5.4,7,9.8
	c2.1,5.4,3.5,11,4.2,16.8c0.1,0.4-0.1,0.8-0.4,1.1c-0.6,0.3-1.3,0.4-1.9,0.3c-1.3,0-2.6-0.1-4-0.2c-0.8-4.6-1.9-9.1-3.2-13.6
	c-0.9-3.2-2.5-6.1-4.6-8.6c-0.4-0.4-0.9-0.8-1.4-1.1c-0.5-0.3-1-0.6-1.5-0.8v23c0,0.2,0,0.5-0.1,0.7c-0.1,0.2-0.3,0.3-0.6,0.4
	c-0.6,0.1-1.1,0.1-1.7,0.1h-3.3L921.1,169.4z"/>
<path class="st0" d="M954.6,203.1c0,1.3,0.1,2.6,0.2,3.9c0.1,1.1,0.5,2.1,1,3c0.5,0.8,1.2,1.5,2,2c1.1,0.5,2.3,0.8,3.5,0.7
	c1.2,0,2.4-0.1,3.5-0.4c0.9-0.2,1.8-0.5,2.6-0.9v-42c0-0.2,0-0.4,0.1-0.7c0.1-0.2,0.3-0.3,0.6-0.4c0.6-0.1,1.1-0.1,1.7-0.1
	c0.8,0,1.9,0,3.3,0v47.2c-1.4,0.8-2.9,1.3-4.5,1.7c-2.4,0.6-4.9,0.9-7.4,0.8c-2.3,0.1-4.6-0.3-6.7-1.2c-1.6-0.7-2.9-1.8-3.8-3.3
	c-0.9-1.4-1.5-3.1-1.7-4.8c-0.3-1.9-0.4-3.8-0.4-5.8v-33.5c0-0.2,0-0.4,0.1-0.7c0.1-0.2,0.3-0.3,0.6-0.4c0.6-0.1,1.1-0.1,1.7-0.1
	c0.8,0,1.9,0,3.4,0L954.6,203.1z"/>
<path class="st0" d="M990.9,198c-0.3-0.8-0.8-2-1.3-3.7l-1.8-5.4c-0.7-1.9-1.3-3.9-1.9-5.8s-1.2-3.6-1.6-4.9
	c0.1,1.1,0.2,2.7,0.3,4.8s0.2,4.2,0.3,6.3s0.1,4.1,0.1,6s0,3.1,0,3.9v17c0,0.2,0,0.5-0.1,0.7c-0.1,0.2-0.3,0.3-0.6,0.4
	c-0.6,0.1-1.1,0.1-1.7,0.1h-3.2v-47.8c-0.1-0.6,0.3-1.1,0.9-1.2c0.1,0,0.2,0,0.3,0h4.3l7.8,18.9c0.3,0.9,0.8,2.2,1.4,3.9
	s1.2,3.4,1.8,5.4s1.3,3.8,1.9,5.7l1.5,4.8v-0.2c-0.1-1-0.2-2.5-0.3-4.6s-0.1-4.1-0.2-6.2s-0.1-4.1-0.1-6s0-3.2,0-4.1v-16.4
	c0-0.2,0-0.4,0.1-0.7c0.1-0.2,0.3-0.3,0.7-0.4c0.6-0.1,1.1-0.1,1.7-0.1c0.8,0,1.8,0,3.3,0v47.9c0,0.8-0.4,1.1-1.2,1.1h-4.3
	L990.9,198z"/>
<path class="st0" d="M1019.1,168.3c2-0.1,4.1,0.3,6,1c1.8,0.7,3.3,2,4.3,3.6c1.3,2.1,2.2,4.4,2.6,6.8c0.6,3.5,0.9,7,0.8,10.6
	c0.1,4.3-0.2,8.6-0.9,12.9c-0.4,2.9-1.3,5.7-2.7,8.3c-1,1.9-2.5,3.4-4.3,4.5c-1.8,0.9-3.8,1.4-5.8,1.3h-8.8v-47.7
	c0-0.4,0.1-0.7,0.3-1c0.5-0.3,1-0.4,1.5-0.3H1019.1z M1026.3,189.7c0-2.7-0.1-5.3-0.4-8c-0.2-1.7-0.6-3.4-1.3-5
	c-0.4-1.1-1.2-1.9-2.2-2.5c-1-0.5-2-0.7-3.1-0.7h-3.2v38.4h3.2c0.9,0,1.8-0.3,2.6-0.7c1.1-0.8,1.9-1.8,2.3-3.1
	c0.8-2.2,1.3-4.4,1.6-6.7C1026.2,197.5,1026.4,193.6,1026.3,189.7L1026.3,189.7z"/>
<path class="st0" d="M1055.7,212.1c0,1.2,0,2.2,0,2.8c0,0.5-0.1,1-0.1,1.5c0,0.2-0.1,0.5-0.3,0.6c-0.2,0.1-0.4,0.2-0.6,0.1H1038
	v-47.8c0-0.2,0.1-0.4,0.1-0.6c0.1-0.2,0.2-0.3,0.4-0.4c0.2-0.1,0.4-0.2,0.7-0.2h16.7v2.8c0,0.5,0,1-0.1,1.5c0,0.3-0.1,0.5-0.3,0.7
	c-0.2,0.1-0.4,0.2-0.6,0.1h-11.2V188h10.5v2.7c0,0.5,0,1.1-0.1,1.6c0,0.3-0.1,0.5-0.3,0.8c-0.2,0.2-0.4,0.2-0.6,0.2h-9.4v18.9
	L1055.7,212.1z"/>
<path class="st0" d="M1070.8,200c0-1.3,0-2.5,0.1-3.8c0.1-0.8,0.4-1.2,1-1.2h13.2c0,1.3,0,2.5-0.1,3.8c-0.1,0.8-0.4,1.1-1,1.1
	H1070.8z"/>
<path class="st0" d="M1101.7,170.8c0-0.5,0-1,0.1-1.5c0.1-0.4,0.3-0.6,0.6-0.8c0.5-0.2,1.1-0.3,1.7-0.3c0.8,0,1.9,0,3.3,0v47.9
	c0,0.2,0,0.5-0.1,0.7c-0.1,0.2-0.3,0.3-0.6,0.4c-0.6,0.1-1.1,0.1-1.7,0.1h-3.3V170.8z"/>
<path class="st0" d="M1113.5,169.4c-0.1-0.6,0.3-1.1,0.9-1.2c0.1,0,0.2,0,0.3,0h20.9c0.2,0.3,0.3,0.5,0.4,0.8
	c0.1,0.4,0.2,0.7,0.1,1.1c0,0.9-0.2,1.7-0.6,2.5l-17.8,39.5h13.5c0.8,0,1.5,0,2.2-0.1c0.6,0,1.3-0.2,1.9-0.4v4.5
	c0,0.3-0.1,0.6-0.2,0.8c-0.1,0.2-0.5,0.3-1,0.3h-21.8c-0.3-0.3-0.5-0.6-0.6-0.9c-0.2-0.4-0.3-0.9-0.3-1.3c0-0.9,0.2-1.7,0.6-2.5
	l17.6-39.1h-13c-0.7,0-1.3,0-1.8,0c-0.4,0-0.9,0.1-1.3,0.2L1113.5,169.4z"/>
<path class="st0" d="M1140.4,170.8c0-0.5,0-1,0.1-1.5c0.1-0.4,0.3-0.6,0.6-0.8c0.5-0.2,1.1-0.3,1.7-0.3c0.8,0,1.9,0,3.3,0v47.9
	c0,0.2,0,0.5-0.1,0.7c-0.1,0.2-0.3,0.3-0.6,0.4c-0.6,0.1-1.1,0.1-1.7,0.1h-3.3V170.8z"/>
</svg>
