<svg xmlns="http://www.w3.org/2000/svg" xmlns:xlink="http://www.w3.org/1999/xlink" width="100" height="100" viewBox="0 0 100 100">
  <defs>
    <clipPath id="clip-izi_grayscale">
      <rect width="100" height="100"/>
    </clipPath>
  </defs>
  <g id="izi_grayscale" clip-path="url(#clip-izi_grayscale)">
    <g id="izi" transform="translate(-12.544 24.514)">
      <path id="Path_23" data-name="Path 23" d="M98.55,1.535a7.244,7.244,0,0,0,4.107.3c1.764-.252,4.079-1.344,5.255.467.971,1.494.653,2.894.485,4.518-.168,1.662-.261,3.37-.588,5.013-.168.868,1.158,1.232,1.326.364.355-1.764.457-3.585.635-5.377.177-1.727.42-3.174-.429-4.789-2.315-4.4-6.572-.131-10.1-1.68-.8-.355-1.512.831-.691,1.186Z" transform="translate(-45.419 6)" fill="#8e8e8e"/>
      <path id="Path_24" data-name="Path 24" d="M14.158,4.417a10.779,10.779,0,0,1-6.926-1.2A13.481,13.481,0,0,0,3.665,1.6C1.369,1.2.436,3.2.183,5.107-.4,9.4.865,13.957,2.573,17.859c.476,1.083,1.242,2.828,2.306,3.435,1.251.728,2.212-.793,2.632-1.792.345-.8-.84-1.5-1.186-.691a2.832,2.832,0,0,1-.373.728c-.495.56-.317.467-.8.056a6.179,6.179,0,0,1-.971-1.531A24.97,24.97,0,0,1,2.134,12.37c-.607-2.427-1.288-5.844-.327-8.3.868-2.2,3.164-.467,4.574.261a12.508,12.508,0,0,0,8.149,1.428c.859-.168.495-1.494-.373-1.344Z" transform="translate(43.566 4.574)" fill="#8e8e8e"/>
      <path id="Path_25" data-name="Path 25" d="M82.273,112.683c-.327-1.82-1.382-5.536-4.014-4.555-1.96.728-1.979,3.417-2.558,5.069-.289.84,1.036,1.195,1.326.364.429-1.232.383-2.95,1.382-3.911,1.5-1.438,2.38,2.53,2.53,3.4s1.484.5,1.335-.364Z" transform="translate(-24.997 -91.911)" fill="#8e8e8e"/>
      <path id="Path_26" data-name="Path 26" d="M238.3,236.137a.056.056,0,0,0,.009-.037A.056.056,0,0,0,238.3,236.137Z" transform="translate(-172.455 -208.085)" fill="#8e8e8e"/>
      <path id="Path_27" data-name="Path 27" d="M187.1,234.919l.056-.019C187.119,234.9,187.109,234.909,187.1,234.919Z" transform="translate(-126.034 -206.997)" fill="#8e8e8e"/>
      <path id="Path_28" data-name="Path 28" d="M269,236.2h0l.2.009Z" transform="translate(-200.289 -208.176)" fill="#8e8e8e"/>
      <path id="Path_29" data-name="Path 29" d="M105.809,221.8l-.009.009S105.819,221.8,105.809,221.8Z" transform="translate(-52.324 -195.12)" fill="#8e8e8e"/>
      <path id="Path_30" data-name="Path 30" d="M142.284,233a.273.273,0,0,1-.084.019A.084.084,0,0,0,142.284,233Z" transform="translate(-85.326 -205.274)" fill="#8e8e8e"/>
      <path id="Path_31" data-name="Path 31" d="M284.984,243.447l-.084-.047C284.9,243.419,284.937,243.447,284.984,243.447Z" transform="translate(-214.705 -214.703)" fill="#8e8e8e"/>
      <path id="Path_32" data-name="Path 32" d="M316.709,239.409l-.009-.009C316.7,239.409,316.7,239.409,316.709,239.409Z" transform="translate(-243.537 -211.077)" fill="#8e8e8e"/>
      <path id="Path_33" data-name="Path 33" d="M303.684,238l-.084.028C303.637,238.028,303.684,238.019,303.684,238Z" transform="translate(-231.659 -209.808)" fill="#8e8e8e"/>
      <path id="Path_34" data-name="Path 34" d="M303.3,238.319l.037-.019C303.309,238.3,303.3,238.309,303.3,238.319Z" transform="translate(-231.387 -210.079)" fill="#8e8e8e"/>
      <path id="Path_35" data-name="Path 35" d="M102.005,50.564a.384.384,0,0,0-.205,0A.755.755,0,0,0,102.005,50.564Z" transform="translate(-48.697 -39.856)" fill="#8e8e8e"/>
      <path id="Path_36" data-name="Path 36" d="M177.7,160.7v.028Q177.714,160.7,177.7,160.7Z" transform="translate(-117.512 -139.723)" fill="#8e8e8e"/>
      <path id="Path_37" data-name="Path 37" d="M100.847,54.737,100.8,54.7A.093.093,0,0,0,100.847,54.737Z" transform="translate(-47.79 -43.618)" fill="#8e8e8e"/>
      <path id="Path_38" data-name="Path 38" d="M266.849,246.4c-.084.056-.261,0-.252.056C266.69,246.447,266.811,246.475,266.849,246.4Z" transform="translate(-198.11 -217.423)" fill="#8e8e8e"/>
      <path id="Path_39" data-name="Path 39" d="M182.8,130.637l.047-.037A.164.164,0,0,0,182.8,130.637Z" transform="translate(-122.136 -112.433)" fill="#8e8e8e"/>
      <path id="Path_40" data-name="Path 40" d="M101.3,55.1c.019.009.037.028.056.037,0-.009-.009-.019-.009-.028a.07.07,0,0,1-.047-.009Z" transform="translate(-48.244 -43.981)" fill="#8e8e8e"/>
      <path id="Path_41" data-name="Path 41" d="M263.909,101.4h0l-.009.028.009-.028Z" transform="translate(-195.665 -85.959)" fill="#8e8e8e"/>
      <path id="Path_42" data-name="Path 42" d="M268.375,97.7l-.075.1A.144.144,0,0,0,268.375,97.7Z" transform="translate(-199.655 -82.604)" fill="#8e8e8e"/>
      <path id="Path_43" data-name="Path 43" d="M100.621,50.609,100.5,50.6A.574.574,0,0,0,100.621,50.609Z" transform="translate(-47.518 -39.901)" fill="#8e8e8e"/>
      <path id="Path_44" data-name="Path 44" d="M232.7,46.1h0Z" transform="translate(-167.378 -35.821)" fill="#8e8e8e"/>
      <path id="Path_45" data-name="Path 45" d="M147.1,233.562a.07.07,0,0,0,.047.009C147.147,233.562,147.147,233.553,147.1,233.562Z" transform="translate(-89.768 -205.781)" fill="#8e8e8e"/>
      <path id="Path_46" data-name="Path 46" d="M104.2,242.9Z" transform="translate(-50.873 -214.25)" fill="#8e8e8e"/>
      <path id="Path_47" data-name="Path 47" d="M104.433,242.7a.335.335,0,0,0-.233,0A.335.335,0,0,0,104.433,242.7Z" transform="translate(-50.873 -214.046)" fill="#8e8e8e"/>
      <path id="Path_48" data-name="Path 48" d="M98.5,240.5l.028.019C98.519,240.519,98.509,240.509,98.5,240.5Z" transform="translate(-45.705 -212.074)" fill="#8e8e8e"/>
      <path id="Path_49" data-name="Path 49" d="M144.5,249.5Z" transform="translate(-87.411 -220.234)" fill="#8e8e8e"/>
      <path id="Path_50" data-name="Path 50" d="M135.056,248.728,135,248.7Z" transform="translate(-78.798 -219.509)" fill="#8e8e8e"/>
      <path id="Path_51" data-name="Path 51" d="M87.5,215.2Z" transform="translate(-35.732 -189.136)" fill="#8e8e8e"/>
      <path id="Path_52" data-name="Path 52" d="M89.154,54.285c-.607.495-1.354,1.195-1.97,1.671a1.675,1.675,0,0,1-.42.532l-.112-.093-.131.168c-.093.019.1-.121-.047-.065v.121c-.047-.028-.429.327-.233.019-.205.177-.411.355-.607.541-.131.121.009.159-.168.271-.056,0,.037-.075-.019-.1-.513.336-.308.681-.747,1.036l.019-.047c-.037.093-.168.224-.159.243.159.047.009-.131.2-.2.084.1-.1.2-.028.261-.121.065-.121.168-.2.261-.2.093-.336.336-.5.392a1.14,1.14,0,0,1-.177.485c-.2.1-.047-.1-.243.112l.037.075c-.149.205-.149.168-.168.14a.7.7,0,0,0-.1.224.6.6,0,0,1-.1.271v-.177c-.028.093-.056.187-.084.289a1.638,1.638,0,0,0-.056.364c-.047,0-.028-.14-.019-.233-.131.187.037.308.028.4.028-.037.028-.261.112-.159-.009.168.14.308.1.429a1.618,1.618,0,0,1-.121-.14c.168.3.131.149.308.467-.019-.009-.028,0-.047,0a8.623,8.623,0,0,0,.728.579l-.075-.019a2.864,2.864,0,0,0,.336.065c-.177-.121-.1-.112-.084-.177a.422.422,0,0,0,.327.121.689.689,0,0,1,.383.075c-.019.037-.1.065-.177-.009-.075.037-.131.075-.2.112a.466.466,0,0,1-.3.009c.2.056.355.093.3.121l.084-.093.2.065c.056-.056-.112-.149.065-.149.2.019.065.14.112.1.271.028.14-.093.373.009-.028,0-.075.009-.093-.009.168.093.429.075.448.215-.028.028-.047.065-.112.037l.009-.019c-.215.056.168.009.084.112,0-.075.243-.009.355.019l-.019-.093c.411-.187-.047.159.327.187.243-.028-.084-.037.065-.075.149.037.205.121.439.112.056.037.177.1.177.2.14-.028.42.093.5,0-.224-.1-.243.075-.513-.075l.093-.084a4.674,4.674,0,0,1,.569.047c-.028-.019-.037-.047-.019-.065.271-.009.355-.093.616-.047.028.084-.121.056-.233.056.168.075.177.019.439.065.009.075-.177-.019-.215.056h.289v.019c.047-.121.224.028.4,0,.42.019.495-.14.728-.233.065.037.075.065.047.093-.1-.056-.084-.019-.121.019.14-.009.308.131.224.177.224-.028-.084-.065.056-.1l.308.019c-.037-.065-.14-.084.019-.121a2.5,2.5,0,0,1,.373.009c-.028.028.056.093-.075.093a.3.3,0,0,0,.271-.028c-.2-.056.317-.047.177-.149l.187.056c-.047,0-.047.037-.112.028.056.093.159-.028.224-.037.065.019.243.028.261.065a.236.236,0,0,1,.233.047c.093-.019.009-.065.037-.093l.308.009c.019.056.037.2,0,.215.112-.047.037-.159.215-.149-.1.1.233.084.093.205a.936.936,0,0,0,.541.047c.093-.084-.168-.047-.159-.131.439-.037.467-.261.793-.224l-.084-.019a.644.644,0,0,0,.3-.112c-.056.1.233.271.569.243.028-.056-.187-.093-.131-.177l.224-.019c.019.009-.009.028-.037.037.2-.037.373.121.429,0l.205.149-.084-.065c.028-.056.243-.075.289-.093a.5.5,0,0,1,.429.037c-.037-.037-.14-.131.037-.159,0,.168.373.047.373.14.075,0,.2.047.205-.028l-.009.1c.009-.149.271-.149.467-.177-.037.2.224-.028.317.149.037-.131.355-.065.383-.177.159-.009.14.112.177.149l.075-.056a3.049,3.049,0,0,0,.541.093l.149-.121.065.056c.028-.028.159-.056.075-.093h.093c0-.131.121-.037.289-.1.037.019.037.047,0,.065.084,0,.056.065.1.1-.065-.028.3-.243.065-.289-.019-.056.112-.093.2-.075l.056.112.093-.131c.131-.028.187.047.3.056-.112.009-.233.233.047.215a1.182,1.182,0,0,0-.3.121c.056,0,.093.009,0,.065.224-.047.075-.075.289-.1-.009.1.056.131.252.159l-.149-.065.028-.028c-.056-.009-.075-.028-.084-.065.047,0,.252-.14.289-.084-.233-.149.373-.14.233-.233.028-.028.177-.047.2.009-.177.093.14.112.121.177.065-.037-.149-.075-.056-.112a.47.47,0,0,1,.252.075l-.047.019.168.037c.028-.056-.168-.075-.009-.112.047.019.2-.019.2.028-.065.075-.009.168-.14.187.112-.009.457-.047.317-.131h.131c-.084-.037-.317-.1-.056-.131v.019l.177-.093.084.047c0-.028.028-.056.093-.056.019.028.084.037.084.084.2-.019.177-.065.205-.1.112-.019.149,0,.1.065a1.584,1.584,0,0,1,.523.028c.2-.056-.047-.019.075-.093.187.168.672.028,1-.019-.1-.149.093-.028.14-.168-.065.056.317.1.037.168l.177-.028c.131.075-.289.084-.093.187.2-.019.317-.2.551-.159-.075.121.177-.047.131.075-.047.047-.112.037-.177.047l.047.019c.429,0,.112-.14.336-.233.261-.028.215.075.233.121a.432.432,0,0,0,.243-.037c-.159.075-.3-.047-.233-.131.121.121.392-.009.457-.065-.383-.112-.261.009-.616-.112-.047.047-.028.159-.243.121.131-.065-.009-.065-.056-.075.047.065-.14.037-.205.065-.065-.047.121-.159-.1-.168l-.028.159c-.084-.019.028-.112-.149-.065.093-.093-.037-.121.205-.168-.3-.112-.439.1-.663.168.019-.009.028-.028.047-.047a.367.367,0,0,1-.2.056c-.149-.028.112-.075.075-.121l-.243.019-.009-.009c-.065.028-.121.047-.149.009.047-.047.093-.093.14-.149l-.271.149c.028-.056-.215-.075-.037-.121l-.373.047-.037-.1c-.093.028-.093.047.019.056-.131-.019-.551.215-.5.009a4.793,4.793,0,0,1-.747.149c.271-.112-.317-.1-.037-.168-.168-.037-.2.075-.327.1-.131-.037-.075-.14.056-.187l-.159.056v-.019l-.131.065c-.149-.047-.037-.1-.187-.112l-.028.093-.1-.047c.037.037-.047.065-.159.075v-.019l-.131.028c.131-.065-.121-.019-.065-.084a1.748,1.748,0,0,0-.317.028l.037.056c-.261.075-.019-.093-.233-.093l.019.075c-.317-.1-.523.093-.756.028.131-.019.093-.1.093-.084a2.921,2.921,0,0,0-.728.131c-.084-.1-.1-.131-.317-.168-.149.009-.177.028-.224.093-.149-.037-.429.037-.439-.037-.037.065-.131-.009-.215.047l-.019-.028.019.075c-.271-.149-.448.112-.719-.028l.047-.019-.112.028c-.019-.028.028-.056.028-.093h-.523l.1.056c-.112.009-.177.084-.308.047.205-.112-.177,0-.205-.084l.112-.028c-.149.009-.149.009-.14.084-.2.028-.14-.131-.317-.056h.131c.037.037-.056.1-.14.1-.019-.009-.084-.037-.019-.056-.159.028-.392,0-.457.028-.084-.019-.056-.075-.009-.093-.336.075-.149-.009-.485.056V62.1l-.112.056-.168-.093.056.056a1.141,1.141,0,0,1-.308.019l.056-.065c-.308.037-.364-.1-.653-.009-.019-.009.028-.028.047-.037-.271.1-.205-.112-.476.009.019-.019-.009-.047,0-.065L92.655,62l.009-.084-.1.121-.075-.084L92.44,62c-.131-.159-.317-.037-.5-.159l.028.1c-.457.215-1.045-.131-1.6-.047l.009-.084-.233.093c-.121-.065.075-.065.037-.112-.243.037-.1.121-.392.131-.14-.065.056-.056.121-.093a2.8,2.8,0,0,1-.84,0c-.009.009-.019.028-.009.028a3.264,3.264,0,0,1-.6-.037c.009-.037.056-.037.1-.047-.065-.009-.159-.047-.224-.009l.075-.065c-.149-.028-.429.019-.457-.075.019.037,0,.093-.121.084-.056-.131-.345.019-.541-.075.028-.028.177-.019.131-.019a.393.393,0,0,0-.289.028l.037-.047L86.7,61.6c-.047-.131-.439-.047-.383-.14-.159-.037.121.084-.084.056-.047-.065-.187-.009-.168-.093l.028-.009-.14-.028.1-.056a.232.232,0,0,0-.243.112c-.1-.075-.271-.075-.3-.159l.047-.009a.43.43,0,0,1-.289-.177c-.019-.056-.009-.084-.093-.047,0-.009.019-.028.028-.019l-.037-.028.056-.037a.391.391,0,0,1-.149.009l.047-.019a.21.21,0,0,1-.037-.177l.019.009c-.028-.084.075-.037.065-.1.009.009.009.009.009.019l.075-.093.019.047c0-.065.047-.093.121-.121s.131-.056.075-.037c.028-.093.093-.233.065-.289.149-.168.075-.009.2-.084.112-.121.075-.187.261-.327l.028.037c.065-.084.093-.149.187-.261l-.019.047c.1-.233.3-.121.3-.383.093-.047.215-.2.271-.131a7.062,7.062,0,0,1,.541-.644c.131.075.047-.047.233-.112l-.056-.047c.317-.289.8-.467,1.148-.784l.056.047.019-.121c.411-.289.952-.672,1.279-.915a1.255,1.255,0,0,1,.373-.411l-.009.019a5.28,5.28,0,0,1,.924-.709c0,.037.037.037.019.075.028-.121.187-.14.261-.187l-.112.009a.317.317,0,0,1,.308-.149l.1-.168a.084.084,0,0,1,.047.009v-.075l.131.028c.028-.047.215-.2.224-.317.037.019.187-.056.093.028l.56-.355-.1.028c-.056-.056.093-.205.187-.233-.084.121.047.093.131.1.056-.084-.1-.009-.084-.075a.716.716,0,0,1,.317-.261l-.037.065c.112-.112.243-.037.364-.131.084-.121.2-.131.1-.224.149-.131.112.028.168,0,.047-.1.3-.224.364-.187-.009-.215.485-.233.439-.383l.177-.019a.182.182,0,0,1,.065-.224c.131-.028.14.047.2.065l-.009-.177c.719-.252,1.466-.859,2.212-1.195.28-.224.616-.541.971-.775l-.028.047.373-.215-.289.121a1.062,1.062,0,0,1,.177-.177,4.7,4.7,0,0,0,1.372-1.017c.168-.4.308-.065.495-.457-.009.037,0,.065-.009.1a3.52,3.52,0,0,0,.317-.5c.047-.093.084-.159.14-.28a1.8,1.8,0,0,0,.149-.429c.149.131.14-.4.205-.327l-.056-.065c.084-.131.1-.476.149-.429-.037-.093-.075-.187-.121-.28l.065-.037a2.029,2.029,0,0,0-.28-.635,2.576,2.576,0,0,1-.261-.364.672.672,0,0,1-.14-.252,7.1,7.1,0,0,0-1.148-.672,8.294,8.294,0,0,0-1.232-.411,1.63,1.63,0,0,1-.513-.019l-.168-.112c-.177,0-.364.1-.523.028a.02.02,0,0,1,.019-.019,1.1,1.1,0,0,0-.495.019c-.187-.019-.364-.065-.308-.149-.019.14-.392-.028-.392-.028s-.6-.028-1.494-.009-2.1.112-3.342.224-2.52.243-3.585.3-1.9.037-2.4.065c-.093.056-.252.019-.233.121-.14-.028-.14-.168-.2-.112.149.121-.14.14,0,.3L84.487,45c-.047.037.177.019.112.093l.093-.112a.33.33,0,0,1,.14.159c.112-.019.224-.177.411-.028l-.056-.009c.177.047.093.112.121.14l-.047-.009.14.1c-.1-.065-.327-.019-.224,0,.215.093-.047-.047.121-.019.1.019.056.084.047.121l.187.037c-.019.056-.121-.037-.056.047a2.289,2.289,0,0,0,.252-.019c.019.159.271-.028.364.131-.177.019.009.056-.028.1l.439.037c.037.028-.121.037-.056.037.084.047.14-.028.177-.028.037.047.327.019.308.121.3.084.131-.131.411-.056.037.065-.224.009-.1.075l.289-.019a.157.157,0,0,1-.168.084c.784.093,1.223.4,1.942.28.1.065-.075.056-.14.1.513-.131.747.121,1.186.075v-.065a11.554,11.554,0,0,0,2.044-.019l-.084-.037a1.173,1.173,0,0,1,.345-.121c.019.028-.065.14.131.093-.037-.019-.131-.037-.1-.065.6.112,1.83-.028,2.754.047a7.2,7.2,0,0,1,3.379.56c-.121-.056,0-.168.084-.093.056.317.364.289.289.355l-.028.028c.065.019.019.084-.019.093-.009.009,0-.009,0-.009a.247.247,0,0,1-.047.056l-.112.14a2.375,2.375,0,0,0-.224.364l-.056-.047c-.084.037-.075.093-.131.159l-.009-.019c-.177.131-.355.373-.485.429l.009.121c-.112.093-.1,0-.177.131l-.019-.037-.093.168c-.075-.121-.336.243-.476.252a3.362,3.362,0,0,1-.663.541c-.093-.028-.383.177-.6.271a15.156,15.156,0,0,1-1.4.933l.056.075-.121.093c-.009-.019-.037-.019-.019-.037-.159-.028-.28.215-.42.224.112.028.1-.047.177-.093.131-.028.075.112-.093.159l-.009-.019-.075.1c-.047-.056-.159-.028-.205-.084a12.505,12.505,0,0,1-1.092.84c0-.1-.3.224-.289.047-.233.215.1.065.037.233-.075.047-.131.131-.168.093.019-.047-.112-.037-.056-.084l-.168.131c-.028,0,.009-.037.019-.065-.317.308-.681.345-.952.635.009.056.131-.075.14-.019-.261.308-.336.112-.588.383l.019-.1c-.065.112-.075.187-.261.252-.075-.047.093-.149.149-.233-.112.075-.373.289-.243.289-.112.112-.205.084-.289.121.009.019.149-.037.1.047a4.752,4.752,0,0,0-.691.429c-.009-.019-.047-.037-.028-.056-.1.215-.2.047-.42.243Z" transform="translate(-31.711 -34.036)" fill="#8e8e8e"/>
      <path id="Path_53" data-name="Path 53" d="M144.059,249.619l-.1-.019c0,.019-.009.037-.056.056Z" transform="translate(-86.867 -220.325)" fill="#8e8e8e"/>
      <path id="Path_54" data-name="Path 54" d="M87.356,233.437c-.019-.009-.037-.028-.056-.037C87.328,233.437,87.347,233.437,87.356,233.437Z" transform="translate(-35.55 -205.637)" fill="#8e8e8e"/>
      <path id="Path_55" data-name="Path 55" d="M86.384,215.178c-.065.131.028.028.093-.028C86.459,215.14,86.44,215.14,86.384,215.178Z" transform="translate(-34.7 -189.085)" fill="#8e8e8e"/>
      <path id="Path_56" data-name="Path 56" d="M176.028,248.3c-.019.009-.028.019-.028.037C176.028,248.328,176.028,248.319,176.028,248.3Z" transform="translate(-115.971 -219.146)" fill="#8e8e8e"/>
      <path id="Path_57" data-name="Path 57" d="M259.828,246.809l-.028-.009A.041.041,0,0,0,259.828,246.809Z" transform="translate(-191.948 -217.786)" fill="#8e8e8e"/>
      <path id="Path_58" data-name="Path 58" d="M254.493,245.7a.331.331,0,0,0-.093.019A.168.168,0,0,0,254.493,245.7Z" transform="translate(-187.052 -216.789)" fill="#8e8e8e"/>
      <path id="Path_59" data-name="Path 59" d="M155.084,248.2a.15.15,0,0,0-.084.028A.15.15,0,0,0,155.084,248.2Z" transform="translate(-96.931 -219.055)" fill="#8e8e8e"/>
      <path id="Path_60" data-name="Path 60" d="M252.412,246.1H252.3v.019l.112-.019Z" transform="translate(-185.148 -217.151)" fill="#8e8e8e"/>
      <path id="Path_61" data-name="Path 61" d="M260.24,246.9h-.14A.182.182,0,0,0,260.24,246.9Z" transform="translate(-192.22 -217.877)" fill="#8e8e8e"/>
      <path id="Path_62" data-name="Path 62" d="M206.519,247.1h-.009C206.416,247.128,206.472,247.119,206.519,247.1Z" transform="translate(-143.586 -218.058)" fill="#8e8e8e"/>
      <path id="Path_63" data-name="Path 63" d="M247.947,247.9h-.009l-.037.019Z" transform="translate(-181.159 -218.783)" fill="#8e8e8e"/>
      <path id="Path_64" data-name="Path 64" d="M266.056,247a.133.133,0,0,0-.056.019l.065.009A.034.034,0,0,1,266.056,247Z" transform="translate(-197.569 -217.967)" fill="#8e8e8e"/>
      <path id="Path_65" data-name="Path 65" d="M224.542,247.175a.2.2,0,0,0,.047-.075C224.552,247.109,224.524,247.128,224.542,247.175Z" transform="translate(-159.976 -218.058)" fill="#8e8e8e"/>
      <path id="Path_66" data-name="Path 66" d="M337.286,84.312a.1.1,0,0,1,.084-.112h.672a1.217,1.217,0,0,1,.915.308,1.394,1.394,0,0,1,.289.99,2.108,2.108,0,0,1-.093.681,1.039,1.039,0,0,1-.644.681,1.563,1.563,0,0,1-.457.075h-.233V88.69a.159.159,0,0,1-.009.065.086.086,0,0,1-.056.037.9.9,0,0,1-.159.009h-.308Zm1.372,1.12a1.16,1.16,0,0,0-.112-.56.435.435,0,0,0-.4-.215h-.327v1.764h.289a.464.464,0,0,0,.42-.224,1.6,1.6,0,0,0,.131-.765Z" transform="translate(-323.33 -51.935)" fill="#8e8e8e"/>
      <path id="Path_67" data-name="Path 67" d="M362.5,84.312c0-.019.009-.037.009-.056a.073.073,0,0,1,.037-.037.079.079,0,0,1,.065-.019h.644a1.217,1.217,0,0,1,.915.308,1.393,1.393,0,0,1,.289.99,1.81,1.81,0,0,1-.159.831,1.06,1.06,0,0,1-.411.448,2.56,2.56,0,0,1,.177.261,3.73,3.73,0,0,1,.187.392,3.829,3.829,0,0,1,.159.532,4.24,4.24,0,0,1,.093.691.14.14,0,0,1-.037.1.489.489,0,0,1-.233.028h-.14c-.056,0-.112-.009-.168-.009a6.483,6.483,0,0,0-.093-.728,5.115,5.115,0,0,0-.14-.541,2.636,2.636,0,0,0-.159-.373l-.14-.224c-.019,0-.047.009-.065.009h-.289v1.755a.158.158,0,0,1-.009.065.086.086,0,0,1-.056.037.9.9,0,0,1-.159.009h-.308Zm1.372,1.158a1.273,1.273,0,0,0-.112-.588.4.4,0,0,0-.4-.215h-.327v1.764h.289a.476.476,0,0,0,.42-.215A1.589,1.589,0,0,0,363.872,85.47Z" transform="translate(-346.192 -51.935)" fill="#8e8e8e"/>
      <path id="Path_68" data-name="Path 68" d="M388.6,84.443a.709.709,0,0,1,.009-.14.116.116,0,0,1,.056-.075.436.436,0,0,1,.159-.028h.308v4.471a.159.159,0,0,1-.009.065.086.086,0,0,1-.056.037.9.9,0,0,1-.159.009H388.6Z" transform="translate(-369.855 -51.935)" fill="#8e8e8e"/>
      <path id="Path_69" data-name="Path 69" d="M397.772,84.335a.269.269,0,0,1-.009-.121c.009-.028.047-.037.121-.037h.429l.541,2.53c.056.289.1.579.149.859s.075.523.112.737c.028-.205.056-.457.093-.737s.084-.569.14-.859l.485-2.371a.607.607,0,0,1,.037-.121.1.1,0,0,1,.093-.037h.467l-1.008,4.593a1.673,1.673,0,0,1-.205.019c-.065,0-.14.009-.243.009a.248.248,0,0,1-.205-.1.759.759,0,0,1-.112-.271c-.037-.131-.075-.289-.121-.476s-.093-.392-.14-.607-.093-.439-.149-.672-.1-.457-.149-.681C398.014,85.455,397.893,84.914,397.772,84.335Z" transform="translate(-378.159 -51.911)" fill="#8e8e8e"/>
      <path id="Path_70" data-name="Path 70" d="M424.27,87.435h-1.12l-.261,1.073a.146.146,0,0,1-.056.075.476.476,0,0,1-.2.028h-.149a1.265,1.265,0,0,1-.187-.019l1.167-4.5c.009-.056.084-.093.205-.093a2.292,2.292,0,0,1,.252.019l1.167,4.481a.075.075,0,0,1-.028.084.36.36,0,0,1-.2.028h-.14a1.13,1.13,0,0,1-.177-.009Zm-1.008-.485h.905l-.224-.924c-.028-.112-.047-.224-.075-.336s-.047-.224-.065-.336-.037-.215-.056-.317-.028-.187-.037-.271c-.009.075-.019.168-.037.271s-.037.205-.056.317-.037.224-.065.336-.047.224-.075.336Z" transform="translate(-400.41 -51.754)" fill="#8e8e8e"/>
      <path id="Path_71" data-name="Path 71" d="M450.507,84.795v3.977a.16.16,0,0,1-.009.065.086.086,0,0,1-.056.037.907.907,0,0,1-.159.009h-.308V84.795h-.887v-.383a.1.1,0,0,1,.084-.112h2.25v.392c0,.075-.037.1-.112.1Z" transform="translate(-424.696 -52.026)" fill="#8e8e8e"/>
      <path id="Path_72" data-name="Path 72" d="M477.409,84.221a.183.183,0,0,1,.009-.065.086.086,0,0,1,.056-.037.9.9,0,0,1,.159-.009h.308v1.97l1.036-1.942.177-.028a.905.905,0,0,1,.159-.009c.2,0,.271.056.215.159l-1.055,1.82a2.2,2.2,0,0,1,.654.915,6.441,6.441,0,0,1,.392,1.568.111.111,0,0,1-.037.1.3.3,0,0,1-.177.028c-.121,0-.243-.009-.373-.019a11.893,11.893,0,0,0-.3-1.27,2.154,2.154,0,0,0-.429-.8.707.707,0,0,0-.131-.1,1.026,1.026,0,0,0-.14-.075v2.147a.159.159,0,0,1-.009.065.085.085,0,0,1-.056.037.9.9,0,0,1-.159.009H477.4Z" transform="translate(-450.366 -51.844)" fill="#8e8e8e"/>
      <path id="Path_73" data-name="Path 73" d="M505.641,88.37h1.12v.392q0,.07-.028.084a.139.139,0,0,1-.084.019H505.1V84.449a.26.26,0,0,1,.009-.084.092.092,0,0,1,.065-.047.919.919,0,0,1,.159-.019h.308Z" transform="translate(-475.48 -52.026)" fill="#8e8e8e"/>
      <path id="Path_74" data-name="Path 74" d="M527.3,84.443a.706.706,0,0,1,.009-.14.116.116,0,0,1,.056-.075.435.435,0,0,1,.159-.028h.308v4.471a.16.16,0,0,1-.009.065.086.086,0,0,1-.056.037.9.9,0,0,1-.159.009H527.3Z" transform="translate(-495.608 -51.935)" fill="#8e8e8e"/>
      <path id="Path_75" data-name="Path 75" d="M540.078,87.072c-.028-.075-.075-.187-.121-.345s-.112-.317-.168-.5-.121-.364-.177-.541-.112-.336-.149-.457q.014.154.028.448c.009.2.019.392.019.588s.009.383.009.56v1.951a.162.162,0,0,1-.009.065.086.086,0,0,1-.056.037.907.907,0,0,1-.159.009h-.308V84.412a.1.1,0,0,1,.084-.112h.43l.728,1.764.131.364c.056.149.112.317.177.5s.121.355.177.532l.14.448v-.019a3.721,3.721,0,0,1-.028-.429c-.009-.187-.009-.383-.019-.579s-.009-.383-.009-.56V84.412a.181.181,0,0,1,.009-.065c.009-.019.028-.028.065-.037a.905.905,0,0,1,.159-.009h.308v4.471c0,.075-.037.1-.112.1h-.4Z" transform="translate(-506.202 -52.026)" fill="#8e8e8e"/>
      <path id="Path_76" data-name="Path 76" d="M570.1,84.443a.706.706,0,0,1,.009-.14.116.116,0,0,1,.056-.075.436.436,0,0,1,.159-.028h.308v4.471a.159.159,0,0,1-.009.065.086.086,0,0,1-.056.037.907.907,0,0,1-.159.009H570.1Z" transform="translate(-534.413 -51.935)" fill="#8e8e8e"/>
      <path id="Path_77" data-name="Path 77" d="M581.709,84.221a.182.182,0,0,1,.009-.065.086.086,0,0,1,.056-.037.905.905,0,0,1,.159-.009h.308v1.97l1.036-1.942.177-.028a.9.9,0,0,1,.159-.009c.2,0,.271.056.215.159l-1.055,1.82a2.2,2.2,0,0,1,.653.915,6.436,6.436,0,0,1,.392,1.568.111.111,0,0,1-.037.1.3.3,0,0,1-.177.028c-.121,0-.243-.009-.373-.019a11.967,11.967,0,0,0-.3-1.27,2.157,2.157,0,0,0-.429-.8.707.707,0,0,0-.131-.1,1.026,1.026,0,0,0-.14-.075v2.147a.159.159,0,0,1-.009.065.086.086,0,0,1-.056.037.9.9,0,0,1-.159.009H581.7Z" transform="translate(-544.93 -51.844)" fill="#8e8e8e"/>
      <path id="Path_78" data-name="Path 78" d="M620.5,88.874V84.412a.119.119,0,0,1,.009-.056.073.073,0,0,1,.037-.037.135.135,0,0,1,.065-.019h1.559v.252a.711.711,0,0,1-.009.14.152.152,0,0,1-.028.056.119.119,0,0,1-.056.009h-1.036v1.382h.98c0,.131,0,.261-.009.392-.009.065-.037.093-.084.093h-.887v2.147c0,.019-.009.037-.009.056a.1.1,0,0,1-.093.056Z" transform="translate(-580.108 -52.026)" fill="#8e8e8e"/>
      <path id="Path_79" data-name="Path 79" d="M637.969,75.386c0,.121.009.243.019.364a.7.7,0,0,0,.084.28.594.594,0,0,0,.187.187.662.662,0,0,0,.327.065,1.251,1.251,0,0,0,.327-.037,1.064,1.064,0,0,0,.243-.084V72.24a.183.183,0,0,1,.009-.065.086.086,0,0,1,.056-.037.907.907,0,0,1,.159-.009h.308v4.406a1.626,1.626,0,0,1-.42.159,2.451,2.451,0,0,1-.691.075,1.432,1.432,0,0,1-.625-.112.76.76,0,0,1-.355-.308,1.076,1.076,0,0,1-.159-.448,3.439,3.439,0,0,1-.037-.541V72.249a.183.183,0,0,1,.009-.065.086.086,0,0,1,.056-.037.907.907,0,0,1,.159-.009h.317Zm-.159-4.163a.359.359,0,0,1,.084-.233.349.349,0,0,1,.485-.009.393.393,0,0,1-.019.485.3.3,0,0,1-.243.093.31.31,0,0,1-.252-.084A.458.458,0,0,1,637.811,71.222Zm.933,0a.358.358,0,0,1,.084-.233.3.3,0,0,1,.233-.1.317.317,0,0,1,.252.093.375.375,0,0,1,.075.243.383.383,0,0,1-.084.243.3.3,0,0,1-.243.093.291.291,0,0,1-.243-.084.4.4,0,0,1-.075-.252Z" transform="translate(-595.431 -39.863)" fill="#8e8e8e"/>
      <path id="Path_80" data-name="Path 80" d="M668.2,84.312a.119.119,0,0,1,.009-.056.13.13,0,0,1,.028-.037.079.079,0,0,1,.065-.019h.644a1.217,1.217,0,0,1,.915.308,1.393,1.393,0,0,1,.289.99,1.81,1.81,0,0,1-.159.831,1.061,1.061,0,0,1-.411.448,1.57,1.57,0,0,1,.168.261,3.717,3.717,0,0,1,.187.392,3.816,3.816,0,0,1,.159.532,4.24,4.24,0,0,1,.093.691.14.14,0,0,1-.037.1.465.465,0,0,1-.224.028h-.14c-.056,0-.112-.009-.168-.009a6.454,6.454,0,0,0-.093-.728,5.079,5.079,0,0,0-.14-.541,2.636,2.636,0,0,0-.159-.373,1.471,1.471,0,0,0-.14-.224c-.019,0-.047.009-.065.009h-.289v1.755a.158.158,0,0,1-.009.065.086.086,0,0,1-.056.037.906.906,0,0,1-.159.009H668.2Zm1.372,1.158a1.272,1.272,0,0,0-.112-.588.4.4,0,0,0-.4-.215h-.327v1.764h.289a.45.45,0,0,0,.411-.215A1.46,1.46,0,0,0,669.572,85.47Z" transform="translate(-623.355 -51.935)" fill="#8e8e8e"/>
      <path id="Path_81" data-name="Path 81" d="M703.5,84.312a.1.1,0,0,1,.084-.112h1.979a.278.278,0,0,1,.037.075.193.193,0,0,1,.009.1.507.507,0,0,1-.056.233L703.888,88.3h1.26a1.446,1.446,0,0,0,.205-.009.6.6,0,0,0,.177-.037v.42a.176.176,0,0,1-.019.075c-.009.019-.047.028-.093.028h-2.035a.22.22,0,0,1-.056-.084.287.287,0,0,1-.028-.121.506.506,0,0,1,.056-.233L705,84.685h-1.382a.548.548,0,0,0-.121.019Z" transform="translate(-655.179 -51.935)" fill="#8e8e8e"/>
      <path id="Path_82" data-name="Path 82" d="M731.47,87.435h-1.12l-.261,1.073a.145.145,0,0,1-.056.075.476.476,0,0,1-.2.028h-.149a1.264,1.264,0,0,1-.187-.019l1.167-4.5c.009-.056.084-.093.206-.093a2.289,2.289,0,0,1,.252.019l1.167,4.481a.075.075,0,0,1-.028.084.36.36,0,0,1-.2.028h-.14a1.13,1.13,0,0,1-.177-.009Zm-1.008-.485h.905l-.224-.924c-.028-.112-.056-.224-.075-.336s-.047-.224-.065-.336-.037-.215-.056-.317-.028-.187-.037-.271c-.009.075-.019.168-.037.271s-.037.205-.056.317-.037.224-.065.336-.047.224-.075.336Z" transform="translate(-678.933 -51.754)" fill="#8e8e8e"/>
      <path id="Path_83" data-name="Path 83" d="M764.468,86.562h-1.036v2.119a.157.157,0,0,1-.009.065c0,.019-.028.028-.056.037a.906.906,0,0,1-.159.009H762.9V84.312a.185.185,0,0,1,.009-.065c0-.019.019-.028.056-.037a.9.9,0,0,1,.159-.009h.308v1.867h1.036V84.321a.183.183,0,0,1,.009-.065c0-.019.019-.028.056-.037a.9.9,0,0,1,.159-.009H765v4.471a.158.158,0,0,1-.009.065c0,.019-.028.028-.056.037a.906.906,0,0,1-.159.009h-.308Z" transform="translate(-709.216 -51.935)" fill="#8e8e8e"/>
      <path id="Path_84" data-name="Path 84" d="M792.569,86.982c-.028-.075-.075-.187-.121-.345s-.112-.317-.168-.5-.121-.364-.177-.541-.112-.336-.149-.457q.014.154.028.448c.009.2.019.392.019.588s.009.383.009.56v1.951a.158.158,0,0,1-.009.065.085.085,0,0,1-.056.037.907.907,0,0,1-.159.009h-.3V84.321a.1.1,0,0,1,.084-.112H792l.728,1.764c.028.084.075.205.131.364l.177.5c.065.177.121.355.177.532s.1.327.14.448V87.8a3.718,3.718,0,0,1-.028-.429c-.009-.187-.009-.383-.019-.579s-.009-.383-.009-.56V84.312a.185.185,0,0,1,.009-.065c.009-.019.028-.028.065-.037a.905.905,0,0,1,.159-.009h.308v4.471c0,.075-.037.1-.112.1h-.4Z" transform="translate(-735.132 -51.935)" fill="#8e8e8e"/>
      <path id="Path_85" data-name="Path 85" d="M821.77,75.544h-1.12l-.261,1.073a.145.145,0,0,1-.056.075.476.476,0,0,1-.2.028h-.149a1.264,1.264,0,0,1-.187-.019l1.167-4.5c.009-.056.084-.093.205-.093a2.289,2.289,0,0,1,.252.019l1.167,4.481a.075.075,0,0,1-.028.084.36.36,0,0,1-.2.028h-.14a1.132,1.132,0,0,1-.177-.009Zm-1.335-4.322a.359.359,0,0,1,.084-.233A.349.349,0,0,1,821,70.98a.375.375,0,0,1,.075.243.33.33,0,0,1-.093.243.29.29,0,0,1-.233.093.31.31,0,0,1-.252-.084A.345.345,0,0,1,820.435,71.222Zm.327,3.837h.905l-.224-.924c-.028-.112-.047-.224-.075-.336s-.047-.224-.065-.336-.037-.215-.056-.317-.028-.187-.037-.271c-.009.075-.019.168-.037.271s-.037.205-.056.317-.037.224-.065.336-.047.224-.075.336Zm.607-3.837a.358.358,0,0,1,.084-.233.3.3,0,0,1,.233-.1.317.317,0,0,1,.252.093.328.328,0,0,1,.075.243.383.383,0,0,1-.084.243.3.3,0,0,1-.243.093.291.291,0,0,1-.243-.084A.352.352,0,0,1,821.368,71.222Z" transform="translate(-760.804 -39.863)" fill="#8e8e8e"/>
      <path id="Path_86" data-name="Path 86" d="M853.018,84.312a.117.117,0,0,1,.009-.056.127.127,0,0,1,.028-.037.079.079,0,0,1,.065-.019h.644a1.217,1.217,0,0,1,.915.308,1.394,1.394,0,0,1,.289.99,1.811,1.811,0,0,1-.159.831,1.061,1.061,0,0,1-.411.448,1.558,1.558,0,0,1,.168.261,3.743,3.743,0,0,1,.187.392,3.849,3.849,0,0,1,.159.532,4.246,4.246,0,0,1,.093.691.14.14,0,0,1-.037.1.489.489,0,0,1-.233.028h-.14c-.056,0-.112-.009-.168-.009a6.469,6.469,0,0,0-.093-.728,5.093,5.093,0,0,0-.14-.541,2.636,2.636,0,0,0-.159-.373,1.464,1.464,0,0,0-.14-.224c-.019,0-.047.009-.065.009h-.3v1.755a.159.159,0,0,1-.009.065.086.086,0,0,1-.056.037.906.906,0,0,1-.159.009H853Zm1.363,1.158a1.275,1.275,0,0,0-.112-.588.4.4,0,0,0-.4-.215h-.327v1.764h.289a.45.45,0,0,0,.411-.215A1.463,1.463,0,0,0,854.381,85.47Z" transform="translate(-790.905 -51.935)" fill="#8e8e8e"/>
      <path id="Path_87" data-name="Path 87" d="M877.305,84.312a.1.1,0,0,1,.075-.112h1.988a.277.277,0,0,1,.037.075.388.388,0,0,1,.009.1.506.506,0,0,1-.056.233L877.688,88.3h1.26a1.449,1.449,0,0,0,.205-.009.545.545,0,0,0,.177-.037v.42a.176.176,0,0,1-.019.075.124.124,0,0,1-.093.028h-2.035a.22.22,0,0,1-.056-.084.286.286,0,0,1-.028-.121.507.507,0,0,1,.056-.233l1.643-3.65h-1.382a.546.546,0,0,0-.121.019Z" transform="translate(-812.755 -51.935)" fill="#8e8e8e"/>
      <path id="Path_88" data-name="Path 88" d="M905.105,84.795v3.977a.156.156,0,0,1-.01.065.085.085,0,0,1-.056.037.907.907,0,0,1-.159.009h-.308V84.795h-.887v-.383a.1.1,0,0,1,.084-.112h2.25v.392c0,.075-.037.1-.112.1Z" transform="translate(-836.858 -52.026)" fill="#8e8e8e"/>
      <path id="Path_89" data-name="Path 89" d="M932.841,88.37h1.12v.392q0,.07-.028.084a.138.138,0,0,1-.084.019H932.3V84.449a.263.263,0,0,1,.009-.084.093.093,0,0,1,.065-.047.921.921,0,0,1,.159-.019h.308Z" transform="translate(-862.802 -52.026)" fill="#8e8e8e"/>
      <path id="Path_90" data-name="Path 90" d="M954.5,84.443a.7.7,0,0,1,.009-.14.116.116,0,0,1,.056-.075.436.436,0,0,1,.159-.028h.308v4.471a.16.16,0,0,1-.009.065.086.086,0,0,1-.056.037.907.907,0,0,1-.159.009H954.5Z" transform="translate(-882.93 -51.935)" fill="#8e8e8e"/>
      <path id="Path_91" data-name="Path 91" d="M966.4,83.6a1.049,1.049,0,0,1,.3.037.674.674,0,0,1,.187.084.277.277,0,0,1,.094.112.3.3,0,0,1,.028.131.589.589,0,0,1-.028.177c-.019.047-.037.1-.056.14a.729.729,0,0,0-.168-.1.51.51,0,0,0-.261-.056.747.747,0,0,0-.308.075.633.633,0,0,0-.261.28,1.908,1.908,0,0,0-.187.607,6.486,6.486,0,0,0-.075,1.045,5.922,5.922,0,0,0,.047.812,1.847,1.847,0,0,0,.131.495.422.422,0,0,0,.205.233.659.659,0,0,0,.261.056.92.92,0,0,0,.355-.065,1.1,1.1,0,0,0,.252-.14.491.491,0,0,1,.056.149.52.52,0,0,1,.019.168.386.386,0,0,1-.224.327,1.077,1.077,0,0,1-.588.14.845.845,0,0,1-.429-.056.784.784,0,0,1-.345-.308,1.875,1.875,0,0,1-.233-.663,5.846,5.846,0,0,1-.084-1.148,5.917,5.917,0,0,1,.121-1.344,2.245,2.245,0,0,1,.308-.775.826.826,0,0,1,.411-.345A1.816,1.816,0,0,1,966.4,83.6Z" transform="translate(-892.524 -51.391)" fill="#8e8e8e"/>
      <path id="Path_92" data-name="Path 92" d="M991.668,86.562h-1.036v2.119a.158.158,0,0,1-.009.065c0,.019-.019.028-.056.037a.905.905,0,0,1-.159.009H990.1V84.312a.179.179,0,0,1,.01-.065.085.085,0,0,1,.056-.037.906.906,0,0,1,.159-.009h.308v1.867h1.036V84.321a.179.179,0,0,1,.01-.065c0-.019.028-.028.056-.037a.9.9,0,0,1,.159-.009h.308v4.471a.16.16,0,0,1-.009.065c0,.019-.019.028-.056.037a.905.905,0,0,1-.159.009h-.308Z" transform="translate(-915.207 -51.935)" fill="#8e8e8e"/>
      <path id="Path_93" data-name="Path 93" d="M1020.443,88.3v.261c0,.047-.009.093-.009.14a.066.066,0,0,1-.028.056.061.061,0,0,1-.056.009h-1.55V84.312c0-.019.01-.037.01-.056a.072.072,0,0,1,.037-.037.134.134,0,0,1,.065-.019h1.559v.261a.7.7,0,0,1-.009.14.084.084,0,0,1-.028.065.062.062,0,0,1-.056.009h-1.036v1.372h.98V86.3a.819.819,0,0,1-.009.149.125.125,0,0,1-.028.075.069.069,0,0,1-.056.019h-.878v1.764Z" transform="translate(-941.228 -51.935)" fill="#8e8e8e"/>
      <path id="Path_94" data-name="Path 94" d="M1052,84.443a.693.693,0,0,1,.01-.14.115.115,0,0,1,.056-.075.436.436,0,0,1,.159-.028h.308v4.471a.16.16,0,0,1-.009.065.086.086,0,0,1-.056.037.907.907,0,0,1-.159.009H1052Z" transform="translate(-971.328 -51.935)" fill="#8e8e8e"/>
      <path id="Path_95" data-name="Path 95" d="M1063.8,84.288c0-.056.009-.084.028-.093a.218.218,0,0,1,.075-.019h.383l.625,1.97c.019.065.037.14.065.215s.047.159.065.224.037.14.056.187a.338.338,0,0,1,.028.1s.009-.037.019-.084.028-.121.047-.187.037-.149.056-.224a1.051,1.051,0,0,1,.065-.205l.579-1.886.028-.084a.077.077,0,0,1,.075-.028h.43v4.471a.16.16,0,0,1-.009.065.086.086,0,0,1-.056.037.9.9,0,0,1-.159.009h-.318l.019-1.587c.009-.159.009-.336.028-.532s.018-.392.037-.588.028-.355.037-.5.019-.252.019-.3l-.121.42c-.047.149-.084.3-.121.448s-.075.271-.112.383-.056.187-.065.224l-.345.989a.2.2,0,0,1-.028.047.056.056,0,0,1-.037.009h-.224l-.336-1.045c-.009-.037-.037-.1-.065-.215s-.074-.243-.112-.383-.084-.289-.131-.448-.084-.3-.121-.42v.009c.019.233.037.467.056.691.019.2.028.4.047.625s.019.42.019.588l.009,1.512a.158.158,0,0,1-.009.065.149.149,0,0,1-.065.037.905.905,0,0,1-.159.009h-.289Z" transform="translate(-982.027 -51.911)" fill="#8e8e8e"/>
      <path id="Path_96" data-name="Path 96" d="M1097.986,84.312a.1.1,0,0,1,.084-.112h.672a1.217,1.217,0,0,1,.915.308,1.393,1.393,0,0,1,.289.99,2.122,2.122,0,0,1-.093.681,1.04,1.04,0,0,1-.644.681,1.564,1.564,0,0,1-.457.075h-.224V88.69a.16.16,0,0,1-.009.065.086.086,0,0,1-.056.037.9.9,0,0,1-.159.009H1098Zm1.372,1.12a1.161,1.161,0,0,0-.112-.56.435.435,0,0,0-.4-.215h-.327v1.764h.289a.44.44,0,0,0,.411-.224,1.472,1.472,0,0,0,.14-.765Z" transform="translate(-1013.021 -51.935)" fill="#8e8e8e"/>
      <path id="Path_97" data-name="Path 97" d="M1123.641,88.37h1.12v.392q0,.07-.028.084a.138.138,0,0,1-.084.019h-1.55V84.449a.263.263,0,0,1,.009-.084.093.093,0,0,1,.065-.047.922.922,0,0,1,.159-.019h.308Z" transform="translate(-1035.792 -52.026)" fill="#8e8e8e"/>
      <path id="Path_98" data-name="Path 98" d="M1144.57,87.435h-1.12l-.261,1.073a.144.144,0,0,1-.056.075.476.476,0,0,1-.2.028h-.149a1.266,1.266,0,0,1-.187-.019l1.167-4.5c.01-.056.084-.093.206-.093a2.3,2.3,0,0,1,.252.019l1.167,4.481a.075.075,0,0,1-.028.084.361.361,0,0,1-.2.028h-.14a1.13,1.13,0,0,1-.177-.009Zm-1.008-.485h.905l-.224-.924c-.028-.112-.056-.224-.075-.336s-.047-.224-.065-.336-.037-.215-.056-.317-.028-.187-.037-.271c-.01.075-.019.168-.037.271s-.037.205-.056.317-.037.224-.066.336-.046.224-.074.336Z" transform="translate(-1053.471 -51.754)" fill="#8e8e8e"/>
      <path id="Path_99" data-name="Path 99" d="M1176.978,86.982c-.028-.075-.075-.187-.122-.345s-.112-.317-.168-.5-.122-.364-.177-.541-.112-.336-.149-.457q.014.154.028.448c.009.2.019.392.019.588s.009.383.009.56v1.951a.162.162,0,0,1-.009.065.086.086,0,0,1-.056.037.906.906,0,0,1-.159.009h-.308V84.321a.1.1,0,0,1,.084-.112h.429l.728,1.764.131.364c.056.149.112.317.177.5s.121.355.177.532l.14.448V87.8a3.693,3.693,0,0,1-.028-.429c0-.2-.009-.383-.019-.579s-.009-.383-.009-.56V84.312a.183.183,0,0,1,.009-.065c.009-.019.028-.028.065-.037a.909.909,0,0,1,.159-.009h.308v4.471c0,.075-.037.1-.112.1h-.4Z" transform="translate(-1083.649 -51.935)" fill="#8e8e8e"/>
      <path id="Path_100" data-name="Path 100" d="M1206.005,84.795v3.977a.156.156,0,0,1-.01.065.085.085,0,0,1-.056.037.905.905,0,0,1-.159.009h-.308V84.795h-.887v-.383a.1.1,0,0,1,.084-.112h2.25v.392c0,.075-.037.1-.112.1Z" transform="translate(-1109.67 -52.026)" fill="#8e8e8e"/>
      <path id="Path_101" data-name="Path 101" d="M1230.682,85.822a6.236,6.236,0,0,1,.075-1.1,2.167,2.167,0,0,1,.233-.719.99.99,0,0,1,.392-.392,1.22,1.22,0,0,1,.551-.121,1.2,1.2,0,0,1,.541.112.809.809,0,0,1,.355.373,2.367,2.367,0,0,1,.2.709,8.773,8.773,0,0,1,.065,1.1,7.583,7.583,0,0,1-.075,1.13,2.589,2.589,0,0,1-.224.737.935.935,0,0,1-.383.4,1.286,1.286,0,0,1-.56.121,1.193,1.193,0,0,1-.542-.1.828.828,0,0,1-.364-.373,2.237,2.237,0,0,1-.206-.728A9.423,9.423,0,0,1,1230.682,85.822Zm.6.131c0,.308.009.56.028.775a2.008,2.008,0,0,0,.1.523.777.777,0,0,0,.187.3.467.467,0,0,0,.29.093.432.432,0,0,0,.3-.1.7.7,0,0,0,.2-.317,2.945,2.945,0,0,0,.112-.569c.019-.233.028-.513.028-.849s-.01-.607-.028-.821a2.717,2.717,0,0,0-.093-.551.589.589,0,0,0-.187-.308.465.465,0,0,0-.289-.093.476.476,0,0,0-.29.1.788.788,0,0,0-.2.327,2.521,2.521,0,0,0-.112.588,6.439,6.439,0,0,0-.046.905Z" transform="translate(-1133.33 -51.289)" fill="#8e8e8e"/>
      <path id="Path_102" data-name="Path 102" d="M1262.041,88.37h1.12v.392q0,.07-.028.084a.14.14,0,0,1-.084.019h-1.55V84.449a.254.254,0,0,1,.01-.084.092.092,0,0,1,.065-.047.922.922,0,0,1,.159-.019h.308Z" transform="translate(-1161.272 -52.026)" fill="#8e8e8e"/>
      <path id="Path_103" data-name="Path 103" d="M1280.582,85.82a6.248,6.248,0,0,1,.075-1.1,2.17,2.17,0,0,1,.233-.719.989.989,0,0,1,.392-.392,1.22,1.22,0,0,1,.551-.121,1.088,1.088,0,0,1,.542.112.808.808,0,0,1,.355.373,2.364,2.364,0,0,1,.2.709,8.728,8.728,0,0,1,.065,1.1,7.567,7.567,0,0,1-.075,1.13,2.557,2.557,0,0,1-.224.747.931.931,0,0,1-.383.4,1.287,1.287,0,0,1-.56.121,1.193,1.193,0,0,1-.542-.1.827.827,0,0,1-.364-.373,2.24,2.24,0,0,1-.205-.728A9.528,9.528,0,0,1,1280.582,85.82Zm.6.131c0,.308.009.56.028.775a2,2,0,0,0,.1.523.77.77,0,0,0,.187.3.466.466,0,0,0,.289.093.432.432,0,0,0,.3-.1.7.7,0,0,0,.2-.317,2.918,2.918,0,0,0,.112-.569c.019-.233.028-.513.028-.849s-.009-.607-.028-.821a2.725,2.725,0,0,0-.093-.551.589.589,0,0,0-.187-.308.467.467,0,0,0-.29-.093.476.476,0,0,0-.289.1.788.788,0,0,0-.2.327,2.508,2.508,0,0,0-.112.588,6.376,6.376,0,0,0-.047.905Z" transform="translate(-1178.572 -51.287)" fill="#8e8e8e"/>
      <path id="Path_104" data-name="Path 104" d="M1311.874,83.586a1.2,1.2,0,0,1,.513.093c.121.065.187.14.187.233a1.122,1.122,0,0,1-.019.177.542.542,0,0,1-.056.159.527.527,0,0,0-.215-.112,1.053,1.053,0,0,0-.3-.047.962.962,0,0,0-.429.093.7.7,0,0,0-.3.317,2.137,2.137,0,0,0-.168.588,8.247,8.247,0,0,0-.009,1.839,2.021,2.021,0,0,0,.13.532.454.454,0,0,0,.215.243.758.758,0,0,0,.289.056.51.51,0,0,0,.261-.056.417.417,0,0,0,.121-.1V85.976h-.476V85.64c0-.075.037-.112.121-.112h.859l-.009,2.455a1.311,1.311,0,0,1-.326.2,1.445,1.445,0,0,1-.56.093,1.642,1.642,0,0,1-.56-.093.792.792,0,0,1-.383-.336,1.992,1.992,0,0,1-.215-.691,7.53,7.53,0,0,1-.065-1.12,6.122,6.122,0,0,1,.1-1.242,2.206,2.206,0,0,1,.28-.747.929.929,0,0,1,.439-.364A1.864,1.864,0,0,1,1311.874,83.586Z" transform="translate(-1205.682 -51.377)" fill="#8e8e8e"/>
      <path id="Path_105" data-name="Path 105" d="M1338.5,84.443a.693.693,0,0,1,.01-.14.116.116,0,0,1,.056-.075.436.436,0,0,1,.159-.028h.308v4.471a.156.156,0,0,1-.01.065.085.085,0,0,1-.056.037.9.9,0,0,1-.159.009h-.308Z" transform="translate(-1231.084 -51.935)" fill="#8e8e8e"/>
      <path id="Path_106" data-name="Path 106" d="M1352.043,88.3v.261c0,.047-.009.093-.009.14a.066.066,0,0,1-.028.056c-.019.009-.037.019-.056.009h-1.55V84.312a.116.116,0,0,1,.01-.056.073.073,0,0,1,.037-.037.135.135,0,0,1,.065-.019h1.559v.261a.693.693,0,0,1-.01.14.084.084,0,0,1-.028.065.061.061,0,0,1-.056.009h-1.055v1.372h.98V86.3a.788.788,0,0,1-.01.149.125.125,0,0,1-.028.075.069.069,0,0,1-.056.019h-.877v1.764Z" transform="translate(-1241.874 -51.935)" fill="#8e8e8e"/>
      <path id="Path_107" data-name="Path 107" d="M337.76,171.367c0,.121.009.243.019.364a.587.587,0,0,0,.093.28.594.594,0,0,0,.187.187.662.662,0,0,0,.327.065,1.253,1.253,0,0,0,.327-.037,1.067,1.067,0,0,0,.243-.084v-3.921a.182.182,0,0,1,.009-.065.086.086,0,0,1,.056-.037.906.906,0,0,1,.159-.009h.308v4.406a1.625,1.625,0,0,1-.42.159,2.451,2.451,0,0,1-.691.075,1.431,1.431,0,0,1-.625-.112.76.76,0,0,1-.355-.308,1.073,1.073,0,0,1-.159-.448,3.439,3.439,0,0,1-.037-.541v-3.127a.182.182,0,0,1,.009-.065.086.086,0,0,1,.056-.037.909.909,0,0,1,.159-.009h.317Z" transform="translate(-323.254 -128.003)" fill="#8e8e8e"/>
      <path id="Path_108" data-name="Path 108" d="M368.969,171.163c-.028-.075-.075-.187-.121-.345s-.112-.327-.168-.5-.121-.364-.177-.541-.112-.336-.149-.457q.014.154.028.448l.028.588c.009.2.009.383.009.56v1.951a.159.159,0,0,1-.009.065.086.086,0,0,1-.056.037.907.907,0,0,1-.159.009h-.308v-4.462a.1.1,0,0,1,.084-.112h.429l.728,1.764c.028.084.075.205.131.364s.112.317.177.5.121.355.177.532l.14.448v-.019c-.009-.093-.019-.233-.028-.429s-.009-.383-.019-.579-.009-.383-.009-.56v-1.914a.182.182,0,0,1,.009-.065c.009-.019.028-.028.065-.037a.906.906,0,0,1,.159-.009h.308v4.471c0,.075-.037.1-.112.1h-.4Z" transform="translate(-351.074 -128.275)" fill="#8e8e8e"/>
      <path id="Path_109" data-name="Path 109" d="M399.812,168.209a1.443,1.443,0,0,1,.56.093.834.834,0,0,1,.4.336,1.584,1.584,0,0,1,.233.635,5,5,0,0,1,.075.989,6.545,6.545,0,0,1-.084,1.2,2.291,2.291,0,0,1-.252.775.981.981,0,0,1-.943.541H399v-4.453a.12.12,0,0,1,.037-.093.263.263,0,0,1,.14-.037Zm.672,2a6.666,6.666,0,0,0-.037-.747,1.64,1.64,0,0,0-.121-.467.456.456,0,0,0-.205-.233.625.625,0,0,0-.289-.065h-.3v3.585h.289a.466.466,0,0,0,.457-.355,2.911,2.911,0,0,0,.149-.625,7.135,7.135,0,0,0,.056-1.092Z" transform="translate(-379.285 -128.094)" fill="#8e8e8e"/>
      <path id="Path_110" data-name="Path 110" d="M436.669,159.544h-1.12l-.261,1.073a.145.145,0,0,1-.056.075.477.477,0,0,1-.2.028h-.149a1.266,1.266,0,0,1-.187-.019l1.167-4.5c.009-.056.084-.093.205-.093a2.289,2.289,0,0,1,.252.019l1.167,4.471a.075.075,0,0,1-.028.084.36.36,0,0,1-.2.028h-.14a1.13,1.13,0,0,1-.177-.009Zm-1.335-4.322a.358.358,0,0,1,.084-.233.349.349,0,0,1,.485-.009.375.375,0,0,1,.075.243.383.383,0,0,1-.084.243.331.331,0,0,1-.243.093.31.31,0,0,1-.252-.084A.394.394,0,0,1,435.335,155.222Zm.327,3.837h.905l-.224-.924c-.028-.112-.047-.224-.075-.336s-.047-.224-.065-.336-.037-.215-.056-.317-.028-.187-.037-.271c-.009.075-.019.168-.037.271s-.037.205-.056.317-.037.224-.065.336-.047.224-.075.336Zm.607-3.837a.358.358,0,0,1,.084-.233.3.3,0,0,1,.233-.1.317.317,0,0,1,.252.093.375.375,0,0,1,.075.243.384.384,0,0,1-.084.243.3.3,0,0,1-.243.093.291.291,0,0,1-.243-.084.352.352,0,0,1-.075-.252Z" transform="translate(-411.652 -116.021)" fill="#8e8e8e"/>
      <path id="Path_111" data-name="Path 111" d="M467.93,167.6a1.629,1.629,0,0,1,.663.093c.131.065.2.14.2.233a.388.388,0,0,1-.028.149.331.331,0,0,1-.1.149.792.792,0,0,0-.243-.1,1.438,1.438,0,0,0-.4-.056.815.815,0,0,0-.467.121.362.362,0,0,0-.168.327.8.8,0,0,0,.075.327,1.937,1.937,0,0,0,.224.317l.709.8a2.045,2.045,0,0,1,.205.289,1.494,1.494,0,0,1,.14.271,1.291,1.291,0,0,1,.075.271c.009.093.019.187.019.28a1.935,1.935,0,0,1-.056.467,1.034,1.034,0,0,1-.2.392.842.842,0,0,1-.355.271,1.443,1.443,0,0,1-.56.093,1.294,1.294,0,0,1-.653-.131c-.14-.084-.205-.177-.205-.261a.418.418,0,0,1,.037-.187.5.5,0,0,1,.1-.2,1.143,1.143,0,0,0,.271.159.982.982,0,0,0,.4.065.6.6,0,0,0,.495-.187.743.743,0,0,0,.14-.485,1.043,1.043,0,0,0-.084-.411,1.735,1.735,0,0,0-.3-.439l-.644-.747a2.128,2.128,0,0,1-.317-.495,1.2,1.2,0,0,1-.093-.448.869.869,0,0,1,.28-.672A1.209,1.209,0,0,1,467.93,167.6Z" transform="translate(-440.756 -127.55)" fill="#8e8e8e"/>
      <path id="Path_112" data-name="Path 112" d="M492.107,168.885v3.977a.158.158,0,0,1-.009.065.086.086,0,0,1-.056.037.9.9,0,0,1-.159.009h-.308v-4.079h-.887v-.383a.1.1,0,0,1,.084-.112h2.25v.392c0,.075-.037.1-.112.1Z" transform="translate(-462.413 -128.275)" fill="#8e8e8e"/>
      <path id="Path_113" data-name="Path 113" d="M520.778,170.652h-1.036v2.119a.16.16,0,0,1-.009.065c0,.019-.028.028-.056.037a.9.9,0,0,1-.159.009H519.2v-4.462a.181.181,0,0,1,.009-.065c0-.019.019-.028.056-.037a.905.905,0,0,1,.159-.009h.308v1.858h1.036v-1.755a.182.182,0,0,1,.009-.065c.009-.019.019-.028.056-.037a.906.906,0,0,1,.159-.009h.308v4.471a.159.159,0,0,1-.009.065c0,.019-.028.028-.056.037a.9.9,0,0,1-.159.009h-.308Z" transform="translate(-488.264 -128.184)" fill="#8e8e8e"/>
      <path id="Path_114" data-name="Path 114" d="M549.743,172.207v.261c0,.047-.009.093-.009.14a.066.066,0,0,1-.028.056.062.062,0,0,1-.056.009H548.1v-4.462c0-.019.009-.037.009-.056a.074.074,0,0,1,.037-.037.135.135,0,0,1,.065-.019h1.559v.261a.706.706,0,0,1-.009.14.085.085,0,0,1-.028.065.062.062,0,0,1-.056.009h-1.036v1.382h.98v.252a.813.813,0,0,1-.009.149.124.124,0,0,1-.028.075.068.068,0,0,1-.056.019h-.887v1.764Z" transform="translate(-514.467 -128.003)" fill="#8e8e8e"/>
      <path id="Path_115" data-name="Path 115" d="M569.2,168.885v3.977a.159.159,0,0,1-.009.065.086.086,0,0,1-.056.037.9.9,0,0,1-.159.009h-.308v-4.079h-.887v-.383a.1.1,0,0,1,.084-.112h2.25v.392c0,.075-.037.1-.112.1Z" transform="translate(-532.314 -128.275)" fill="#8e8e8e"/>
      <path id="Path_116" data-name="Path 116" d="M596.4,168.443a.706.706,0,0,1,.009-.14.116.116,0,0,1,.056-.075.436.436,0,0,1,.159-.028h.308v4.471a.159.159,0,0,1-.009.065.086.086,0,0,1-.056.037.907.907,0,0,1-.159.009H596.4Z" transform="translate(-558.258 -128.094)" fill="#8e8e8e"/>
      <path id="Path_117" data-name="Path 117" d="M607.933,167.6a1.63,1.63,0,0,1,.663.093c.131.065.2.14.2.233a.388.388,0,0,1-.028.149.33.33,0,0,1-.1.149.793.793,0,0,0-.243-.1,1.437,1.437,0,0,0-.4-.056.814.814,0,0,0-.467.121.362.362,0,0,0-.168.327.8.8,0,0,0,.075.327,1.933,1.933,0,0,0,.224.317l.709.8a2.046,2.046,0,0,1,.206.289,1.5,1.5,0,0,1,.14.271,1.287,1.287,0,0,1,.075.271c.009.093.019.187.019.28a1.938,1.938,0,0,1-.056.467,1.034,1.034,0,0,1-.2.392.842.842,0,0,1-.355.271,1.443,1.443,0,0,1-.56.093,1.293,1.293,0,0,1-.653-.131c-.14-.084-.206-.177-.206-.261a.6.6,0,0,1,.028-.187.493.493,0,0,1,.1-.2.982.982,0,0,0,.672.224.6.6,0,0,0,.495-.187.743.743,0,0,0,.14-.485,1.044,1.044,0,0,0-.084-.411,1.739,1.739,0,0,0-.3-.439l-.653-.747a2.126,2.126,0,0,1-.317-.495,1.043,1.043,0,0,1-.093-.448.868.868,0,0,1,.28-.672A1.261,1.261,0,0,1,607.933,167.6Z" transform="translate(-567.681 -127.55)" fill="#8e8e8e"/>
      <path id="Path_118" data-name="Path 118" d="M633.4,167.6a1.049,1.049,0,0,1,.3.037.677.677,0,0,1,.187.084.277.277,0,0,1,.093.112.3.3,0,0,1,.028.131.588.588,0,0,1-.028.177l-.056.14a.726.726,0,0,0-.168-.1.51.51,0,0,0-.261-.056.747.747,0,0,0-.308.075.632.632,0,0,0-.261.28,1.916,1.916,0,0,0-.187.607,6.486,6.486,0,0,0-.075,1.045,5.921,5.921,0,0,0,.047.812,1.848,1.848,0,0,0,.131.495.422.422,0,0,0,.205.233.659.659,0,0,0,.261.056.843.843,0,0,0,.345-.065,1.1,1.1,0,0,0,.252-.14c.018.047.037.1.056.149a1.038,1.038,0,0,1,.028.168.386.386,0,0,1-.224.327,1.076,1.076,0,0,1-.588.14.845.845,0,0,1-.429-.056.786.786,0,0,1-.345-.308,1.876,1.876,0,0,1-.233-.663,6.644,6.644,0,0,1-.084-1.148,5.9,5.9,0,0,1,.122-1.344,2.244,2.244,0,0,1,.308-.775.809.809,0,0,1,.42-.345A1.61,1.61,0,0,1,633.4,167.6Z" transform="translate(-590.612 -127.55)" fill="#8e8e8e"/>
      <path id="Path_119" data-name="Path 119" d="M658.568,170.652h-1.036v2.119a.16.16,0,0,1-.009.065c0,.019-.028.028-.056.037a.9.9,0,0,1-.159.009H657v-4.462a.183.183,0,0,1,.009-.065c0-.019.019-.028.056-.037a.908.908,0,0,1,.159-.009h.308v1.858h1.036v-1.755a.181.181,0,0,1,.009-.065c0-.019.018-.028.056-.037a.906.906,0,0,1,.159-.009h.308v4.471a.16.16,0,0,1-.009.065c0,.019-.028.028-.056.037a.905.905,0,0,1-.159.009h-.308Z" transform="translate(-613.201 -128.184)" fill="#8e8e8e"/>
      <path id="Path_120" data-name="Path 120" d="M687.343,172.207v.261c0,.047-.009.093-.009.14a.067.067,0,0,1-.028.056.062.062,0,0,1-.056.009H685.7v-4.462a.118.118,0,0,1,.009-.056.073.073,0,0,1,.037-.037.135.135,0,0,1,.065-.019h1.559v.261a.7.7,0,0,1-.009.14.085.085,0,0,1-.028.065.062.062,0,0,1-.056.009h-1.036v1.382h.98v.252a.8.8,0,0,1-.009.149.125.125,0,0,1-.028.075.069.069,0,0,1-.056.019h-.877v1.764Z" transform="translate(-639.222 -128.003)" fill="#8e8e8e"/>
      <path id="Path_121" data-name="Path 121" d="M717.005,168.312a.094.094,0,0,1,.075-.112h1.988a.277.277,0,0,1,.037.075.193.193,0,0,1,.009.1.505.505,0,0,1-.056.233l-1.671,3.687h1.26a1.446,1.446,0,0,0,.205-.009.545.545,0,0,0,.177-.037v.42a.176.176,0,0,1-.019.075.124.124,0,0,1-.093.028h-2.035a.221.221,0,0,1-.056-.084.287.287,0,0,1-.028-.121.505.505,0,0,1,.056-.233l1.643-3.65h-1.381a.545.545,0,0,0-.121.019Z" transform="translate(-667.419 -128.094)" fill="#8e8e8e"/>
      <path id="Path_122" data-name="Path 122" d="M745.17,171.435h-1.12l-.261,1.074a.145.145,0,0,1-.056.075.477.477,0,0,1-.2.028h-.149a1.266,1.266,0,0,1-.187-.019l1.167-4.5c.009-.056.084-.093.206-.093a2.292,2.292,0,0,1,.252.019l1.167,4.471a.075.075,0,0,1-.028.084.36.36,0,0,1-.2.028h-.14a1.194,1.194,0,0,1-.177-.009Zm-1.017-.485h.905l-.224-.924c-.028-.112-.047-.224-.075-.336s-.047-.224-.065-.336-.037-.215-.056-.317-.028-.187-.037-.271c-.009.075-.019.168-.037.271s-.037.205-.056.317-.037.224-.065.336-.047.224-.075.336Z" transform="translate(-691.354 -127.912)" fill="#8e8e8e"/>
      <path id="Path_123" data-name="Path 123" d="M778.168,170.652h-1.036v2.119a.157.157,0,0,1-.009.065c0,.019-.019.028-.056.037a.9.9,0,0,1-.159.009H776.6v-4.462a.183.183,0,0,1,.009-.065c0-.019.028-.028.056-.037a.906.906,0,0,1,.159-.009h.308v1.858h1.036v-1.755a.183.183,0,0,1,.009-.065c0-.019.028-.028.056-.037a.9.9,0,0,1,.159-.009h.308v4.471a.158.158,0,0,1-.009.065c0,.019-.019.028-.056.037a.906.906,0,0,1-.159.009h-.308Z" transform="translate(-721.637 -128.184)" fill="#8e8e8e"/>
      <path id="Path_124" data-name="Path 124" d="M806.171,171.163c-.028-.075-.075-.187-.121-.345s-.112-.327-.168-.5-.121-.364-.177-.541-.112-.336-.149-.457q.014.154.028.448c.009.187.019.392.028.588s.009.383.009.56v1.951a.158.158,0,0,1-.009.065.086.086,0,0,1-.056.037.905.905,0,0,1-.159.009h-.308v-4.462a.1.1,0,0,1,.084-.112h.429l.728,1.764c.028.084.075.205.13.364s.112.317.168.5.121.355.177.532l.14.448v-.019c-.009-.093-.019-.233-.028-.429s-.009-.383-.019-.579-.009-.383-.009-.56v-1.914a.183.183,0,0,1,.009-.065c.009-.019.028-.028.065-.037a.905.905,0,0,1,.159-.009h.308v4.471c0,.075-.037.1-.112.1h-.4Z" transform="translate(-747.465 -128.275)" fill="#8e8e8e"/>
      <path id="Path_125" data-name="Path 125" d="M837.868,170.652h-1.036v2.119a.158.158,0,0,1-.009.065c0,.019-.019.028-.056.037a.9.9,0,0,1-.159.009H836.3v-4.462a.182.182,0,0,1,.009-.065.086.086,0,0,1,.056-.037.906.906,0,0,1,.159-.009h.308v1.858h1.036v-1.755a.184.184,0,0,1,.009-.065c0-.019.028-.028.056-.037a.9.9,0,0,1,.159-.009h.308v4.471a.161.161,0,0,1-.009.065c0,.019-.019.028-.056.037a.905.905,0,0,1-.159.009h-.308Z" transform="translate(-775.764 -128.184)" fill="#8e8e8e"/>
      <path id="Path_126" data-name="Path 126" d="M866.643,172.207v.261c0,.047-.009.093-.009.14a.067.067,0,0,1-.028.056.062.062,0,0,1-.056.009H865v-4.462c0-.019.009-.037.009-.056a.073.073,0,0,1,.037-.037.134.134,0,0,1,.065-.019h1.559v.261a.715.715,0,0,1-.009.14.085.085,0,0,1-.028.065.062.062,0,0,1-.056.009h-1.036v1.382h.98v.252a.8.8,0,0,1-.009.149.124.124,0,0,1-.028.075.069.069,0,0,1-.056.019h-.877v1.764Z" transform="translate(-801.785 -128.003)" fill="#8e8e8e"/>
      <path id="Path_127" data-name="Path 127" d="M887.3,168.443a.715.715,0,0,1,.009-.14.116.116,0,0,1,.056-.075.435.435,0,0,1,.159-.028h.308v4.471a.157.157,0,0,1-.009.065.085.085,0,0,1-.056.037.908.908,0,0,1-.159.009H887.3Z" transform="translate(-822.003 -128.094)" fill="#8e8e8e"/>
      <path id="Path_128" data-name="Path 128" d="M899.532,172.279h1.12v.392c0,.047-.009.075-.028.084a.139.139,0,0,1-.084.019H899v-4.425a.257.257,0,0,1,.009-.084.092.092,0,0,1,.065-.047.919.919,0,0,1,.159-.019h.308v4.079Z" transform="translate(-832.611 -128.094)" fill="#8e8e8e"/>
      <path id="Path_129" data-name="Path 129" d="M921.009,168.221a.182.182,0,0,1,.009-.065.086.086,0,0,1,.056-.037.91.91,0,0,1,.159-.009h.308v1.97l1.036-1.942.177-.028a.9.9,0,0,1,.159-.009c.2,0,.271.056.215.159l-1.055,1.82a2.2,2.2,0,0,1,.653.915,6.435,6.435,0,0,1,.392,1.568.111.111,0,0,1-.037.1.3.3,0,0,1-.177.028c-.121,0-.243-.009-.373-.019a11.94,11.94,0,0,0-.3-1.27,2.154,2.154,0,0,0-.429-.8.705.705,0,0,0-.13-.1,1.031,1.031,0,0,0-.14-.075v2.147a.162.162,0,0,1-.009.065.085.085,0,0,1-.056.037.908.908,0,0,1-.159.009H921Z" transform="translate(-852.557 -128.003)" fill="#8e8e8e"/>
      <path id="Path_130" data-name="Path 130" d="M949.16,171.367c0,.121.009.243.019.364a.71.71,0,0,0,.093.28.6.6,0,0,0,.187.187.663.663,0,0,0,.327.065,1.253,1.253,0,0,0,.327-.037,1.064,1.064,0,0,0,.243-.084v-3.921a.181.181,0,0,1,.009-.065.086.086,0,0,1,.056-.037.905.905,0,0,1,.159-.009h.308v4.406a1.626,1.626,0,0,1-.42.159,2.451,2.451,0,0,1-.691.075,1.432,1.432,0,0,1-.625-.112.76.76,0,0,1-.355-.308,1.072,1.072,0,0,1-.159-.448,3.431,3.431,0,0,1-.037-.541v-3.127a.181.181,0,0,1,.009-.065.086.086,0,0,1,.056-.037.908.908,0,0,1,.159-.009h.317Z" transform="translate(-877.581 -128.003)" fill="#8e8e8e"/>
      <path id="Path_131" data-name="Path 131" d="M980.46,171.163c-.028-.075-.075-.187-.121-.345l-.168-.5c-.065-.177-.121-.364-.177-.541s-.112-.336-.149-.457q.014.154.028.448l.028.588c.009.2.009.383.009.56v1.951a.16.16,0,0,1-.009.065.086.086,0,0,1-.056.037.907.907,0,0,1-.159.009h-.3v-4.462a.1.1,0,0,1,.084-.112h.429l.728,1.764c.028.084.075.205.131.364s.112.317.168.5.121.355.177.532l.14.448v-.019c-.009-.093-.019-.233-.028-.429s-.009-.383-.019-.579-.009-.383-.009-.56v-1.914a.186.186,0,0,1,.009-.065c.009-.019.028-.028.065-.037a.9.9,0,0,1,.158-.009h.308v4.471c0,.075-.037.1-.112.1h-.4Z" transform="translate(-905.492 -128.275)" fill="#8e8e8e"/>
      <path id="Path_132" data-name="Path 132" d="M1011.121,168.266a1.443,1.443,0,0,1,.56.093.834.834,0,0,1,.4.336,1.753,1.753,0,0,1,.243.635,4.989,4.989,0,0,1,.075.989,6.531,6.531,0,0,1-.084,1.2,2.294,2.294,0,0,1-.252.775,1.085,1.085,0,0,1-.4.42,1.1,1.1,0,0,1-.542.121h-.821v-4.453a.158.158,0,0,1,.028-.093.193.193,0,0,1,.14-.028Zm.672,2a6.681,6.681,0,0,0-.037-.747,1.638,1.638,0,0,0-.121-.467.455.455,0,0,0-.205-.233.626.626,0,0,0-.29-.065h-.3v3.585h.3a.466.466,0,0,0,.458-.355,2.909,2.909,0,0,0,.149-.625,8.6,8.6,0,0,0,.047-1.092Z" transform="translate(-933.521 -128.15)" fill="#8e8e8e"/>
      <path id="Path_133" data-name="Path 133" d="M1039.652,172.207v.261c0,.047-.009.093-.009.14a.067.067,0,0,1-.028.056.062.062,0,0,1-.056.009H1038v-4.462c0-.019.009-.037.009-.056a.073.073,0,0,1,.037-.037.136.136,0,0,1,.065-.019h1.559v.261a.7.7,0,0,1-.009.14.084.084,0,0,1-.028.065.062.062,0,0,1-.056.009h-1.046v1.382h.98v.252a.8.8,0,0,1-.009.149.125.125,0,0,1-.028.075.069.069,0,0,1-.056.019h-.877v1.764Z" transform="translate(-958.636 -128.003)" fill="#8e8e8e"/>
      <path id="Path_134" data-name="Path 134" d="M1070.8,195.467c0-.121,0-.233.009-.355.009-.075.037-.112.094-.112h1.232c0,.121,0,.233-.009.355-.01.075-.037.1-.093.1H1070.8Z" transform="translate(-988.374 -152.392)" fill="#8e8e8e"/>
      <path id="Path_135" data-name="Path 135" d="M1101.7,168.443a.72.72,0,0,1,.009-.14.116.116,0,0,1,.056-.075.439.439,0,0,1,.159-.028h.308v4.471a.162.162,0,0,1-.009.065.085.085,0,0,1-.056.037.911.911,0,0,1-.159.009h-.308Z" transform="translate(-1016.389 -128.094)" fill="#8e8e8e"/>
      <path id="Path_136" data-name="Path 136" d="M1111.6,168.312a.1.1,0,0,1,.084-.112h1.979a.277.277,0,0,1,.037.075.2.2,0,0,1,.009.1.506.506,0,0,1-.056.233l-1.662,3.687h1.26a1.446,1.446,0,0,0,.205-.009.6.6,0,0,0,.177-.037v.42a.179.179,0,0,1-.019.075c-.009.019-.047.028-.093.028h-2.035a.223.223,0,0,1-.056-.084.285.285,0,0,1-.028-.121.5.5,0,0,1,.056-.233l1.643-3.65h-1.381a.544.544,0,0,0-.121.019Z" transform="translate(-1025.184 -128.094)" fill="#8e8e8e"/>
      <path id="Path_137" data-name="Path 137" d="M1140.4,168.443a.693.693,0,0,1,.01-.14.116.116,0,0,1,.056-.075.435.435,0,0,1,.158-.028h.308v4.471a.156.156,0,0,1-.01.065.086.086,0,0,1-.056.037.905.905,0,0,1-.159.009h-.308Z" transform="translate(-1051.476 -128.094)" fill="#8e8e8e"/>
    </g>
  </g>
</svg>
