<svg xmlns="http://www.w3.org/2000/svg" xmlns:xlink="http://www.w3.org/1999/xlink" width="150" height="150" viewBox="0 0 150 150">
  <defs>
    <clipPath id="clip-izi_colored">
      <rect width="150" height="150"/>
    </clipPath>
  </defs>
  <g id="izi_colored" clip-path="url(#clip-izi_colored)">
    <g id="izi" transform="translate(2.928 62.106)">
      <path id="Path_23" data-name="Path 23" d="M98.6,1.732a8.162,8.162,0,0,0,4.628.337c1.988-.284,4.6-1.514,5.921.526,1.094,1.683.736,3.26.547,5.09-.189,1.872-.294,3.8-.663,5.648-.189.978,1.3,1.388,1.493.41.4-1.988.515-4.039.715-6.058.2-1.946.473-3.576-.484-5.4-2.608-4.954-7.4-.147-11.38-1.893-.9-.4-1.7.936-.778,1.336Z" transform="translate(-87.825 0)"/>
      <path id="Path_24" data-name="Path 24" d="M15.946,4.78a12.144,12.144,0,0,1-7.8-1.357A15.189,15.189,0,0,0,4.125,1.6C1.538,1.152.486,3.413.2,5.559-.461,10.4.97,15.529,2.894,19.925c.536,1.22,1.4,3.187,2.6,3.87,1.409.82,2.493-.894,2.966-2.019.389-.9-.947-1.693-1.336-.778a3.19,3.19,0,0,1-.421.82c-.557.631-.358.526-.9.063A6.961,6.961,0,0,1,4.7,20.157a28.133,28.133,0,0,1-2.3-6.416c-.684-2.734-1.451-6.584-.368-9.35.978-2.482,3.565-.526,5.153.294a14.093,14.093,0,0,0,9.182,1.609c.968-.189.557-1.683-.421-1.514Z" transform="translate(0 -1.407)"/>
      <path id="Path_25" data-name="Path 25" d="M83.111,113.28c-.368-2.051-1.557-6.237-4.522-5.132-2.209.82-2.23,3.849-2.882,5.711-.326.947,1.167,1.346,1.493.41.484-1.388.431-3.323,1.557-4.407,1.693-1.62,2.682,2.85,2.85,3.828s1.672.568,1.5-.41Z" transform="translate(-67.669 -96.634)"/>
      <path id="Path_26" data-name="Path 26" d="M238.3,236.142a.063.063,0,0,0,.011-.042A.063.063,0,0,0,238.3,236.142Z" transform="translate(-213.204 -211.293)"/>
      <path id="Path_27" data-name="Path 27" d="M187.1,234.921l.063-.021C187.121,234.9,187.111,234.911,187.1,234.921Z" transform="translate(-167.388 -210.219)"/>
      <path id="Path_28" data-name="Path 28" d="M269,236.2h0l.221.01Z" transform="translate(-240.675 -211.382)"/>
      <path id="Path_29" data-name="Path 29" d="M105.811,221.8l-.011.011S105.821,221.8,105.811,221.8Z" transform="translate(-94.639 -198.497)"/>
      <path id="Path_30" data-name="Path 30" d="M142.295,233a.307.307,0,0,1-.095.021A.094.094,0,0,0,142.295,233Z" transform="translate(-127.211 -208.519)"/>
      <path id="Path_31" data-name="Path 31" d="M284.995,243.453l-.095-.053C284.9,243.421,284.942,243.453,284.995,243.453Z" transform="translate(-254.903 -217.825)"/>
      <path id="Path_32" data-name="Path 32" d="M316.711,239.411l-.011-.011C316.7,239.411,316.7,239.411,316.711,239.411Z" transform="translate(-283.358 -214.246)"/>
      <path id="Path_33" data-name="Path 33" d="M303.695,238l-.095.032C303.642,238.032,303.695,238.021,303.695,238Z" transform="translate(-271.636 -212.993)"/>
      <path id="Path_34" data-name="Path 34" d="M303.3,238.321l.042-.021C303.31,238.3,303.3,238.311,303.3,238.321Z" transform="translate(-271.367 -213.261)"/>
      <path id="Path_35" data-name="Path 35" d="M102.031,50.566a.432.432,0,0,0-.231,0A.851.851,0,0,0,102.031,50.566Z" transform="translate(-91.06 -45.257)"/>
      <path id="Path_36" data-name="Path 36" d="M177.7,160.7v.032Q177.716,160.7,177.7,160.7Z" transform="translate(-158.977 -143.823)"/>
      <path id="Path_37" data-name="Path 37" d="M100.853,54.742,100.8,54.7A.105.105,0,0,0,100.853,54.742Z" transform="translate(-90.165 -48.971)"/>
      <path id="Path_38" data-name="Path 38" d="M266.881,246.4c-.095.063-.294,0-.284.063C266.7,246.453,266.838,246.484,266.881,246.4Z" transform="translate(-238.524 -220.509)"/>
      <path id="Path_39" data-name="Path 39" d="M182.8,130.642l.053-.042A.185.185,0,0,0,182.8,130.642Z" transform="translate(-163.541 -116.888)"/>
      <path id="Path_40" data-name="Path 40" d="M101.3,55.1c.021.011.042.032.063.042,0-.011-.011-.021-.011-.032a.079.079,0,0,1-.053-.011Z" transform="translate(-90.612 -49.329)"/>
      <path id="Path_41" data-name="Path 41" d="M263.911,101.4h0l-.01.032.01-.032Z" transform="translate(-236.111 -90.759)"/>
      <path id="Path_42" data-name="Path 42" d="M268.384,97.7l-.084.116A.163.163,0,0,0,268.384,97.7Z" transform="translate(-240.049 -87.449)"/>
      <path id="Path_43" data-name="Path 43" d="M100.637,50.611,100.5,50.6A.647.647,0,0,0,100.637,50.611Z" transform="translate(-89.896 -45.302)"/>
      <path id="Path_44" data-name="Path 44" d="M232.7,46.1h0Z" transform="translate(-208.193 -41.275)"/>
      <path id="Path_45" data-name="Path 45" d="M147.1,233.563a.079.079,0,0,0,.053.01C147.153,233.563,147.153,233.552,147.1,233.563Z" transform="translate(-131.595 -209.019)"/>
      <path id="Path_46" data-name="Path 46" d="M104.2,242.9Z" transform="translate(-93.207 -217.377)"/>
      <path id="Path_47" data-name="Path 47" d="M104.463,242.7a.377.377,0,0,0-.263,0A.377.377,0,0,0,104.463,242.7Z" transform="translate(-93.207 -217.176)"/>
      <path id="Path_48" data-name="Path 48" d="M98.5,240.5l.032.021C98.521,240.521,98.511,240.51,98.5,240.5Z" transform="translate(-88.107 -215.23)"/>
      <path id="Path_49" data-name="Path 49" d="M144.5,249.5Z" transform="translate(-129.269 -223.283)"/>
      <path id="Path_50" data-name="Path 50" d="M135.063,248.732,135,248.7Z" transform="translate(-120.768 -222.567)"/>
      <path id="Path_51" data-name="Path 51" d="M87.5,215.2Z" transform="translate(-78.264 -192.591)"/>
      <path id="Path_52" data-name="Path 52" d="M89.926,55.571c-.684.557-1.525,1.346-2.219,1.883a1.887,1.887,0,0,1-.473.6l-.126-.105-.147.189c-.105.021.116-.137-.053-.074V58.2c-.053-.032-.484.368-.263.021-.231.2-.463.4-.684.61-.147.137.011.179-.189.3-.063,0,.042-.084-.021-.116-.578.379-.347.768-.841,1.167l.021-.053c-.042.105-.189.252-.179.273.179.053.011-.147.221-.221.095.116-.116.221-.032.294-.137.074-.137.189-.221.294-.221.105-.379.379-.568.442a1.285,1.285,0,0,1-.2.547c-.221.116-.053-.116-.273.126l.042.084c-.168.231-.168.189-.189.158a.784.784,0,0,0-.116.252.68.68,0,0,1-.116.305v-.2c-.032.105-.063.21-.095.326a1.847,1.847,0,0,0-.063.41c-.053,0-.032-.158-.021-.263-.147.21.042.347.032.452.032-.042.032-.294.126-.179-.011.189.158.347.116.484a1.826,1.826,0,0,1-.137-.158c.189.337.147.168.347.526-.021-.011-.032,0-.053,0a9.716,9.716,0,0,0,.82.652l-.084-.021a3.228,3.228,0,0,0,.379.074c-.2-.137-.116-.126-.095-.2a.475.475,0,0,0,.368.137.776.776,0,0,1,.431.084c-.021.042-.116.074-.2-.011-.084.042-.147.084-.221.126a.525.525,0,0,1-.337.011c.221.063.4.105.337.137l.095-.105.221.074c.063-.063-.126-.168.074-.168.221.021.074.158.126.116.3.032.158-.105.421.011-.032,0-.084.011-.105-.011.189.105.484.084.5.242-.032.032-.053.074-.126.042l.011-.021c-.242.063.189.011.095.126,0-.084.273-.011.4.021l-.021-.105c.463-.21-.053.179.368.21.273-.032-.095-.042.074-.084.168.042.231.137.494.126.063.042.2.116.2.221.158-.032.473.105.568,0-.252-.116-.273.084-.578-.084l.105-.095a5.268,5.268,0,0,1,.642.053c-.032-.021-.042-.053-.021-.074.305-.011.4-.105.694-.053.032.095-.137.063-.263.063.189.084.2.021.494.074.011.084-.2-.021-.242.063H89.5v.021c.053-.137.252.032.452,0,.473.021.557-.158.82-.263.074.042.084.074.053.105-.116-.063-.095-.021-.137.021.158-.011.347.147.252.2.252-.032-.095-.074.063-.116l.347.021c-.042-.074-.158-.095.021-.137a2.81,2.81,0,0,1,.421.011c-.032.032.063.105-.084.105a.339.339,0,0,0,.305-.032c-.221-.063.358-.053.2-.168l.21.063c-.053,0-.053.042-.126.032.063.105.179-.032.252-.042.074.021.273.032.294.074a.265.265,0,0,1,.263.053c.105-.021.011-.074.042-.105l.347.011c.021.063.042.221,0,.242.126-.053.042-.179.242-.168-.116.116.263.095.105.231a1.054,1.054,0,0,0,.61.053c.105-.095-.189-.053-.179-.147.494-.042.526-.294.894-.252l-.095-.021a.726.726,0,0,0,.337-.126c-.063.116.263.305.642.273.032-.063-.21-.105-.147-.2l.252-.021c.021.011-.011.032-.042.042.221-.042.421.137.484,0l.231.168-.095-.074c.032-.063.273-.084.326-.105a.56.56,0,0,1,.484.042c-.042-.042-.158-.147.042-.179,0,.189.421.053.421.158.084,0,.221.053.231-.032l-.01.116c.01-.168.3-.168.526-.2-.042.221.252-.032.358.168.042-.147.4-.074.431-.2.179-.011.158.126.2.168l.084-.063a3.436,3.436,0,0,0,.61.105l.168-.137.074.063c.032-.032.179-.063.084-.105h.105c0-.147.137-.042.326-.116.042.021.042.053,0,.074.095,0,.063.074.116.116-.074-.032.337-.273.074-.326-.021-.063.126-.105.221-.084l.063.126.105-.147c.147-.032.21.053.337.063-.126.011-.263.263.053.242a1.332,1.332,0,0,0-.337.137c.063,0,.105.011,0,.074.252-.053.084-.084.326-.116-.011.116.063.147.284.179l-.168-.074.032-.032c-.063-.011-.084-.032-.095-.074.053,0,.284-.158.326-.095-.263-.168.421-.158.263-.263.032-.032.2-.053.221.011-.2.105.158.126.137.2.074-.042-.168-.084-.063-.126a.529.529,0,0,1,.284.084l-.053.021.189.042c.032-.063-.189-.084-.011-.126.053.021.221-.021.221.032-.074.084-.011.189-.158.21.126-.011.515-.053.358-.147h.147c-.095-.042-.358-.116-.063-.147v.021l.2-.105.095.053c0-.032.032-.063.105-.063.021.032.095.042.095.095.221-.021.2-.074.231-.116.126-.021.168,0,.116.074a1.785,1.785,0,0,1,.589.032c.221-.063-.053-.021.084-.105.21.189.757.032,1.125-.021-.116-.168.105-.032.158-.189-.074.063.358.116.042.189l.2-.032c.147.084-.326.095-.105.21.221-.021.358-.221.621-.179-.084.137.2-.053.147.084-.053.053-.126.042-.2.053l.053.021c.484,0,.126-.158.379-.263.294-.032.242.084.263.137a.486.486,0,0,0,.273-.042c-.179.084-.337-.053-.263-.147.137.137.442-.011.515-.074-.431-.126-.294.011-.694-.126-.053.053-.032.179-.273.137.147-.074-.011-.074-.063-.084.053.074-.158.042-.231.074-.074-.053.137-.179-.116-.189l-.032.179c-.095-.021.032-.126-.168-.074.105-.105-.042-.137.231-.189-.337-.126-.494.116-.747.189.021-.011.032-.032.053-.053a.414.414,0,0,1-.221.063c-.168-.032.126-.084.084-.137l-.273.021-.011-.011c-.074.032-.137.053-.168.011.053-.053.105-.105.158-.168l-.3.168c.032-.063-.242-.084-.042-.137l-.421.053-.042-.116c-.105.032-.105.053.021.063-.147-.021-.621.242-.568.011a5.4,5.4,0,0,1-.841.168c.305-.126-.358-.116-.042-.189-.189-.042-.221.084-.368.116-.147-.042-.084-.158.063-.21l-.179.063v-.021l-.147.074c-.168-.053-.042-.116-.21-.126l-.032.105-.116-.053c.042.042-.053.074-.179.084v-.021l-.147.032c.147-.074-.137-.021-.074-.095a1.968,1.968,0,0,0-.358.032l.042.063c-.294.084-.021-.105-.263-.105l.021.084c-.358-.116-.589.105-.852.032.147-.021.105-.116.105-.095a3.291,3.291,0,0,0-.82.147c-.095-.116-.116-.147-.358-.189-.168.011-.2.032-.252.105-.168-.042-.484.042-.494-.042-.042.074-.147-.011-.242.053l-.021-.032.021.084c-.3-.168-.5.126-.81-.032l.053-.021-.126.032c-.021-.032.032-.063.032-.105h-.589l.116.063c-.126.011-.2.095-.347.053.231-.126-.2,0-.231-.095l.126-.032c-.168.011-.168.011-.158.095-.221.032-.158-.147-.358-.063h.147c.042.042-.063.116-.158.116-.021-.011-.095-.042-.021-.063-.179.032-.442,0-.515.032-.095-.021-.063-.084-.011-.105-.379.084-.168-.011-.547.063v-.053l-.126.063-.189-.105.063.063a1.285,1.285,0,0,1-.347.021l.063-.074c-.347.042-.41-.116-.736-.011-.021-.011.032-.032.053-.042-.305.116-.231-.126-.536.011.021-.021-.011-.053,0-.074l-.137.042.011-.095-.116.137-.084-.095-.053.042c-.147-.179-.358-.042-.568-.179l.032.116c-.515.242-1.178-.147-1.8-.053l.011-.095-.263.105c-.137-.074.084-.074.042-.126-.273.042-.116.137-.442.147-.158-.074.063-.063.137-.105a3.159,3.159,0,0,1-.947,0c-.011.011-.021.032-.011.032a3.677,3.677,0,0,1-.673-.042c.011-.042.063-.042.116-.053-.074-.011-.179-.053-.252-.011l.084-.074c-.168-.032-.484.021-.515-.084.021.042,0,.105-.137.095-.063-.147-.389.021-.61-.084.032-.032.2-.021.147-.021a.443.443,0,0,0-.326.032l.042-.053-.536.011c-.053-.147-.494-.053-.431-.158-.179-.042.137.095-.095.063-.053-.074-.21-.011-.189-.105l.032-.011-.158-.032.116-.063a.262.262,0,0,0-.273.126c-.116-.084-.305-.084-.337-.179l.053-.011a.485.485,0,0,1-.326-.2c-.021-.063-.01-.095-.105-.053,0-.011.021-.032.032-.021l-.042-.032L85.5,63.1a.441.441,0,0,1-.168.011l.053-.021a.236.236,0,0,1-.042-.2l.021.011c-.032-.095.084-.042.074-.116.011.011.011.011.011.021l.084-.105.021.053c0-.074.053-.105.137-.137s.147-.063.084-.042c.032-.105.105-.263.074-.326.168-.189.084-.011.221-.095.126-.137.084-.21.294-.368l.032.042c.074-.095.105-.168.21-.294l-.021.053c.116-.263.337-.137.337-.431.105-.053.242-.221.305-.147a7.956,7.956,0,0,1,.61-.726c.147.084.053-.053.263-.126l-.063-.053c.358-.326.9-.526,1.294-.883l.063.053.021-.137c.463-.326,1.073-.757,1.441-1.031a1.415,1.415,0,0,1,.421-.463l-.011.021a5.95,5.95,0,0,1,1.041-.8c0,.042.042.042.021.084.032-.137.21-.158.294-.21l-.126.011a.358.358,0,0,1,.347-.168l.116-.189a.1.1,0,0,1,.053.011v-.084l.147.032c.032-.053.242-.221.252-.358.042.021.21-.063.105.032l.631-.4-.116.032c-.063-.063.105-.231.21-.263-.095.137.053.105.147.116.063-.095-.116-.011-.095-.084a.807.807,0,0,1,.358-.294l-.042.074c.126-.126.273-.042.41-.147.095-.137.221-.147.116-.252.168-.147.126.032.189,0,.053-.116.337-.252.41-.21-.011-.242.547-.263.494-.431l.2-.021a.2.2,0,0,1,.074-.252c.147-.032.158.053.221.074l-.011-.2c.81-.284,1.651-.968,2.493-1.346.316-.252.694-.61,1.094-.873l-.032.053.421-.242-.326.137a1.2,1.2,0,0,1,.2-.2,5.292,5.292,0,0,0,1.546-1.146c.189-.452.347-.074.557-.515-.011.042,0,.074-.011.116a3.967,3.967,0,0,0,.358-.568c.053-.105.095-.179.158-.316a2.034,2.034,0,0,0,.168-.484c.168.147.158-.452.231-.368l-.063-.074c.095-.147.116-.536.168-.484-.042-.105-.084-.21-.137-.316l.074-.042a2.287,2.287,0,0,0-.316-.715,2.9,2.9,0,0,1-.294-.41.757.757,0,0,1-.158-.284,8,8,0,0,0-1.294-.757,9.346,9.346,0,0,0-1.388-.463,1.836,1.836,0,0,1-.578-.021l-.189-.126c-.2,0-.41.116-.589.032a.023.023,0,0,1,.021-.021,1.237,1.237,0,0,0-.557.021c-.21-.021-.41-.074-.347-.168-.021.158-.442-.032-.442-.032s-.673-.032-1.683-.011-2.366.126-3.765.252-2.84.273-4.039.337-2.146.042-2.7.074c-.105.063-.284.021-.263.137-.158-.032-.158-.189-.221-.126.168.137-.158.158,0,.337l-.137-.042c-.053.042.2.021.126.105l.105-.126a.371.371,0,0,1,.158.179c.126-.021.252-.2.463-.032l-.063-.011c.2.053.105.126.137.158l-.053-.011.158.116c-.116-.074-.368-.021-.252,0,.242.105-.053-.053.137-.021.116.021.063.095.053.137l.21.042c-.021.063-.137-.042-.063.053a2.578,2.578,0,0,0,.284-.021c.021.179.3-.032.41.147-.2.021.011.063-.032.116l.494.042c.042.032-.137.042-.063.042.095.053.158-.032.2-.032.042.053.368.021.347.137.337.095.147-.147.463-.063.042.074-.252.011-.116.084l.326-.021a.176.176,0,0,1-.189.095c.883.105,1.378.452,2.188.316.116.074-.084.063-.158.116.578-.147.841.137,1.336.084v-.074a13.018,13.018,0,0,0,2.3-.021L93.48,46.6a1.321,1.321,0,0,1,.389-.137c.021.032-.074.158.147.105-.042-.021-.147-.042-.116-.074.673.126,2.061-.032,3.1.053a8.106,8.106,0,0,1,3.807.631c-.137-.063,0-.189.095-.105.063.358.41.326.326.4l-.032.032c.074.021.021.095-.021.105-.011.011,0-.011,0-.011a.279.279,0,0,1-.053.063L101,47.82a2.674,2.674,0,0,0-.252.41l-.063-.053c-.095.042-.084.105-.147.179l-.011-.021c-.2.147-.4.421-.547.484l.011.137c-.126.105-.116,0-.2.147l-.021-.042-.105.189c-.084-.137-.379.273-.536.284a3.789,3.789,0,0,1-.747.61c-.105-.032-.431.2-.673.305A17.077,17.077,0,0,1,96.131,51.5l.063.084-.137.105c-.011-.021-.042-.021-.021-.042-.179-.032-.316.242-.473.252.126.032.116-.053.2-.105.147-.032.084.126-.105.179l-.011-.021-.084.116c-.053-.063-.179-.032-.231-.095a14.086,14.086,0,0,1-1.23.947c0-.116-.337.252-.326.053-.263.242.116.074.042.263-.084.053-.147.147-.189.105.021-.053-.126-.042-.063-.095l-.189.147c-.032,0,.011-.042.021-.074-.358.347-.768.389-1.073.715.011.063.147-.084.158-.021-.294.347-.379.126-.663.431l.021-.116c-.074.126-.084.21-.294.284-.084-.053.105-.168.168-.263-.126.084-.421.326-.273.326-.126.126-.231.095-.326.137.011.021.168-.042.116.053a5.354,5.354,0,0,0-.778.484c-.011-.021-.053-.042-.032-.063-.116.242-.221.053-.473.273Z" transform="translate(-74.295 -39.514)"/>
      <path id="Path_53" data-name="Path 53" d="M144.079,249.621l-.116-.021c0,.021-.011.042-.063.063Z" transform="translate(-128.732 -223.373)"/>
      <path id="Path_54" data-name="Path 54" d="M87.363,233.442c-.021-.01-.042-.032-.063-.042C87.332,233.442,87.353,233.442,87.363,233.442Z" transform="translate(-78.085 -208.877)"/>
      <path id="Path_55" data-name="Path 55" d="M86.387,215.182c-.074.147.032.032.105-.032C86.471,215.14,86.45,215.14,86.387,215.182Z" transform="translate(-77.245 -192.541)"/>
      <path id="Path_56" data-name="Path 56" d="M176.032,248.3c-.021.011-.032.021-.032.042C176.032,248.332,176.032,248.321,176.032,248.3Z" transform="translate(-157.456 -222.21)"/>
      <path id="Path_57" data-name="Path 57" d="M259.832,246.811l-.032-.011A.046.046,0,0,0,259.832,246.811Z" transform="translate(-232.443 -220.867)"/>
      <path id="Path_58" data-name="Path 58" d="M254.505,245.7a.373.373,0,0,0-.105.021A.189.189,0,0,0,254.505,245.7Z" transform="translate(-227.61 -219.883)"/>
      <path id="Path_59" data-name="Path 59" d="M155.095,248.2a.169.169,0,0,0-.095.032A.169.169,0,0,0,155.095,248.2Z" transform="translate(-138.665 -222.12)"/>
      <path id="Path_60" data-name="Path 60" d="M252.426,246.1H252.3v.021l.126-.021Z" transform="translate(-225.731 -220.241)"/>
      <path id="Path_61" data-name="Path 61" d="M260.258,246.9H260.1A.2.2,0,0,0,260.258,246.9Z" transform="translate(-232.711 -220.957)"/>
      <path id="Path_62" data-name="Path 62" d="M206.527,247.1h-.01C206.411,247.132,206.474,247.121,206.527,247.1Z" transform="translate(-184.712 -221.136)"/>
      <path id="Path_63" data-name="Path 63" d="M247.953,247.9h-.011l-.042.021Z" transform="translate(-221.794 -221.852)"/>
      <path id="Path_64" data-name="Path 64" d="M266.063,247a.15.15,0,0,0-.063.021l.074.011A.039.039,0,0,1,266.063,247Z" transform="translate(-237.99 -221.046)"/>
      <path id="Path_65" data-name="Path 65" d="M224.543,247.184a.229.229,0,0,0,.053-.084C224.554,247.11,224.522,247.132,224.543,247.184Z" transform="translate(-200.888 -221.136)"/>
      <path id="Path_66" data-name="Path 66" d="M337.286,84.326a.109.109,0,0,1,.095-.126h.757a1.372,1.372,0,0,1,1.031.347,1.57,1.57,0,0,1,.326,1.115,2.374,2.374,0,0,1-.105.768,1.17,1.17,0,0,1-.726.768,1.761,1.761,0,0,1-.515.084h-.263v1.977a.179.179,0,0,1-.01.074.1.1,0,0,1-.063.042,1.021,1.021,0,0,1-.179.011h-.347Zm1.546,1.262a1.307,1.307,0,0,0-.126-.631.49.49,0,0,0-.452-.242h-.368V86.7h.326a.523.523,0,0,0,.473-.252,1.8,1.8,0,0,0,.147-.862Z" transform="translate(-301.778 -75.368)"/>
      <path id="Path_67" data-name="Path 67" d="M362.5,84.326c0-.021.011-.042.011-.063a.082.082,0,0,1,.042-.042.089.089,0,0,1,.074-.021h.726a1.372,1.372,0,0,1,1.031.347,1.57,1.57,0,0,1,.326,1.115,2.039,2.039,0,0,1-.179.936,1.194,1.194,0,0,1-.463.5,2.867,2.867,0,0,1,.2.294,4.2,4.2,0,0,1,.21.442,4.319,4.319,0,0,1,.179.6,4.78,4.78,0,0,1,.105.778.158.158,0,0,1-.042.116.551.551,0,0,1-.263.032H364.3c-.063,0-.126-.011-.189-.011a7.305,7.305,0,0,0-.105-.82,5.752,5.752,0,0,0-.158-.61,2.976,2.976,0,0,0-.179-.421l-.158-.252c-.021,0-.053.011-.074.011h-.326v1.977a.179.179,0,0,1-.01.074.1.1,0,0,1-.063.042,1.019,1.019,0,0,1-.179.011h-.347Zm1.546,1.3a1.434,1.434,0,0,0-.126-.663.454.454,0,0,0-.452-.242H363.1v1.988h.326a.536.536,0,0,0,.473-.242A1.791,1.791,0,0,0,364.046,85.63Z" transform="translate(-324.341 -75.368)"/>
      <path id="Path_68" data-name="Path 68" d="M388.6,84.473a.8.8,0,0,1,.01-.158.131.131,0,0,1,.063-.084.492.492,0,0,1,.179-.032h.347v5.038a.179.179,0,0,1-.01.074.1.1,0,0,1-.063.042,1.02,1.02,0,0,1-.179.011H388.6Z" transform="translate(-347.696 -75.368)"/>
      <path id="Path_69" data-name="Path 69" d="M397.773,84.355a.3.3,0,0,1-.01-.137c.01-.032.053-.042.137-.042h.484l.61,2.85c.063.326.116.652.168.968s.084.589.126.831c.032-.231.063-.515.105-.831s.095-.642.158-.968l.547-2.671a.681.681,0,0,1,.042-.137.116.116,0,0,1,.105-.042h.526l-1.136,5.174a1.892,1.892,0,0,1-.231.021c-.074,0-.158.011-.273.011a.279.279,0,0,1-.231-.116.855.855,0,0,1-.126-.305c-.042-.147-.084-.326-.137-.536s-.105-.442-.158-.684-.105-.494-.168-.757-.116-.515-.168-.768C398.047,85.618,397.91,85.008,397.773,84.355Z" transform="translate(-355.892 -75.345)"/>
      <path id="Path_70" data-name="Path 70" d="M424.519,87.87h-1.262l-.294,1.209a.163.163,0,0,1-.063.084.537.537,0,0,1-.221.032h-.168a1.425,1.425,0,0,1-.21-.021l1.315-5.069c.011-.063.095-.105.231-.105a2.58,2.58,0,0,1,.284.021l1.315,5.048a.085.085,0,0,1-.032.095.406.406,0,0,1-.221.032h-.158a1.273,1.273,0,0,1-.2-.011Zm-1.136-.547h1.02l-.252-1.041c-.032-.126-.053-.252-.084-.379s-.053-.252-.074-.379-.042-.242-.063-.358-.032-.21-.042-.305c-.011.084-.021.189-.042.305s-.042.231-.063.358-.042.252-.074.379-.053.252-.084.379Z" transform="translate(-377.852 -75.189)"/>
      <path id="Path_71" data-name="Path 71" d="M450.687,84.857v4.48a.179.179,0,0,1-.01.074.1.1,0,0,1-.063.042,1.022,1.022,0,0,1-.179.011h-.347V84.857h-1v-.431a.116.116,0,0,1,.095-.126h2.535v.442c0,.084-.042.116-.126.116Z" transform="translate(-401.822 -75.458)"/>
      <path id="Path_72" data-name="Path 72" d="M477.411,84.237a.206.206,0,0,1,.01-.074.1.1,0,0,1,.063-.042,1.02,1.02,0,0,1,.179-.011h.347V86.33l1.167-2.188.2-.032a1.02,1.02,0,0,1,.179-.011c.221,0,.3.063.242.179l-1.188,2.051a2.481,2.481,0,0,1,.736,1.031,7.252,7.252,0,0,1,.442,1.767.125.125,0,0,1-.042.116.336.336,0,0,1-.2.032c-.137,0-.273-.011-.421-.021a13.387,13.387,0,0,0-.337-1.43,2.428,2.428,0,0,0-.484-.9.8.8,0,0,0-.147-.116,1.163,1.163,0,0,0-.158-.084v2.419a.178.178,0,0,1-.011.074.1.1,0,0,1-.063.042,1.02,1.02,0,0,1-.179.011H477.4Z" transform="translate(-427.157 -75.279)"/>
      <path id="Path_73" data-name="Path 73" d="M505.71,88.886h1.262v.442q0,.079-.032.095a.157.157,0,0,1-.095.021H505.1V84.468a.292.292,0,0,1,.01-.095.1.1,0,0,1,.074-.053,1.037,1.037,0,0,1,.179-.021h.347Z" transform="translate(-451.944 -75.458)"/>
      <path id="Path_74" data-name="Path 74" d="M527.3,84.473a.793.793,0,0,1,.011-.158.13.13,0,0,1,.063-.084.491.491,0,0,1,.179-.032h.347v5.038a.181.181,0,0,1-.01.074.1.1,0,0,1-.063.042,1.018,1.018,0,0,1-.179.011H527.3Z" transform="translate(-471.809 -75.368)"/>
      <path id="Path_75" data-name="Path 75" d="M540.217,87.424c-.032-.084-.084-.21-.137-.389s-.126-.358-.189-.568-.137-.41-.2-.61-.126-.379-.168-.515q.016.174.032.5c.01.221.021.442.021.663s.01.431.01.631v2.2a.18.18,0,0,1-.01.074.1.1,0,0,1-.063.042,1.022,1.022,0,0,1-.179.011h-.347V84.426a.109.109,0,0,1,.095-.126h.484l.82,1.988.147.41c.063.168.126.358.2.568s.137.4.2.6l.158.5v-.021a4.187,4.187,0,0,1-.032-.484c-.01-.21-.01-.431-.021-.652s-.01-.431-.01-.631V84.426a.206.206,0,0,1,.01-.074c.011-.021.032-.032.074-.042a1.021,1.021,0,0,1,.179-.011h.347v5.038c0,.084-.042.116-.126.116h-.452Z" transform="translate(-482.265 -75.458)"/>
      <path id="Path_76" data-name="Path 76" d="M570.1,84.473a.8.8,0,0,1,.01-.158.131.131,0,0,1,.063-.084.492.492,0,0,1,.179-.032h.347v5.038a.179.179,0,0,1-.01.074.1.1,0,0,1-.063.042,1.021,1.021,0,0,1-.179.011H570.1Z" transform="translate(-510.107 -75.368)"/>
      <path id="Path_77" data-name="Path 77" d="M581.71,84.237a.206.206,0,0,1,.01-.074.1.1,0,0,1,.063-.042,1.02,1.02,0,0,1,.179-.011h.347V86.33l1.167-2.188.2-.032a1.018,1.018,0,0,1,.179-.011c.221,0,.305.063.242.179l-1.188,2.051a2.481,2.481,0,0,1,.736,1.031,7.254,7.254,0,0,1,.442,1.767.125.125,0,0,1-.042.116.336.336,0,0,1-.2.032c-.137,0-.274-.011-.421-.021a13.462,13.462,0,0,0-.337-1.43,2.431,2.431,0,0,0-.484-.9.8.8,0,0,0-.147-.116,1.144,1.144,0,0,0-.158-.084v2.419a.179.179,0,0,1-.01.074.1.1,0,0,1-.063.042,1.019,1.019,0,0,1-.179.011H581.7Z" transform="translate(-520.487 -75.279)"/>
      <path id="Path_78" data-name="Path 78" d="M620.5,89.453V84.426a.134.134,0,0,1,.01-.063.082.082,0,0,1,.042-.042.152.152,0,0,1,.074-.021h1.756v.284a.8.8,0,0,1-.01.158.169.169,0,0,1-.032.063.133.133,0,0,1-.063.011H621.11v1.557h1.1c0,.147,0,.294-.011.442-.01.074-.042.105-.095.105h-1v2.419c0,.021-.011.042-.011.063a.116.116,0,0,1-.105.063Z" transform="translate(-555.207 -75.458)"/>
      <path id="Path_79" data-name="Path 79" d="M638.042,75.956c0,.137.01.273.021.41a.79.79,0,0,0,.095.316.67.67,0,0,0,.21.21.746.746,0,0,0,.368.074,1.411,1.411,0,0,0,.368-.042,1.2,1.2,0,0,0,.273-.095V72.411a.206.206,0,0,1,.01-.074.1.1,0,0,1,.063-.042,1.022,1.022,0,0,1,.179-.011h.347v4.964a1.832,1.832,0,0,1-.473.179,2.761,2.761,0,0,1-.778.084,1.613,1.613,0,0,1-.7-.126.857.857,0,0,1-.4-.347,1.211,1.211,0,0,1-.179-.5,3.875,3.875,0,0,1-.042-.61v-3.5a.2.2,0,0,1,.011-.074.1.1,0,0,1,.063-.042,1.022,1.022,0,0,1,.179-.011h.358Zm-.179-4.691a.4.4,0,0,1,.095-.263.393.393,0,0,1,.547-.011.443.443,0,0,1-.021.547.335.335,0,0,1-.273.105.35.35,0,0,1-.284-.095A.516.516,0,0,1,637.863,71.265Zm1.052,0a.4.4,0,0,1,.095-.263.342.342,0,0,1,.263-.116.357.357,0,0,1,.284.105.423.423,0,0,1,.084.273.432.432,0,0,1-.095.273.335.335,0,0,1-.273.105.328.328,0,0,1-.273-.095.452.452,0,0,1-.084-.284Z" transform="translate(-570.329 -63.454)"/>
      <path id="Path_80" data-name="Path 80" d="M668.2,84.326a.134.134,0,0,1,.01-.063.145.145,0,0,1,.032-.042.089.089,0,0,1,.074-.021h.726a1.371,1.371,0,0,1,1.031.347,1.57,1.57,0,0,1,.326,1.115,2.039,2.039,0,0,1-.179.936,1.2,1.2,0,0,1-.463.5,1.766,1.766,0,0,1,.189.294,4.2,4.2,0,0,1,.21.442,4.3,4.3,0,0,1,.179.6,4.774,4.774,0,0,1,.105.778.158.158,0,0,1-.042.116.524.524,0,0,1-.252.032h-.158c-.063,0-.126-.011-.189-.011a7.29,7.29,0,0,0-.1-.82,5.752,5.752,0,0,0-.158-.61,2.968,2.968,0,0,0-.179-.421,1.661,1.661,0,0,0-.158-.252c-.021,0-.053.011-.074.011H668.8v1.977a.177.177,0,0,1-.011.074.1.1,0,0,1-.063.042,1.02,1.02,0,0,1-.179.011H668.2Zm1.546,1.3a1.434,1.434,0,0,0-.126-.663.454.454,0,0,0-.452-.242H668.8v1.988h.326a.507.507,0,0,0,.463-.242A1.645,1.645,0,0,0,669.746,85.63Z" transform="translate(-597.89 -75.368)"/>
      <path id="Path_81" data-name="Path 81" d="M703.521,84.326a.109.109,0,0,1,.095-.126h2.23a.315.315,0,0,1,.042.084.218.218,0,0,1,.011.116.571.571,0,0,1-.063.263l-1.872,4.154h1.42a1.629,1.629,0,0,0,.231-.011.68.68,0,0,0,.2-.042v.473a.2.2,0,0,1-.021.084c-.01.021-.052.032-.1.032h-2.293a.248.248,0,0,1-.063-.095.324.324,0,0,1-.031-.137.57.57,0,0,1,.063-.263l1.851-4.112h-1.557a.616.616,0,0,0-.137.021Z" transform="translate(-629.299 -75.368)"/>
      <path id="Path_82" data-name="Path 82" d="M731.719,87.87h-1.262l-.294,1.209a.164.164,0,0,1-.063.084.536.536,0,0,1-.221.032h-.168a1.426,1.426,0,0,1-.21-.021l1.315-5.069c.011-.063.095-.105.231-.105a2.579,2.579,0,0,1,.284.021l1.315,5.048a.085.085,0,0,1-.032.095.406.406,0,0,1-.221.032h-.158a1.273,1.273,0,0,1-.2-.011Zm-1.136-.547h1.02l-.252-1.041c-.032-.126-.063-.252-.084-.379s-.052-.252-.074-.379-.042-.242-.063-.358-.032-.21-.042-.305c-.01.084-.021.189-.042.305s-.042.231-.063.358-.042.252-.073.379-.053.252-.084.379Z" transform="translate(-652.743 -75.189)"/>
      <path id="Path_83" data-name="Path 83" d="M764.667,86.861H763.5v2.387a.177.177,0,0,1-.011.074c0,.021-.031.032-.063.042a1.02,1.02,0,0,1-.179.011H762.9V84.326a.208.208,0,0,1,.01-.074c0-.021.021-.032.063-.042a1.02,1.02,0,0,1,.179-.011h.347v2.1h1.167V84.337a.206.206,0,0,1,.01-.074c0-.021.021-.032.063-.042a1.017,1.017,0,0,1,.179-.011h.347v5.038a.179.179,0,0,1-.01.074c0,.021-.031.032-.063.042a1.021,1.021,0,0,1-.179.011h-.347Z" transform="translate(-682.63 -75.368)"/>
      <path id="Path_84" data-name="Path 84" d="M792.706,87.334c-.032-.084-.084-.21-.137-.389s-.126-.358-.189-.568-.137-.41-.2-.61-.126-.379-.168-.515q.016.174.031.5c.01.221.021.442.021.663s.01.431.01.631v2.2a.179.179,0,0,1-.01.074.1.1,0,0,1-.063.042,1.02,1.02,0,0,1-.179.011h-.337V84.337a.109.109,0,0,1,.095-.126h.484l.82,1.988c.031.095.084.231.147.41s.126.358.2.568.137.4.2.6.116.368.158.5V88.26a4.215,4.215,0,0,1-.032-.484c-.01-.21-.01-.431-.021-.652s-.01-.431-.01-.631V84.326a.206.206,0,0,1,.01-.074c.01-.021.031-.032.074-.042a1.021,1.021,0,0,1,.179-.011h.347v5.038c0,.084-.042.116-.126.116h-.452Z" transform="translate(-708.208 -75.368)"/>
      <path id="Path_85" data-name="Path 85" d="M822.019,76.135h-1.262l-.294,1.209a.163.163,0,0,1-.063.084.536.536,0,0,1-.221.032h-.168a1.425,1.425,0,0,1-.21-.021l1.315-5.069c.01-.063.095-.105.231-.105a2.575,2.575,0,0,1,.284.021l1.315,5.048a.085.085,0,0,1-.032.095.406.406,0,0,1-.221.032h-.158a1.273,1.273,0,0,1-.2-.011Zm-1.5-4.87A.4.4,0,0,1,820.61,71a.393.393,0,0,1,.547-.011.423.423,0,0,1,.084.273.372.372,0,0,1-.105.273.327.327,0,0,1-.263.105.349.349,0,0,1-.284-.095A.389.389,0,0,1,820.515,71.265Zm.368,4.323h1.02l-.252-1.041c-.031-.126-.052-.252-.084-.379s-.053-.252-.074-.379-.042-.242-.063-.358-.032-.21-.042-.305c-.01.084-.021.189-.042.305s-.042.231-.063.358-.042.252-.073.379-.053.252-.084.379Zm.684-4.323a.4.4,0,0,1,.094-.263.342.342,0,0,1,.263-.116.357.357,0,0,1,.284.105.37.37,0,0,1,.084.273.431.431,0,0,1-.095.273.335.335,0,0,1-.273.105.328.328,0,0,1-.274-.095A.4.4,0,0,1,821.567,71.265Z" transform="translate(-733.546 -63.454)"/>
      <path id="Path_86" data-name="Path 86" d="M853.021,84.326a.134.134,0,0,1,.01-.063.145.145,0,0,1,.031-.042.089.089,0,0,1,.074-.021h.726a1.372,1.372,0,0,1,1.031.347,1.57,1.57,0,0,1,.326,1.115,2.041,2.041,0,0,1-.179.936,1.2,1.2,0,0,1-.463.5,1.754,1.754,0,0,1,.189.294,4.239,4.239,0,0,1,.21.442,4.344,4.344,0,0,1,.179.6,4.787,4.787,0,0,1,.105.778.158.158,0,0,1-.042.116.551.551,0,0,1-.263.032H854.8c-.063,0-.126-.011-.189-.011a7.277,7.277,0,0,0-.105-.82,5.737,5.737,0,0,0-.158-.61,2.948,2.948,0,0,0-.179-.421,1.641,1.641,0,0,0-.158-.252c-.021,0-.053.011-.074.011H853.6v1.977a.179.179,0,0,1-.01.074.1.1,0,0,1-.063.042,1.02,1.02,0,0,1-.179.011H853Zm1.536,1.3a1.435,1.435,0,0,0-.126-.663.454.454,0,0,0-.452-.242h-.368v1.988h.326a.507.507,0,0,0,.463-.242A1.647,1.647,0,0,0,854.557,85.63Z" transform="translate(-763.254 -75.368)"/>
      <path id="Path_87" data-name="Path 87" d="M877.331,84.326a.106.106,0,0,1,.084-.126h2.24a.316.316,0,0,1,.042.084.437.437,0,0,1,.01.116.571.571,0,0,1-.063.263l-1.883,4.154h1.42a1.632,1.632,0,0,0,.231-.011.615.615,0,0,0,.2-.042v.473a.2.2,0,0,1-.021.084.14.14,0,0,1-.105.032h-2.293a.247.247,0,0,1-.063-.095.323.323,0,0,1-.032-.137.571.571,0,0,1,.063-.263l1.851-4.112h-1.557a.615.615,0,0,0-.137.021Z" transform="translate(-784.819 -75.368)"/>
      <path id="Path_88" data-name="Path 88" d="M905.285,84.857v4.48a.178.178,0,0,1-.011.074.1.1,0,0,1-.063.042,1.023,1.023,0,0,1-.179.011h-.347V84.857h-1v-.431a.109.109,0,0,1,.095-.126h2.535v.442c0,.084-.042.116-.126.116Z" transform="translate(-808.608 -75.458)"/>
      <path id="Path_89" data-name="Path 89" d="M932.91,88.886h1.262v.442q0,.079-.032.095a.156.156,0,0,1-.095.021H932.3V84.468a.292.292,0,0,1,.01-.095.1.1,0,0,1,.074-.053,1.036,1.036,0,0,1,.179-.021h.347Z" transform="translate(-834.214 -75.458)"/>
      <path id="Path_90" data-name="Path 90" d="M954.5,84.473a.789.789,0,0,1,.011-.158.131.131,0,0,1,.063-.084.491.491,0,0,1,.179-.032h.347v5.038a.179.179,0,0,1-.01.074.1.1,0,0,1-.063.042,1.02,1.02,0,0,1-.179.011H954.5Z" transform="translate(-854.079 -75.368)"/>
      <path id="Path_91" data-name="Path 91" d="M966.566,83.6a1.182,1.182,0,0,1,.337.042.757.757,0,0,1,.21.095.31.31,0,0,1,.105.126.336.336,0,0,1,.031.147.661.661,0,0,1-.031.2c-.021.053-.042.116-.063.158a.824.824,0,0,0-.189-.116.574.574,0,0,0-.294-.063.841.841,0,0,0-.347.084.712.712,0,0,0-.294.316,2.15,2.15,0,0,0-.211.684,7.324,7.324,0,0,0-.084,1.178,6.667,6.667,0,0,0,.052.915,2.088,2.088,0,0,0,.147.557.476.476,0,0,0,.232.263.742.742,0,0,0,.294.063,1.037,1.037,0,0,0,.4-.074,1.237,1.237,0,0,0,.284-.158.554.554,0,0,1,.063.168.587.587,0,0,1,.021.189.435.435,0,0,1-.252.368,1.213,1.213,0,0,1-.663.158.951.951,0,0,1-.484-.063.885.885,0,0,1-.389-.347,2.113,2.113,0,0,1-.263-.747,6.581,6.581,0,0,1-.095-1.294,6.669,6.669,0,0,1,.137-1.514,2.532,2.532,0,0,1,.347-.873.93.93,0,0,1,.463-.389A2.045,2.045,0,0,1,966.566,83.6Z" transform="translate(-863.547 -74.831)"/>
      <path id="Path_92" data-name="Path 92" d="M991.867,86.861H990.7v2.387a.179.179,0,0,1-.01.074c0,.021-.021.032-.063.042a1.018,1.018,0,0,1-.179.011H990.1V84.326a.2.2,0,0,1,.011-.074.1.1,0,0,1,.063-.042,1.021,1.021,0,0,1,.179-.011h.347v2.1h1.167V84.337a.2.2,0,0,1,.011-.074c0-.021.031-.032.063-.042a1.018,1.018,0,0,1,.179-.011h.347v5.038a.181.181,0,0,1-.01.074c0,.021-.021.032-.063.042a1.02,1.02,0,0,1-.179.011h-.347Z" transform="translate(-885.935 -75.368)"/>
      <path id="Path_93" data-name="Path 93" d="M1020.651,88.817v.294c0,.053-.01.105-.01.158a.075.075,0,0,1-.032.063.069.069,0,0,1-.063.011H1018.8V84.326c0-.021.011-.042.011-.063a.082.082,0,0,1,.042-.042.152.152,0,0,1,.073-.021h1.756v.294a.8.8,0,0,1-.01.158.1.1,0,0,1-.031.074.07.07,0,0,1-.063.011h-1.167v1.546h1.1v.284a.928.928,0,0,1-.01.168.14.14,0,0,1-.031.084.078.078,0,0,1-.063.021h-.989v1.988Z" transform="translate(-911.616 -75.368)"/>
      <path id="Path_94" data-name="Path 94" d="M1052,84.473a.789.789,0,0,1,.011-.158.13.13,0,0,1,.063-.084.491.491,0,0,1,.179-.032h.347v5.038a.179.179,0,0,1-.01.074.1.1,0,0,1-.063.042,1.023,1.023,0,0,1-.179.011H1052Z" transform="translate(-941.325 -75.368)"/>
      <path id="Path_95" data-name="Path 95" d="M1063.8,84.3c0-.063.01-.095.031-.105a.247.247,0,0,1,.084-.021h.431l.7,2.219c.021.074.042.158.074.242s.053.179.074.252.042.158.063.21a.382.382,0,0,1,.031.116s.01-.042.021-.095.031-.137.052-.21.042-.168.063-.252a1.2,1.2,0,0,1,.073-.231l.652-2.124.031-.095a.087.087,0,0,1,.084-.032h.484v5.038a.179.179,0,0,1-.01.074.1.1,0,0,1-.063.042,1.018,1.018,0,0,1-.179.011h-.358l.021-1.788c.011-.179.011-.379.032-.6s.021-.442.042-.663.032-.4.042-.568.021-.284.021-.337l-.137.473c-.052.168-.095.337-.137.5s-.084.305-.126.431-.063.21-.074.252l-.389,1.115a.221.221,0,0,1-.032.053.062.062,0,0,1-.042.011h-.252l-.379-1.178c-.01-.042-.042-.116-.073-.242s-.084-.273-.126-.431-.095-.326-.147-.5-.095-.337-.137-.473v.011c.021.263.042.526.063.778.021.221.032.452.053.7s.021.473.021.663l.01,1.7a.179.179,0,0,1-.01.074.169.169,0,0,1-.074.042,1.02,1.02,0,0,1-.179.011h-.326Z" transform="translate(-951.884 -75.345)"/>
      <path id="Path_96" data-name="Path 96" d="M1097.987,84.326a.108.108,0,0,1,.094-.126h.757a1.372,1.372,0,0,1,1.031.347,1.57,1.57,0,0,1,.326,1.115,2.388,2.388,0,0,1-.1.768,1.172,1.172,0,0,1-.726.768,1.761,1.761,0,0,1-.515.084h-.253v1.977a.179.179,0,0,1-.01.074.1.1,0,0,1-.063.042,1.018,1.018,0,0,1-.179.011H1098Zm1.546,1.262a1.307,1.307,0,0,0-.126-.631.49.49,0,0,0-.452-.242h-.368V86.7h.326a.5.5,0,0,0,.463-.252,1.658,1.658,0,0,0,.158-.862Z" transform="translate(-982.473 -75.368)"/>
      <path id="Path_97" data-name="Path 97" d="M1123.71,88.886h1.262v.442c0,.053-.01.084-.032.095a.156.156,0,0,1-.094.021H1123.1V84.468a.292.292,0,0,1,.01-.095.1.1,0,0,1,.074-.053,1.039,1.039,0,0,1,.178-.021h.347Z" transform="translate(-1004.947 -75.458)"/>
      <path id="Path_98" data-name="Path 98" d="M1144.819,87.87h-1.262l-.295,1.209a.163.163,0,0,1-.063.084.536.536,0,0,1-.221.032h-.168a1.424,1.424,0,0,1-.21-.021l1.314-5.069c.01-.063.094-.105.231-.105a2.584,2.584,0,0,1,.284.021l1.315,5.048a.085.085,0,0,1-.031.095.407.407,0,0,1-.221.032h-.158a1.273,1.273,0,0,1-.2-.011Zm-1.136-.547h1.02l-.252-1.041c-.032-.126-.063-.252-.084-.379s-.053-.252-.074-.379-.042-.242-.063-.358-.032-.21-.042-.305c-.011.084-.021.189-.042.305s-.042.231-.063.358-.042.252-.074.379-.052.252-.084.379Z" transform="translate(-1022.396 -75.189)"/>
      <path id="Path_99" data-name="Path 99" d="M1177.117,87.334c-.032-.084-.084-.21-.137-.389s-.126-.358-.189-.568-.137-.41-.2-.61-.126-.379-.168-.515q.015.174.031.5c.01.221.021.442.021.663s.01.431.01.631v2.2a.179.179,0,0,1-.01.074.1.1,0,0,1-.063.042,1.021,1.021,0,0,1-.179.011h-.347V84.337a.109.109,0,0,1,.095-.126h.484l.82,1.988.147.41c.063.168.126.358.2.568s.137.4.2.6l.158.5V88.26a4.221,4.221,0,0,1-.031-.484c0-.221-.01-.431-.021-.652s-.01-.431-.01-.631V84.326a.206.206,0,0,1,.01-.074c.01-.021.031-.032.073-.042a1.023,1.023,0,0,1,.179-.011h.347v5.038c0,.084-.042.116-.126.116h-.452Z" transform="translate(-1052.18 -75.368)"/>
      <path id="Path_100" data-name="Path 100" d="M1206.185,84.857v4.48a.176.176,0,0,1-.011.074.1.1,0,0,1-.063.042,1.021,1.021,0,0,1-.179.011h-.347V84.857h-1v-.431a.109.109,0,0,1,.095-.126h2.535v.442c0,.084-.042.116-.126.116Z" transform="translate(-1077.862 -75.458)"/>
      <path id="Path_101" data-name="Path 101" d="M1230.682,86.118a7.013,7.013,0,0,1,.084-1.241,2.436,2.436,0,0,1,.263-.81,1.116,1.116,0,0,1,.442-.442,1.375,1.375,0,0,1,.621-.137,1.353,1.353,0,0,1,.61.126.91.91,0,0,1,.4.421,2.665,2.665,0,0,1,.221.8,9.842,9.842,0,0,1,.073,1.241,8.544,8.544,0,0,1-.084,1.273,2.923,2.923,0,0,1-.252.831,1.054,1.054,0,0,1-.431.452,1.451,1.451,0,0,1-.631.137,1.345,1.345,0,0,1-.61-.116.934.934,0,0,1-.41-.421,2.518,2.518,0,0,1-.231-.82A10.547,10.547,0,0,1,1230.682,86.118Zm.673.147c0,.347.01.631.032.873a2.248,2.248,0,0,0,.115.589.87.87,0,0,0,.21.337.526.526,0,0,0,.326.105.486.486,0,0,0,.336-.116.79.79,0,0,0,.221-.358,3.3,3.3,0,0,0,.126-.642c.021-.263.032-.578.032-.957s-.011-.684-.032-.926a3.059,3.059,0,0,0-.105-.621.665.665,0,0,0-.21-.347.525.525,0,0,0-.326-.105.536.536,0,0,0-.326.116.885.885,0,0,0-.221.368,2.837,2.837,0,0,0-.126.663,7.244,7.244,0,0,0-.052,1.02Z" transform="translate(-1101.213 -74.731)"/>
      <path id="Path_102" data-name="Path 102" d="M1262.11,88.886h1.262v.442q0,.079-.031.095a.157.157,0,0,1-.095.021H1261.5V84.468a.289.289,0,0,1,.011-.095.1.1,0,0,1,.073-.053,1.038,1.038,0,0,1,.179-.021h.347Z" transform="translate(-1128.791 -75.458)"/>
      <path id="Path_103" data-name="Path 103" d="M1280.583,86.116a7.048,7.048,0,0,1,.084-1.241,2.448,2.448,0,0,1,.263-.81,1.114,1.114,0,0,1,.442-.442,1.375,1.375,0,0,1,.62-.137,1.227,1.227,0,0,1,.61.126.91.91,0,0,1,.4.421,2.665,2.665,0,0,1,.221.8,9.8,9.8,0,0,1,.074,1.241,8.512,8.512,0,0,1-.084,1.273,2.88,2.88,0,0,1-.253.841,1.05,1.05,0,0,1-.431.452,1.45,1.45,0,0,1-.631.137,1.343,1.343,0,0,1-.61-.116.931.931,0,0,1-.41-.421,2.524,2.524,0,0,1-.231-.82A10.744,10.744,0,0,1,1280.583,86.116Zm.673.147c0,.347.01.631.032.873a2.243,2.243,0,0,0,.115.589.867.867,0,0,0,.211.337.525.525,0,0,0,.326.105.487.487,0,0,0,.337-.116.793.793,0,0,0,.221-.358,3.286,3.286,0,0,0,.126-.642c.021-.263.031-.578.031-.957s-.01-.684-.031-.926a3.067,3.067,0,0,0-.105-.621.664.664,0,0,0-.21-.347.526.526,0,0,0-.326-.105.537.537,0,0,0-.326.116.889.889,0,0,0-.221.368,2.83,2.83,0,0,0-.126.663,7.183,7.183,0,0,0-.053,1.02Z" transform="translate(-1145.865 -74.729)"/>
      <path id="Path_104" data-name="Path 104" d="M1312.05,83.586a1.347,1.347,0,0,1,.578.105c.137.074.21.158.21.263a1.291,1.291,0,0,1-.021.2.612.612,0,0,1-.063.179.6.6,0,0,0-.242-.126,1.186,1.186,0,0,0-.337-.053,1.085,1.085,0,0,0-.484.105.793.793,0,0,0-.336.358,2.4,2.4,0,0,0-.189.663,8.488,8.488,0,0,0-.063,1.031,8.622,8.622,0,0,0,.053,1.041,2.274,2.274,0,0,0,.147.6.511.511,0,0,0,.242.273.856.856,0,0,0,.326.063.574.574,0,0,0,.295-.063.472.472,0,0,0,.137-.116v-1.83h-.536V85.9c0-.084.042-.126.137-.126h.968l-.01,2.766a1.482,1.482,0,0,1-.368.221,1.626,1.626,0,0,1-.631.105,1.85,1.85,0,0,1-.631-.105.89.89,0,0,1-.431-.379,2.245,2.245,0,0,1-.242-.778,8.451,8.451,0,0,1-.073-1.262,6.893,6.893,0,0,1,.116-1.4,2.481,2.481,0,0,1,.315-.841,1.047,1.047,0,0,1,.494-.41A2.1,2.1,0,0,1,1312.05,83.586Z" transform="translate(-1172.621 -74.818)"/>
      <path id="Path_105" data-name="Path 105" d="M1338.5,84.473a.789.789,0,0,1,.011-.158.13.13,0,0,1,.063-.084.49.49,0,0,1,.178-.032h.347v5.038a.176.176,0,0,1-.011.074.1.1,0,0,1-.063.042,1.018,1.018,0,0,1-.179.011h-.347Z" transform="translate(-1197.693 -75.368)"/>
      <path id="Path_106" data-name="Path 106" d="M1352.251,88.817v.294c0,.053-.01.105-.01.158a.075.075,0,0,1-.031.063.069.069,0,0,1-.063.011H1350.4V84.326a.132.132,0,0,1,.011-.063.082.082,0,0,1,.042-.042.152.152,0,0,1,.074-.021h1.756v.294a.789.789,0,0,1-.011.158.1.1,0,0,1-.032.074c-.021.011-.042.021-.063.011h-1.188v1.546h1.1v.284a.906.906,0,0,1-.01.168.14.14,0,0,1-.032.084.077.077,0,0,1-.063.021H1351v1.988Z" transform="translate(-1208.341 -75.368)"/>
      <path id="Path_107" data-name="Path 107" d="M337.831,171.781c0,.137.011.273.021.41a.663.663,0,0,0,.105.316.669.669,0,0,0,.21.21.747.747,0,0,0,.368.074,1.412,1.412,0,0,0,.368-.042,1.2,1.2,0,0,0,.273-.095v-4.417a.2.2,0,0,1,.011-.074.1.1,0,0,1,.063-.042,1.023,1.023,0,0,1,.179-.01h.347v4.964a1.832,1.832,0,0,1-.473.179,2.762,2.762,0,0,1-.778.084,1.613,1.613,0,0,1-.7-.126.856.856,0,0,1-.4-.347,1.21,1.21,0,0,1-.179-.5,3.876,3.876,0,0,1-.042-.61v-3.523a.206.206,0,0,1,.01-.074.1.1,0,0,1,.063-.042,1.019,1.019,0,0,1,.179-.011h.358Z" transform="translate(-301.702 -150.444)"/>
      <path id="Path_108" data-name="Path 108" d="M369.106,171.513c-.031-.084-.084-.21-.137-.389s-.126-.368-.189-.568-.137-.41-.2-.61-.126-.379-.168-.515q.016.174.032.5l.032.663c.01.221.01.431.01.631v2.2a.179.179,0,0,1-.01.074.1.1,0,0,1-.063.042,1.022,1.022,0,0,1-.179.01h-.347v-5.027a.109.109,0,0,1,.095-.126h.484l.82,1.988c.032.095.084.231.147.41s.126.358.2.568.137.4.2.6l.158.5v-.021c-.01-.105-.021-.263-.032-.484s-.01-.431-.021-.652-.011-.431-.011-.631v-2.156a.2.2,0,0,1,.011-.074c.01-.021.032-.032.074-.042a1.023,1.023,0,0,1,.179-.01h.347v5.038c0,.084-.042.116-.126.116h-.452Z" transform="translate(-329.16 -150.713)"/>
      <path id="Path_109" data-name="Path 109" d="M399.915,168.211a1.626,1.626,0,0,1,.631.105.94.94,0,0,1,.452.379,1.786,1.786,0,0,1,.263.715,5.634,5.634,0,0,1,.084,1.115,7.369,7.369,0,0,1-.095,1.357,2.579,2.579,0,0,1-.284.873,1.1,1.1,0,0,1-1.062.61H399v-5.017a.135.135,0,0,1,.042-.105.3.3,0,0,1,.158-.042Zm.757,2.251a7.512,7.512,0,0,0-.042-.841,1.85,1.85,0,0,0-.137-.526.513.513,0,0,0-.231-.263.7.7,0,0,0-.326-.074H399.6V172.8h.326a.525.525,0,0,0,.515-.4,3.273,3.273,0,0,0,.168-.7,8.033,8.033,0,0,0,.063-1.23Z" transform="translate(-357.002 -150.534)"/>
      <path id="Path_110" data-name="Path 110" d="M436.919,160.134h-1.262l-.294,1.209a.163.163,0,0,1-.063.084.537.537,0,0,1-.221.032h-.168a1.428,1.428,0,0,1-.21-.021l1.315-5.069c.011-.063.095-.105.231-.105a2.581,2.581,0,0,1,.284.021l1.315,5.038a.085.085,0,0,1-.032.095.406.406,0,0,1-.221.032h-.158a1.275,1.275,0,0,1-.2-.01Zm-1.5-4.869a.4.4,0,0,1,.095-.263.393.393,0,0,1,.547-.011.423.423,0,0,1,.084.273.432.432,0,0,1-.095.273.372.372,0,0,1-.273.105.35.35,0,0,1-.284-.095A.445.445,0,0,1,435.415,155.265Zm.368,4.323h1.02l-.252-1.041c-.032-.126-.053-.252-.084-.379s-.053-.252-.074-.379-.042-.242-.063-.358-.032-.21-.042-.305c-.01.084-.021.189-.042.305s-.042.231-.063.358-.042.252-.074.379-.053.252-.084.379Zm.684-4.323a.4.4,0,0,1,.095-.263.342.342,0,0,1,.263-.116.357.357,0,0,1,.284.105.423.423,0,0,1,.084.273.432.432,0,0,1-.095.273.335.335,0,0,1-.273.105.328.328,0,0,1-.273-.095.4.4,0,0,1-.084-.284Z" transform="translate(-388.948 -138.619)"/>
      <path id="Path_111" data-name="Path 111" d="M468.073,167.6a1.835,1.835,0,0,1,.747.105c.147.074.221.158.221.263a.437.437,0,0,1-.032.168.372.372,0,0,1-.116.168.892.892,0,0,0-.273-.116,1.62,1.62,0,0,0-.452-.063.917.917,0,0,0-.526.137.408.408,0,0,0-.189.368.9.9,0,0,0,.084.368,2.182,2.182,0,0,0,.252.358l.8.9a2.29,2.29,0,0,1,.231.326,1.674,1.674,0,0,1,.158.3,1.446,1.446,0,0,1,.084.305c.01.105.021.21.021.316a2.185,2.185,0,0,1-.063.526,1.167,1.167,0,0,1-.221.442.949.949,0,0,1-.4.3,1.626,1.626,0,0,1-.631.105,1.458,1.458,0,0,1-.736-.147c-.158-.095-.231-.2-.231-.294a.472.472,0,0,1,.042-.21.557.557,0,0,1,.116-.221,1.287,1.287,0,0,0,.305.179,1.106,1.106,0,0,0,.452.074.67.67,0,0,0,.557-.21.837.837,0,0,0,.158-.547,1.175,1.175,0,0,0-.095-.463,1.958,1.958,0,0,0-.337-.494l-.726-.841a2.4,2.4,0,0,1-.358-.557,1.354,1.354,0,0,1-.105-.5.978.978,0,0,1,.315-.757A1.362,1.362,0,0,1,468.073,167.6Z" transform="translate(-417.672 -149.997)"/>
      <path id="Path_112" data-name="Path 112" d="M492.287,168.947v4.48a.178.178,0,0,1-.011.074.1.1,0,0,1-.063.042,1.019,1.019,0,0,1-.179.011h-.347v-4.6h-1v-.431a.116.116,0,0,1,.095-.126h2.535v.442c0,.084-.042.116-.126.116Z" transform="translate(-439.047 -150.713)"/>
      <path id="Path_113" data-name="Path 113" d="M520.977,170.95H519.81v2.387a.18.18,0,0,1-.01.074c0,.021-.032.032-.063.042a1.019,1.019,0,0,1-.179.011H519.2v-5.027a.2.2,0,0,1,.011-.074c0-.021.021-.032.063-.042a1.019,1.019,0,0,1,.179-.011h.347V170.4h1.167v-1.977a.2.2,0,0,1,.011-.074c.01-.021.021-.032.063-.042a1.019,1.019,0,0,1,.179-.011h.347v5.038a.18.18,0,0,1-.01.074c0,.021-.032.032-.063.042a1.018,1.018,0,0,1-.179.011h-.347Z" transform="translate(-464.561 -150.623)"/>
      <path id="Path_114" data-name="Path 114" d="M549.951,172.728v.294c0,.053-.01.105-.01.158a.075.075,0,0,1-.032.063.07.07,0,0,1-.063.011H548.1v-5.027c0-.021.01-.042.01-.063a.083.083,0,0,1,.042-.042.153.153,0,0,1,.074-.021h1.756v.294a.8.8,0,0,1-.01.158.1.1,0,0,1-.032.074.07.07,0,0,1-.063.01H548.71v1.557h1.1v.284a.917.917,0,0,1-.01.168.139.139,0,0,1-.032.084.077.077,0,0,1-.063.021h-1v1.988Z" transform="translate(-490.421 -150.444)"/>
      <path id="Path_115" data-name="Path 115" d="M569.385,168.947v4.48a.179.179,0,0,1-.01.074.1.1,0,0,1-.063.042,1.02,1.02,0,0,1-.179.011h-.347v-4.6h-1v-.431a.109.109,0,0,1,.095-.126h2.535v.442c0,.084-.042.116-.126.116Z" transform="translate(-508.036 -150.713)"/>
      <path id="Path_116" data-name="Path 116" d="M596.4,168.473a.788.788,0,0,1,.011-.158.13.13,0,0,1,.063-.084.49.49,0,0,1,.179-.032H597v5.038a.179.179,0,0,1-.01.074.1.1,0,0,1-.063.042,1.021,1.021,0,0,1-.179.01H596.4Z" transform="translate(-533.641 -150.534)"/>
      <path id="Path_117" data-name="Path 117" d="M608.077,167.6a1.836,1.836,0,0,1,.747.105c.147.074.221.158.221.263a.437.437,0,0,1-.032.168.372.372,0,0,1-.116.168.892.892,0,0,0-.273-.116,1.618,1.618,0,0,0-.452-.063.917.917,0,0,0-.526.137.407.407,0,0,0-.189.368.9.9,0,0,0,.084.368,2.177,2.177,0,0,0,.252.358l.8.9a2.3,2.3,0,0,1,.232.326,1.686,1.686,0,0,1,.158.3,1.449,1.449,0,0,1,.084.305c.01.105.021.21.021.316a2.182,2.182,0,0,1-.063.526,1.166,1.166,0,0,1-.221.442.949.949,0,0,1-.4.3,1.626,1.626,0,0,1-.631.105,1.457,1.457,0,0,1-.736-.147c-.158-.095-.232-.2-.232-.294a.676.676,0,0,1,.032-.21.556.556,0,0,1,.116-.221,1.107,1.107,0,0,0,.757.252.67.67,0,0,0,.558-.21.838.838,0,0,0,.158-.547,1.176,1.176,0,0,0-.095-.463,1.958,1.958,0,0,0-.337-.494l-.736-.841a2.4,2.4,0,0,1-.358-.557,1.174,1.174,0,0,1-.105-.5.979.979,0,0,1,.315-.757A1.42,1.42,0,0,1,608.077,167.6Z" transform="translate(-542.942 -149.997)"/>
      <path id="Path_118" data-name="Path 118" d="M633.57,167.6a1.181,1.181,0,0,1,.337.042.763.763,0,0,1,.211.095.312.312,0,0,1,.1.126.337.337,0,0,1,.032.147.662.662,0,0,1-.032.2l-.063.158a.817.817,0,0,0-.189-.116.574.574,0,0,0-.295-.063.841.841,0,0,0-.347.084.712.712,0,0,0-.294.316,2.159,2.159,0,0,0-.21.684,7.309,7.309,0,0,0-.084,1.178,6.667,6.667,0,0,0,.053.915,2.084,2.084,0,0,0,.147.557.476.476,0,0,0,.231.263.742.742,0,0,0,.294.063.951.951,0,0,0,.389-.074,1.24,1.24,0,0,0,.284-.158c.021.053.042.116.063.168a1.174,1.174,0,0,1,.032.189.435.435,0,0,1-.252.368,1.213,1.213,0,0,1-.663.158.952.952,0,0,1-.484-.063.885.885,0,0,1-.389-.347,2.111,2.111,0,0,1-.263-.747,7.5,7.5,0,0,1-.095-1.294,6.655,6.655,0,0,1,.137-1.514,2.529,2.529,0,0,1,.347-.873.911.911,0,0,1,.473-.389A1.813,1.813,0,0,1,633.57,167.6Z" transform="translate(-565.573 -149.997)"/>
      <path id="Path_119" data-name="Path 119" d="M658.767,170.95H657.6v2.387a.18.18,0,0,1-.01.074c0,.021-.032.032-.063.042a1.018,1.018,0,0,1-.179.011H657v-5.027a.206.206,0,0,1,.01-.074c0-.021.021-.032.063-.042a1.02,1.02,0,0,1,.179-.011h.347V170.4h1.167v-1.977a.206.206,0,0,1,.01-.074c0-.021.021-.032.063-.042a1.02,1.02,0,0,1,.179-.011h.347v5.038a.18.18,0,0,1-.01.074c0,.021-.032.032-.063.042a1.02,1.02,0,0,1-.179.011h-.347Z" transform="translate(-587.868 -150.623)"/>
      <path id="Path_120" data-name="Path 120" d="M687.551,172.728v.294c0,.053-.01.105-.01.158a.075.075,0,0,1-.031.063.07.07,0,0,1-.063.011H685.7v-5.027a.134.134,0,0,1,.01-.063.082.082,0,0,1,.042-.042.152.152,0,0,1,.074-.021h1.756v.294a.788.788,0,0,1-.011.158.1.1,0,0,1-.031.074.07.07,0,0,1-.063.01H686.31v1.557h1.1v.284a.907.907,0,0,1-.01.168.141.141,0,0,1-.031.084.077.077,0,0,1-.063.021h-.989v1.988Z" transform="translate(-613.549 -150.444)"/>
      <path id="Path_121" data-name="Path 121" d="M717.031,168.326a.107.107,0,0,1,.084-.126h2.24a.311.311,0,0,1,.042.084.219.219,0,0,1,.01.116.57.57,0,0,1-.063.263l-1.883,4.154h1.42a1.633,1.633,0,0,0,.231-.01.613.613,0,0,0,.2-.042v.473a.2.2,0,0,1-.021.084.14.14,0,0,1-.105.032h-2.293a.249.249,0,0,1-.063-.095.324.324,0,0,1-.031-.137.57.57,0,0,1,.063-.263l1.851-4.112h-1.556a.614.614,0,0,0-.137.021Z" transform="translate(-641.379 -150.534)"/>
      <path id="Path_122" data-name="Path 122" d="M745.419,171.87h-1.262l-.294,1.209a.164.164,0,0,1-.063.084.537.537,0,0,1-.221.032h-.168a1.426,1.426,0,0,1-.21-.021l1.314-5.069c.011-.063.095-.105.232-.105a2.585,2.585,0,0,1,.284.021l1.315,5.038a.085.085,0,0,1-.032.095.406.406,0,0,1-.221.032h-.158a1.344,1.344,0,0,1-.2-.01Zm-1.146-.547h1.02l-.252-1.041c-.031-.126-.053-.252-.084-.379s-.053-.252-.074-.379-.042-.242-.063-.358-.031-.21-.042-.305c-.01.084-.021.189-.042.305s-.042.231-.063.358-.042.252-.074.379-.053.252-.084.379Z" transform="translate(-665.002 -150.355)"/>
      <path id="Path_123" data-name="Path 123" d="M778.367,170.95H777.2v2.387a.178.178,0,0,1-.011.074c0,.021-.021.032-.063.042a1.016,1.016,0,0,1-.179.011H776.6v-5.027a.206.206,0,0,1,.01-.074c0-.021.031-.032.063-.042a1.02,1.02,0,0,1,.179-.011h.347V170.4h1.167v-1.977a.206.206,0,0,1,.01-.074c0-.021.032-.032.063-.042a1.018,1.018,0,0,1,.179-.011h.347v5.038a.178.178,0,0,1-.011.074c0,.021-.021.032-.063.042a1.02,1.02,0,0,1-.179.011h-.347Z" transform="translate(-694.889 -150.623)"/>
      <path id="Path_124" data-name="Path 124" d="M806.308,171.513c-.031-.084-.084-.21-.137-.389s-.126-.368-.189-.568-.137-.41-.2-.61-.126-.379-.168-.515q.016.174.032.5c.01.21.021.442.031.663s.011.431.011.631v2.2a.177.177,0,0,1-.011.074.1.1,0,0,1-.063.042,1.023,1.023,0,0,1-.179.01h-.347v-5.027a.116.116,0,0,1,.095-.126h.484l.82,1.988c.031.095.084.231.147.41s.126.358.189.568.137.4.2.6l.158.5v-.021c-.011-.105-.021-.263-.032-.484s-.01-.431-.021-.652-.01-.431-.01-.631v-2.156a.206.206,0,0,1,.01-.074c.01-.021.031-.032.073-.042a1.024,1.024,0,0,1,.179-.01h.347v5.038c0,.084-.042.116-.126.116h-.452Z" transform="translate(-720.38 -150.713)"/>
      <path id="Path_125" data-name="Path 125" d="M838.067,170.95H836.9v2.387a.178.178,0,0,1-.011.074c0,.021-.021.032-.063.042a1.02,1.02,0,0,1-.179.011H836.3v-5.027a.206.206,0,0,1,.01-.074.1.1,0,0,1,.063-.042,1.02,1.02,0,0,1,.179-.011h.347V170.4h1.167v-1.977a.206.206,0,0,1,.01-.074c0-.021.032-.032.063-.042a1.017,1.017,0,0,1,.179-.011h.347v5.038a.18.18,0,0,1-.01.074c0,.021-.021.032-.063.042a1.02,1.02,0,0,1-.179.011h-.347Z" transform="translate(-748.31 -150.623)"/>
      <path id="Path_126" data-name="Path 126" d="M866.851,172.728v.294c0,.053-.011.105-.011.158a.075.075,0,0,1-.031.063.07.07,0,0,1-.063.011H865v-5.027c0-.021.01-.042.01-.063a.082.082,0,0,1,.042-.042.152.152,0,0,1,.074-.021h1.756v.294a.8.8,0,0,1-.01.158.1.1,0,0,1-.032.074.07.07,0,0,1-.063.01H865.61v1.557h1.1v.284a.907.907,0,0,1-.01.168.14.14,0,0,1-.031.084.077.077,0,0,1-.063.021h-.989v1.988Z" transform="translate(-773.992 -150.444)"/>
      <path id="Path_127" data-name="Path 127" d="M887.3,168.473a.8.8,0,0,1,.01-.158.13.13,0,0,1,.063-.084.491.491,0,0,1,.179-.032h.347v5.038a.177.177,0,0,1-.011.074.1.1,0,0,1-.063.042,1.023,1.023,0,0,1-.179.01H887.3Z" transform="translate(-793.947 -150.534)"/>
      <path id="Path_128" data-name="Path 128" d="M899.6,172.8h1.262v.442q0,.079-.031.095a.156.156,0,0,1-.095.021H899v-4.985a.292.292,0,0,1,.01-.095.1.1,0,0,1,.074-.053,1.034,1.034,0,0,1,.179-.021h.347v4.6Z" transform="translate(-804.416 -150.534)"/>
      <path id="Path_129" data-name="Path 129" d="M921.01,168.237a.206.206,0,0,1,.01-.074.1.1,0,0,1,.063-.042,1.024,1.024,0,0,1,.179-.01h.347v2.219l1.168-2.188.2-.032a1.018,1.018,0,0,1,.179-.011c.221,0,.305.063.242.179l-1.188,2.051a2.481,2.481,0,0,1,.736,1.031,7.254,7.254,0,0,1,.442,1.767.125.125,0,0,1-.042.116.336.336,0,0,1-.2.031c-.137,0-.273-.01-.421-.021a13.464,13.464,0,0,0-.337-1.43,2.428,2.428,0,0,0-.484-.9.789.789,0,0,0-.147-.116,1.153,1.153,0,0,0-.158-.084v2.419a.179.179,0,0,1-.01.074.1.1,0,0,1-.063.042,1.026,1.026,0,0,1-.179.01H921Z" transform="translate(-824.102 -150.444)"/>
      <path id="Path_130" data-name="Path 130" d="M949.231,171.781c0,.137.01.273.021.41a.8.8,0,0,0,.105.316.671.671,0,0,0,.21.21.747.747,0,0,0,.368.074,1.411,1.411,0,0,0,.368-.042,1.2,1.2,0,0,0,.274-.095v-4.417a.206.206,0,0,1,.01-.074.1.1,0,0,1,.063-.042,1.023,1.023,0,0,1,.179-.01h.347v4.964a1.831,1.831,0,0,1-.473.179,2.762,2.762,0,0,1-.778.084,1.614,1.614,0,0,1-.7-.126.855.855,0,0,1-.4-.347,1.21,1.21,0,0,1-.179-.5,3.868,3.868,0,0,1-.042-.61v-3.523a.206.206,0,0,1,.01-.074.1.1,0,0,1,.063-.042,1.022,1.022,0,0,1,.179-.011h.358Z" transform="translate(-848.799 -150.444)"/>
      <path id="Path_131" data-name="Path 131" d="M980.6,171.513c-.032-.084-.084-.21-.137-.389l-.189-.568c-.074-.2-.137-.41-.2-.61s-.126-.379-.168-.515q.016.174.031.5l.032.663c.01.221.01.431.01.631v2.2a.181.181,0,0,1-.01.074.1.1,0,0,1-.063.042,1.021,1.021,0,0,1-.179.01h-.337v-5.027a.109.109,0,0,1,.095-.126h.484l.82,1.988c.032.095.084.231.147.41s.126.358.189.568.137.4.2.6l.158.5v-.021c-.011-.105-.021-.263-.032-.484s-.01-.431-.021-.652-.01-.431-.01-.631v-2.156a.208.208,0,0,1,.01-.074c.011-.021.032-.032.074-.042a1.019,1.019,0,0,1,.179-.01h.347v5.038c0,.084-.042.116-.126.116h-.452Z" transform="translate(-876.347 -150.713)"/>
      <path id="Path_132" data-name="Path 132" d="M1011.225,168.266a1.625,1.625,0,0,1,.631.105.94.94,0,0,1,.452.379,1.975,1.975,0,0,1,.273.715,5.629,5.629,0,0,1,.084,1.115,7.375,7.375,0,0,1-.094,1.357,2.584,2.584,0,0,1-.284.873,1.1,1.1,0,0,1-1.062.61h-.925V168.4a.176.176,0,0,1,.032-.105.217.217,0,0,1,.158-.032Zm.757,2.251a7.527,7.527,0,0,0-.042-.841,1.836,1.836,0,0,0-.137-.526.513.513,0,0,0-.231-.263.705.705,0,0,0-.326-.074h-.336v4.039h.336a.525.525,0,0,0,.515-.4,3.266,3.266,0,0,0,.168-.7,9.674,9.674,0,0,0,.053-1.23Z" transform="translate(-904.01 -150.59)"/>
      <path id="Path_133" data-name="Path 133" d="M1039.862,172.728v.294c0,.053-.01.105-.01.158a.075.075,0,0,1-.032.063.07.07,0,0,1-.063.011H1038v-5.027c0-.021.01-.042.01-.063a.082.082,0,0,1,.042-.042.153.153,0,0,1,.073-.021h1.757v.294a.8.8,0,0,1-.01.158.1.1,0,0,1-.032.074.069.069,0,0,1-.063.01H1038.6v1.557h1.1v.284a.9.9,0,0,1-.011.168.14.14,0,0,1-.031.084.077.077,0,0,1-.063.021h-.989v1.988Z" transform="translate(-928.797 -150.444)"/>
      <path id="Path_134" data-name="Path 134" d="M1070.8,195.526c0-.137,0-.263.01-.4.01-.084.042-.126.105-.126h1.388c0,.137,0,.263-.01.4-.011.084-.042.116-.105.116H1070.8Z" transform="translate(-958.147 -174.515)"/>
      <path id="Path_135" data-name="Path 135" d="M1101.7,168.473a.8.8,0,0,1,.01-.158.13.13,0,0,1,.063-.084.491.491,0,0,1,.179-.032h.347v5.038a.177.177,0,0,1-.011.074c-.01.021-.031.032-.063.042a1.025,1.025,0,0,1-.179.01h-.347Z" transform="translate(-985.797 -150.534)"/>
      <path id="Path_136" data-name="Path 136" d="M1111.621,168.326a.109.109,0,0,1,.095-.126h2.23a.311.311,0,0,1,.042.084.219.219,0,0,1,.01.116.57.57,0,0,1-.063.263l-1.872,4.154h1.42a1.631,1.631,0,0,0,.231-.01.679.679,0,0,0,.2-.042v.473a.2.2,0,0,1-.021.084c-.01.021-.052.032-.105.032h-2.293a.25.25,0,0,1-.063-.095.324.324,0,0,1-.031-.137.57.57,0,0,1,.063-.263l1.851-4.112h-1.556a.615.615,0,0,0-.137.021Z" transform="translate(-994.478 -150.534)"/>
      <path id="Path_137" data-name="Path 137" d="M1140.4,168.473a.8.8,0,0,1,.01-.158.13.13,0,0,1,.063-.084.49.49,0,0,1,.179-.032H1141v5.038a.176.176,0,0,1-.011.074.1.1,0,0,1-.063.042,1.016,1.016,0,0,1-.178.01h-.347Z" transform="translate(-1020.427 -150.534)"/>
    </g>
  </g>
</svg>
