<svg xmlns="http://www.w3.org/2000/svg" xmlns:xlink="http://www.w3.org/1999/xlink" width="100" height="100" viewBox="0 0 100 100">
  <defs>
    <clipPath id="clip-nobel-biocare_colored">
      <rect width="100" height="100"/>
    </clipPath>
  </defs>
  <g id="nobel-biocare_colored" clip-path="url(#clip-nobel-biocare_colored)">
    <g id="nobel_biocare" data-name="nobel biocare" transform="translate(-17.823 43.522)">
      <g id="Nobel_Biocare_Horizontal_14mm-6mm" data-name="Nobel Biocare™ Horizontal 14mm-6mm" transform="translate(19.521 -11.018)">
        <path id="TM" d="M197.56,20.521V18.932H197V18.67h1.37v.262h-.536v1.589Zm2.631,0v-1.37l-.609.816-.609-.816v1.37h-.3V18.694h.3l.609.84.609-.84h.3v1.827Z" transform="translate(-103.885 7.844)"/>
        <path id="Nobel_Biocare-2" data-name="Nobel Biocare" d="M51.341,21.608h-.03L46.292,13.88H44.1V25.025h1.882V16.834h.03l5.329,8.191h1.882V13.88H51.341Zm7.083-4.963c-2.229,0-3.855,1.632-3.855,4.318s1.6,4.263,3.824,4.263,3.855-1.632,3.855-4.312-1.6-4.269-3.824-4.269Zm0,6.967c-1.157,0-1.955-.968-1.955-2.667s.8-2.667,1.955-2.667,1.961.974,1.961,2.667-.816,2.667-1.979,2.667Zm9.366-6.967a3.27,3.27,0,0,0-2.345.962V13.88H63.563V25.025h1.663l.079-.907a2.966,2.966,0,0,0,2.363,1.127c2.131,0,3.544-1.754,3.544-4.391s-1.334-4.208-3.423-4.208Zm-.518,6.967a2.363,2.363,0,0,1-1.827-.938V19.19a2.381,2.381,0,0,1,1.827-.913c1.291,0,2.04.974,2.04,2.637s-.767,2.7-2.034,2.7Zm8.812-6.967c-2.272,0-3.794,1.742-3.794,4.348s1.522,4.263,3.952,4.263a4.872,4.872,0,0,0,3.167-1.145l-.834-1.334a3.55,3.55,0,0,1-2.259.92c-1.218,0-1.912-.706-2.1-2.058H79.7V20.9c-.006-2.606-1.413-4.257-3.611-4.257ZM74.2,20.335c.049-1.322.786-2.217,1.827-2.217s1.742.865,1.784,2.217Zm9.421,3.215c-.426,0-.646-.219-.646-.676V13.88H81.1v9.4a1.669,1.669,0,0,0,1.827,1.87,5.134,5.134,0,0,0,1.486-.25l-.158-1.443a2.686,2.686,0,0,1-.633.091Zm10.73-4.36v-.037a2.472,2.472,0,0,0,1.614-2.436c0-1.723-1.285-2.826-3.295-2.826H88.63V25.037h4.129c2.229,0,3.654-1.218,3.654-3.106A2.667,2.667,0,0,0,94.354,19.19Zm-4.641-4.336h2.9c1.407,0,2.3.773,2.3,2s-.865,1.931-2.229,1.931H89.714Zm3.045,9.2H89.714V19.72h3.045c1.632,0,2.588.786,2.588,2.138s-.98,2.2-2.588,2.2Zm5.9-10.042a.706.706,0,1,0,.706.706.682.682,0,0,0-.706-.706Zm-.518,2.844h1.035v8.16H98.136Zm6.285-.213c-2.18,0-3.654,1.73-3.654,4.318s1.443,4.263,3.605,4.263,3.654-1.723,3.654-4.312-1.443-4.269-3.605-4.269Zm0,7.661c-1.565,0-2.582-1.3-2.582-3.362s1-3.337,2.564-3.337,2.588,1.3,2.588,3.356-1.017,3.343-2.588,3.343Zm8.167.03c-1.492,0-2.479-1.352-2.479-3.374s1.017-3.4,2.558-3.4a2.308,2.308,0,0,1,2.174,1.675l.913-.42a3.264,3.264,0,0,0-3.045-2.168c-2.15,0-3.605,1.742-3.605,4.33s1.413,4.263,3.514,4.263a3.493,3.493,0,0,0,3.2-2.259l-.9-.451C114.323,23.727,113.556,24.336,112.587,24.336Zm10.737-1.462V19.33c0-1.827-.926-2.686-2.838-2.686a7.119,7.119,0,0,0-3.423.962l.365.865a5.7,5.7,0,0,1,2.929-.907c1.315,0,1.931.579,1.931,1.827V20c-4.153.238-5.481.9-5.481,2.7a2.513,2.513,0,0,0,2.789,2.558,3.983,3.983,0,0,0,2.74-1.157,1.571,1.571,0,0,0,.9,1.157l.658-.579c-.457-.371-.566-.731-.566-1.8Zm-1.035.329a3.307,3.307,0,0,1-2.466,1.163c-1.218,0-1.985-.609-1.985-1.681,0-1.285.968-1.711,4.452-1.943Zm4.147-5.049V16.864h-1.029v8.16h1.029v-5.9a3.142,3.142,0,0,1,2.558-1.474,4.074,4.074,0,0,1,.767.079V16.706a5.481,5.481,0,0,0-.737-.061,3.045,3.045,0,0,0-2.588,1.51Zm7.125-1.492c-2.131,0-3.575,1.76-3.575,4.348s1.443,4.263,3.727,4.263a4.263,4.263,0,0,0,2.978-1.218l-.5-.755a3.49,3.49,0,0,1-2.436,1.035c-1.577,0-2.582-1.078-2.722-2.966h5.956V20.9C136.965,18.332,135.632,16.663,133.561,16.663Zm-2.527,3.91c.091-1.79,1.072-2.966,2.527-2.966s2.339,1.163,2.4,3Z" transform="translate(-44.1 9.717)"/>
        <g id="N" transform="translate(36.646 0)">
          <path id="Path_152" data-name="Path 152" d="M20.668,2.82V16.881a.371.371,0,0,1-.371.371H17.629c-.865,0-1.157-.116-1.437-.505L9.609,7.637A.371.371,0,0,0,9,7.917v2.546a.475.475,0,0,0,.134.329l5.536,7.917a2.29,2.29,0,0,0,2.04.92h6.035a.371.371,0,0,0,.371-.371V.371A.371.371,0,0,0,22.745,0H17.569A.371.371,0,0,0,17.2.371V2.077a.371.371,0,0,0,.371.371H20.3A.371.371,0,0,1,20.668,2.82Z" transform="translate(-3.519 0.011)" fill="#c00"/>
          <path id="Path_153" data-name="Path 153" d="M2.436,16.771V2.715a.371.371,0,0,1,.371-.371H5.481c.865,0,1.151.11,1.431.505l6.559,9.135a.378.378,0,0,0,.639-.262V9.128a.475.475,0,0,0-.1-.3L8.465.907A2.29,2.29,0,0,0,6.407-.007H.371A.371.371,0,0,0,0,.365V19.243a.371.371,0,0,0,.371.371H5.548a.371.371,0,0,0,.371-.371V17.538a.371.371,0,0,0-.371-.371H2.82a.371.371,0,0,1-.384-.4Z" transform="translate(0 0.018)" fill="#c00"/>
        </g>
      </g>
    </g>
  </g>
</svg>
