<svg xmlns="http://www.w3.org/2000/svg" xmlns:xlink="http://www.w3.org/1999/xlink" width="150" height="150" viewBox="0 0 150 150">
  <defs>
    <clipPath id="clip-nobel-biocare_colored">
      <rect width="150" height="150"/>
    </clipPath>
  </defs>
  <g id="nobel-biocare_colored" clip-path="url(#clip-nobel-biocare_colored)">
    <g id="Layer_2" data-name="Layer 2" transform="translate(4.826 63.73)">
      <g id="Nobel_Biocare_Horizontal_14mm-6mm" data-name="Nobel Biocare™ Horizontal 14mm-6mm" transform="translate(0 -0.018)">
        <path id="TM" d="M197.637,20.775V18.968H197v-.3h1.558v.3h-.609v1.807Zm2.991,0V19.217l-.692.928-.692-.928v1.558H198.9V18.7h.339l.692.955.692-.955h.339v2.077Z" transform="translate(-60.619 -5.733)"/>
        <path id="Nobel_Biocare" data-name="Nobel Biocare" d="M52.331,22.665H52.3l-5.7-8.785H44.1V26.549h2.139V17.238h.035l6.058,9.311H54.47V13.88H52.331Zm8.051-5.642c-2.534,0-4.382,1.855-4.382,4.908s1.814,4.846,4.348,4.846,4.382-1.855,4.382-4.9-1.814-4.853-4.348-4.853Zm0,7.92c-1.315,0-2.222-1.1-2.222-3.032s.907-3.032,2.222-3.032,2.229,1.108,2.229,3.032-.928,3.032-2.25,3.032Zm10.647-7.92a3.718,3.718,0,0,0-2.665,1.094V13.88H66.226V26.549h1.89l.09-1.032A3.371,3.371,0,0,0,70.892,26.8c2.423,0,4.029-1.994,4.029-4.991S73.4,17.023,71.03,17.023Zm-.588,7.92a2.686,2.686,0,0,1-2.077-1.066v-3.96a2.707,2.707,0,0,1,2.077-1.038c1.468,0,2.319,1.108,2.319,3s-.872,3.067-2.312,3.067Zm10.017-7.92c-2.582,0-4.313,1.98-4.313,4.943s1.731,4.846,4.493,4.846a5.538,5.538,0,0,0,3.6-1.3l-.948-1.516a4.036,4.036,0,0,1-2.568,1.045c-1.385,0-2.174-.8-2.388-2.34h6.231v-.838c-.007-2.963-1.606-4.839-4.105-4.839Zm-2.139,4.2c.055-1.5.893-2.52,2.077-2.52s1.98.983,2.028,2.52Zm10.71,3.655c-.485,0-.734-.249-.734-.768V13.88H86.163V24.569a1.9,1.9,0,0,0,2.077,2.125,5.836,5.836,0,0,0,1.689-.284l-.18-1.641a3.053,3.053,0,0,1-.72.1Zm12.2-4.957v-.042a2.811,2.811,0,0,0,1.835-2.769c0-1.959-1.461-3.212-3.745-3.212h-4.6V26.563h4.694c2.534,0,4.154-1.385,4.154-3.531a3.032,3.032,0,0,0-2.34-3.115Zm-5.275-4.929h3.3c1.6,0,2.617.879,2.617,2.271s-.983,2.195-2.534,2.195H95.952Zm3.461,10.46H95.952V20.519h3.461c1.855,0,2.942.893,2.942,2.43S101.241,25.448,99.414,25.448Zm6.7-11.416a.8.8,0,1,0,.8.8.775.775,0,0,0-.8-.8Zm-.588,3.233H106.7v9.277h-1.177Zm7.144-.242c-2.478,0-4.154,1.966-4.154,4.908s1.641,4.846,4.1,4.846,4.154-1.959,4.154-4.9-1.641-4.853-4.1-4.853Zm0,8.709c-1.779,0-2.935-1.481-2.935-3.821s1.135-3.794,2.915-3.794,2.942,1.481,2.942,3.815-1.156,3.8-2.942,3.8Zm9.284.035c-1.7,0-2.818-1.537-2.818-3.835s1.156-3.87,2.908-3.87a2.624,2.624,0,0,1,2.471,1.9l1.038-.478a3.711,3.711,0,0,0-3.461-2.465c-2.444,0-4.1,1.98-4.1,4.922s1.606,4.846,3.995,4.846a3.97,3.97,0,0,0,3.635-2.568l-1.018-.512C123.928,25.074,123.055,25.767,121.955,25.767Zm12.205-1.661V20.076c0-2.077-1.052-3.053-3.226-3.053a8.093,8.093,0,0,0-3.891,1.094l.415.983a6.48,6.48,0,0,1,3.33-1.032c1.5,0,2.195.658,2.195,2.077v.692c-4.721.27-6.231,1.018-6.231,3.067a2.857,2.857,0,0,0,3.171,2.908,4.528,4.528,0,0,0,3.115-1.315,1.786,1.786,0,0,0,1.018,1.315l.748-.658c-.519-.422-.644-.831-.644-2.049Zm-1.177.374a3.759,3.759,0,0,1-2.8,1.322c-1.385,0-2.257-.692-2.257-1.911,0-1.461,1.1-1.945,5.061-2.208ZM137.7,18.74V17.272h-1.17v9.277h1.17V19.841a3.572,3.572,0,0,1,2.908-1.675,4.631,4.631,0,0,1,.872.09V17.092a6.231,6.231,0,0,0-.838-.069A3.461,3.461,0,0,0,137.7,18.74Zm8.1-1.7c-2.423,0-4.064,2-4.064,4.943s1.641,4.846,4.237,4.846a4.846,4.846,0,0,0,3.385-1.385l-.568-.858a3.967,3.967,0,0,1-2.769,1.177c-1.793,0-2.935-1.225-3.095-3.371h6.771v-.533c-.028-2.921-1.544-4.818-3.9-4.818Zm-2.873,4.444c.1-2.035,1.218-3.371,2.873-3.371s2.658,1.322,2.728,3.406Z" transform="translate(-13.57 -4.259)"/>
        <g id="N">
          <path id="Path_169" data-name="Path 169" d="M22.264,3.205V19.19a.422.422,0,0,1-.422.422H18.81c-.983,0-1.315-.132-1.634-.575L9.692,8.681A.422.422,0,0,0,9,9v2.894a.54.54,0,0,0,.152.374l6.293,9a2.6,2.6,0,0,0,2.319,1.045h6.861a.422.422,0,0,0,.422-.422V.422A.422.422,0,0,0,24.625,0H18.74a.422.422,0,0,0-.422.422V2.361a.422.422,0,0,0,.422.422h3.1A.422.422,0,0,1,22.264,3.205Z" transform="translate(-2.769 0.012)" fill="#c00"/>
          <path id="Path_170" data-name="Path 170" d="M2.769,19.067V3.089a.422.422,0,0,1,.422-.422H6.231c.983,0,1.308.125,1.627.575l7.456,10.384a.429.429,0,0,0,.727-.3V10.379a.54.54,0,0,0-.118-.346l-6.3-9A2.6,2.6,0,0,0,7.283-.005H.422A.422.422,0,0,0,0,.417V21.878a.422.422,0,0,0,.422.422H6.307a.422.422,0,0,0,.422-.422V19.939a.422.422,0,0,0-.422-.422h-3.1a.422.422,0,0,1-.436-.45Z" transform="translate(0 0.018)" fill="#c00"/>
        </g>
      </g>
    </g>
  </g>
</svg>
