<svg xmlns="http://www.w3.org/2000/svg" xmlns:xlink="http://www.w3.org/1999/xlink" width="150" height="150" viewBox="0 0 150 150">
  <defs>
    <clipPath id="clip-nobel-biocare_grayscale">
      <rect width="150" height="150"/>
    </clipPath>
  </defs>
  <g id="nobel-biocare_grayscale" clip-path="url(#clip-nobel-biocare_grayscale)">
    <g id="nobel_biocare" data-name="nobel biocare" transform="translate(-17.008 59.762)">
      <g id="Nobel_Biocare_Horizontal_14mm-6mm" data-name="Nobel Biocare™ Horizontal 14mm-6mm" transform="translate(19.521 -11.018)">
        <path id="TM" d="M197.841,21.448V19.063H197V18.67h2.056v.393h-.8v2.385Zm3.948,0V19.392l-.914,1.225-.914-1.225v2.056h-.448V18.707h.448l.914,1.261.914-1.261h.448v2.742Z" transform="translate(-57.263 21.12)" fill="#838487"/>
        <path id="Nobel_Biocare-2" data-name="Nobel Biocare" d="M54.966,25.478h-.046L47.39,13.88H44.1V30.6h2.824V18.312h.046l8,12.292H57.79V13.88H54.966ZM65.6,18.029c-3.345,0-5.785,2.449-5.785,6.48s2.394,6.4,5.739,6.4,5.785-2.449,5.785-6.47S68.94,18.029,65.6,18.029Zm0,10.455c-1.736,0-2.934-1.453-2.934-4s1.2-4,2.934-4,2.943,1.462,2.943,4-1.225,4-2.97,4ZM79.651,18.029a4.908,4.908,0,0,0-3.519,1.444V13.88H73.309V30.6H75.8l.119-1.362a4.451,4.451,0,0,0,3.546,1.691c3.2,0,5.319-2.632,5.319-6.589s-2-6.315-5.136-6.315Zm-.777,10.455a3.546,3.546,0,0,1-2.742-1.407V21.849a3.573,3.573,0,0,1,2.742-1.371c1.937,0,3.062,1.462,3.062,3.957s-1.152,4.049-3.052,4.049ZM92.1,18.029c-3.409,0-5.694,2.614-5.694,6.525s2.285,6.4,5.931,6.4a7.311,7.311,0,0,0,4.752-1.718l-1.252-2a5.328,5.328,0,0,1-3.391,1.38c-1.828,0-2.87-1.06-3.153-3.089h8.225V24.417c-.009-3.912-2.12-6.388-5.419-6.388Zm-2.824,5.538c.073-1.983,1.179-3.327,2.742-3.327s2.614,1.3,2.678,3.327Zm14.138,4.825c-.64,0-.969-.329-.969-1.014V13.88H99.629V27.991a2.5,2.5,0,0,0,2.742,2.806,7.7,7.7,0,0,0,2.23-.375l-.238-2.166a4.031,4.031,0,0,1-.951.137Zm16.1-6.544v-.055a3.71,3.71,0,0,0,2.422-3.656c0-2.586-1.928-4.241-4.944-4.241h-6.068V30.623h6.2c3.345,0,5.483-1.828,5.483-4.661A4,4,0,0,0,119.516,21.849Zm-6.964-6.507h4.359c2.111,0,3.455,1.161,3.455,3s-1.3,2.9-3.345,2.9h-4.469Zm4.57,13.809h-4.57V22.644h4.57c2.449,0,3.884,1.179,3.884,3.208s-1.471,3.3-3.884,3.3Zm8.847-15.07a1.06,1.06,0,1,0,1.06,1.06,1.024,1.024,0,0,0-1.06-1.06Zm-.777,4.268h1.554V30.6h-1.554Zm9.432-.32c-3.272,0-5.483,2.6-5.483,6.48s2.166,6.4,5.41,6.4,5.483-2.586,5.483-6.47-2.166-6.407-5.41-6.407Zm0,11.5c-2.349,0-3.875-1.956-3.875-5.045s1.5-5.008,3.848-5.008,3.884,1.956,3.884,5.036-1.526,5.017-3.884,5.017Zm12.256.046c-2.239,0-3.72-2.029-3.72-5.063S144.685,19.4,147,19.4a3.464,3.464,0,0,1,3.263,2.513l1.371-.631a4.9,4.9,0,0,0-4.57-3.254c-3.226,0-5.41,2.614-5.41,6.5s2.12,6.4,5.273,6.4c2.065,0,3.738-1.17,4.8-3.391l-1.343-.676C149.483,28.658,148.332,29.572,146.879,29.572Zm16.112-2.193V22.06c0-2.742-1.389-4.03-4.259-4.03a10.684,10.684,0,0,0-5.136,1.444l.548,1.3a8.554,8.554,0,0,1,4.4-1.362c1.974,0,2.9.868,2.9,2.742v.914c-6.233.356-8.225,1.343-8.225,4.049,0,2.33,1.645,3.838,4.186,3.838a5.977,5.977,0,0,0,4.113-1.736,2.358,2.358,0,0,0,1.343,1.736l.987-.868C163.155,29.526,162.991,28.987,162.991,27.378Zm-1.554.494a4.963,4.963,0,0,1-3.7,1.746c-1.828,0-2.979-.914-2.979-2.522,0-1.928,1.453-2.568,6.681-2.915Zm6.224-7.576V18.358h-1.545V30.6h1.545V21.749a4.716,4.716,0,0,1,3.838-2.212,6.114,6.114,0,0,1,1.152.119V18.121a8.225,8.225,0,0,0-1.106-.091,4.57,4.57,0,0,0-3.884,2.267Zm10.693-2.239c-3.2,0-5.365,2.641-5.365,6.525s2.166,6.4,5.593,6.4a6.4,6.4,0,0,0,4.469-1.828l-.749-1.133a5.237,5.237,0,0,1-3.656,1.554c-2.367,0-3.875-1.618-4.085-4.451H183.5v-.7C183.462,20.561,181.461,18.057,178.354,18.057Zm-3.793,5.867c.137-2.687,1.608-4.451,3.793-4.451s3.509,1.746,3.6,4.5Z" transform="translate(-44.1 21.532)" fill="#838487"/>
        <g id="N" transform="translate(54.995 0)">
          <path id="Path_152" data-name="Path 152" d="M26.511,4.231v21.1a.557.557,0,0,1-.557.557h-4c-1.3,0-1.736-.174-2.157-.759L9.914,11.46a.557.557,0,0,0-.914.42V15.7a.713.713,0,0,0,.2.494l8.307,11.881a3.436,3.436,0,0,0,3.062,1.38h9.057a.557.557,0,0,0,.557-.557V.557A.557.557,0,0,0,29.627,0H21.859A.557.557,0,0,0,21.3.557V3.116a.557.557,0,0,0,.557.557h4.094A.557.557,0,0,1,26.511,4.231Z" transform="translate(-0.775 0.016)" fill="#838487"/>
          <path id="Path_153" data-name="Path 153" d="M3.656,25.177V4.084a.557.557,0,0,1,.557-.557H8.225c1.3,0,1.727.165,2.148.759l9.843,13.709a.567.567,0,0,0,.96-.393V13.707a.713.713,0,0,0-.155-.457L12.7,1.369A3.436,3.436,0,0,0,9.614,0H.557A.557.557,0,0,0,0,.556V28.887a.557.557,0,0,0,.557.557H8.326a.557.557,0,0,0,.557-.557V26.328a.557.557,0,0,0-.557-.557H4.231a.557.557,0,0,1-.576-.594Z" transform="translate(0 0.018)" fill="#838487"/>
        </g>
      </g>
    </g>
  </g>
</svg>
