<svg xmlns="http://www.w3.org/2000/svg" xmlns:xlink="http://www.w3.org/1999/xlink" width="150" height="150" viewBox="0 0 150 150">
  <defs>
    <clipPath id="clip-riess_colored">
      <rect width="150" height="150"/>
    </clipPath>
  </defs>
  <g id="riess_colored" clip-path="url(#clip-riess_colored)">
    <g id="svgg" transform="translate(3.258 64.956)">
      <path id="path0" d="M0,10.044V20.088H143.484V0H0V10.044M105.158,2.733c.389.176.453.279.449.723,0,.22-.005,1.261-.008,2.313-.008,3,.007,2.86-.3,2.941-.945.246-1.375-.052-1.3-.9.052-.6.055-3.258.005-4.1-.043-.722-.012-.791.45-1.007.274-.128.362-.124.71.033m-41.609,0c.335.2.368.336.288,1.211a4.363,4.363,0,0,0,0,1.175,1.682,1.682,0,0,1,.019.557,17.961,17.961,0,0,0,.028,2.534c.045.11-.063.317-.281.534-.112.112-.151.117-.429.057-.932-.2-1.058-.2-1.327.056a.245.245,0,0,1-.3.062c-.1-.03-.39-.1-.653-.155a1.694,1.694,0,0,1-1.405-1.818,6.569,6.569,0,0,1,.42-1.431A.735.735,0,0,0,60.08,5.3a1.016,1.016,0,0,1,.346-.31,1.566,1.566,0,0,0,.256-.151.89.89,0,0,1,.787-.182c.847.2,1.076.024.954-.716-.107-.648-.088-.785.153-1.123a3.1,3.1,0,0,1,.7-.181.649.649,0,0,1,.276.094m10.3.028c.354.186.347.113.307,3.032-.04,2.955-.03,2.888-.428,3a1.05,1.05,0,0,1-.626.022.662.662,0,0,0-.787-.1c-.307.149-.944.2-1.017.081a.252.252,0,0,0-.185-.06,1.394,1.394,0,0,1-1.047-.807c-.037-.1-.112-.273-.165-.388a2.3,2.3,0,0,1,.769-2.5c.148-.087.362-.22.476-.3.2-.132.241-.137.828-.1.758.051.726.087.727-.814,0-1.052.426-1.447,1.147-1.068m65.241.159a1.371,1.371,0,0,0,.727.048c.546-.04.553-.039.7.122.2.213.37.661.292.758a.773.773,0,0,0-.1.255c-.083.387-.692.685-.692.338,0-1.29-1.25-1.566-1.407-.311-.055.437-.055,3.76,0,3.814A6.48,6.48,0,0,0,139.5,8c1,.03,1.085-.022.749-.444a1.056,1.056,0,0,1-.174-.268c0-.08-.257-.3-.419-.362a.847.847,0,0,1-.3-.263.706.706,0,0,0-.281-.243c-.189-.051-.293-.245-.337-.628s-.023-.4.379-.614a2.119,2.119,0,0,0,.43-.343c.281-.293.384-.259.438.145s.184.618.4.694a2.194,2.194,0,0,1,.977,1.065,1.494,1.494,0,0,0,.174.394c.039.032.034.06-.015.08a.123.123,0,0,0-.075.1.741.741,0,0,1-.084.23,1.742,1.742,0,0,0-.127.357c-.091.414-.237.56-.609.611a1.244,1.244,0,0,0-.614.275c-.16.168-.227.18-.455.083a1.517,1.517,0,0,0-1.132-.13,1.041,1.041,0,0,1-1.1-.076c-.181-.182-.184-.192-.189-.822,0-.351-.023-.773-.046-.937a1.738,1.738,0,0,1,.028-.568,1.569,1.569,0,0,0,.025-.551,6.31,6.31,0,0,1,.094-1.8,2.7,2.7,0,0,1,.7-.991c.666-.249.788-.258,1.143-.079m-7.734,0c.292.173.452.807.25.991-.522.473-1.5.182-1.422-.421a.759.759,0,0,1,1.172-.57M36.17,3.1c1.107.132,2.2.869,2.306,1.548a2.484,2.484,0,0,0,.124.48,3.064,3.064,0,0,1-.041,1.521,1.944,1.944,0,0,1-.368.976c-.3.369-.493.569-.543.569a.48.48,0,0,0-.2.146c-.237.255-.542.347-1.218.366-.518.014-.65.038-.79.141a1.055,1.055,0,0,1-.871.059,2.648,2.648,0,0,0-.673-.059c-1.161.014-1.294-.166-1.259-1.7,0-.165.015-.931.026-1.7.026-1.955.021-1.884.143-2.035a1.449,1.449,0,0,1,1.072-.185,1.241,1.241,0,0,0,.834-.195,6.078,6.078,0,0,1,1.452.07m91.972.134c.938.425,1.419,1.343.992,1.891-.391.5-.637.739-.763.739-.194,0-.269.151-.237.482s.006.284.765,1.064c.741.762.612,1.381-.289,1.384-.6,0-.821-.174-1.213-.979-.171-.352-.69-.933-.833-.933s-.212.364-.181.921c.042.753-.024.89-.474.986-.75.161-1.209-.188-1.084-.824a10.386,10.386,0,0,0,.007-2.369c-.046-.056-.053-.176-.02-.37a1.857,1.857,0,0,0,.034-.377c-.234-1.431.012-1.782,1.205-1.719a2.474,2.474,0,0,0,.844-.048,1.764,1.764,0,0,1,1.248.154m-30.1.007c.071.044.129.1.129.122a.331.331,0,0,0,.093.134.32.32,0,0,1,.09.2c0,.058-.023.6-.046,1.211s-.034,1.456-.025,1.883.022.989.027,1.249c.014.609-.069.688-.743.7-.717.017-1.042-.24-.889-.7a4.925,4.925,0,0,0,.1-1.526,3.22,3.22,0,0,0-2.407-.025,2.267,2.267,0,0,0-.1,1.3c.07.817-.118,1.066-.8,1.066-.586,0-.81-.282-.759-.957.021-.279.032-.643.024-.807-.017-.378-.015-.546.018-1.465A3.53,3.53,0,0,0,92.688,4.6c-.256-.859.072-1.493.773-1.494.664,0,.819.226.821,1.208,0,.895,0,.9.626,1a2.267,2.267,0,0,0,1.385-.036,2.487,2.487,0,0,1,.339-.188L96.8,5.02l-.042-.642c-.074-1.139.484-1.637,1.278-1.141m-11.99.342a2.619,2.619,0,0,1,.46,1.074,1.378,1.378,0,0,0,.4.732c.149.08.149.08-.138.19-.386.15-.436.232-.438.729a3.744,3.744,0,0,1-.053.646,1.292,1.292,0,0,0,.388,1.112c.384.4.268.591-.443.725a1.285,1.285,0,0,1-1.092-.3l-.194-.174-.022-1.151A7.035,7.035,0,0,0,84.8,5.672c-.1-.35-.1-.336.1-1.307.113-.547.273-.737.745-.885.19-.06.236-.048.406.1m34.759.021c.147.072.232.267.348.795.043.2.107.466.142.6.1.4.08.538-.137.782l-.2.227.017.751c.022.932.158,1.278.555,1.4.423.134.064.627-.468.643-.688.02-1.206-.168-1.316-.477a1.959,1.959,0,0,0-.117-.265,4.471,4.471,0,0,1-.062-.927,7.819,7.819,0,0,0-.062-1.092c-.344-1.548.375-2.894,1.3-2.439m-86.252.386c-.392.277-.416.323-.341.648a15.313,15.313,0,0,1,.048,2.361,1.115,1.115,0,0,0,.252.942c.286.3.734.278,1.515-.079a1.124,1.124,0,0,1,.232-.086c.1,0,.357-.35.515-.7a1.747,1.747,0,0,1,.229-.408,2.046,2.046,0,0,0-.022-1.06,4.309,4.309,0,0,1-.12-.466c-.069-.383-.35-.9-.514-.936a.72.72,0,0,1-.212-.085,2.451,2.451,0,0,0-1.582-.135m91.93.161a2.846,2.846,0,0,0-.009,1.435c.1.141.682.091.82-.071a1.163,1.163,0,0,0,.032-1.371.665.665,0,0,0-.842.007m-13.713.734c.462.3.5.369.7,1.217a1.456,1.456,0,0,1,.065.822,2.351,2.351,0,0,0,0,1.083c.138.644-.387,1.012-1.093.765-.4-.138-.466-.244-.467-.722a3.828,3.828,0,0,0-.056-.66.505.505,0,0,1,.013-.359c.242-.441-.044-1.349-.425-1.349a.936.936,0,0,1-.269-.056c-.308-.117-.436.452-.409,1.816.024,1.188-.027,1.3-.618,1.37-.616.074-1.122-.289-.985-.706a1.164,1.164,0,0,0,.034-.47c-.02-.138-.043-.555-.051-.927L109.2,6.03l-.209-.174a.586.586,0,0,0-.828-.025c-.11.14-.119.242-.118,1.375V8.429l-.209.209a.715.715,0,0,1-1.072-.028l-.27-.237.05-.286c.027-.157.057-.923.067-1.7l.017-1.416.176-.183a.952.952,0,0,1,1.274.133l.135.123.135-.123a1.284,1.284,0,0,1,1.39-.194c.746.473,1.3.572,1.365.244.1-.48.993-.527,1.673-.089m5.51-.174c.2.144.194.125.184,2.062l-.009,1.717-.146.156c-.232.248-.322.275-.607.182-.686-.226-1.167-.235-1.39-.029a1.964,1.964,0,0,1-.9,0,.478.478,0,0,0-.228-.092c-.279-.055-.414-.191-.63-.633l-.189-.39L114.335,6.3c-.042-1.555-.051-1.519.408-1.643.781-.21,1.245.216,1.164,1.068a3.056,3.056,0,0,0,.009.611,2.287,2.287,0,0,1,0,.566c-.09.592.137.989.59,1.033l.3.028.1-.261a5,5,0,0,0,.122-1.427c.024-1.251.07-1.459.352-1.6a.907.907,0,0,1,.911.031m-77.768-.04a1.311,1.311,0,0,1,.355.244l.187.18.292-.176c.52-.315.915-.159,1.059.418.06.239-.119.39-.731.617a1.144,1.144,0,0,0-.508.349l-.186.23v1a7.331,7.331,0,0,1-.046,1.067,1.127,1.127,0,0,1-1.253.123c-.135-.135-.135-.136-.119-1.988l.015-1.853.164-.134a.816.816,0,0,1,.773-.071m7.812.026a1.542,1.542,0,0,0,1.018,0,1.41,1.41,0,0,1,1.21.074.986.986,0,0,0,1.208.147,1.391,1.391,0,0,1,1.669-.086c.731.6.8.778.7,1.9a5.158,5.158,0,0,0,.036,1.078,1.487,1.487,0,0,1,.018.667c-.4.642-1.6.378-1.454-.321a11.1,11.1,0,0,0,.033-1.145c-.006-1.105-.02-1.14-.508-1.265-.552-.141-.678.037-.661.94a12.249,12.249,0,0,1-.067,1.759c-.014.008-.083.065-.155.125a1.11,1.11,0,0,1-.882.154c-.529-.1-.531-.107-.537-1.491l-.005-1.2-.2-.174a.672.672,0,0,0-.339-.175.8.8,0,0,1-.231-.033c-.056-.022-.133.04-.215.172-.136.22-.145.338-.134,1.665.008,1-.055,1.13-.605,1.276-.708.188-1.037-.14-.937-.935a5.2,5.2,0,0,0,.023-.928,1.789,1.789,0,0,1,.028-.635.527.527,0,0,0,.011-.355,3.52,3.52,0,0,1-.1-.626L47.217,4.8l.231-.095a1.145,1.145,0,0,1,.879-.017m32.312,0a.8.8,0,0,1,.312.135c.008.176.3.253.432.114a1.107,1.107,0,0,1,.9-.34c.505,0,.666.077,1.226.581l.317.286.028,1.4c.015.771.04,1.413.054,1.427.154.154-.288.489-.644.489-.813,0-.893-.137-.855-1.46.037-1.288.038-1.283-.3-1.487-.311-.188-.361-.194-.607-.071-.333.166-.337.183-.372,1.565-.039,1.564-.143,1.72-.965,1.445-.476-.16-.472-.143-.467-1.691.009-2.535.057-2.657.94-2.394m21.548.05c.09.022.164.066.164.1s.037.059.082.059c.655,0,1.259,1.508.782,1.951a2.559,2.559,0,0,1-1.549.083c-.5-.083-.659.055-.6.532.062.5.568.762,1.165.609a.979.979,0,0,1,.875.168c.1.131,0,.206-.5.359a1.946,1.946,0,0,0-.587.281c-.118.109-.18.132-.237.085a3.853,3.853,0,0,0-.757-.186c-.772-.14-.819-.163-1.258-.626a2,2,0,0,1,.451-3.08,1.566,1.566,0,0,0,.423-.232.584.584,0,0,1,.425-.127,4.569,4.569,0,0,0,.564-.048.755.755,0,0,1,.329,0,.944.944,0,0,0,.224.079M131.313,4.7c.3.142.3.139.306,1.784,0,.822.028,1.567.053,1.655.112.4-.3.687-.882.615-.6-.075-.589-.043-.615-1.877-.029-2.044.033-2.221.8-2.268a.9.9,0,0,1,.341.091M57.942,4.84a.662.662,0,0,0,.222.122.863.863,0,0,1,.24.1c.213.122.257.2.6,1.121.025.066.075.193.11.282.113.282-.633.65-1.066.526a2.95,2.95,0,0,0-1.431.045c-.18.146-.078.67.161.826a3.9,3.9,0,0,0,1.265.263c.31,0,.463.162.294.309a.475.475,0,0,1-.18.111,1.132,1.132,0,0,0-.275.141c-.378.239-.761.248-1.706.044a1.063,1.063,0,0,1-.538-.3,1.618,1.618,0,0,0-.347-.272A2.419,2.419,0,0,1,54.841,6.7c.121-.892.41-1.393.938-1.626.148-.065.377-.169.508-.232a2.15,2.15,0,0,1,1.654,0m20,.037c.067.063.237.209.377.324.494.4.67,1.363.31,1.684a1.235,1.235,0,0,1-1.156.105c-.721-.284-1.007-.142-1.007.5,0,.434.187.516,1.391.612.5.039.725.156.571.294a2.98,2.98,0,0,1-2.272.347,1.453,1.453,0,0,1-1.138-.793,3.087,3.087,0,0,0-.228-.3c-.522-.4.02-2.256.752-2.572a1.4,1.4,0,0,0,.354-.216,3.239,3.239,0,0,1,2.045.013m57.5-.033a.778.778,0,0,0,.293.117c.226,0,.789.667.835.988a3.266,3.266,0,0,0,.113.5c.147.419-.931.751-1.777.548-.423-.1-.963.1-.789.29a.73.73,0,0,1,.133.291c.072.359.668.617,1.123.487.358-.1.959.119.841.31a1.476,1.476,0,0,1-.668.295,1.15,1.15,0,0,0-.349.087,1.384,1.384,0,0,1-.893.043,4.323,4.323,0,0,0-.578-.1c-.352-.037-.361-.043-.84-.547-.541-.569-.573-2.275-.05-2.6.068-.042.123-.1.123-.139,0-.1.221-.262.5-.368a1.573,1.573,0,0,0,.371-.2c.192-.165.269-.178.863-.145a1.615,1.615,0,0,1,.754.149M101.2,5.191a.39.39,0,0,0-.1.194,1.278,1.278,0,0,1-.118.324c-.151.313-.148.4.022.56.145.137.246.157.678.138.451-.02.437-.6-.027-1.056-.312-.307-.32-.31-.455-.161m-44.381.053a1.147,1.147,0,0,0-.437.777c0,.242.169.376.473.376.528,0,.717-.3.534-.843-.136-.4-.253-.468-.571-.31m77.636,0a1.307,1.307,0,0,0-.413.809c0,.356.674.476,1.018.181.171-.147.148-.277-.121-.673-.291-.429-.3-.432-.484-.317m-57.888.049a.341.341,0,0,0-.1.2.263.263,0,0,1-.055.16.529.529,0,0,0,.035.675l.17.184.309-.1c.4-.127.467-.259.368-.739-.046-.222-.107-.363-.166-.379-.341-.095-.471-.1-.564,0m-15.153.482A1.536,1.536,0,0,0,61.4,7.828l.288.3.3-.1c.4-.127.489-.374.489-1.323,0-.778-.131-1.2-.372-1.205a1.351,1.351,0,0,1-.256-.029c-.087-.021-.206.062-.438.3m10.354-.048c-.6.547-.626,1.865-.048,2.174.469.251.929.085,1.015-.368a.861.861,0,0,1,.088-.269,4.709,4.709,0,0,0-.226-1.652c-.236-.226-.5-.19-.828.115M88.508,7.384c.864.262.812,1.268-.071,1.368-.6.068-.852-.132-.852-.691,0-.6.341-.853.923-.677m-22.5.039a.7.7,0,0,1,.321,1.117c-.23.2-.621.34-.74.266a1.155,1.155,0,0,0-.291-.1c-.608-.133-.546-1.079.083-1.268a.781.781,0,0,1,.627-.01m-22.385.125a.8.8,0,0,1,.059,1.026.963.963,0,0,1-1.317-.086.818.818,0,0,1,.327-1.032,1.347,1.347,0,0,1,.931.092m74.547,5.195c.129.129.152.216.179.682.056.963.132,1.284.292,1.223a1.758,1.758,0,0,1,2.413,2.032,9.2,9.2,0,0,0-.045.938c-.005.82-.084.957-.573,1.012-.669.074-1.014-.228-.922-.807a2.332,2.332,0,0,0,0-.585,1.889,1.889,0,0,1,.01-.548c.154-.746-.168-1.267-.721-1.165l-.275.051-.108.439a4.466,4.466,0,0,0-.089,1.285c.02.947-.016,1.157-.23,1.312a.871.871,0,0,1-.941-.142L117,18.3l-.015-1.784c-.008-.981-.011-2.2-.007-2.707l.009-.924.194-.174a.787.787,0,0,1,.99.028m-9.781.371c.312,0,.951-.027,1.419-.052,1.282-.067,1.776.19,1.333.695a1.074,1.074,0,0,0-.215.368,1.09,1.09,0,0,1-.243.384,2.931,2.931,0,0,0-.369.522,2.829,2.829,0,0,1-.362.512,2.378,2.378,0,0,0-.348.523,1.007,1.007,0,0,1-.19.315.843.843,0,0,0-.189.269.8.8,0,0,1-.193.269c-.025,0-.046.028-.046.063a1,1,0,0,1-.184.293c-.318.4.091.716.753.591a5.05,5.05,0,0,1,.693-.048,2.728,2.728,0,0,0,.638-.066.392.392,0,0,1,.377.036c.374.194.431.284.385.617l-.041.3-.3.065a1.63,1.63,0,0,1-.488.033c-.1-.018-1.086-.041-2.185-.052l-2-.02-.168-.2c-.21-.251-.215-.469-.015-.657a2.03,2.03,0,0,0,.282-.354,2.546,2.546,0,0,1,.3-.379.591.591,0,0,0,.167-.247.816.816,0,0,1,.237-.292,2.141,2.141,0,0,0,.391-.517,2.948,2.948,0,0,1,.351-.525,3.193,3.193,0,0,0,.338-.476c.077-.14.163-.254.19-.254a.741.741,0,0,0,.183-.284,2,2,0,0,1,.206-.361c.273-.289-.208-.454-1.175-.4-.873.045-1.224,0-1.4-.193-.227-.251.358-.578.914-.511a9.068,9.068,0,0,0,.957.04m32.184.4c.2,0,.249.121.282.655.028.465.051.554.161.631a1.328,1.328,0,0,1,.255.268l.127.178-.265.241c-.432.392-.546,2.32-.139,2.332s.528.816.127.939a2.12,2.12,0,0,1-1.467-.4c-.21-.174-.227-.279-.264-1.591a11.578,11.578,0,0,0-.087-1.285,1.665,1.665,0,0,1,0-.6l.113-.682a.862.862,0,0,1,1.01-.7.664.664,0,0,0,.15.024m-25.79,1.06a1.121,1.121,0,0,0,.356.2c.687.22.8.462.849,1.877a5.416,5.416,0,0,0,.249,1.931c.077.1.03.145-.316.329l-.269.143-.239-.151a1.627,1.627,0,0,0-.954-.251,1.389,1.389,0,0,1-1.284.036.747.747,0,0,0-.273-.127.8.8,0,0,1-.6-.547,2.1,2.1,0,0,0-.16-.353c-.15-.192.24-1.032.484-1.04.019,0,.2-.026.414-.056.646-.094.791.042.644.6-.173.657.279.952.767.5.277-.256.194-.991-.122-1.07-.339-.085-.415-.188-.223-.3a1.192,1.192,0,0,0,.3-.286l.132-.186-.134-.124c-.325-.3-.445-.344-.776-.281-.779.149-.854.146-.995-.032l-.129-.164.138-.105a.91.91,0,0,1,.295-.14.714.714,0,0,0,.3-.187,1.325,1.325,0,0,1,1.545-.216m14.814.041a1.736,1.736,0,0,0,.395.154c.181,0,.586.369.707.645a3.186,3.186,0,0,1,.141,1.3,6.026,6.026,0,0,0,.234,1.891c.115.276-.757.452-1.149.232-.205-.115-.545-.23-.562-.19-.105.23-.92.319-1.224.134a2.3,2.3,0,0,0-.448-.193c-.6-.18-.974-.855-.7-1.274.646-1,2.1-1.1,1.58-.113-.273.523.257.918.663.494.189-.2.178-.267-.153-.955l-.161-.333.135-.175c.237-.308.237-.454,0-.668l-.207-.189-.575.065c-.934.106-1.128-.172-.377-.539a.767.767,0,0,0,.284-.188c0-.294.891-.354,1.42-.1m6.844-.049c.191.1.194.222.007.25a.691.691,0,0,0-.295.253c-.314.425-.562.394-.714-.091-.168-.533.354-.747,1-.412M23.06,14.589c.541.128.815.464.732.9a11.565,11.565,0,0,0-.054,1.272c0,1.677.066,1.625-2.228,1.626H19.851l-.166-.166c-.371-.371-.2-3.375.191-3.394a3.883,3.883,0,0,0,.856-.152,2.737,2.737,0,0,1,.658-.09,2.614,2.614,0,0,0,.551-.056,2.809,2.809,0,0,1,1.118.063m42.192-.043c.263.263.288.428.277,1.832-.015,2.069.067,1.975-1.771,2.022-1.576.04-2.045,0-2.3-.215l-.191-.16-.058-1.046c-.032-.575-.072-1.214-.09-1.42-.022-.25-.011-.374.032-.374a.072.072,0,0,0,.065-.078.754.754,0,0,1,.209-.281l.209-.2,1.54-.014a14.026,14.026,0,0,0,1.689-.075c.206-.083.295-.081.385.01m60.048.164a2.1,2.1,0,0,1,.565.375,4.1,4.1,0,0,1,.145,1.595,5.431,5.431,0,0,0-.021.919c.054.955-.164,1.2-.9,1.035-.524-.121-.52-.109-.554-1.492-.037-1.479-.032-1.467-.7-1.615-.25-.055-.465.367-.449.885,0,.1.019.525.035.947.038.978-.058,1.2-.557,1.264-.766.105-1.042-.221-.97-1.146a6.625,6.625,0,0,0,.024-.859,2.163,2.163,0,0,1,.03-.522.869.869,0,0,0,.021-.345c-.484-.484.136-1.316.806-1.083a1.49,1.49,0,0,0,1.135.036,2.213,2.213,0,0,1,.841-.228,2.815,2.815,0,0,1,.548.234m7.33-.1a1.105,1.105,0,0,0,1.13.123c.348-.177.289-.177.477,0a.712.712,0,0,1-.471,1.23c-.526.047-.58.178-.558,1.343.023,1.206-.042,1.358-.617,1.434-.786.1-.893-.129-.844-1.829a6.887,6.887,0,0,0-.033-1.491.729.729,0,0,1,.3-.795c.241-.19.273-.191.611-.011m5.71-.04a.5.5,0,0,1,.222.254.7.7,0,0,0,.123.25c.078.09.049.138-.283.474a3.031,3.031,0,0,0-.549.749,1.482,1.482,0,0,1-.319.466,1.4,1.4,0,0,0-.308.391.985.985,0,0,1-.213.3c-.126,0-.018.254.17.4a.394.394,0,0,0,.479.093c.5-.133.65-.036.714.445s-.53.609-1.408.279a2.557,2.557,0,0,0-.9.043c-1.021.172-1.478-.329-.9-.989a2.6,2.6,0,0,0,.3-.386,1.057,1.057,0,0,1,.182-.243,1.1,1.1,0,0,0,.216-.34c.019-.075.058-.136.088-.136s.053-.034.053-.075a1.1,1.1,0,0,1,.27-.338,1.241,1.241,0,0,0,.3-.418c.252-1.135.989-1.647,1.754-1.217M6.416,14.656a2.4,2.4,0,0,0,.6.027c.39-.073.461.231.434,1.855-.033,1.98.148,1.846-2.491,1.846-2.177,0-2.236-.037-2.127-1.337.021-.251.06-.768.087-1.149.066-.932.114-1.01.716-1.151a7.348,7.348,0,0,1,2.779-.092m24.4-.053c.613,0,.867.089.867.319a.111.111,0,0,0,.07.1c.082.027.076.432-.013.989a1.451,1.451,0,0,0,0,.615,4.067,4.067,0,0,1,.075.73c.023,1.026.012,1.031-2.144,1.031-2.275,0-2.11.137-2.131-1.764-.022-1.879.018-1.943,1.23-2.01a5.31,5.31,0,0,0,.7-.063,1.414,1.414,0,0,1,.388.017c.2.024.628.042.957.04m7.06.01c2.062-.036,1.992-.1,2.007,1.93.015,1.975.166,1.847-2.16,1.822-1.952-.021-2.056-.041-2.116-.419a28.692,28.692,0,0,1,0-2.971c.126-.345.247-.435.516-.385.141.027.931.036,1.756.022m10.813,0a1.157,1.157,0,0,1,.387.338l.183.253-.033,1.172c-.058,2.079.02,2.008-2.21,2.008-1.892,0-2.025-.029-2.15-.471a11.068,11.068,0,0,1,.015-3.026c.153-.312.133-.308,1.388-.274.641.018,1.354.009,1.584-.018.619-.074.615-.074.835.018m23.532,0c.627.038.98.164,1.126.4a9.847,9.847,0,0,1,.121,2.554c-.085.835-.027.813-2.15.813-1.653,0-1.584.009-1.875-.249A6.825,6.825,0,0,1,69.261,15c.317-.369.352-.38,1.313-.413.494-.017.939-.026.988-.019s.348.028.663.047m7.558,0c1.589.1,1.934.254,1.951.846,0,.16.015.4.022.53s.035.66.06,1.175l.046.936-.263.14a11.952,11.952,0,0,1-3.649.036l-.337-.1-.065-.374c-.222-1.274-.023-3.006.361-3.128a5.318,5.318,0,0,1,1.155-.113c.1.011.421.036.717.056m-64.3.256.208.215.049,1.051c.11,2.381.188,2.3-2.319,2.267-1.833-.027-1.79-.013-1.921-.633a6.986,6.986,0,0,1,.2-2.937c.138-.186.958-.249,2.645-.2l.927.025.208.215m41.7-.112c.367.589.376,3.189.013,3.507-.125.109-.234.116-1.886.116H53.558l-.175-.2-.175-.2V16.618c0-1.467.028-1.612.368-1.894a13.2,13.2,0,0,1,3.608.037" fill="#90d8f7" fill-rule="evenodd"/>
      <path id="path1" d="M163.488,8.372c-.181.157-.2.458-.091,1.659a8.232,8.232,0,0,1,0,1.943c-.094,1.53-.085,1.637.145,1.76.395.211.726-.4.543-.994a6.111,6.111,0,0,1-.091-2.333,5.309,5.309,0,0,0-.041-1.969c-.251-.2-.3-.2-.462-.066m-41.825.173a1.213,1.213,0,0,0-.028.586,6.344,6.344,0,0,1,.024.781,8.306,8.306,0,0,0,.06,1.676,2.386,2.386,0,0,1,.008.867c-.241,1.3-.248,1.259.225,1.242s.546-.243.465-1.506c-.024-.382-.038-.8-.03-.933s.017-.817.021-1.525l.007-1.285-.34-.018c-.3-.016-.348,0-.411.116m10.316.057a18.737,18.737,0,0,0,.028,2.984c.122.44.167.95.087.98-.191.074-.25,1.008-.071,1.121.14.089.645.059.683-.04a18.965,18.965,0,0,0,.033-2.87c-.009-2.348,0-2.277-.438-2.337-.276-.037-.278-.037-.321.161m57.784.09c-.491.263-.414.479.154.432.228-.019.233-.024.213-.228-.034-.343-.07-.363-.367-.2m7.038.157a.509.509,0,0,0-.1.266,1.848,1.848,0,0,1-.251.744c-.209.132-.17,1.151.052,1.348l.144.128-.126.469a6.394,6.394,0,0,0-.16,1.157l-.034.688.207.075c.4.145.756.041.636-.185a38.885,38.885,0,0,1-.038-4.186c.077-.463-.116-.764-.325-.5M92.15,8.934c-.3.1-.359.287-.29.849a11.859,11.859,0,0,1,.021,2.173c-.144,1.418.188,2.045.938,1.774l.186-.067-.132-.276a16,16,0,0,1-.068-4.148c.138-.21.138-.208-.112-.312s-.221-.106-.544.008m59.875.023c-.092.1-.1.2-.044.975.032.475.041,1.317.02,1.871-.06,1.593-.058,1.667.032,1.836s.216.192.543.074l.209-.076v-.981c0-.867.013-1,.114-1.149.111-.164.111-.178.008-.508a3.621,3.621,0,0,1-.1-1.184l.008-.845-.266-.067c-.343-.086-.4-.08-.524.055M95.2,8.985l-.172.072.342.1c.319.095.344.116.382.317a.937.937,0,0,0,.188.381,2.543,2.543,0,0,1,.449,1.621.918.918,0,0,0-.1.316,2.971,2.971,0,0,1-.437,1c-.251.4-.117.886.153.56a1.044,1.044,0,0,1,.28-.184,2.151,2.151,0,0,0,.872-1.436c.12-.587-.047-1.7-.255-1.7-.023,0-.061-.074-.083-.165a.853.853,0,0,0-.48-.521,1.234,1.234,0,0,1-.3-.2.968.968,0,0,0-.839-.163m60.9,0a2.973,2.973,0,0,0-.12,1.005,6.2,6.2,0,0,1-.108,1.075c-.092.22-.089.253.032.373.087.087.1.256.118,1.148.018,1.189.023,1.2.492,1.188.411-.01.465-.161.364-1.02-.042-.364-.077-.8-.078-.96,0-.261.007-1.215.013-1.554,0-.066.02-.357.041-.647a1.745,1.745,0,0,0-.014-.577.9.9,0,0,0-.741-.031m28.11-.013c-.081.1-.089.368-.078,2.728.011,2.254-.006,2.192.553,2.037.3-.084.39-1.023.113-1.195q-.073-.045-.01-.084c.172-.106.479-1.074.363-1.146a3.749,3.749,0,0,1-.1-2.041c.083-.239.081-.248-.058-.311a1.126,1.126,0,0,0-.785.012m2.286.052a.11.11,0,0,0,.046.135c.253.188.364.579.354,1.245-.008.557.3.677.5.2a.779.779,0,0,1,.242-.3c.21-.138.168-.594-.08-.862a3.66,3.66,0,0,1-.265-.325c-.118-.169-.7-.231-.8-.085M199.189,9a.256.256,0,0,0,.016.162c.04.111.044.11.076-.015s-.038-.241-.092-.147m-54.808.466a1.715,1.715,0,0,0-.3,1.283,10.291,10.291,0,0,0,.2,2.6.864.864,0,0,1,.1.232c0,.186.426.275.618.129.094-.071.1-.1.035-.222a3.714,3.714,0,0,1-.17-1.747c.132-2.288.051-2.671-.486-2.276m34.627,0a4.073,4.073,0,0,0-.15,1.594,7.578,7.578,0,0,1,.058,1.092c.017,1.456.179,1.739.894,1.56l.152-.038-.242-.222-.243-.222-.06-.962c-.062-1.009-.034-1.2.211-1.4.107-.089.108-.2,0-.493a.776.776,0,0,1-.023-.478c.088-.392-.371-.721-.6-.429m-2.421.957a1.215,1.215,0,0,1-.275.206,26.391,26.391,0,0,0-.08,2.885c.018.1.07.164.125.164a1.181,1.181,0,0,1,.288.071c.378.137.382.121.36-1.724-.022-1.9-.034-1.945-.418-1.6m-67.556-.014c-.159.121-.226.378-.122.465a2.385,2.385,0,0,1,.427,1.938c-.121.49-.079.832.112.919.411.187.572.006.558-.63-.005-.258,0-.671.011-.917.065-1.4.056-1.44-.408-1.561a1.028,1.028,0,0,1-.367-.175c-.094-.088-.137-.1-.212-.039m64.736.086c-.15.157-.155.183-.11.583.025.23.049.768.052,1.2a2.673,2.673,0,0,0,.1.986,2.867,2.867,0,0,1,.119.29c.056.2.689.3,1.064.164.208-.075.208-.075.053-.114a1.409,1.409,0,0,1-.622-.585,8.643,8.643,0,0,1-.061-2.094c.034-.126.005-.2-.147-.374-.228-.26-.249-.262-.449-.052m-67.125.107c-.119.25-.124.462-.031,1.165a2.842,2.842,0,0,1,0,.933c-.162.983.292,1.431.676.668.154-.307.153-.436-.007-.932a1.229,1.229,0,0,1,0-.871c.319-.722.31-.826-.086-1.027s-.435-.188-.555.063m5.037-.135c-.223.173-.227.284-.017.489.274.266.325.589.279,1.761l-.038.952.234.065c.6.166.609.14.613-1.195,0-1.493-.043-1.707-.427-1.955-.313-.2-.491-.235-.645-.116m54.2.1a6.917,6.917,0,0,0,0,1.351,6.948,6.948,0,0,1-.038.876c-.066.613.01,1.033.179.984.056-.017.2-.047.323-.069.277-.049.293-.136.272-1.5a3.7,3.7,0,0,1,.051-1.046c.269-.34.062-.685-.436-.727-.292-.024-.312-.017-.35.129m2.259-.1c-.144.18-.135.313.031.424.393.265.4.311.392,1.6s0,1.337.294,1.337c.576,0,.776-.458.465-1.068a.914.914,0,0,1,.033-.847.857.857,0,0,0-.6-1.338.7.7,0,0,1-.269-.088c-.187-.107-.268-.11-.344-.015m2.813-.027c-.21.133-.178.314.11.619a1.058,1.058,0,0,1,.3,1.086c-.3.786.128,2.053.531,1.568a14.1,14.1,0,0,0-.048-2.842c-.083-.253-.7-.551-.889-.431m-71.925.177a2.313,2.313,0,0,0-.175,1.7c.067.161.074.227.022.244a1.788,1.788,0,0,0-.006,1.16c.433.316.7.065.678-.63a5.476,5.476,0,0,1,.046-1.533c.3-.781-.057-1.38-.565-.942m42.387-.071c-.156.109-.169.221-.04.328.227.188.275.47.286,1.664.012,1.33.014,1.335.466,1.209l.261-.074,0-.968a5.047,5.047,0,0,0-.075-1.136,1.552,1.552,0,0,1-.072-.486c0-.489-.462-.791-.824-.538m48.019.056a1.872,1.872,0,0,0,.1,1.141.627.627,0,0,1-.032.441,3.909,3.909,0,0,0-.055,1.356c.038.143.6.253.708.14a15.177,15.177,0,0,0-.012-3.091.485.485,0,0,0-.707.014m-50.244-.036-.209.037-.005,1.046a6.031,6.031,0,0,1-.075,1.215c-.2.484-.038.894.373.941.452.052.454.046.444-1.248a9.577,9.577,0,0,1,.063-1.446c.069-.32.067-.333-.084-.463s-.169-.142-.507-.082m-38.858.123-.148.113.163.074c.244.111.51-.032.362-.194-.124-.137-.192-.136-.378.007m19.021.005a.43.43,0,0,0-.135.224.771.771,0,0,1-.119.282,1.706,1.706,0,0,0-.043,2.029.756.756,0,0,1,.168.224c0,.156.254.288.553.287.437,0,.543-.079.3-.218a2.229,2.229,0,0,1-.459-1.9c.109-.453.144-.526.347-.711.18-.164.182-.173.07-.254a.622.622,0,0,0-.679.037m10.3-.022a2.007,2.007,0,0,0-.242,2.582,1.143,1.143,0,0,1,.244.314c.031.1.1.113.465.111.415,0,.423-.005.242-.084-.51-.222-.64-2.028-.193-2.672.18-.26-.27-.477-.517-.25m6.9.043a2.853,2.853,0,0,0,.115,1.184c.15.15.607.124.668-.038a.767.767,0,0,0-.273-.98c-.381-.352-.42-.364-.51-.166m-21.765.02a1.462,1.462,0,0,0-.162.24.375.375,0,0,1-.21.169c-.449.113-.425,1.842.029,2.073a2.611,2.611,0,0,1,.4.265.939.939,0,0,0,.923.231l.317-.072-.209-.037c-.735-.128-.777-.151-.778-.423a1.719,1.719,0,0,0-.1-.456,2.854,2.854,0,0,1-.061-1.107c.037-.889.006-1.064-.152-.883m46.441-.009a3.914,3.914,0,0,0,.027,1.253c.4.244.948-.5.609-.822a.877.877,0,0,1-.254-.322c0-.154-.329-.248-.382-.109m30.977-.011a.272.272,0,0,0-.1.182.642.642,0,0,1-.192.292,1.84,1.84,0,0,0-.1,1.634c.173.354.635.858.785.858a.561.561,0,0,1,.221.059.418.418,0,0,0,.34-.026c.127-.046.189-.086.138-.089a1.183,1.183,0,0,1-.536-.505.767.767,0,0,0-.092-.254,2.763,2.763,0,0,1-.077-1.128c.018-1.125-.042-1.282-.384-1.023m2.264.006c-.089.067-.107.138-.084.343a2.882,2.882,0,0,1-.011.569c-.044.345-.018.375.325.375.412,0,.507-.454.21-1.01-.2-.383-.256-.416-.44-.276m-77.563.013c-.242.047-.107,1.03.165,1.2.255.16.443-.429.282-.883-.132-.371-.139-.376-.447-.316m17.405.182a.758.758,0,0,1-.094.234,4.13,4.13,0,0,0-.227,1.03.669.669,0,0,0,.062.537,1.175,1.175,0,0,1,.118.276.475.475,0,0,0,.38.33.167.167,0,0,1,.192.151c.051.2.194.269.573.261.316-.006.736-.1.506-.108-.309-.017-.752-.2-.791-.323a.37.37,0,0,0-.1-.17,7.132,7.132,0,0,1-.162-2.294c.063-.076.039-.089-.171-.089s-.25.018-.285.164m24.641,0a3.133,3.133,0,0,1-.4.85.8.8,0,0,0,.047.786.767.767,0,0,1,.12.3.764.764,0,0,0,.517.567.273.273,0,0,1,.208.151c.019.074.1.123.247.146l.367.056c.361.055.461-.125.113-.206-.308-.071-.527-.238-.531-.4a1.283,1.283,0,0,0-.182-.34.8.8,0,0,1-.165-.646c.043-1.022,0-1.424-.155-1.424-.106,0-.154.042-.184.162m39.517.171a.558.558,0,0,0-.151.209,2.2,2.2,0,0,0,.43.714,2.3,2.3,0,0,1,.776.671.685.685,0,0,0,.184.224c.024,0,.045.048.045.1,0,.154.146-.019.23-.273.155-.467-.142-.9-1.081-1.592l-.283-.207-.151.151m-12.553.338a.489.489,0,0,0,.147.723,1.256,1.256,0,0,1,.385.48,2.4,2.4,0,0,0,.254.431,2.569,2.569,0,0,1,.259.417c.15.293.156.3.462.316.617.036.668-.3.128-.844a1.335,1.335,0,0,1-.266-.347.338.338,0,0,0-.185-.175c-.173-.066-.348-.431-.407-.849l-.04-.284h-.322c-.265,0-.338.023-.415.133m-61.458,1.691a.626.626,0,0,0-.155.232,1.071,1.071,0,0,1-.037.2c-.055.207.3.344.531.206.191-.113.187-.094.084-.389-.134-.386-.239-.448-.423-.25m22.515-.069c-.126.161-.133.631-.011.7.163.087.658-.039.658-.168,0-.275-.515-.7-.647-.528m-45.214.017c-.053.015-.132.136-.176.269-.113.343-.038.436.373.458s.475-.042.418-.439l-.042-.3-.239-.009a1.526,1.526,0,0,0-.334.018m-6.6.478-.174.1.187.078c.225.095.566,0,.537-.151-.024-.126-.337-.14-.549-.023m81.032,5.108a1.816,1.816,0,0,0-.023.756c.029.289.055,1.3.057,2.258s.01,1.767.016,1.809c.013.082.53.105.646.029a2.953,2.953,0,0,0,.065-.971c0-.51.024-1.169.057-1.465a1.947,1.947,0,0,0-.014-.78,3.245,3.245,0,0,1-.042-.9c.036-.77-.021-.891-.44-.941-.242-.029-.248-.025-.323.2m-7.083.059c-.6.121-.568.1-.568.443a.586.586,0,0,1-.211.537,1.763,1.763,0,0,0-.292.417.931.931,0,0,1-.237.316c-.086.068-.157.144-.157.169a4.1,4.1,0,0,1-.512.8,2.287,2.287,0,0,0-.259.4.876.876,0,0,1-.246.316,1.086,1.086,0,0,0-.275.371,2.48,2.48,0,0,1-.224.379,1.908,1.908,0,0,0-.158.207,1.8,1.8,0,0,1-.2.243c-.284.273.487.446,1.069.239l.3-.107-.019-.3A1.669,1.669,0,0,1,167.6,22a2.7,2.7,0,0,0,.334-.5,2.235,2.235,0,0,1,.265-.419,7.1,7.1,0,0,0,.805-1.107,1.28,1.28,0,0,1,.272-.364,1.221,1.221,0,0,0,.266-.454l.119-.338-.128-.09a.423.423,0,0,0-.16-.082l-.271.056m29.863.485c-.335.1-.374.154-.334.494a1.563,1.563,0,0,1-.043.571c-.269.918.08,3.1.52,3.256.184.065.379-.024.341-.157a6.391,6.391,0,0,1,.089-2.652c.09-.138.088-.163-.032-.394a.909.909,0,0,1-.089-.652c.038-.382-.047-.582-.225-.531l-.228.065m-15.536,1.2c-.225.114-.245.14-.152.192a2.194,2.194,0,0,1,.32.279l.213.218-.033.589a1.52,1.52,0,0,0,.075.824c.135.295.134.315-.015.625s-.11.368.242.485c.449.149.464.1.443-1.45s-.04-1.651-.325-1.749c-.425-.145-.5-.146-.766-.013m12.864-.1a1.18,1.18,0,0,0-.2.429,1.69,1.69,0,0,1-.392.693,1.567,1.567,0,0,0-.267.348.582.582,0,0,1-.179.2.99.99,0,0,0-.263.43,1.762,1.762,0,0,1-.419.638c-.392.42-.383.39-.15.523a.6.6,0,0,0,.916-.437.941.941,0,0,1,.361-.736c.084-.055.154-.133.155-.173,0-.1.175-.3.361-.42a.91.91,0,0,0,.263-.409,1.532,1.532,0,0,1,.371-.559c.284-.272.306-.334.165-.474a1.089,1.089,0,0,0-.724-.056m-17.935.135-.131.109.266.2a1.224,1.224,0,0,1,.383,1.254.964.964,0,0,0,0,.536,1.4,1.4,0,0,1,.012.593c-.07.382.149.585.406.376a8.987,8.987,0,0,0,.1-2.754.681.681,0,0,0-1.034-.314m2.892,0c-.1.1-.1.162-.038.852a4.464,4.464,0,0,1,0,1.169c-.109.706-.09.944.087,1.083l.152.12.206-.122c.234-.138.256-.338.148-1.335a1.812,1.812,0,0,1,.126-1.073.26.26,0,0,0,.052-.15.786.786,0,0,1,.091-.266.535.535,0,0,0,.074-.186.961.961,0,0,0-.9-.093m9.831-.037a12.273,12.273,0,0,0,0,3.168c.145.124.144.124.43,0l.233-.1-.028-.486a2.35,2.35,0,0,0-.087-.592c-.044-.078-.023-.187.082-.415a1.748,1.748,0,0,0,.066-1.248c-.161-.3-.557-.481-.692-.317m1.651.062c-.21.078-.207.116.015.2.155.058.188.053.238-.041.084-.156-.045-.236-.253-.159m-19.071.019c-.1.025-.1.042-.015.2a7.87,7.87,0,0,1,.011,2.614c-.157.175.187.373.649.373.386,0,.473-.263.219-.658-.075-.117-.1-.343-.113-1.033-.024-1.3-.2-1.642-.752-1.5m14.708,0c-.1.026-.094.041.018.193a5.123,5.123,0,0,1,.184,2.482c-.216.282.171.642.555.515.293-.1.325-.187.222-.617a6.56,6.56,0,0,1-.094-1.237c-.008-1.24-.2-1.525-.886-1.335M171.56,22.381c-.275.42-.1,1.064.306,1.132.126.022.27.049.319.061.237.059.326-.135.162-.35a2.452,2.452,0,0,1-.277-.551c-.169-.479-.327-.57-.51-.292m14.835.236a.581.581,0,0,0,.571.96c.422-.064.442-.106.178-.381a.9.9,0,0,1-.273-.481c-.033-.207-.122-.309-.268-.309a.842.842,0,0,0-.208.211m-16.571.805a.158.158,0,0,0,.123.06c.047,0,.086-.027.086-.06s-.055-.06-.123-.06-.107.027-.086.06" transform="translate(-58.893 -5.308)" fill="#18427b" fill-rule="evenodd"/>
      <path id="path2" d="M26.95,40.365a2.613,2.613,0,0,1-.551.056,2.737,2.737,0,0,0-.658.09,3.882,3.882,0,0,1-.856.152c-.393.019-.562,3.024-.191,3.394l.166.166h1.658c2.294,0,2.224.05,2.228-1.626a11.564,11.564,0,0,1,.054-1.272c.126-.651-1.012-1.241-1.85-.96m42.925.01a14.026,14.026,0,0,1-1.689.075l-1.54.014-.209.2a.755.755,0,0,0-.209.281.072.072,0,0,1-.065.078c-.043,0-.054.124-.032.374.018.206.059.844.09,1.42l.058,1.046.191.16c.252.211.721.255,2.3.215,1.837-.047,1.755.047,1.771-2.022.013-1.725-.109-2.065-.663-1.842M9.7,40.43c-1.56.131-1.7.231-1.772,1.308-.027.381-.066.9-.087,1.149-.109,1.3-.05,1.337,2.127,1.337,2.639,0,2.458.134,2.491-1.846.027-1.625-.044-1.928-.434-1.855a2.394,2.394,0,0,1-.6-.027A6.426,6.426,0,0,0,9.7,40.43m24.78-.044a5.311,5.311,0,0,1-.7.063c-1.213.067-1.252.131-1.23,2.01.022,1.9-.144,1.764,2.131,1.764,2.157,0,2.167-.005,2.144-1.031a4.068,4.068,0,0,0-.075-.73,1.451,1.451,0,0,1,0-.615c.089-.557.094-.962.013-.989a.111.111,0,0,1-.07-.1c0-.23-.254-.323-.867-.319-.329,0-.76-.016-.957-.04a1.414,1.414,0,0,0-.388-.016m6.286.154c-.185.268-.2.361-.19,1.711.009,2.12-.2,1.929,2.157,1.955,2.326.025,2.175.152,2.16-1.822-.015-2.034.055-1.966-2.007-1.93-.825.014-1.616,0-1.756-.022-.234-.044-.264-.034-.364.109m12.1-.105c-.23.027-.943.036-1.584.018-1.255-.034-1.235-.038-1.388.274a11.068,11.068,0,0,0-.015,3.026c.126.442.258.471,2.15.471,2.23,0,2.152.071,2.21-2.008l.033-1.172-.183-.253a.938.938,0,0,0-.7-.414c-.058,0-.295.031-.525.058m22.716-.008c-.962.033-1,.044-1.313.413a6.825,6.825,0,0,0,.186,3.135c.29.258.222.249,1.875.249,2.124,0,2.065.022,2.15-.813a9.848,9.848,0,0,0-.121-2.554c-.146-.238-.5-.364-1.126-.4-.315-.019-.614-.04-.663-.047s-.494,0-.988.019m7.888,0c-.924.1-.947.14-.965,1.674a13.029,13.029,0,0,0,.052,1.54l.065.374.337.1a11.952,11.952,0,0,0,3.649-.036l.263-.14-.046-.936c-.025-.515-.052-1.043-.06-1.175s-.018-.37-.022-.53c-.017-.592-.363-.741-1.951-.846-.3-.02-.619-.045-.717-.056a3.856,3.856,0,0,0-.6.026m-65.841.055c-1.068.047-1.2.3-1.2,2.247,0,1.483.007,1.486,1.995,1.515,2.508.037,2.429.114,2.319-2.267L20.7,40.926l-.208-.215-.208-.215-.927-.025c-.51-.014-1.287-.01-1.728.01m41.487-.011c-.487.024-.548.056-.758.388-.138.219-.141.256-.141,1.6v1.375l.175.2.175.2H60.32c2.288,0,2.179.1,2.128-2-.026-1.07-.066-1.323-.254-1.626a15.243,15.243,0,0,0-3.076-.13" transform="translate(-5.009 -25.839)" fill="#ebfbfb" fill-rule="evenodd"/>
      <path id="path3" d="M162.8,7.364c-.462.216-.493.285-.45,1.007.05.842.047,3.5-.005,4.1-.074.851.356,1.149,1.3.9.311-.081.3.06.3-2.941,0-1.052.006-2.093.008-2.313,0-.444-.06-.547-.449-.723-.347-.157-.435-.161-.71-.033m-41.57.016a1.54,1.54,0,0,0-.3.1c-.241.338-.26.475-.153,1.123.122.739-.107.911-.954.716a.89.89,0,0,0-.787.182,1.568,1.568,0,0,1-.256.151,1.016,1.016,0,0,0-.346.31.735.735,0,0,1-.174.214,6.569,6.569,0,0,0-.42,1.431,1.694,1.694,0,0,0,1.405,1.818c.263.055.557.125.653.155a.245.245,0,0,0,.3-.062c.269-.252.4-.258,1.327-.056.279.061.317.056.429-.057.217-.218.326-.424.281-.534a17.961,17.961,0,0,1-.028-2.534,1.682,1.682,0,0,0-.019-.557,4.363,4.363,0,0,1,0-1.175c.105-1.158-.123-1.449-.96-1.224m10.148.019c-.293.253-.327.366-.328,1.09,0,.9.031.865-.727.814-.587-.039-.632-.034-.828.1-.114.077-.329.21-.476.3a2.3,2.3,0,0,0-.769,2.5c.053.115.128.29.165.388a1.394,1.394,0,0,0,1.047.807.252.252,0,0,1,.185.06c.073.118.71.067,1.017-.081a.662.662,0,0,1,.787.1c.131.131.807-.026.931-.216a33,33,0,0,0,.038-5.629.888.888,0,0,0-1.041-.229m65.317.119c-.148.05-.328.113-.4.14a2.7,2.7,0,0,0-.7.991,6.309,6.309,0,0,0-.094,1.8,1.569,1.569,0,0,1-.025.551,1.738,1.738,0,0,0-.028.568c.022.164.043.586.046.937.005.63.008.641.189.822a1.041,1.041,0,0,0,1.1.076,1.517,1.517,0,0,1,1.132.13c.228.1.3.085.455-.083a1.244,1.244,0,0,1,.614-.275c.372-.051.518-.2.609-.611a1.742,1.742,0,0,1,.127-.357.74.74,0,0,0,.084-.23.123.123,0,0,1,.075-.1c.048-.02.054-.048.015-.08a1.494,1.494,0,0,1-.174-.394,2.195,2.195,0,0,0-.977-1.065c-.217-.076-.348-.3-.4-.694s-.158-.439-.438-.145a2.117,2.117,0,0,1-.43.343c-.4.213-.421.245-.379.614s.148.577.337.628a.706.706,0,0,1,.281.243.846.846,0,0,0,.3.263c.162.06.419.282.419.362a1.057,1.057,0,0,0,.174.268c.336.423.249.475-.749.444a6.48,6.48,0,0,1-.892-.061c-.054-.055-.054-3.378,0-3.814.156-1.255,1.407-.979,1.407.311,0,.347.61.049.692-.338a.771.771,0,0,1,.1-.255c.078-.1-.094-.545-.292-.758-.149-.161-.156-.162-.7-.122a1.371,1.371,0,0,1-.727-.048.818.818,0,0,0-.744-.062m-7.935.138c-.274.268-.335.744-.118.93.407.351,1.416.178,1.416-.243a.793.793,0,0,0-1.3-.687m-25.351.138a5.309,5.309,0,0,1,.041,1.969,6.111,6.111,0,0,0,.091,2.333c.183.6-.149,1.205-.543.994-.23-.123-.239-.23-.145-1.76a8.234,8.234,0,0,0,0-1.943c-.147-1.651-.013-2.038.552-1.594m-70.34-.1a1.241,1.241,0,0,1-.834.195,1.449,1.449,0,0,0-1.072.185c-.122.15-.117.08-.143,2.035-.01.773-.022,1.539-.026,1.7-.035,1.534.1,1.714,1.259,1.7a2.648,2.648,0,0,1,.673.059,1.055,1.055,0,0,0,.871-.059c.14-.1.271-.127.79-.141.675-.019.981-.111,1.218-.366a.48.48,0,0,1,.2-.146c.05,0,.241-.2.543-.569a3.781,3.781,0,0,0,.408-2.5,2.484,2.484,0,0,1-.124-.48c-.1-.679-1.2-1.416-2.306-1.548a6.078,6.078,0,0,0-1.452-.07m92.176.05a2.474,2.474,0,0,1-.844.048c-1.193-.062-1.439.288-1.205,1.719a1.849,1.849,0,0,1-.034.377c-.033.194-.026.315.02.37a10.386,10.386,0,0,1-.007,2.369c-.124.636.335.985,1.084.824.45-.1.516-.233.474-.986-.031-.556.04-.921.181-.921s.661.581.833.933c.392.8.61.98,1.213.979.9,0,1.03-.621.289-1.384-.759-.78-.735-.745-.765-1.064s.043-.482.237-.482c.127,0,.372-.237.763-.739.687-.879-1.032-2.449-2.24-2.045m-29.807.1c-.3.183-.375.453-.326,1.2l.042.642-.169.072a2.485,2.485,0,0,0-.339.188,2.267,2.267,0,0,1-1.385.036c-.621-.1-.623-.1-.626-1,0-.983-.157-1.209-.821-1.208-.7,0-1.03.635-.773,1.494a3.529,3.529,0,0,1,.054,1.017c-.033.918-.035,1.086-.018,1.465.008.164,0,.528-.024.807-.05.674.174.957.759.957.687,0,.875-.249.8-1.066a2.267,2.267,0,0,1,.1-1.3,3.22,3.22,0,0,1,2.407.025,4.924,4.924,0,0,1-.1,1.526c-.152.462.173.719.889.7.674-.016.757-.095.743-.7-.006-.259-.018-.821-.027-1.249s0-1.275.025-1.883.044-1.154.046-1.211a.32.32,0,0,0-.09-.2.331.331,0,0,1-.093-.134c0-.205-.815-.34-1.08-.178M121.863,9.088c0,.707-.013,1.393-.021,1.525s.006.551.03.933c.08,1.263.01,1.489-.465,1.506s-.465.057-.225-1.242a2.386,2.386,0,0,0-.008-.867,8.3,8.3,0,0,1-.06-1.676,6.35,6.35,0,0,0-.024-.781c-.06-.637-.005-.725.44-.7l.34.018-.007,1.285M132.11,7.936c.067.091.112,2.357.09,4.634,0,.494-.025.524-.359.523-.361,0-.431-.047-.474-.313a1.4,1.4,0,0,1,.183-.858c.08-.03.035-.54-.087-.98a18.739,18.739,0,0,1-.028-2.984c.05-.227.512-.241.675-.021m57.476.315c.02.2.015.21-.213.228-.568.046-.645-.169-.154-.432.3-.159.333-.139.367.2m-45.6-.107c-.472.148-.633.338-.745.885-.2.971-.2.958-.1,1.307a7.033,7.033,0,0,1,.116,1.488l.022,1.151.194.174a1.285,1.285,0,0,0,1.092.3c.711-.134.827-.325.443-.725a1.292,1.292,0,0,1-.388-1.112,3.744,3.744,0,0,0,.053-.646c0-.5.051-.58.438-.729.287-.111.287-.111.138-.19a1.378,1.378,0,0,1-.4-.732,2.619,2.619,0,0,0-.46-1.074c-.171-.147-.216-.158-.406-.1m52.566.119a.727.727,0,0,1,.026.444,38.87,38.87,0,0,0,.038,4.186c.121.225-.237.329-.636.185L195.778,13l.034-.688a6.393,6.393,0,0,1,.16-1.157l.126-.469-.144-.128c-.221-.2-.26-1.216-.052-1.348a1.848,1.848,0,0,0,.251-.744c0-.33.274-.471.4-.207m-18.215.1a2.338,2.338,0,0,0-.488,2.336,7.814,7.814,0,0,1,.062,1.092,4.47,4.47,0,0,0,.062.927,1.962,1.962,0,0,1,.117.265c.11.31.628.5,1.316.477.532-.015.891-.509.468-.643-.4-.126-.533-.472-.555-1.4l-.017-.751.2-.227c.217-.244.241-.384.137-.782-.035-.132-.1-.4-.142-.6-.161-.732-.245-.837-.713-.882-.2-.02-.262.006-.45.19M92.15,8.282c.25.1.25.1.112.312a16,16,0,0,0,.068,4.148l.132.276-.186.067c-.75.271-1.082-.356-.938-1.774a11.857,11.857,0,0,0-.021-2.173c-.068-.562-.006-.744.29-.849.322-.114.291-.114.544-.008m59.856-.024.266.067-.008.845a3.623,3.623,0,0,0,.1,1.184c.1.33.1.344-.008.508-.1.149-.114.283-.114,1.149v.981l-.209.076c-.327.118-.449.1-.543-.074s-.091-.243-.032-1.836c.021-.554.012-1.4-.02-1.871-.073-1.1-.03-1.181.569-1.03M95.5,8.5a1.234,1.234,0,0,0,.3.2.853.853,0,0,1,.48.521c.022.09.06.165.083.165.208,0,.374,1.117.255,1.7a2.151,2.151,0,0,1-.872,1.436,1.045,1.045,0,0,0-.28.184c-.27.326-.4-.163-.153-.56a2.971,2.971,0,0,0,.437-1,.917.917,0,0,1,.1-.316A2.543,2.543,0,0,0,95.4,9.214a.938.938,0,0,1-.188-.381c-.038-.2-.063-.223-.382-.317l-.342-.1.172-.072A.968.968,0,0,1,95.5,8.5m60.8-.132a1.744,1.744,0,0,1,.014.577c-.022.29-.04.581-.041.647-.006.339-.014,1.293-.013,1.554,0,.165.036.6.078.96.1.859.047,1.009-.364,1.02-.47.012-.474,0-.493-1.188-.014-.891-.031-1.06-.118-1.148-.121-.121-.124-.153-.032-.373a6.2,6.2,0,0,0,.108-1.075c.046-1.083.065-1.122.505-1.064a1.088,1.088,0,0,1,.355.089m28.154-.056c.139.063.141.072.058.311a3.749,3.749,0,0,0,.1,2.041c.116.072-.191,1.04-.363,1.146-.042.026-.038.054.01.084.277.171.189,1.111-.113,1.194-.559.155-.542.218-.553-2.037-.011-2.36,0-2.629.078-2.728a1.126,1.126,0,0,1,.785-.012m2.3.149a3.666,3.666,0,0,0,.265.325c.248.267.291.724.08.862a.778.778,0,0,0-.242.3c-.2.481-.506.361-.5-.2.01-.666-.1-1.057-.354-1.245-.154-.115-.015-.2.319-.2.279,0,.337.021.43.154m11.989.037c-.033.125-.036.126-.076.015-.048-.131-.015-.224.061-.177.028.017.035.09.016.162m-104.58.162a1.443,1.443,0,0,1,.329.12.72.72,0,0,0,.212.085c.164.041.446.553.514.936a4.307,4.307,0,0,0,.12.466,2.046,2.046,0,0,1,.022,1.06,1.748,1.748,0,0,0-.229.408c-.157.347-.416.7-.515.7a1.124,1.124,0,0,0-.232.086c-1.231.562-1.835.267-1.767-.863A15.312,15.312,0,0,0,92.564,9.3c-.146-.624.569-.908,1.594-.633m50.129.138a7.061,7.061,0,0,1,.038,2.3,3.715,3.715,0,0,0,.17,1.747c.064.119.059.151-.035.222-.192.146-.617.057-.618-.129a.864.864,0,0,0-.1-.232,10.289,10.289,0,0,1-.2-2.6c-.034-1.016.409-1.786.749-1.3m34.671.066c.153.122.16.147.107.383a.776.776,0,0,0,.023.478c.105.295.1.4,0,.493-.245.2-.273.391-.211,1.4l.06.962.243.222.242.222-.152.038c-.715.179-.877-.1-.894-1.56a7.574,7.574,0,0,0-.058-1.092,3.429,3.429,0,0,1,0-.763c.058-.953.208-1.134.646-.784m6.719-.064a1.163,1.163,0,0,1-.032,1.371c-.137.162-.716.212-.82.071a2.845,2.845,0,0,1,.009-1.435.665.665,0,0,1,.842-.007m-15.958.541c-.171.084-.245.164-.27.288-.066.328-.618.229-1.365-.244a1.284,1.284,0,0,0-1.39.194l-.135.123-.135-.123a.952.952,0,0,0-1.274-.133l-.176.183-.017,1.416c-.009.779-.039,1.545-.067,1.7l-.05.286.27.237a.715.715,0,0,0,1.072.028l.209-.209V11.87c0-1.133.007-1.235.118-1.375a.586.586,0,0,1,.828.025l.209.174.013.677c.007.372.03.79.051.927a1.165,1.165,0,0,1-.034.47c-.138.417.369.78.985.706.592-.071.642-.183.618-1.37-.027-1.364.1-1.933.409-1.816a.936.936,0,0,0,.269.056c.381,0,.668.908.426,1.349a.505.505,0,0,0-.013.359,3.833,3.833,0,0,1,.056.66c0,.478.07.584.467.722.706.246,1.231-.122,1.093-.765a2.35,2.35,0,0,1,0-1.083A3.721,3.721,0,0,0,171.61,10a1.7,1.7,0,0,0-1.891-.656m6.287-.1c-.546.1-.609.263-.636,1.695a5,5,0,0,1-.122,1.427l-.1.261-.3-.028c-.453-.043-.68-.441-.59-1.033a2.286,2.286,0,0,0,0-.566,3.055,3.055,0,0,1-.009-.611c.081-.852-.383-1.278-1.164-1.068-.459.124-.45.087-.408,1.643l.038,1.379.189.39c.215.442.35.578.63.633a.478.478,0,0,1,.228.092,1.964,1.964,0,0,0,.9,0c.223-.207.7-.2,1.39.029.285.094.374.067.607-.182l.146-.156.009-1.717c.011-2.207-.032-2.324-.81-2.187M98.091,9.4l-.164.134-.015,1.853c-.015,1.852-.015,1.853.119,1.988a1.127,1.127,0,0,0,1.253-.123,7.334,7.334,0,0,0,.046-1.067v-1l.186-.23a1.144,1.144,0,0,1,.508-.349c.612-.227.791-.378.731-.617-.143-.577-.539-.733-1.059-.418l-.292.176-.187-.18A.878.878,0,0,0,98.091,9.4m7.705-.029-.231.095.042.476a3.519,3.519,0,0,0,.1.626.527.527,0,0,1-.011.355,1.788,1.788,0,0,0-.028.635,5.2,5.2,0,0,1-.023.928c-.1.795.23,1.123.937.935.551-.146.613-.279.605-1.276-.011-1.327,0-1.445.134-1.665.081-.132.159-.193.214-.172a.8.8,0,0,0,.231.033.672.672,0,0,1,.339.175l.2.174.005,1.2c.006,1.385.008,1.391.537,1.491a1.11,1.11,0,0,0,.882-.154c.071-.06.141-.117.155-.125a12.244,12.244,0,0,0,.067-1.759c-.016-.9.109-1.081.661-.94.488.125.5.16.508,1.265a11.106,11.106,0,0,1-.033,1.145c-.146.7,1.05.962,1.454.321a1.487,1.487,0,0,0-.018-.667,5.157,5.157,0,0,1-.036-1.078c.094-1.126.029-1.3-.7-1.9a1.391,1.391,0,0,0-1.669.086.986.986,0,0,1-1.208-.147,1.41,1.41,0,0,0-1.21-.074,1.542,1.542,0,0,1-1.018,0,1.145,1.145,0,0,0-.879.017m32.471.034c-.189.175-.213.433-.22,2.346-.005,1.547-.01,1.531.467,1.691.822.275.926.119.965-1.445.035-1.381.039-1.4.372-1.565.246-.123.3-.117.607.071.338.2.337.2.3,1.487-.038,1.323.042,1.46.855,1.46.355,0,.8-.336.644-.489-.014-.014-.039-.656-.054-1.427l-.028-1.4-.317-.286c-.559-.5-.721-.581-1.226-.581a1.107,1.107,0,0,0-.9.34c-.13.14-.424.062-.432-.114a2.014,2.014,0,0,0-.751-.227.522.522,0,0,0-.281.14m21.716-.074a4.569,4.569,0,0,1-.564.048.584.584,0,0,0-.425.127,1.565,1.565,0,0,1-.423.232,1.9,1.9,0,0,0-.949,2.015,1.388,1.388,0,0,0,.5,1.065c.439.463.486.486,1.258.626a3.855,3.855,0,0,1,.757.186c.056.047.119.024.237-.085a1.946,1.946,0,0,1,.587-.281c.494-.153.6-.227.5-.359a.979.979,0,0,0-.875-.168c-.6.153-1.1-.112-1.165-.609-.06-.477.1-.615.6-.532a2.558,2.558,0,0,0,1.549-.083c.478-.443-.127-1.951-.782-1.951-.045,0-.082-.027-.082-.059s-.074-.076-.164-.1a.944.944,0,0,1-.224-.079.755.755,0,0,0-.329,0m29.055-.023c-.475.088-.542.377-.515,2.233.026,1.834.016,1.8.615,1.877.578.072.995-.219.882-.615-.025-.088-.049-.833-.053-1.655a15.9,15.9,0,0,0-.052-1.589c-.1-.208-.493-.32-.877-.25M115,9.362a2.512,2.512,0,0,0-.359.142c-.132.063-.361.167-.508.232-.528.233-.817.734-.938,1.626a2.419,2.419,0,0,0,.453,1.462,1.619,1.619,0,0,1,.347.272,2.294,2.294,0,0,0,2.244.259,1.133,1.133,0,0,1,.275-.141.475.475,0,0,0,.18-.111c.169-.146.016-.307-.294-.309a3.9,3.9,0,0,1-1.265-.263c-.239-.156-.341-.68-.161-.826a2.95,2.95,0,0,1,1.431-.045c.433.124,1.179-.244,1.066-.526-.035-.089-.085-.216-.11-.282-.347-.918-.39-1-.6-1.121a.863.863,0,0,0-.24-.1.662.662,0,0,1-.222-.122,2.781,2.781,0,0,0-1.3-.143m19.695.025a.766.766,0,0,0-.444.141,1.4,1.4,0,0,1-.354.216c-.732.316-1.274,2.171-.752,2.572a3.086,3.086,0,0,1,.228.3,1.453,1.453,0,0,0,1.138.793,2.98,2.98,0,0,0,2.272-.347c.154-.138-.072-.254-.571-.294-1.2-.1-1.391-.178-1.391-.612,0-.643.286-.785,1.007-.5a1.235,1.235,0,0,0,1.156-.105c.36-.321.184-1.28-.31-1.684-.14-.115-.31-.261-.377-.324a3.638,3.638,0,0,0-1.6-.154m57.7-.022a1,1,0,0,0-.209.14,1.574,1.574,0,0,1-.371.2c-.274.106-.5.27-.5.368,0,.034-.055.1-.123.139-.523.327-.491,2.033.05,2.6.479.5.488.51.84.547a4.321,4.321,0,0,1,.578.1,1.384,1.384,0,0,0,.893-.043,1.15,1.15,0,0,1,.349-.087,1.476,1.476,0,0,0,.668-.295c.118-.191-.483-.413-.841-.31-.455.131-1.052-.128-1.123-.487a.73.73,0,0,0-.133-.291c-.175-.193.366-.392.789-.29.846.2,1.924-.129,1.777-.548a3.27,3.27,0,0,1-.113-.5c-.046-.321-.609-.988-.835-.988a.778.778,0,0,1-.293-.117,3.364,3.364,0,0,0-1.408-.143M176.462,11.38c.022,1.845.018,1.861-.36,1.724a1.181,1.181,0,0,0-.288-.071c-.055,0-.107-.069-.125-.164a26.4,26.4,0,0,1,.08-2.885,1.217,1.217,0,0,0,.275-.206c.384-.344.4-.3.418,1.6m-67.4-1.4c.463.121.473.157.407,1.561-.011.246-.016.659-.011.917.014.636-.147.817-.558.63-.191-.087-.233-.429-.112-.919a2.385,2.385,0,0,0-.427-1.938c-.07-.058-.077-.111-.031-.235.095-.255.223-.323.364-.192a1.028,1.028,0,0,0,.367.175M173.672,9.9c.152.174.182.248.147.374a8.643,8.643,0,0,0,.061,2.094,1.408,1.408,0,0,0,.622.585c.155.039.155.039-.053.114-.374.135-1.008.037-1.064-.164a2.879,2.879,0,0,0-.119-.29,2.673,2.673,0,0,1-.1-.986c0-.428-.027-.966-.052-1.2-.044-.4-.039-.426.111-.583.2-.21.221-.208.449.052m-67.02-.009c.4.2.4.3.086,1.027a1.229,1.229,0,0,0,0,.871c.16.5.161.625.007.932-.383.763-.838.315-.676-.668a2.842,2.842,0,0,0,0-.933c-.162-1.219-.013-1.532.585-1.228m5.127.044c.384.249.43.462.426,1.955,0,1.335-.017,1.361-.613,1.195l-.234-.065.038-.952c.046-1.172-.005-1.495-.279-1.761-.44-.428.1-.735.662-.373M160,10.016c.463.457.478,1.036.027,1.056-.736.032-.95-.181-.7-.7a1.279,1.279,0,0,0,.118-.324c0-.09.171-.3.24-.3a1.724,1.724,0,0,1,.315.27m6.127-.052a.412.412,0,0,1-.009.553,3.7,3.7,0,0,0-.051,1.046c.021,1.361.005,1.448-.272,1.5-.122.022-.267.053-.323.069-.169.05-.245-.37-.179-.984a6.939,6.939,0,0,0,.038-.876c-.074-1.466-.062-1.515.352-1.48a.586.586,0,0,1,.444.174m1.808-.128a.7.7,0,0,0,.269.088.857.857,0,0,1,.6,1.338.914.914,0,0,0-.033.847c.311.61.111,1.068-.465,1.068-.294,0-.307-.056-.294-1.337s0-1.33-.392-1.6c-.333-.225-.039-.611.313-.409m2.938.045c.465.178.482.238.514,1.826.027,1.352.011,1.447-.25,1.447-.358,0-.564-1.04-.328-1.655a1.058,1.058,0,0,0-.3-1.086c-.288-.305-.32-.486-.11-.619.1-.061.071-.065.469.087m-71.836.084a.977.977,0,0,1,.007.947A5.476,5.476,0,0,0,99,12.445c.025.695-.245.946-.678.63a1.788,1.788,0,0,1,.006-1.16c.051-.017.045-.083-.022-.244-.371-.884.22-2.259.733-1.706m16.539-.055c.261.3.3.847.07,1.027a.692.692,0,0,1-.826-.009c-.308-.441.414-1.414.756-1.018m25.908.052c.188.143.205.183.205.474a1.553,1.553,0,0,0,.072.486,5.045,5.045,0,0,1,.075,1.136l0,.968-.262.074c-.452.127-.454.121-.466-1.209-.01-1.194-.058-1.476-.286-1.664-.359-.3.278-.555.658-.265m48.108-.022a15.18,15.18,0,0,1,.012,3.091c-.113.113-.67,0-.708-.14a3.908,3.908,0,0,1,.055-1.356.627.627,0,0,0,.032-.441,1.872,1.872,0,0,1-.1-1.141.485.485,0,0,1,.707-.014m3.692.284c.331.487.289.7-.164.817-.593.156-.872-.2-.6-.765.256-.543.426-.555.767-.052M135.474,9.96c.059.016.12.156.166.379.1.481.034.612-.368.739l-.309.1-.17-.184a.529.529,0,0,1-.035-.675.263.263,0,0,0,.055-.16c0-.258.213-.321.66-.2m3.672.04c.151.131.153.143.084.463a9.573,9.573,0,0,0-.063,1.446c.01,1.294.008,1.3-.444,1.248-.41-.048-.572-.457-.373-.941A6.032,6.032,0,0,0,138.425,11l.005-1.046.209-.037c.338-.06.345-.059.507.082m-38.987.035c.147.163-.118.306-.362.194l-.163-.074.148-.113c.185-.143.254-.144.378-.007m19.322-.025c.112.081.109.09-.07.254-.562.513-.486,2.267.112,2.611.244.14.138.217-.3.218-.3,0-.553-.131-.553-.287a.756.756,0,0,0-.168-.224,1.706,1.706,0,0,1,.043-2.029.772.772,0,0,0,.119-.282c.012-.285.547-.457.814-.261m10.169.042c.066.055.06.094-.03.224-.447.644-.317,2.45.193,2.672.181.079.173.082-.242.084-.37,0-.434-.013-.465-.111a1.142,1.142,0,0,0-.244-.314c-.818-.788-.056-3.256.789-2.555m6.861.183c.523.484.48,1.178-.068,1.1-.364-.05-.363-.048-.441-.629-.113-.837,0-.943.509-.474m-22.124.736a2.855,2.855,0,0,0,.061,1.107,1.721,1.721,0,0,1,.1.456c0,.272.043.3.778.423l.21.037-.317.072a.939.939,0,0,1-.923-.231,2.612,2.612,0,0,0-.4-.265c-.454-.23-.479-1.96-.029-2.073a.375.375,0,0,0,.21-.169c.282-.546.356-.395.313.643m46.567-.9c.057.044.1.1.1.12a.877.877,0,0,0,.254.322c.269.254.059.748-.35.825-.3.056-.322.01-.322-.6,0-.75.053-.863.314-.665m31.052-.009a6.513,6.513,0,0,1,.031,1.031,2.764,2.764,0,0,0,.077,1.128.766.766,0,0,1,.092.254,1.183,1.183,0,0,0,.536.505c.051,0-.012.042-.138.089a.418.418,0,0,1-.34.026.561.561,0,0,0-.221-.059c-.151,0-.612-.5-.785-.858a1.84,1.84,0,0,1,.1-1.634.641.641,0,0,0,.192-.292c0-.2.358-.352.458-.191m2.351.291c.3.556.2,1.01-.21,1.01-.343,0-.369-.03-.325-.375a2.876,2.876,0,0,0,.011-.569c-.023-.2-.006-.275.084-.343.184-.14.236-.107.44.276m-77.678-.231c.3.475.18,1.38-.16,1.167-.272-.17-.407-1.153-.165-1.2s.277-.043.325.032m3.773.044c.24,0,.372.428.372,1.205,0,.949-.091,1.2-.489,1.323l-.3.1-.288-.3c-.333-.342-.392-.569-.338-1.286.037-.494.512-1.139.79-1.073a1.351,1.351,0,0,0,.256.029m10.488.112a4.708,4.708,0,0,1,.226,1.652.862.862,0,0,0-.088.269.7.7,0,0,1-1.325.017c-.387-1.112.514-2.584,1.187-1.938m3.276-.082a7.133,7.133,0,0,0,.162,2.294.37.37,0,0,1,.1.17c.039.126.482.307.791.323.23.013-.19.1-.506.108-.379.007-.522-.058-.573-.261a.167.167,0,0,0-.192-.151.475.475,0,0,1-.38-.33,1.176,1.176,0,0,0-.118-.276.669.669,0,0,1-.062-.537,4.129,4.129,0,0,1,.227-1.03.759.759,0,0,0,.094-.234c.035-.146.066-.164.285-.164s.235.013.171.089m24.526.434c.008.288.007.693,0,.9a.8.8,0,0,0,.165.646,1.283,1.283,0,0,1,.182.34c0,.164.223.33.531.4.347.081.248.261-.113.206l-.367-.056c-.144-.023-.227-.072-.247-.146a.273.273,0,0,0-.208-.151.764.764,0,0,1-.517-.567.767.767,0,0,0-.12-.3.8.8,0,0,1-.047-.786,3.132,3.132,0,0,0,.4-.85c.03-.12.078-.162.184-.162.139,0,.143.015.157.523M199,11.033c.424.384.551.693.431,1.052-.085.255-.23.428-.23.273,0-.056-.02-.1-.045-.1a.686.686,0,0,1-.184-.224,2.305,2.305,0,0,0-.776-.671,2.2,2.2,0,0,1-.43-.714.558.558,0,0,1,.151-.209l.151-.151.283.207c.156.114.448.357.65.539m-12.859-.107c.059.418.235.783.407.849a.338.338,0,0,1,.185.175A1.335,1.335,0,0,0,187,12.3c.54.541.489.88-.128.844-.305-.018-.312-.022-.462-.316a2.567,2.567,0,0,0-.259-.417,2.4,2.4,0,0,1-.254-.431,1.255,1.255,0,0,0-.385-.48c-.459-.325-.293-.856.267-.856h.322l.04.284m-39.994,1.24a.717.717,0,0,0,.638,1.25c1.081-.122.786-1.451-.324-1.458a.749.749,0,0,0-.314.208M123.73,12.1c-.629.189-.69,1.135-.083,1.268a1.154,1.154,0,0,1,.291.1c.3.188.891-.283.891-.712,0-.571-.466-.851-1.1-.66m-22.688.023a.818.818,0,0,0-.327,1.032.963.963,0,0,0,1.317.086c.509-.636-.2-1.432-.99-1.118m23.288.6c.1.3.107.276-.084.389-.234.138-.586,0-.531-.206a1.074,1.074,0,0,0,.037-.2.625.625,0,0,1,.155-.232c.183-.2.288-.136.423.25m22.61-.073c.194.284.168.366-.141.444-.406.1-.514.023-.467-.339.062-.479.322-.524.608-.105m-45.117.059c.056.4,0,.461-.418.439s-.486-.115-.373-.458c.087-.264.152-.3.51-.287l.239.009.042.3m-6.661.213c.029.15-.312.246-.537.151l-.187-.078.174-.1c.212-.117.526-.1.549.023m80.367,4.464-.194.174-.009.924c0,.508,0,1.726.007,2.707l.015,1.784.165.165a.871.871,0,0,0,.941.142c.214-.155.251-.365.23-1.312a4.468,4.468,0,0,1,.089-1.285l.108-.439.275-.051c.552-.1.875.419.721,1.165a1.889,1.889,0,0,0-.01.548,2.333,2.333,0,0,1,0,.585c-.092.579.254.881.922.807.489-.054.567-.192.573-1.012a9.218,9.218,0,0,1,.045-.938,1.758,1.758,0,0,0-2.413-2.032c-.16.061-.237-.26-.292-1.223-.039-.672-.147-.815-.65-.857-.293-.024-.343-.01-.519.147m-10.4.469c-.706.414-.226.664,1.139.594.967-.05,1.447.116,1.175.4a2,2,0,0,0-.206.361.741.741,0,0,1-.183.284c-.027,0-.113.114-.19.254a3.191,3.191,0,0,1-.338.476,2.946,2.946,0,0,0-.351.525,2.142,2.142,0,0,1-.391.517.817.817,0,0,0-.237.292.592.592,0,0,1-.167.247,2.541,2.541,0,0,0-.3.379,2.032,2.032,0,0,1-.282.354c-.2.188-.2.406.015.657l.168.2,2,.02c1.1.011,2.083.034,2.185.052a1.63,1.63,0,0,0,.488-.033l.3-.065.041-.3c.046-.333-.011-.423-.385-.617a.392.392,0,0,0-.377-.036,2.727,2.727,0,0,1-.638.066,5.049,5.049,0,0,0-.693.048c-.661.126-1.07-.2-.753-.591a1,1,0,0,0,.184-.293c0-.035.021-.063.046-.063a.8.8,0,0,0,.193-.269.843.843,0,0,1,.189-.269,1.008,1.008,0,0,0,.19-.315,2.38,2.38,0,0,1,.348-.523,2.828,2.828,0,0,0,.362-.512,2.931,2.931,0,0,1,.369-.522,1.089,1.089,0,0,0,.243-.384,1.075,1.075,0,0,1,.214-.368c.442-.5-.052-.762-1.333-.695a15.612,15.612,0,0,1-2.375.011.763.763,0,0,0-.657.11m11.2.109c.1.114.108.2.081.783a3.242,3.242,0,0,0,.042.9,1.948,1.948,0,0,1,.014.78c-.033.3-.058.955-.057,1.465a2.95,2.95,0,0,1-.065.971c-.116.076-.634.053-.646-.029-.006-.041-.014-.855-.016-1.809s-.028-1.97-.057-2.258c-.077-.765.007-1,.347-.957a.593.593,0,0,1,.359.158m-7.334.128.128.09-.119.338a1.22,1.22,0,0,1-.266.454,1.279,1.279,0,0,0-.272.364,7.107,7.107,0,0,1-.805,1.107,2.234,2.234,0,0,0-.265.419,2.7,2.7,0,0,1-.334.5,1.669,1.669,0,0,0-.489,1.137l.019.3-.3.107c-.581.207-1.352.034-1.069-.239a1.8,1.8,0,0,0,.2-.243,1.9,1.9,0,0,1,.158-.207,2.484,2.484,0,0,0,.224-.379,1.087,1.087,0,0,1,.275-.371.875.875,0,0,0,.246-.316,2.286,2.286,0,0,1,.259-.4,4.1,4.1,0,0,0,.512-.8c0-.025.07-.1.157-.169a.932.932,0,0,0,.237-.316,1.764,1.764,0,0,1,.292-.417.586.586,0,0,0,.211-.537c0-.345-.03-.322.568-.443l.271-.056a.423.423,0,0,1,.16.082m29.388.111a.66.66,0,0,0-.618.656l-.113.682a1.665,1.665,0,0,0,0,.6,11.6,11.6,0,0,1,.087,1.285c.037,1.313.055,1.418.264,1.591a2.12,2.12,0,0,0,1.467.4c.4-.123.292-.927-.127-.939s-.292-1.939.139-2.332l.265-.241-.127-.178a1.33,1.33,0,0,0-.255-.268c-.11-.077-.133-.166-.161-.631-.033-.534-.084-.653-.282-.655a.665.665,0,0,1-.15-.024,1.4,1.4,0,0,0-.392.045m.414.343c.112.06.119.1.083.471a.909.909,0,0,0,.089.652c.121.231.123.256.032.394a6.392,6.392,0,0,0-.089,2.652c.038.132-.158.222-.341.157-.441-.157-.79-2.338-.52-3.256a1.562,1.562,0,0,0,.043-.571c-.04-.34,0-.4.334-.494l.228-.065a.519.519,0,0,1,.142.06m-26.825.646a1.547,1.547,0,0,0-.381.267.714.714,0,0,1-.3.187.91.91,0,0,0-.295.14l-.138.105.13.164c.14.178.216.181.995.032.331-.063.451-.02.776.281l.134.124-.132.186a1.192,1.192,0,0,1-.3.286c-.192.113-.116.216.223.3.315.079.4.814.122,1.07-.487.452-.939.156-.767-.5.147-.559,0-.694-.644-.6-.209.03-.395.055-.414.056-.243.009-.633.848-.484,1.04a2.1,2.1,0,0,1,.16.353.8.8,0,0,0,.6.547.747.747,0,0,1,.273.127,1.389,1.389,0,0,0,1.284-.036,1.627,1.627,0,0,1,.954.251l.239.151.269-.143c.345-.184.393-.233.316-.329a5.418,5.418,0,0,1-.249-1.931c-.052-1.415-.162-1.658-.849-1.877a1.121,1.121,0,0,1-.356-.2,1.332,1.332,0,0,0-1.163-.051m14.812.009c-.14.071-.254.152-.254.179a.767.767,0,0,1-.284.188c-.752.367-.557.645.377.539l.575-.065.207.189c.235.214.235.359,0,.668l-.135.175.161.333c.331.688.342.757.153.955-.406.424-.936.029-.663-.494.517-.991-.934-.887-1.58.113-.271.419.1,1.095.7,1.274a2.3,2.3,0,0,1,.448.193c.3.185,1.119.1,1.224-.134.018-.039.357.076.562.19.392.22,1.265.044,1.149-.232a6.028,6.028,0,0,1-.234-1.891,3.185,3.185,0,0,0-.141-1.3c-.121-.276-.526-.645-.707-.645a1.736,1.736,0,0,1-.395-.154,1.283,1.283,0,0,0-1.165-.083m7.16-.081c-.234.1-.26.188-.153.527.152.485.4.517.714.091a.691.691,0,0,1,.295-.253c.188-.028.185-.151-.006-.25a1.665,1.665,0,0,0-.849-.115m-11.2.08a1.618,1.618,0,0,0-.487.174,1.49,1.49,0,0,1-1.135-.036c-.671-.234-1.291.6-.806,1.083a.871.871,0,0,1-.021.345,2.157,2.157,0,0,0-.03.522,6.637,6.637,0,0,1-.024.859c-.072.925.2,1.251.97,1.146.5-.069.6-.286.557-1.264-.016-.422-.032-.849-.035-.947-.016-.517.2-.94.449-.885.667.148.662.136.7,1.615.034,1.384.03,1.371.554,1.492.739.17.957-.08.9-1.035a5.423,5.423,0,0,1,.021-.919,4.1,4.1,0,0,0-.145-1.595,3.592,3.592,0,0,0-1.113-.609c-.038,0-.2.028-.354.055m7.621.094a.729.729,0,0,0-.3.795,6.887,6.887,0,0,1,.033,1.491c-.049,1.7.058,1.933.844,1.829.574-.076.64-.228.617-1.434-.023-1.165.032-1.3.558-1.343a.712.712,0,0,0,.471-1.23c-.187-.174-.129-.174-.477,0a1.105,1.105,0,0,1-1.13-.123c-.338-.18-.369-.179-.611.011m5.2-.051a2.319,2.319,0,0,0-.629,1.217,1.242,1.242,0,0,1-.3.418,1.1,1.1,0,0,0-.27.338c0,.041-.024.075-.053.075s-.069.061-.088.136a1.1,1.1,0,0,1-.216.34,1.057,1.057,0,0,0-.182.243,2.6,2.6,0,0,1-.3.386c-.577.66-.12,1.161.9.989a2.557,2.557,0,0,1,.9-.043c.878.33,1.473.213,1.408-.279s-.218-.578-.714-.445a.394.394,0,0,1-.479-.093c-.188-.143-.3-.4-.17-.4a.985.985,0,0,0,.213-.3,1.4,1.4,0,0,1,.308-.391,1.483,1.483,0,0,0,.319-.466,3.03,3.03,0,0,1,.549-.749c.333-.336.362-.384.283-.474a.7.7,0,0,1-.123-.25c-.08-.33-.99-.5-1.347-.254m-11.908.522c.285.1.3.2.325,1.749s.006,1.6-.443,1.45c-.352-.116-.386-.185-.242-.485s.151-.33.015-.625a1.52,1.52,0,0,1-.075-.824l.033-.589-.213-.218a2.2,2.2,0,0,0-.32-.279c-.093-.052-.073-.077.152-.192.263-.134.341-.132.766.013m12.822-.055c.14.14.119.2-.165.474a1.533,1.533,0,0,0-.371.559.911.911,0,0,1-.263.409c-.186.122-.358.322-.361.42,0,.041-.071.118-.155.173a.941.941,0,0,0-.361.736.6.6,0,0,1-.916.437c-.234-.133-.242-.1.15-.523a1.762,1.762,0,0,0,.419-.638.99.99,0,0,1,.263-.43.582.582,0,0,0,.179-.2,1.566,1.566,0,0,1,.267-.348,1.69,1.69,0,0,0,.392-.693,1.181,1.181,0,0,1,.2-.429,1.089,1.089,0,0,1,.724.056m-17.878.049c.272.114.308.33.3,1.8-.012,1.363-.061,1.512-.436,1.318-.162-.084-.165-.094-.11-.4a1.4,1.4,0,0,0-.012-.593.963.963,0,0,1,0-.536,1.224,1.224,0,0,0-.383-1.254l-.266-.2.131-.109a.853.853,0,0,1,.782-.03m2.7.015c.162.054.3.1.311.111a.533.533,0,0,1-.074.186.787.787,0,0,0-.091.266.26.26,0,0,1-.052.15,1.812,1.812,0,0,0-.126,1.073c.108,1,.086,1.2-.148,1.335l-.206.122-.152-.12c-.177-.139-.2-.377-.086-1.083a4.468,4.468,0,0,0,0-1.169c-.092-.98-.016-1.085.629-.87m9.655.015a1.222,1.222,0,0,1,.213,1.532c-.1.229-.126.337-.082.415a2.352,2.352,0,0,1,.087.592l.028.486-.233.1c-.286.128-.286.128-.43,0-.112-.1-.116-.166-.089-1.594.033-1.745.056-1.815.508-1.54m1.49.187c-.05.093-.083.1-.238.041-.222-.084-.225-.121-.015-.2s.337,0,.253.159m-18.908-.133c.216.138.32.594.337,1.49.013.69.037.917.113,1.033.254.395.167.658-.219.658-.462,0-.806-.2-.649-.373a7.873,7.873,0,0,0-.011-2.614c-.081-.157-.08-.175.015-.2a.607.607,0,0,1,.416.007m15.048.221c.109.209.126.349.13,1.106a6.561,6.561,0,0,0,.094,1.237c.1.431.071.521-.222.617-.383.127-.771-.234-.555-.515a5.123,5.123,0,0,0-.184-2.482c-.144-.2-.091-.227.349-.212.243.009.273.028.388.249m-17.257,1.574a1.21,1.21,0,0,1,.2.4,2.456,2.456,0,0,0,.277.551c.165.216.075.409-.162.35-.049-.012-.193-.039-.319-.061-.408-.069-.582-.712-.306-1.132.1-.16.183-.187.312-.1m14.866.166c.054.021.111.139.133.273a.9.9,0,0,0,.273.481c.264.275.244.317-.178.381s-.593-.046-.673-.428c-.087-.422.16-.816.445-.707m-16.705.98c0,.033-.039.06-.086.06a.158.158,0,0,1-.123-.06c-.02-.033.018-.06.086-.06s.123.027.123.06" transform="translate(-58.349 -4.664)" fill="#496fad" fill-rule="evenodd"/>
    </g>
  </g>
</svg>
