<svg xmlns="http://www.w3.org/2000/svg" xmlns:xlink="http://www.w3.org/1999/xlink" width="150" height="150" viewBox="0 0 150 150">
  <defs>
    <clipPath id="clip-straumann_grayscale">
      <rect width="150" height="150"/>
    </clipPath>
  </defs>
  <g id="straumann_grayscale" clip-path="url(#clip-straumann_grayscale)">
    <g id="straumann" transform="translate(1.363 57.631)">
      <path id="Path_138" data-name="Path 138" d="M173.505,14.276H169.3V26.1h4.205v-6.11c0-1.508.476-2.777,2.142-2.777,2.063,0,1.9,1.984,1.9,3.095v5.713h4.205v-7.3c0-2.856-1.27-4.919-4.443-4.919a4.084,4.084,0,0,0-3.809,1.9h0V14.276Z" transform="translate(-34.884 -2.54)" fill="#838487"/>
      <path id="Path_139" data-name="Path 139" d="M155.405,14.276H151.2V26.1h4.205v-6.11c0-1.508.476-2.777,2.222-2.777,2.063,0,1.9,1.984,1.9,3.095v5.713h4.205v-7.3c0-2.856-1.27-4.919-4.443-4.919a4.084,4.084,0,0,0-3.809,1.9h-.079V14.276Z" transform="translate(-31.146 -2.54)" fill="#838487"/>
      <path id="Path_140" data-name="Path 140" d="M145.506,14.3H141.3v1.111a4.792,4.792,0,0,0-3.65-1.508,6.017,6.017,0,0,0-5.951,6.268,6.086,6.086,0,0,0,5.951,6.348,4.256,4.256,0,0,0,3.571-1.746h.079v1.27h4.205V14.3Zm-6.665,3.253a2.658,2.658,0,1,1,0,5.316,2.5,2.5,0,0,1-2.7-2.7,2.563,2.563,0,0,1,2.7-2.618Z" transform="translate(-27.118 -2.561)" fill="#838487"/>
      <path id="Path_141" data-name="Path 141" d="M109.605,14.317H105.4V26.14h4.205V20.506c0-1.27,0-3.333,1.825-3.333,1.9,0,1.9,2.063,1.9,3.333V26.14h4.205V20.506c0-1.349.079-3.253,2.063-3.253,1.746,0,1.746,2.063,1.746,3.253V26.14h4.205V18.681c0-2.777-1.032-4.681-4.047-4.681a4.438,4.438,0,0,0-3.967,2.3,4.328,4.328,0,0,0-4.047-2.3,4.41,4.41,0,0,0-3.729,1.825h-.079V14.317Z" transform="translate(-21.686 -2.582)" fill="#838487"/>
      <path id="Path_142" data-name="Path 142" d="M87.5,14.4v7.141c0,3.888,2.777,5.158,6.348,5.158s6.348-1.27,6.348-5.158V14.4H95.99v6.348c0,1.508-.4,2.539-2.063,2.539-1.746,0-2.063-1.031-2.063-2.539V14.4Z" transform="translate(-17.989 -2.664)" fill="#838487"/>
      <path id="Path_143" data-name="Path 143" d="M81.506,14.3H77.3v1.111a4.792,4.792,0,0,0-3.65-1.508A6.017,6.017,0,0,0,67.7,20.168a6.086,6.086,0,0,0,5.951,6.348,4.256,4.256,0,0,0,3.571-1.746H77.3v1.27h4.205V14.3ZM74.762,17.55a2.519,2.519,0,0,1,2.7,2.618,2.582,2.582,0,0,1-2.7,2.7,2.54,2.54,0,0,1-2.7-2.7,2.563,2.563,0,0,1,2.7-2.618Z" transform="translate(-13.9 -2.561)" fill="#838487"/>
      <path id="Path_144" data-name="Path 144" d="M61.005,14.359H56.8V26.181h4.205V21.421c0-2.063.555-3.571,2.856-3.571a3.617,3.617,0,0,1,1.825.4V14.2h-.793a4.054,4.054,0,0,0-3.809,2.063h-.079v-1.9Z" transform="translate(-11.649 -2.623)" fill="#838487"/>
      <path id="Path_145" data-name="Path 145" d="M52.054,16.962h2.38V13.471h-2.38V9.9H47.928v3.571H46.5v3.491h1.428v8.331h4.126Z" transform="translate(-9.521 -1.735)" fill="#838487"/>
      <path id="Path_146" data-name="Path 146" d="M42.977,14.693a9.476,9.476,0,0,0-3.888-.793c-2.618,0-5.237,1.27-5.237,4.205,0,2.142,1.349,2.777,2.618,3.174,1.349.317,2.618.4,2.618,1.349,0,.635-.793.873-1.349.873a6.645,6.645,0,0,1-3.333-1.27L32.9,25.167a9.191,9.191,0,0,0,4.761,1.349c2.777,0,5.554-1.27,5.554-4.443,0-2.142-1.508-3.095-3.412-3.491-.555-.079-1.9-.238-1.9-1.032,0-.555.873-.793,1.349-.793a5.4,5.4,0,0,1,2.222.555l1.508-2.618Z" transform="translate(-6.712 -2.561)" fill="#838487"/>
      <path id="Path_147" data-name="Path 147" d="M23.481,1.5C17.372,5.547,11.262,9.673,5.152,13.719c-2.7,2.063-2.618,5.237-.793,7.855L23.4,8.8l.079-7.3Z" transform="translate(-0.547 0)" fill="#838487"/>
      <path id="Path_148" data-name="Path 148" d="M.4,36.275C6.51,32.228,12.619,28.1,18.729,24.055c2.7-2.063,2.618-5.237.793-7.855L.479,28.975.4,36.275Z" transform="translate(0 -3.036)" fill="#838487"/>
    </g>
  </g>
</svg>
