<svg xmlns="http://www.w3.org/2000/svg" xmlns:xlink="http://www.w3.org/1999/xlink" width="100" height="100" viewBox="0 0 100 100">
  <defs>
    <clipPath id="clip-straumann_colored">
      <rect width="100" height="100"/>
    </clipPath>
  </defs>
  <g id="straumann_colored" clip-path="url(#clip-straumann_colored)">
    <g id="straumann" transform="translate(0.945 37.957)">
      <path id="Path_138" data-name="Path 138" d="M172.094,14.116H169.3v7.854h2.794V17.912c0-1,.316-1.845,1.423-1.845,1.371,0,1.265,1.318,1.265,2.056v3.8h2.794v-4.85c0-1.9-.843-3.268-2.952-3.268a2.713,2.713,0,0,0-2.53,1.265h0v-.949Z" transform="translate(-79.867 -5.816)" fill="#36393a"/>
      <path id="Path_139" data-name="Path 139" d="M153.994,14.116H151.2v7.854h2.794V17.912c0-1,.316-1.845,1.476-1.845,1.371,0,1.265,1.318,1.265,2.056v3.8h2.794v-4.85c0-1.9-.843-3.268-2.952-3.268a2.714,2.714,0,0,0-2.53,1.265h-.053v-.949Z" transform="translate(-71.308 -5.816)" fill="#36393a"/>
      <path id="Path_140" data-name="Path 140" d="M140.872,14.164h-2.794V14.9a3.183,3.183,0,0,0-2.425-1,4,4,0,0,0-3.954,4.164,4.043,4.043,0,0,0,3.954,4.217,2.827,2.827,0,0,0,2.372-1.16h.053v.843h2.794v-7.8Zm-4.428,2.161a1.766,1.766,0,1,1,0,3.532,1.661,1.661,0,0,1-1.792-1.792,1.7,1.7,0,0,1,1.792-1.74Z" transform="translate(-62.087 -5.863)" fill="#36393a"/>
      <path id="Path_141" data-name="Path 141" d="M108.194,14.211H105.4v7.854h2.794V18.323c0-.843,0-2.214,1.212-2.214,1.265,0,1.265,1.371,1.265,2.214v3.743h2.794V18.323c0-.9.053-2.161,1.371-2.161,1.16,0,1.16,1.371,1.16,2.161v3.743h2.794V17.11c0-1.845-.685-3.11-2.688-3.11a2.948,2.948,0,0,0-2.636,1.529A2.876,2.876,0,0,0,110.777,14a2.929,2.929,0,0,0-2.478,1.212h-.053v-1Z" transform="translate(-49.651 -5.911)" fill="#36393a"/>
      <path id="Path_142" data-name="Path 142" d="M87.5,14.4v4.744c0,2.583,1.845,3.426,4.217,3.426s4.217-.843,4.217-3.426V14.4H93.14v4.217c0,1-.264,1.687-1.371,1.687-1.16,0-1.371-.685-1.371-1.687V14.4Z" transform="translate(-41.186 -6.1)" fill="#36393a"/>
      <path id="Path_143" data-name="Path 143" d="M76.872,14.164H74.078V14.9a3.184,3.184,0,0,0-2.425-1A4,4,0,0,0,67.7,18.064a4.043,4.043,0,0,0,3.954,4.217,2.827,2.827,0,0,0,2.372-1.16h.053v.843h2.794v-7.8Zm-4.481,2.161a1.674,1.674,0,0,1,1.792,1.74,1.715,1.715,0,0,1-1.792,1.792,1.766,1.766,0,1,1,0-3.532Z" transform="translate(-31.824 -5.863)" fill="#36393a"/>
      <path id="Path_144" data-name="Path 144" d="M59.594,14.305H56.8V22.16h2.794V19c0-1.371.369-2.372,1.9-2.372a2.4,2.4,0,0,1,1.212.264V14.2h-.527a2.693,2.693,0,0,0-2.53,1.371h-.053V14.305Z" transform="translate(-26.669 -6.005)" fill="#36393a"/>
      <path id="Path_145" data-name="Path 145" d="M50.19,14.592h1.581V12.272H50.19V9.9H47.449v2.372H46.5v2.319h.949v5.535H50.19Z" transform="translate(-21.799 -3.972)" fill="#36393a"/>
      <path id="Path_146" data-name="Path 146" d="M39.595,14.427a6.3,6.3,0,0,0-2.583-.527c-1.74,0-3.479.843-3.479,2.794a2.041,2.041,0,0,0,1.74,2.109c.9.211,1.74.264,1.74.9,0,.422-.527.58-.9.58a4.415,4.415,0,0,1-2.214-.843l-1,1.95a6.106,6.106,0,0,0,3.163.9c1.845,0,3.69-.843,3.69-2.952,0-1.423-1-2.056-2.267-2.319-.369-.053-1.265-.158-1.265-.685,0-.369.58-.527.9-.527a3.591,3.591,0,0,1,1.476.369l1-1.74Z" transform="translate(-15.368 -5.863)" fill="#36393a"/>
      <path id="Path_147" data-name="Path 147" d="M16.623,1.5C12.564,4.188,8.505,6.93,4.446,9.618c-1.792,1.371-1.74,3.479-.527,5.219L16.571,6.35l.053-4.85Z" transform="translate(-1.253)" fill="#36393a"/>
      <path id="Path_148" data-name="Path 148" d="M.4,29.537c4.059-2.688,8.118-5.43,12.177-8.118,1.792-1.371,1.74-3.479.527-5.219L.453,24.687.4,29.537Z" transform="translate(0 -6.951)" fill="#36393a"/>
    </g>
  </g>
</svg>
