<svg xmlns="http://www.w3.org/2000/svg" xmlns:xlink="http://www.w3.org/1999/xlink" width="100" height="100" viewBox="0 0 100 100">
  <defs>
    <clipPath id="clip-vita">
      <rect width="100" height="100"/>
    </clipPath>
  </defs>
  <g id="vita" clip-path="url(#clip-vita)">
    <g id="vita-2" data-name="vita" transform="translate(-3.633 1.153)">
      <path id="Path_154" data-name="Path 154" d="M33.787,31.1H23.848v2.859h1.6A2.076,2.076,0,0,1,27.2,34.992L21.237,58.083,15.181,35.674A2.092,2.092,0,0,1,17.2,33.959h1.426V31.1H5v2.859H6.6a2.145,2.145,0,0,1,1.931,1.385h0l.044.132a.643.643,0,0,1,.044.2l.11.4h0L17,66.594h5.4l8.074-31.227A2.088,2.088,0,0,1,32.4,33.959h1.382V31.1Z" transform="translate(0)" fill="#f4015f"/>
      <path id="Path_155" data-name="Path 155" d="M33.787,31.1H23.848v2.859h1.6A2.076,2.076,0,0,1,27.2,34.992L21.237,58.083,15.181,35.674A2.092,2.092,0,0,1,17.2,33.959h1.426V31.1H5v2.859H6.6a2.145,2.145,0,0,1,1.931,1.385h0l.044.132a.643.643,0,0,1,.044.2l.11.4h0L17,66.594h5.4l8.074-31.227A2.088,2.088,0,0,1,32.4,33.959h1.382V31.1Z" transform="translate(0)" fill="none" stroke="#f4015f" stroke-width="0.425"/>
      <path id="Path_156" data-name="Path 156" d="M156.313,63.757h-1.6a2.1,2.1,0,0,1-2.063-2.089v-.022h0V36.07h0v-.022a2.1,2.1,0,0,1,2.063-2.089h1.163V31.1H143.149v2.859h1.316a2.106,2.106,0,0,1,2.062,2.067v.022h0v25.6h0v.022a2.062,2.062,0,0,1-2.062,2.067H142.6v2.859h13.713Z" transform="translate(-107.329 0)" fill="#f4015f"/>
      <path id="Path_157" data-name="Path 157" d="M156.313,63.757h-1.6a2.1,2.1,0,0,1-2.063-2.089v-.022h0V36.07h0v-.022a2.1,2.1,0,0,1,2.063-2.089h1.163V31.1H143.149v2.859h1.316a2.106,2.106,0,0,1,2.062,2.067v.022h0v25.6h0v.022a2.062,2.062,0,0,1-2.062,2.067H142.6v2.859h13.713Z" transform="translate(-107.329 0)" fill="none" stroke="#f4015f" stroke-width="0.425"/>
      <path id="Path_158" data-name="Path 158" d="M231.887,63.757h-1.6a2.1,2.1,0,0,1-2.062-2.089v-.022h0V33.981h3.489a2.1,2.1,0,0,1,1.887,1.781v3.519h3.247V31.1H213.5v8.159h3.247V35.74a2.1,2.1,0,0,1,1.887-1.781H222.1V61.646h0v.022a2.062,2.062,0,0,1-2.062,2.067h-1.865v2.859h13.713V63.757Z" transform="translate(-162.616)" fill="#f4015f"/>
      <path id="Path_159" data-name="Path 159" d="M231.887,63.757h-1.6a2.1,2.1,0,0,1-2.062-2.089v-.022h0V33.981h3.489a2.1,2.1,0,0,1,1.887,1.781v3.519h3.247V31.1H213.5v8.159h3.247V35.74a2.1,2.1,0,0,1,1.887-1.781H222.1V61.646h0v.022a2.062,2.062,0,0,1-2.062,2.067h-1.865v2.859h13.713V63.757Z" transform="translate(-162.616)" fill="none" stroke="#f4015f" stroke-width="0.425"/>
      <path id="Path_160" data-name="Path 160" d="M335.482,63.757a2.094,2.094,0,0,1-1.975-1.539h-.022L325.06,31.1h-8.535l-8.031,31.1h0a2.068,2.068,0,0,1-1.975,1.539H305.4v2.859h10.269V63.735h-1.6A2.117,2.117,0,0,1,312,61.69l1.975-7.675H324.73l2.062,7.653a2.106,2.106,0,0,1-2.062,2.067h-1.6v2.859h13.406V63.735l-1.053.022ZM319.969,51.178h-5.244l4.235-16.383v-.044h.527v.044l.022-.044h0l4.454,16.427Z" transform="translate(-234.268)" fill="#f4015f"/>
      <path id="Path_161" data-name="Path 161" d="M335.482,63.757a2.094,2.094,0,0,1-1.975-1.539h-.022L325.06,31.1h-8.535l-8.031,31.1h0a2.068,2.068,0,0,1-1.975,1.539H305.4v2.859h10.269V63.735h-1.6A2.117,2.117,0,0,1,312,61.69l1.975-7.675H324.73l2.062,7.653a2.106,2.106,0,0,1-2.062,2.067h-1.6v2.859h13.406V63.735l-1.053.022ZM319.969,51.178h-5.244l4.235-16.383v-.044h.527v.044l.022-.044h0l4.454,16.427Z" transform="translate(-234.268)" fill="none" stroke="#f4015f" stroke-width="0.425"/>
    </g>
  </g>
</svg>
