<svg xmlns="http://www.w3.org/2000/svg" xmlns:xlink="http://www.w3.org/1999/xlink" width="150" height="150" viewBox="0 0 150 150">
  <defs>
    <clipPath id="clip-vita_colored">
      <rect width="150" height="150"/>
    </clipPath>
  </defs>
  <g id="vita_colored" clip-path="url(#clip-vita_colored)">
    <g id="vita" transform="translate(-2.569 17.419)">
      <path id="Path_154" data-name="Path 154" d="M47.955,31.1H33.124v4.266h2.39a3.1,3.1,0,0,1,2.619,1.542L29.228,71.363,20.192,37.925a3.121,3.121,0,0,1,3.012-2.56h2.128V31.1H5v4.266H7.39a3.2,3.2,0,0,1,2.881,2.067h0l.065.2a.96.96,0,0,1,.065.3l.164.591h0L22.909,84.062h8.054l12.048-46.6a3.115,3.115,0,0,1,2.881-2.1h2.063V31.1Z" transform="translate(0 0)" fill="#f4015f"/>
      <path id="Path_155" data-name="Path 155" d="M47.955,31.1H33.124v4.266h2.39a3.1,3.1,0,0,1,2.619,1.542L29.228,71.363,20.192,37.925a3.121,3.121,0,0,1,3.012-2.56h2.128V31.1H5v4.266H7.39a3.2,3.2,0,0,1,2.881,2.067h0l.065.2a.96.96,0,0,1,.065.3l.164.591h0L22.909,84.062h8.054l12.048-46.6a3.115,3.115,0,0,1,2.881-2.1h2.063V31.1Z" transform="translate(0 0)" fill="none" stroke="#f4015f" stroke-width="0.425"/>
      <path id="Path_156" data-name="Path 156" d="M163.063,79.829h-2.39a3.127,3.127,0,0,1-3.078-3.117v-.033h0V38.516h0v-.033a3.127,3.127,0,0,1,3.078-3.117h1.735V31.1H143.419v4.266h1.964a3.142,3.142,0,0,1,3.078,3.085v.033h0v38.2h0v.033a3.077,3.077,0,0,1-3.078,3.085H142.6v4.266h20.463Z" transform="translate(-92.431 0)" fill="#f4015f"/>
      <path id="Path_157" data-name="Path 157" d="M163.063,79.829h-2.39a3.127,3.127,0,0,1-3.078-3.117v-.033h0V38.516h0v-.033a3.127,3.127,0,0,1,3.078-3.117h1.735V31.1H143.419v4.266h1.964a3.142,3.142,0,0,1,3.078,3.085v.033h0v38.2h0v.033a3.077,3.077,0,0,1-3.078,3.085H142.6v4.266h20.463Z" transform="translate(-92.431 0)" fill="none" stroke="#f4015f" stroke-width="0.425"/>
      <path id="Path_158" data-name="Path 158" d="M240.936,79.829h-2.39a3.127,3.127,0,0,1-3.078-3.117v-.033h0V35.4h5.206a3.133,3.133,0,0,1,2.816,2.658v5.25h4.846V31.1H213.5V43.274h4.846v-5.25a3.135,3.135,0,0,1,2.816-2.658h5.173V76.679h0v.033a3.078,3.078,0,0,1-3.078,3.085h-2.783v4.266h20.463V79.829Z" transform="translate(-140.033 0)" fill="#f4015f"/>
      <path id="Path_159" data-name="Path 159" d="M240.936,79.829h-2.39a3.127,3.127,0,0,1-3.078-3.117v-.033h0V35.4h5.206a3.133,3.133,0,0,1,2.816,2.658v5.25h4.846V31.1H213.5V43.274h4.846v-5.25a3.135,3.135,0,0,1,2.816-2.658h5.173V76.679h0v.033a3.078,3.078,0,0,1-3.078,3.085h-2.783v4.266h20.463V79.829Z" transform="translate(-140.033 0)" fill="none" stroke="#f4015f" stroke-width="0.425"/>
      <path id="Path_160" data-name="Path 160" d="M350.287,79.829a3.124,3.124,0,0,1-2.947-2.3h-.033L334.735,31.1H322L310.016,77.5h0a3.085,3.085,0,0,1-2.947,2.3H305.4v4.266h15.323V79.8h-2.39a3.159,3.159,0,0,1-3.078-3.052L318.2,65.293h16.043l3.078,11.419a3.142,3.142,0,0,1-3.078,3.085h-2.39v4.266h20V79.8l-1.572.033ZM327.139,61.06h-7.825l6.319-24.447v-.066h.786v.066l.033-.066h0L333.1,61.06Z" transform="translate(-201.721 0)" fill="#f4015f"/>
      <path id="Path_161" data-name="Path 161" d="M350.287,79.829a3.124,3.124,0,0,1-2.947-2.3h-.033L334.735,31.1H322L310.016,77.5h0a3.085,3.085,0,0,1-2.947,2.3H305.4v4.266h15.323V79.8h-2.39a3.159,3.159,0,0,1-3.078-3.052L318.2,65.293h16.043l3.078,11.419a3.142,3.142,0,0,1-3.078,3.085h-2.39v4.266h20V79.8l-1.572.033ZM327.139,61.06h-7.825l6.319-24.447v-.066h.786v.066l.033-.066h0L333.1,61.06Z" transform="translate(-201.721 0)" fill="none" stroke="#f4015f" stroke-width="0.425"/>
    </g>
  </g>
</svg>
