<svg xmlns="http://www.w3.org/2000/svg" xmlns:xlink="http://www.w3.org/1999/xlink" width="100" height="100" viewBox="0 0 100 100">
  <defs>
    <clipPath id="clip-wieland_colored">
      <rect width="100" height="100"/>
    </clipPath>
  </defs>
  <g id="wieland_colored" clip-path="url(#clip-wieland_colored)">
    <g id="wieland" transform="translate(-4.014 27.703)">
      <path id="path0" d="M28.441,18.549v7.809h4.094V10.74H28.441v7.809M6.4,11.106c.049.174,1,3.676,2.106,7.783l2.016,7.468h4.1l1.051-5.294c.948-4.776,1.111-5.556,1.14-5.471,0,.014.49,2.436,1.078,5.383l1.07,5.358,2.022.013,2.022.013,2.135-7.746c1.174-4.261,2.135-7.764,2.134-7.785s-.9-.033-2.005-.025l-2,.013-1.1,5.661c-.6,3.113-1.116,5.656-1.141,5.65s-.558-2.559-1.184-5.673l-1.139-5.663H16.8c-1.049,0-1.908.019-1.908.043,0,.107-2.267,11.288-2.294,11.315-.052.052-.036.131-1.138-5.6-.591-3.072-1.086-5.625-1.1-5.674-.022-.082-.163-.089-2.039-.089H6.31l.09.316m28.056,7.468v7.784h9.906V22.77l-2.919-.013-2.919-.013-.013-1.428L38.5,19.888h4.8V16.7H38.549V14.025h5.812V10.79H34.456v7.784m11.827,0v7.784h7.367l.638-1.759c.351-.968.638-1.775.638-1.794s-1.035-.035-2.3-.035h-2.3V10.79H46.283v7.784m14.328-7.72c-.066.18-5.733,15.341-5.762,15.416s.085.089,2.038.089h2.073l.049-.139c.027-.076.236-.673.465-1.327s.437-1.228.463-1.277c.044-.083.215-.088,2.758-.076l2.711.013.483,1.4.483,1.4h2.091c2.089,0,2.091,0,2.064-.1-.015-.058-1.319-3.56-2.9-7.784l-2.87-7.679H62.7a10.123,10.123,0,0,0-2.086.063m11.1,7.72v7.784H75.5V21.506c0-2.669.019-4.852.043-4.852S76.8,18.836,78.282,21.5l2.7,4.851h4.17V10.79H81.36v4.8c0,2.641-.019,4.8-.042,4.8s-1.257-2.16-2.742-4.8l-2.7-4.8-2.085,0-2.085,0v7.784m15.719,0v7.787l3.576,0c3.718,0,4.241-.022,5.12-.2,3.5-.71,5.446-3.221,5.59-7.228.144-4.025-1.64-6.832-4.941-7.779-1.156-.331-1.049-.325-5.389-.345l-3.955-.019v7.787m6.517-4.292c2.531.224,3.746,1.607,3.742,4.259,0,3.267-1.223,4.332-4.956,4.332h-1.26V14.227h.948c.521,0,1.208.023,1.526.052M63.589,17.82c.461,1.462.838,2.673.838,2.691s-.8.034-1.774.034a6.463,6.463,0,0,1-1.751-.063c.013-.035.4-1.246.871-2.691.915-2.838.878-2.733.938-2.671.022.023.418,1.238.879,2.7m-17.206,13.9v2.13l.9-.03c2.089-.07,2.853-.787,2.642-2.481-.161-1.291-.926-1.749-2.92-1.75h-.619v2.13M57.2,31.715v2.123h2.477v-.655l-.821-.014-.821-.014V31.993l.746-.014.746-.014v-.652L58.78,31.3l-.746-.014V30.275l.821-.014.821-.014v-.655H57.2v2.123m9.755,0v2.123h.807l.013-1.554.013-1.554.79,1.542.79,1.541.512.014.511.014V29.588L70,29.6l-.392.015-.025,1.526-.025,1.526-.783-1.538-.783-1.537H66.955v2.123m10.412-1.8v.327l.594.014.594.014.013,1.782.013,1.781h.858V30.25H80.6v-.657H77.367v.327M87.551,31.67c-.445,1.142-.816,2.1-.825,2.122a.994.994,0,0,0,.432.046h.449l.174-.48.174-.48h1.724l.174.48.174.48H90.5c.429,0,.47-.008.442-.088-.017-.049-.389-1-.827-2.123l-.8-2.034h-.96l-.809,2.077m10.437.045v2.123h2.477v-.655l-.821-.014-.821-.014-.013-1.782L98.8,29.592h-.807v2.123M48.231,30.4a1.438,1.438,0,0,1-.617,2.745l-.4.012L47.2,31.767c-.007-.764,0-1.421.013-1.459.036-.095.731-.033,1.014.091m40.905.938c.144.417.261.775.26.8a2.338,2.338,0,0,1-.588.038c-.448,0-.581-.015-.564-.063s.143-.411.291-.836a3.24,3.24,0,0,1,.3-.733c.019.022.153.381.3.8" transform="translate(0)" fill="#3171b5" fill-rule="evenodd"/>
    </g>
  </g>
</svg>
