<svg id="svg" xmlns="http://www.w3.org/2000/svg" xmlns:xlink="http://www.w3.org/1999/xlink" width="400" height="115.09625126646402" viewBox="0, 0, 400,115.09625126646402"><g id="svgg"><path id="path0" d="M95.035 42.047 L 95.035 73.354 103.242 73.354 L 111.449 73.354 111.449 42.047 L 111.449 10.740 103.242 10.740 L 95.035 10.740 95.035 42.047 M6.669 12.209 C 6.867 12.905,10.666 26.948,15.112 43.414 L 23.196 73.354 31.424 73.354 L 39.653 73.354 43.868 52.128 C 47.670 32.982,48.322 29.854,48.439 30.193 C 48.458 30.248,50.403 39.959,52.762 51.773 L 57.050 73.252 65.156 73.305 L 73.263 73.358 81.824 42.302 C 86.532 25.221,90.383 11.177,90.380 11.092 C 90.377 11.007,86.759 10.961,82.340 10.991 L 74.306 11.044 69.915 33.739 C 67.500 46.221,65.442 56.415,65.342 56.392 C 65.241 56.369,63.105 46.134,60.594 33.647 L 56.028 10.944 48.379 10.943 C 44.172 10.943,40.729 11.020,40.729 11.115 C 40.729 11.545,31.641 56.370,31.531 56.479 C 31.323 56.688,31.387 57.004,26.968 34.043 C 24.598 21.727,22.615 11.492,22.562 11.297 C 22.472 10.967,21.908 10.942,14.388 10.942 L 6.310 10.942 6.669 12.209 M119.149 42.148 L 119.149 73.354 139.007 73.354 L 158.865 73.354 158.865 66.162 L 158.865 58.970 147.163 58.918 L 135.461 58.865 135.407 53.141 L 135.353 47.416 144.982 47.416 L 154.610 47.416 154.610 41.033 L 154.610 34.650 145.086 34.650 L 135.562 34.650 135.562 29.281 L 135.562 23.911 147.214 23.911 L 158.865 23.911 158.865 17.427 L 158.865 10.942 139.007 10.942 L 119.149 10.942 119.149 42.148 M166.565 42.148 L 166.565 73.354 181.332 73.354 L 196.099 73.354 198.657 66.300 C 200.065 62.420,201.216 59.183,201.216 59.106 C 201.216 59.030,197.067 58.967,191.996 58.967 L 182.776 58.967 182.776 34.954 L 182.776 10.942 174.671 10.942 L 166.565 10.942 166.565 42.148 M224.008 11.196 C 223.743 11.919,201.024 72.698,200.906 72.999 C 200.775 73.333,201.245 73.354,209.077 73.354 L 217.387 73.354 217.584 72.796 C 217.693 72.490,218.532 70.096,219.449 67.477 C 220.366 64.858,221.202 62.555,221.306 62.359 C 221.484 62.025,222.169 62.006,232.365 62.055 L 243.234 62.107 245.172 67.730 L 247.110 73.354 255.494 73.354 C 263.868 73.354,263.877 73.353,263.768 72.935 C 263.707 72.704,258.479 58.662,252.149 41.729 L 240.641 10.942 232.371 10.942 C 225.939 10.942,224.080 10.999,224.008 11.196 M268.490 42.148 L 268.490 73.354 276.089 73.354 L 283.688 73.354 283.688 53.901 C 283.688 43.202,283.766 34.448,283.862 34.448 C 283.958 34.448,288.904 43.199,294.855 53.896 L 305.674 73.343 314.032 73.348 L 322.391 73.354 322.391 42.148 L 322.391 10.942 314.792 10.942 L 307.194 10.942 307.194 30.193 C 307.194 40.780,307.118 49.443,307.026 49.443 C 306.934 49.443,301.987 40.783,296.033 30.199 L 285.208 10.956 276.849 10.949 L 268.490 10.942 268.490 42.148 M331.510 42.136 L 331.510 73.354 345.846 73.347 C 360.751 73.340,362.847 73.258,366.373 72.544 C 380.420 69.699,388.206 59.630,388.782 43.566 C 389.360 27.431,382.209 16.174,368.972 12.378 C 364.339 11.050,364.767 11.077,347.366 10.994 L 331.510 10.918 331.510 42.136 M357.636 24.930 C 367.782 25.828,372.655 31.373,372.640 42.003 C 372.622 55.101,367.736 59.372,352.772 59.372 L 347.720 59.372 347.720 42.047 L 347.720 24.721 351.520 24.723 C 353.609 24.724,356.362 24.817,357.636 24.930 M235.950 39.126 C 237.799 44.987,239.311 49.842,239.311 49.916 C 239.311 49.990,236.110 50.051,232.197 50.051 C 226.592 50.051,225.103 49.997,225.176 49.797 C 225.227 49.658,226.798 44.802,228.668 39.007 C 232.338 27.628,232.189 28.052,232.427 28.300 C 232.516 28.394,234.101 33.265,235.950 39.126 M166.971 94.863 L 166.971 103.404 170.567 103.284 C 178.941 103.005,182.004 100.128,181.159 93.337 C 180.515 88.162,177.448 86.325,169.453 86.323 L 166.971 86.322 166.971 94.863 M210.334 94.833 L 210.334 103.343 215.299 103.343 L 220.263 103.343 220.263 102.031 L 220.263 100.719 216.971 100.664 L 213.678 100.608 213.678 98.278 L 213.678 95.947 216.667 95.891 L 219.656 95.835 219.656 94.529 L 219.656 93.223 216.667 93.167 L 213.678 93.110 213.678 91.084 L 213.678 89.058 216.971 89.002 L 220.263 88.946 220.263 87.634 L 220.263 86.322 215.299 86.322 L 210.334 86.322 210.334 94.833 M249.443 94.833 L 249.443 103.343 251.061 103.343 L 252.679 103.343 252.733 97.112 L 252.786 90.881 255.954 97.062 L 259.121 103.242 261.172 103.300 L 263.222 103.358 263.222 94.831 L 263.222 86.305 261.651 86.364 L 260.081 86.424 259.980 92.542 L 259.878 98.660 256.738 92.495 L 253.597 86.331 251.520 86.326 L 249.443 86.322 249.443 94.833 M291.185 87.633 L 291.185 88.944 293.566 89.001 L 295.947 89.058 296.001 96.201 L 296.054 103.343 297.774 103.343 L 299.493 103.343 299.493 96.150 L 299.493 88.956 301.824 88.956 L 304.154 88.956 304.154 87.639 L 304.154 86.322 297.670 86.322 L 291.185 86.322 291.185 87.633 M332.016 94.651 C 330.233 99.230,328.744 103.060,328.707 103.160 C 328.669 103.261,329.449 103.343,330.439 103.343 L 332.239 103.343 332.938 101.419 L 333.637 99.494 337.092 99.494 L 340.547 99.493 341.246 101.418 L 341.945 103.343 343.841 103.343 C 345.559 103.343,345.726 103.310,345.613 102.989 C 345.544 102.794,344.053 98.964,342.298 94.479 L 339.108 86.324 337.183 86.324 L 335.258 86.325 332.016 94.651 M373.860 94.833 L 373.860 103.343 378.825 103.343 L 383.789 103.343 383.789 102.031 L 383.789 100.719 380.496 100.664 L 377.204 100.608 377.150 93.465 L 377.097 86.322 375.479 86.322 L 373.860 86.322 373.860 94.833 M174.377 89.553 C 180.063 92.034,178.190 100.363,171.903 100.559 L 170.314 100.608 170.260 95.038 C 170.230 91.975,170.254 89.343,170.313 89.189 C 170.459 88.809,173.244 89.058,174.377 89.553 M338.372 93.313 C 338.948 94.985,339.418 96.421,339.416 96.505 C 339.414 96.588,338.354 96.657,337.060 96.657 C 335.265 96.657,334.730 96.597,334.799 96.403 C 334.849 96.264,335.374 94.755,335.966 93.050 C 336.558 91.345,337.106 90.023,337.183 90.112 C 337.261 90.201,337.795 91.641,338.372 93.313 " stroke="none" fill="#000000" fill-rule="evenodd"></path></g></svg>