<svg xmlns="http://www.w3.org/2000/svg" xmlns:xlink="http://www.w3.org/1999/xlink" width="150" height="150" viewBox="0 0 150 150">
  <defs>
    <clipPath id="clip-wieland_colored">
      <rect width="150" height="150"/>
    </clipPath>
  </defs>
  <g id="wieland_colored" clip-path="url(#clip-wieland_colored)">
    <g id="wieland" transform="translate(-0.964 47.386)">
      <path id="path0" d="M38.624,22.142v11.4H44.6V10.74H38.624v11.4M6.441,11.275c.072.253,1.456,5.368,3.075,11.365l2.944,10.9h5.994l1.535-7.731c1.385-6.973,1.622-8.112,1.665-7.989.007.02.715,3.557,1.574,7.859l1.562,7.823,2.952.019,2.953.019,3.118-11.311c1.715-6.221,3.117-11.336,3.116-11.367S35.61,10.82,34,10.831l-2.926.019-1.6,8.266c-.88,4.546-1.629,8.259-1.665,8.25s-.815-3.736-1.729-8.284l-1.663-8.268H21.632c-1.532,0-2.786.028-2.786.063,0,.157-3.31,16.482-3.35,16.522-.076.076-.052.191-1.662-8.171-.863-4.485-1.585-8.213-1.6-8.284-.033-.12-.238-.129-2.977-.129H6.31l.131.461m40.965,10.9V33.544H61.871V28.305l-4.262-.019-4.262-.019-.02-2.085-.02-2.085h7.013V19.448H53.384V15.537h8.487V10.814H47.406V22.179m17.269,0V33.544H75.431l.932-2.569c.513-1.413.932-2.592.932-2.62s-1.511-.051-3.358-.051H70.579V10.814h-5.9V22.179M85.6,10.906c-.1.263-8.371,22.4-8.414,22.509s.123.129,2.976.129h3.027l.072-.2c.04-.111.345-.983.679-1.937s.638-1.793.676-1.864c.065-.122.314-.129,4.028-.111l3.958.019L93.3,31.5l.706,2.048h3.053c3.05,0,3.053,0,3.013-.153-.022-.084-1.926-5.2-4.232-11.365L91.654,10.814H88.642a14.781,14.781,0,0,0-3.046.093m16.2,11.273V33.544h5.535V26.459c0-3.9.028-7.085.063-7.085s1.836,3.187,4,7.083l3.94,7.083,3.044,0,3.044,0V10.814h-5.535v7.011c0,3.856-.028,7.011-.061,7.011s-1.835-3.154-4-7.009l-3.942-7.008-3.044,0-3.044,0V22.179m22.952,0v11.37l5.221,0c5.428,0,6.192-.032,7.476-.292,5.116-1.036,7.952-4.7,8.161-10.554.21-5.876-2.394-9.976-7.215-11.359-1.687-.484-1.531-.474-7.869-.5l-5.775-.028v11.37m9.515-6.266c3.7.327,5.47,2.347,5.464,6.218-.007,4.77-1.786,6.326-7.236,6.326h-1.84V15.832h1.384c.761,0,1.763.034,2.227.075m-44.318,5.17c.673,2.135,1.224,3.9,1.224,3.93s-1.166.049-2.591.049a9.437,9.437,0,0,1-2.557-.093c.019-.051.591-1.819,1.272-3.93,1.337-4.144,1.282-3.99,1.369-3.9.032.034.61,1.808,1.283,3.943m-25.122,20.3v3.111l1.31-.044c3.05-.1,4.165-1.149,3.858-3.623-.235-1.885-1.352-2.554-4.263-2.555h-.9v3.111m15.793-.011v3.1h3.616V43.51l-1.2-.02-1.2-.02v-1.7l1.089-.02,1.089-.02V40.78l-1.089-.02-1.089-.021V39.263l1.2-.02,1.2-.02v-.956H80.616v3.1m14.244,0v3.1h1.179l.02-2.269.019-2.269,1.154,2.251,1.153,2.251.747.021.747.021V38.261l-.572.021-.572.022L98.7,40.532l-.037,2.228-1.144-2.245L96.372,38.27l-.756,0h-.756v3.1m15.2-2.622v.477l.867.021.867.021.02,2.6.019,2.6h1.252v-5.24h1.7v-.959h-4.723v.477M124.932,41.3c-.649,1.668-1.192,3.063-1.205,3.1a1.452,1.452,0,0,0,.631.067h.656l.255-.7.255-.7h2.517l.255.7.255.7h.691c.626,0,.687-.012.645-.129-.025-.071-.568-1.466-1.207-3.1l-1.162-2.97h-1.4L124.932,41.3m15.24.066v3.1h3.616V43.51l-1.2-.02-1.2-.02-.02-2.6-.019-2.6h-1.179v3.1M67.52,39.444a2.1,2.1,0,0,1-.9,4.008l-.579.018-.02-2.029c-.011-1.116,0-2.074.019-2.13.053-.138,1.067-.048,1.48.133m59.727,1.369c.21.609.381,1.132.38,1.163a3.413,3.413,0,0,1-.858.055c-.654,0-.849-.022-.823-.093.018-.051.209-.6.425-1.221a4.731,4.731,0,0,1,.443-1.07c.028.032.223.557.433,1.166" transform="translate(0)" fill="#3171b5" fill-rule="evenodd"/>
    </g>
  </g>
</svg>
