<svg xmlns="http://www.w3.org/2000/svg" xmlns:xlink="http://www.w3.org/1999/xlink" width="250" height="80" viewBox="0 0 250 80">
  <defs>
    <clipPath id="clip-hessel-lutgen_stacked">
      <rect width="250" height="80"/>
    </clipPath>
  </defs>
  <g id="hessel-lutgen_stacked" clip-path="url(#clip-hessel-lutgen_stacked)">
    <g id="Group_1" data-name="Group 1" transform="translate(5 -1.821)">
      <path id="Path_175" data-name="Path 175" d="M21.854-9.436A9,9,0,0,1,18.97-2.478a11.089,11.089,0,0,1-7.8,2.646q-.616,0-2.492-.056Q6.748.056,6.1.056q-2.6,0-5.068.112Q.812.168.812-.224q0-.35.224-.378A8.083,8.083,0,0,0,2.814-.973,1.652,1.652,0,0,0,3.675-1.6,2.761,2.761,0,0,0,3.92-2.968V-16.086a2.911,2.911,0,0,0-.231-1.365,1.59,1.59,0,0,0-.847-.637,7.829,7.829,0,0,0-1.806-.378q-.224,0-.224-.392t.224-.392q1.638.112,5.068.112.644,0,2.576-.042,1.876-.042,2.492-.042a10.912,10.912,0,0,1,7.735,2.737A9.186,9.186,0,0,1,21.854-9.436Zm-3.08,0A9.362,9.362,0,0,0,16.6-15.771,6.9,6.9,0,0,0,11.144-18.3H11.06l-2.632.056q-1.652.056-1.652,1.624V-2.436A1.436,1.436,0,0,0,8.428-.84l2.632.084a7.079,7.079,0,0,0,5.488-2.485A8.941,8.941,0,0,0,18.774-9.436ZM36.288-7.784q0,.392-.5.392H28.112a14.2,14.2,0,0,0-.084,1.568A5.066,5.066,0,0,0,29.1-2.359a3.851,3.851,0,0,0,3.045,1.211,4.261,4.261,0,0,0,2-.532A4.754,4.754,0,0,0,35.77-3.038l.07-.028a.324.324,0,0,1,.245.154.578.578,0,0,1,.119.364q0,.294-.9,1.225A6.546,6.546,0,0,1,33.362.1a5.138,5.138,0,0,1-2.2.49A5.57,5.57,0,0,1,26.922-1.26,6.405,6.405,0,0,1,25.2-5.8a6.76,6.76,0,0,1,1.687-4.648,5.465,5.465,0,0,1,4.277-1.9,5.057,5.057,0,0,1,3.647,1.421A4.29,4.29,0,0,1,36.288-7.784ZM33.74-9.016a2.316,2.316,0,0,0-.721-1.743,2.566,2.566,0,0,0-1.855-.693,2.412,2.412,0,0,0-1.869.9,4.92,4.92,0,0,0-1.071,2.373l3.892-.112a3.751,3.751,0,0,0,1.253-.168A.559.559,0,0,0,33.74-9.016ZM53.606-.224q0,.392-.224.392A13.691,13.691,0,0,1,52.01.084Q51.114,0,50.428,0t-1.61.084q-.826.084-1.386.084-.224,0-.224-.392,0-.35.224-.378A1.725,1.725,0,0,0,48.7-1.148a3.606,3.606,0,0,0,.3-1.82V-7.644a3.517,3.517,0,0,0-.616-2.3,2.357,2.357,0,0,0-1.9-.728,3.2,3.2,0,0,0-1.435.308,4.774,4.774,0,0,0-1.337,1.092v6.3a3.606,3.606,0,0,0,.3,1.82A1.725,1.725,0,0,0,45.276-.6q.224.028.224.378,0,.392-.224.392-.574,0-1.4-.084Q42.966,0,42.28,0T40.712.084q-.826.084-1.4.084-.224,0-.224-.392,0-.35.224-.378a2.445,2.445,0,0,0,1.554-.581,3.067,3.067,0,0,0,.35-1.785v-5.18a2.53,2.53,0,0,0-.287-1.47,1.971,1.971,0,0,0-1.281-.462q-.224,0-.224-.364,0-.336.224-.336a12.586,12.586,0,0,0,2.31-.791,3.942,3.942,0,0,0,1.162-.721.4.4,0,0,1,.308-.168q.392,0,.392.224l-.112,1.764a5.771,5.771,0,0,1,3.752-1.876,3.977,3.977,0,0,1,2.975,1.092,4.017,4.017,0,0,1,1.071,2.94v5.348a3.115,3.115,0,0,0,.343,1.792A2.416,2.416,0,0,0,53.382-.6Q53.606-.574,53.606-.224ZM64.512-10.976q0,.756-.364.756l-4.172-.112v6.72q0,2.632,1.876,2.632a4.173,4.173,0,0,0,2.114-.546.252.252,0,0,1,.2.147.588.588,0,0,1,.091.315q0,.35-1.043.945a4.648,4.648,0,0,1-2.345.6A3.4,3.4,0,0,1,58.324-.5a3.516,3.516,0,0,1-.952-2.569v-.126l.056-6.8q0-.392-.336-.392H56.028q-.308,0-.308-.364a.452.452,0,0,1,.252-.42,10.8,10.8,0,0,0,3.388-3.234.46.46,0,0,1,.392-.224q.392,0,.392.224l-.112,2.674h4.116Q64.512-11.732,64.512-10.976ZM76.272.476A2.414,2.414,0,0,1,74.907.091a1.918,1.918,0,0,1-.791-1.043A5.223,5.223,0,0,1,70.2.588a2.826,2.826,0,0,1-2.058-.777,2.6,2.6,0,0,1-.8-1.939q0-2.87,6.8-4.648l.084-2.184v-.07a2.422,2.422,0,0,0-.5-1.6,1.637,1.637,0,0,0-1.323-.595,2.392,2.392,0,0,0-1.4.4,1.222,1.222,0,0,0-.588,1,2.065,2.065,0,0,1-.469,1.4,1.552,1.552,0,0,1-1.211.5,1.014,1.014,0,0,1-.728-.266.938.938,0,0,1-.28-.714q0-1.078,1.96-2.261a7.136,7.136,0,0,1,3.64-1.183,3.4,3.4,0,0,1,2.45.9,3.174,3.174,0,0,1,.938,2.408v.168l-.2,6.328v.1q0,1.47.952,1.47a1.742,1.742,0,0,0,1.078-.56l.1-.028a.267.267,0,0,1,.21.147.558.558,0,0,1,.1.315q0,.406-.847.994A3.163,3.163,0,0,1,76.272.476Zm-2.156-6.3q-4.088.924-4.088,3.052,0,1.988,1.54,1.988a3.166,3.166,0,0,0,1.463-.371A2.034,2.034,0,0,0,74-2.072ZM87-.252q0,.392-.224.392Q86.2.14,85.3.07,84.294,0,83.608,0T81.942.07q-.9.07-1.47.07-.224,0-.224-.392,0-.35.224-.378A2.411,2.411,0,0,0,82.019-1.2,3.051,3.051,0,0,0,82.376-3V-16a2.617,2.617,0,0,0-.28-1.484,1.96,1.96,0,0,0-1.288-.462q-.224-.028-.224-.35t.224-.336a14.87,14.87,0,0,0,2.408-.805,3.584,3.584,0,0,0,1.176-.721.412.412,0,0,1,.308-.154q.392,0,.392.224-.224,3.136-.224,4.872V-3a3.1,3.1,0,0,0,.35,1.8,2.4,2.4,0,0,0,1.554.567Q87-.6,87-.252ZM97.86-10.976q0,.756-.364.756l-4.172-.112v6.72Q93.324-.98,95.2-.98a4.173,4.173,0,0,0,2.114-.546.252.252,0,0,1,.2.147.588.588,0,0,1,.091.315q0,.35-1.043.945a4.648,4.648,0,0,1-2.345.6A3.4,3.4,0,0,1,91.672-.5a3.516,3.516,0,0,1-.952-2.569v-.126l.056-6.8q0-.392-.336-.392H89.376q-.308,0-.308-.364a.452.452,0,0,1,.252-.42,10.8,10.8,0,0,0,3.388-3.234.46.46,0,0,1,.392-.224q.392,0,.392.224l-.112,2.674H97.5Q97.86-11.732,97.86-10.976Zm13.412,3.192q0,.392-.5.392H103.1a14.2,14.2,0,0,0-.084,1.568,5.066,5.066,0,0,0,1.071,3.465,3.851,3.851,0,0,0,3.045,1.211,4.261,4.261,0,0,0,2-.532,4.754,4.754,0,0,0,1.624-1.358l.07-.028a.324.324,0,0,1,.245.154.578.578,0,0,1,.119.364q0,.294-.9,1.225A6.546,6.546,0,0,1,108.346.1a5.138,5.138,0,0,1-2.2.49,5.57,5.57,0,0,1-4.242-1.848A6.405,6.405,0,0,1,100.184-5.8a6.76,6.76,0,0,1,1.687-4.648,5.465,5.465,0,0,1,4.277-1.9,5.057,5.057,0,0,1,3.647,1.421A4.29,4.29,0,0,1,111.272-7.784Zm-2.548-1.232A2.316,2.316,0,0,0,108-10.759a2.566,2.566,0,0,0-1.855-.693,2.412,2.412,0,0,0-1.869.9,4.92,4.92,0,0,0-1.071,2.373l3.892-.112a3.751,3.751,0,0,0,1.253-.168A.559.559,0,0,0,108.724-9.016Zm16.464-1.12a1.015,1.015,0,0,1-1.148,1.148,1.423,1.423,0,0,1-.805-.21,2.2,2.2,0,0,1-.637-.91,2.409,2.409,0,0,0-.805-1.085,2.124,2.124,0,0,0-1.113-.259,2.872,2.872,0,0,0-2.583,1.407,7.754,7.754,0,0,0-.889,4.109,5.585,5.585,0,0,0,1.12,3.633,3.662,3.662,0,0,0,3,1.379,4.4,4.4,0,0,0,3.374-1.33l.07-.028a.322.322,0,0,1,.245.161.587.587,0,0,1,.119.357q0,.28-.819.966A5.868,5.868,0,0,1,122.521.238a6.054,6.054,0,0,1-2.065.35,5.763,5.763,0,0,1-4.291-1.841,6.415,6.415,0,0,1-1.785-4.655,6.18,6.18,0,0,1,1.869-4.613,6.124,6.124,0,0,1,4.431-1.827,7.132,7.132,0,0,1,3.2.651Q125.188-11.046,125.188-10.136ZM142.814-.224q0,.392-.224.392-.56,0-1.386-.084Q140.308,0,139.636,0q-.7,0-1.61.084-.826.084-1.386.084-.224,0-.224-.392,0-.35.224-.378a1.725,1.725,0,0,0,1.267-.546,3.606,3.606,0,0,0,.3-1.82V-7.644q0-3.024-2.744-3.024a3.9,3.9,0,0,0-3,1.4v6.3a3.069,3.069,0,0,0,.364,1.75A2.007,2.007,0,0,0,134.26-.6q.224.028.224.378,0,.392-.224.392-.574,0-1.5-.084Q131.726,0,131.04,0t-1.6.084a13.382,13.382,0,0,1-1.372.084q-.224,0-.224-.392,0-.35.224-.378a2.31,2.31,0,0,0,1.526-.553,3.136,3.136,0,0,0,.35-1.813V-15.974a2.673,2.673,0,0,0-.273-1.484,1.9,1.9,0,0,0-1.267-.462q-.224-.028-.224-.35,0-.364.224-.364a8.974,8.974,0,0,0,3.542-1.484.619.619,0,0,1,.35-.168q.392,0,.392.224-.224,2.3-.224,4.872v4.746a5.84,5.84,0,0,1,3.948-1.9,4.338,4.338,0,0,1,3.129,1.092,3.879,3.879,0,0,1,1.141,2.94v5.348a3.051,3.051,0,0,0,.357,1.8A2.411,2.411,0,0,0,142.59-.6Q142.814-.574,142.814-.224Zm16.408,0q0,.392-.224.392a13.692,13.692,0,0,1-1.372-.084Q156.73,0,156.044,0t-1.61.084q-.826.084-1.386.084-.224,0-.224-.392,0-.35.224-.378a1.725,1.725,0,0,0,1.267-.546,3.606,3.606,0,0,0,.3-1.82V-7.644A3.517,3.517,0,0,0,154-9.94a2.357,2.357,0,0,0-1.9-.728,3.2,3.2,0,0,0-1.435.308,4.774,4.774,0,0,0-1.337,1.092v6.3a3.606,3.606,0,0,0,.3,1.82,1.725,1.725,0,0,0,1.267.546q.224.028.224.378,0,.392-.224.392-.574,0-1.4-.084Q148.582,0,147.9,0t-1.568.084q-.826.084-1.4.084-.224,0-.224-.392,0-.35.224-.378a2.445,2.445,0,0,0,1.554-.581,3.067,3.067,0,0,0,.35-1.785v-5.18a2.53,2.53,0,0,0-.287-1.47,1.971,1.971,0,0,0-1.281-.462q-.224,0-.224-.364,0-.336.224-.336a12.586,12.586,0,0,0,2.31-.791,3.942,3.942,0,0,0,1.162-.721.4.4,0,0,1,.308-.168q.392,0,.392.224l-.112,1.764a5.771,5.771,0,0,1,3.752-1.876,3.977,3.977,0,0,1,2.975,1.092,4.017,4.017,0,0,1,1.071,2.94v5.348a3.115,3.115,0,0,0,.343,1.792A2.416,2.416,0,0,0,159-.6Q159.222-.574,159.222-.224Zm6.734-16.926a1.41,1.41,0,0,1-.427,1.022,1.391,1.391,0,0,1-1.029.434,1.391,1.391,0,0,1-1.029-.434,1.41,1.41,0,0,1-.427-1.022,1.408,1.408,0,0,1,.42-1.036,1.408,1.408,0,0,1,1.036-.42,1.414,1.414,0,0,1,1.029.42A1.4,1.4,0,0,1,165.956-17.15Zm1.96,16.926q0,.392-.224.392-.574,0-1.47-.084Q165.214,0,164.528,0t-1.68.084q-.882.084-1.456.084-.224,0-.224-.392,0-.35.224-.378a2.416,2.416,0,0,0,1.533-.574,3.115,3.115,0,0,0,.343-1.792v-5.18a2.53,2.53,0,0,0-.287-1.47,1.924,1.924,0,0,0-1.253-.462q-.224,0-.224-.364,0-.336.224-.336a14.87,14.87,0,0,0,2.408-.805,3.8,3.8,0,0,0,1.176-.707.4.4,0,0,1,.308-.168q.392,0,.392.224-.224,3.136-.224,4.872v4.4a3.115,3.115,0,0,0,.343,1.792,2.462,2.462,0,0,0,1.561.574Q167.916-.574,167.916-.224Zm16.758,0q0,.392-.224.392-.56,0-1.442-.084Q182.042,0,181.356,0t-1.722.084q-.966.084-1.526.084-.224,0-.224-.392,0-.35.224-.378a1.3,1.3,0,0,0,.518-.14.414.414,0,0,0,.154-.378q0-.42-1.344-1.848L175.2-5.46a1.022,1.022,0,0,0-.756-.28v2.772a3.7,3.7,0,0,0,.3,1.75,1.4,1.4,0,0,0,1.127.616q.224.028.224.378,0,.392-.224.392-.6,0-1.568-.084Q173.376,0,172.844,0q-.6,0-1.456.084-.812.084-1.344.084-.224,0-.224-.392,0-.35.224-.378a2.31,2.31,0,0,0,1.526-.553,3.135,3.135,0,0,0,.35-1.813V-15.974a2.673,2.673,0,0,0-.273-1.484,1.9,1.9,0,0,0-1.267-.462q-.224-.028-.224-.35,0-.364.224-.364a8.974,8.974,0,0,0,3.542-1.484.619.619,0,0,1,.35-.168q.392,0,.392.224-.224,2.3-.224,4.872v8.666a1.145,1.145,0,0,0,.8-.266l2.086-1.974q.1-.1.322-.294,1.162-1.05,1.162-1.554,0-.364-1.12-.5-.224-.028-.224-.392,0-.392.224-.392.588,0,1.484.084.826.084,1.372.084a10.122,10.122,0,0,0,1.05-.07,11.414,11.414,0,0,1,1.4-.1q.224,0,.224.392,0,.364-.224.392a5.526,5.526,0,0,0-1.785.476,10.147,10.147,0,0,0-2.065,1.512L176.736-7,180.4-2.968a9.6,9.6,0,0,0,1.96,1.75A5.151,5.151,0,0,0,184.45-.6Q184.674-.574,184.674-.224Z" transform="translate(27.941 28)" fill="#f37021"/>
      <path id="Path_176" data-name="Path 176" d="M2.425,0V-18.789H5.091v7.922h8.938v-7.922h2.666V0H14.028V-8.874H5.091V0Zm32.3-.444a15.244,15.244,0,0,1-4.3.762,6.547,6.547,0,0,1-4.97-2.025,7.31,7.31,0,0,1-1.923-5.25A7.692,7.692,0,0,1,25.226-12.1,5.422,5.422,0,0,1,29.562-14.1a4.589,4.589,0,0,1,3.866,1.777,8.149,8.149,0,0,1,1.365,5.053L34.78-6.5h-8.7q.546,4.913,4.812,4.913a11.492,11.492,0,0,0,3.834-.838ZM26.2-8.379h6.081q0-3.847-2.869-3.847T26.2-8.379ZM45.781.317a13.839,13.839,0,0,1-4.164-.8v-2.3a9.881,9.881,0,0,0,4.266,1.219,2.727,2.727,0,0,0,1.79-.584,1.814,1.814,0,0,0,.711-1.46q0-1.282-1.993-2.12l-1.46-.622q-3.237-1.346-3.237-3.872a3.455,3.455,0,0,1,1.276-2.837,5.4,5.4,0,0,1,3.5-1.035,16.055,16.055,0,0,1,2.856.317l.521.1v2.082a12.448,12.448,0,0,0-3.326-.622q-2.412,0-2.412,1.752,0,1.13,1.828,1.9l1.206.508a8.1,8.1,0,0,1,2.895,1.822,3.473,3.473,0,0,1,.851,2.393A3.679,3.679,0,0,1,49.45-.851,5.623,5.623,0,0,1,45.781.317Zm16.27,0a13.839,13.839,0,0,1-4.164-.8v-2.3a9.881,9.881,0,0,0,4.266,1.219,2.727,2.727,0,0,0,1.79-.584,1.814,1.814,0,0,0,.711-1.46q0-1.282-1.993-2.12L61.2-6.348q-3.237-1.346-3.237-3.872a3.455,3.455,0,0,1,1.276-2.837,5.4,5.4,0,0,1,3.5-1.035,16.055,16.055,0,0,1,2.856.317l.521.1v2.082a12.448,12.448,0,0,0-3.326-.622q-2.412,0-2.412,1.752,0,1.13,1.828,1.9l1.206.508A8.1,8.1,0,0,1,66.3-6.227a3.473,3.473,0,0,1,.851,2.393A3.679,3.679,0,0,1,65.72-.851,5.623,5.623,0,0,1,62.051.317ZM84.77-.444a15.244,15.244,0,0,1-4.3.762A6.547,6.547,0,0,1,75.5-1.708a7.31,7.31,0,0,1-1.923-5.25A7.692,7.692,0,0,1,75.268-12.1,5.422,5.422,0,0,1,79.6-14.1a4.589,4.589,0,0,1,3.866,1.777,8.149,8.149,0,0,1,1.365,5.053l-.013.774h-8.7q.546,4.913,4.812,4.913a11.492,11.492,0,0,0,3.834-.838ZM76.239-8.379H82.32q0-3.847-2.869-3.847T76.239-8.379ZM92.166,0V-20.046h2.5V0Zm44.183,0V-18.789h2.666v16.8h8.455V0Zm25.576,0V-2.59A5.779,5.779,0,0,1,157.088.317a3.747,3.747,0,0,1-2.869-1.136,4.3,4.3,0,0,1-1.066-3.066v-9.9h2.5V-4.7a4.028,4.028,0,0,0,.451,2.2,1.7,1.7,0,0,0,1.5.654q2.285,0,4.316-3.009v-8.937h2.5V0Zm14.67.317a3.962,3.962,0,0,1-2.971-1.092,4.158,4.158,0,0,1-1.066-3.034v-8.1h-1.727v-1.879h1.727v-2.5l2.5-.241v2.742h3.605v1.879h-3.605v7.643q0,2.7,2.336,2.7a5.484,5.484,0,0,0,1.206-.165V0A7.732,7.732,0,0,1,176.595.317Zm8.653,4.266.292-2.171a9.94,9.94,0,0,0,4.278,1.028q4.228,0,4.228-4.481V-3.212A4.7,4.7,0,0,1,189.5-.317a4.8,4.8,0,0,1-3.936-1.8,7.5,7.5,0,0,1-1.46-4.862,7.705,7.705,0,0,1,1.663-5.129,5.359,5.359,0,0,1,4.3-1.98,5.134,5.134,0,0,1,3.974,1.879v-1.574h2.514V-3.758a24.759,24.759,0,0,1-.336,4.792A5.265,5.265,0,0,1,194.96,3.58q-1.638,1.739-5.091,1.739A14.516,14.516,0,0,1,185.248,4.583Zm8.8-9.356V-10.5a4.93,4.93,0,0,0-3.593-1.714,3.129,3.129,0,0,0-2.7,1.384,6.48,6.48,0,0,0-.978,3.8q0,4.532,3.187,4.532A5.407,5.407,0,0,0,194.046-4.773ZM214.53-.444a15.244,15.244,0,0,1-4.3.762,6.547,6.547,0,0,1-4.97-2.025,7.31,7.31,0,0,1-1.923-5.25,7.692,7.692,0,0,1,1.695-5.142,5.422,5.422,0,0,1,4.335-2.006,4.589,4.589,0,0,1,3.866,1.777,8.149,8.149,0,0,1,1.365,5.053l-.013.774h-8.7q.546,4.913,4.812,4.913a11.491,11.491,0,0,0,3.834-.838ZM206-8.379h6.081q0-3.847-2.869-3.847T206-8.379ZM221.926,0V-13.787h2.5v2.59a5.771,5.771,0,0,1,4.85-2.895,3.731,3.731,0,0,1,2.856,1.136A4.281,4.281,0,0,1,233.2-9.9V0h-2.5V-9.09a4,4,0,0,0-.451-2.19,1.681,1.681,0,0,0-1.492-.654q-2.3,0-4.329,3.009V0Z" transform="translate(2 57.576)" fill="#fff"/>
      <path id="Path_1" data-name="Path 1" d="M1964.368,1221.33s12.773,14.691,31.071,7.286a39.12,39.12,0,0,0,11.1-7.286" transform="translate(-1867.745 -1155.986)" fill="none" stroke="#f37021" stroke-linecap="round" stroke-linejoin="bevel" stroke-width="2"/>
    </g>
  </g>
</svg>
