<svg xmlns="http://www.w3.org/2000/svg" xmlns:xlink="http://www.w3.org/1999/xlink" width="326" height="31" viewBox="0 0 326 31">
  <defs>
    <clipPath id="clip-hessel-lutgen">
      <rect width="326" height="31"/>
    </clipPath>
  </defs>
  <g id="hessel-lutgen" clip-path="url(#clip-hessel-lutgen)">
    <g id="Group_1" data-name="Group 1" transform="translate(0 -3)">
      <path id="Path_171" data-name="Path 171" d="M16.39-7.077a6.747,6.747,0,0,1-2.163,5.219A8.317,8.317,0,0,1,8.379.126Q7.917.126,6.51.084,5.061.042,4.578.042q-1.953,0-3.8.084Q.609.126.609-.168q0-.262.168-.284A6.062,6.062,0,0,0,2.111-.73,1.239,1.239,0,0,0,2.756-1.2,2.071,2.071,0,0,0,2.94-2.226v-9.839a2.183,2.183,0,0,0-.173-1.024,1.193,1.193,0,0,0-.635-.478,5.872,5.872,0,0,0-1.354-.283q-.168,0-.168-.294t.168-.294q1.229.084,3.8.084.483,0,1.932-.032,1.407-.031,1.869-.031a8.184,8.184,0,0,1,5.8,2.053A6.89,6.89,0,0,1,16.39-7.077Zm-2.31,0a7.021,7.021,0,0,0-1.633-4.751,5.175,5.175,0,0,0-4.09-1.9H8.3l-1.974.042q-1.239.042-1.239,1.218V-1.827A1.077,1.077,0,0,0,6.321-.63L8.3-.567a5.31,5.31,0,0,0,4.116-1.864A6.706,6.706,0,0,0,14.08-7.077ZM27.216-5.838q0,.294-.378.294H21.084a10.649,10.649,0,0,0-.063,1.176,3.8,3.8,0,0,0,.8,2.6,2.888,2.888,0,0,0,2.284.908,3.2,3.2,0,0,0,1.5-.4,3.566,3.566,0,0,0,1.218-1.018L26.88-2.3a.243.243,0,0,1,.184.115.433.433,0,0,1,.089.273q0,.22-.672.919A4.909,4.909,0,0,1,25.022.073a3.853,3.853,0,0,1-1.649.367A4.177,4.177,0,0,1,20.192-.945a4.8,4.8,0,0,1-1.292-3.4,5.07,5.07,0,0,1,1.265-3.486,4.1,4.1,0,0,1,3.208-1.428A3.793,3.793,0,0,1,26.108-8.2,3.217,3.217,0,0,1,27.216-5.838Zm-1.911-.924a1.737,1.737,0,0,0-.541-1.307,1.925,1.925,0,0,0-1.391-.52,1.809,1.809,0,0,0-1.4.677,3.69,3.69,0,0,0-.8,1.78l2.919-.084a2.813,2.813,0,0,0,.94-.126A.419.419,0,0,0,25.305-6.762ZM40.2-.168q0,.294-.168.294A10.269,10.269,0,0,1,39.007.063Q38.336,0,37.821,0T36.613.063q-.619.063-1.039.063-.168,0-.168-.294,0-.262.168-.284a1.294,1.294,0,0,0,.95-.409,2.7,2.7,0,0,0,.226-1.365V-5.733a2.638,2.638,0,0,0-.462-1.722A1.768,1.768,0,0,0,34.86-8a2.4,2.4,0,0,0-1.076.231,3.58,3.58,0,0,0-1,.819v4.725a2.7,2.7,0,0,0,.226,1.365,1.294,1.294,0,0,0,.95.409q.168.021.168.284,0,.294-.168.294-.43,0-1.05-.063Q32.224,0,31.71,0T30.534.063q-.62.063-1.05.063-.168,0-.168-.294,0-.262.168-.284a1.833,1.833,0,0,0,1.165-.436,2.3,2.3,0,0,0,.263-1.339V-6.111a1.9,1.9,0,0,0-.215-1.1,1.478,1.478,0,0,0-.961-.347q-.168,0-.168-.273,0-.252.168-.252a9.439,9.439,0,0,0,1.733-.593,2.956,2.956,0,0,0,.872-.541.3.3,0,0,1,.231-.126q.294,0,.294.168l-.084,1.323A4.329,4.329,0,0,1,35.6-9.261a2.982,2.982,0,0,1,2.231.819,3.013,3.013,0,0,1,.8,2.205v4.011a2.336,2.336,0,0,0,.257,1.344,1.812,1.812,0,0,0,1.15.43Q40.2-.43,40.2-.168Zm8.18-8.064q0,.567-.273.567l-3.129-.084v5.04q0,1.974,1.407,1.974a3.13,3.13,0,0,0,1.585-.41.189.189,0,0,1,.152.11.441.441,0,0,1,.068.236q0,.263-.782.709a3.486,3.486,0,0,1-1.759.446,2.552,2.552,0,0,1-1.911-.73A2.637,2.637,0,0,1,43.029-2.3v-.095l.042-5.1q0-.294-.252-.294h-.8q-.231,0-.231-.273a.339.339,0,0,1,.189-.315A8.1,8.1,0,0,0,44.52-10.8a.345.345,0,0,1,.294-.168q.294,0,.294.168L45.024-8.8h3.087Q48.384-8.8,48.384-8.232ZM57.2.357A1.81,1.81,0,0,1,56.18.068a1.438,1.438,0,0,1-.593-.782A3.917,3.917,0,0,1,52.647.441,2.12,2.12,0,0,1,51.1-.142a1.947,1.947,0,0,1-.6-1.454q0-2.152,5.1-3.486l.063-1.638v-.053a1.816,1.816,0,0,0-.373-1.2,1.228,1.228,0,0,0-.992-.446,1.794,1.794,0,0,0-1.05.3.916.916,0,0,0-.441.751,1.549,1.549,0,0,1-.352,1.05,1.164,1.164,0,0,1-.908.378.76.76,0,0,1-.546-.2.7.7,0,0,1-.21-.536q0-.809,1.47-1.7A5.352,5.352,0,0,1,55-9.261a2.55,2.55,0,0,1,1.838.672,2.38,2.38,0,0,1,.7,1.806v.126l-.147,4.746v.074q0,1.1.714,1.1a1.307,1.307,0,0,0,.808-.42l.073-.021a.2.2,0,0,1,.158.11.418.418,0,0,1,.074.236q0,.3-.635.746A2.372,2.372,0,0,1,57.2.357ZM55.587-4.368q-3.066.693-3.066,2.289,0,1.491,1.155,1.491a2.375,2.375,0,0,0,1.1-.278,1.525,1.525,0,0,0,.73-.688Zm9.66,4.179q0,.294-.168.294-.43,0-1.1-.052Q63.22,0,62.706,0t-1.25.052Q60.785.1,60.354.1q-.168,0-.168-.294,0-.263.168-.284A1.808,1.808,0,0,0,61.514-.9a2.288,2.288,0,0,0,.268-1.349V-12a1.963,1.963,0,0,0-.21-1.113,1.47,1.47,0,0,0-.966-.347q-.168-.021-.168-.263t.168-.252a11.153,11.153,0,0,0,1.806-.6,2.688,2.688,0,0,0,.882-.541.309.309,0,0,1,.231-.115q.294,0,.294.168-.168,2.352-.168,3.654v9.166A2.326,2.326,0,0,0,63.913-.9a1.8,1.8,0,0,0,1.165.425Q65.247-.452,65.247-.189ZM73.4-8.232q0,.567-.273.567l-3.129-.084v5.04q0,1.974,1.407,1.974a3.13,3.13,0,0,0,1.586-.41.189.189,0,0,1,.152.11.441.441,0,0,1,.068.236q0,.263-.782.709a3.486,3.486,0,0,1-1.759.446,2.552,2.552,0,0,1-1.911-.73A2.637,2.637,0,0,1,68.04-2.3v-.095l.042-5.1q0-.294-.252-.294h-.8q-.231,0-.231-.273a.339.339,0,0,1,.189-.315A8.1,8.1,0,0,0,69.531-10.8a.345.345,0,0,1,.294-.168q.294,0,.294.168L70.035-8.8h3.087Q73.4-8.8,73.4-8.232ZM83.454-5.838q0,.294-.378.294H77.322a10.649,10.649,0,0,0-.063,1.176,3.8,3.8,0,0,0,.8,2.6,2.888,2.888,0,0,0,2.284.908,3.2,3.2,0,0,0,1.5-.4,3.566,3.566,0,0,0,1.218-1.018l.052-.021a.243.243,0,0,1,.184.115.433.433,0,0,1,.089.273q0,.22-.672.919A4.909,4.909,0,0,1,81.259.073a3.853,3.853,0,0,1-1.648.367A4.177,4.177,0,0,1,76.429-.945a4.8,4.8,0,0,1-1.291-3.4A5.07,5.07,0,0,1,76.4-7.833a4.1,4.1,0,0,1,3.208-1.428A3.793,3.793,0,0,1,82.346-8.2,3.217,3.217,0,0,1,83.454-5.838Zm-1.911-.924A1.737,1.737,0,0,0,81-8.069a1.925,1.925,0,0,0-1.391-.52,1.809,1.809,0,0,0-1.4.677,3.69,3.69,0,0,0-.8,1.78l2.919-.084a2.813,2.813,0,0,0,.94-.126A.419.419,0,0,0,81.543-6.762ZM93.891-7.6a.761.761,0,0,1-.861.861,1.068,1.068,0,0,1-.6-.157,1.653,1.653,0,0,1-.478-.682,1.807,1.807,0,0,0-.6-.814,1.593,1.593,0,0,0-.835-.194,2.154,2.154,0,0,0-1.937,1.055,5.815,5.815,0,0,0-.667,3.082,4.189,4.189,0,0,0,.84,2.725A2.747,2.747,0,0,0,90.993-.693a3.3,3.3,0,0,0,2.531-1l.052-.021a.242.242,0,0,1,.184.121.44.44,0,0,1,.089.268q0,.21-.614.725a4.4,4.4,0,0,1-1.344.777,4.541,4.541,0,0,1-1.549.262A4.322,4.322,0,0,1,87.124-.94a4.811,4.811,0,0,1-1.339-3.491,4.635,4.635,0,0,1,1.4-3.46,4.593,4.593,0,0,1,3.323-1.37,5.349,5.349,0,0,1,2.4.488Q93.891-8.285,93.891-7.6ZM107.11-.168q0,.294-.168.294-.42,0-1.039-.063Q105.231,0,104.727,0q-.525,0-1.207.063-.62.063-1.04.063-.168,0-.168-.294,0-.262.168-.284a1.294,1.294,0,0,0,.95-.409,2.7,2.7,0,0,0,.226-1.365V-5.733Q103.656-8,101.6-8a2.926,2.926,0,0,0-2.247,1.05v4.725a2.3,2.3,0,0,0,.273,1.313,1.505,1.505,0,0,0,1.071.462q.168.021.168.284,0,.294-.168.294-.431,0-1.123-.063Q98.795,0,98.28,0t-1.2.063a10.037,10.037,0,0,1-1.029.063q-.168,0-.168-.294,0-.262.168-.284A1.732,1.732,0,0,0,97.2-.866a2.352,2.352,0,0,0,.262-1.36v-9.755a2,2,0,0,0-.2-1.113,1.427,1.427,0,0,0-.95-.346q-.168-.021-.168-.262,0-.273.168-.273a6.73,6.73,0,0,0,2.657-1.113.464.464,0,0,1,.262-.126q.294,0,.294.168-.168,1.722-.168,3.654v3.56a4.38,4.38,0,0,1,2.961-1.428,3.254,3.254,0,0,1,2.347.819,2.909,2.909,0,0,1,.856,2.205v4.011a2.288,2.288,0,0,0,.268,1.349,1.809,1.809,0,0,0,1.16.425Q107.11-.43,107.11-.168Zm12.306,0q0,.294-.168.294A10.268,10.268,0,0,1,118.22.063Q117.547,0,117.033,0t-1.208.063q-.62.063-1.039.063-.168,0-.168-.294,0-.262.168-.284a1.294,1.294,0,0,0,.95-.409,2.7,2.7,0,0,0,.226-1.365V-5.733a2.638,2.638,0,0,0-.462-1.722A1.768,1.768,0,0,0,114.072-8,2.4,2.4,0,0,0,113-7.77a3.58,3.58,0,0,0-1,.819v4.725a2.7,2.7,0,0,0,.226,1.365,1.294,1.294,0,0,0,.95.409q.168.021.168.284,0,.294-.168.294-.43,0-1.05-.063Q111.437,0,110.922,0t-1.176.063q-.62.063-1.05.063-.168,0-.168-.294,0-.262.168-.284a1.833,1.833,0,0,0,1.166-.436,2.3,2.3,0,0,0,.262-1.339V-6.111a1.9,1.9,0,0,0-.215-1.1,1.478,1.478,0,0,0-.961-.347q-.168,0-.168-.273,0-.252.168-.252a9.439,9.439,0,0,0,1.732-.593,2.956,2.956,0,0,0,.871-.541.3.3,0,0,1,.231-.126q.294,0,.294.168l-.084,1.323a4.329,4.329,0,0,1,2.814-1.407,2.982,2.982,0,0,1,2.231.819,3.013,3.013,0,0,1,.8,2.205v4.011A2.336,2.336,0,0,0,118.1-.882a1.812,1.812,0,0,0,1.15.43Q119.417-.43,119.417-.168Zm5.05-12.695a1.057,1.057,0,0,1-.32.767,1.043,1.043,0,0,1-.772.325,1.043,1.043,0,0,1-.772-.325,1.057,1.057,0,0,1-.32-.767,1.056,1.056,0,0,1,.315-.777,1.056,1.056,0,0,1,.777-.315,1.061,1.061,0,0,1,.772.315A1.047,1.047,0,0,1,124.467-12.863Zm1.47,12.695q0,.294-.168.294-.43,0-1.1-.063Q123.91,0,123.4,0t-1.26.063q-.662.063-1.092.063-.168,0-.168-.294,0-.262.168-.284a1.812,1.812,0,0,0,1.15-.43,2.336,2.336,0,0,0,.257-1.344V-6.111a1.9,1.9,0,0,0-.215-1.1,1.443,1.443,0,0,0-.94-.347q-.168,0-.168-.273,0-.252.168-.252a11.153,11.153,0,0,0,1.806-.6,2.851,2.851,0,0,0,.882-.53.3.3,0,0,1,.231-.126q.294,0,.294.168-.168,2.352-.168,3.654v3.3A2.336,2.336,0,0,0,124.6-.882a1.847,1.847,0,0,0,1.171.43Q125.937-.43,125.937-.168Zm12.569,0q0,.294-.168.294-.42,0-1.082-.063Q136.532,0,136.017,0t-1.291.063q-.725.063-1.145.063-.168,0-.168-.294,0-.262.168-.284a.972.972,0,0,0,.388-.1.311.311,0,0,0,.116-.283q0-.315-1.008-1.386L131.4-4.095a.766.766,0,0,0-.567-.21v2.079a2.777,2.777,0,0,0,.226,1.313,1.046,1.046,0,0,0,.845.462q.168.021.168.284,0,.294-.168.294-.451,0-1.176-.063Q130.032,0,129.633,0q-.451,0-1.092.063-.609.063-1.008.063-.168,0-.168-.294,0-.262.168-.284a1.732,1.732,0,0,0,1.145-.415,2.352,2.352,0,0,0,.262-1.36v-9.755a2,2,0,0,0-.2-1.113,1.427,1.427,0,0,0-.95-.346q-.168-.021-.168-.262,0-.273.168-.273a6.73,6.73,0,0,0,2.656-1.113.464.464,0,0,1,.263-.126q.294,0,.294.168-.168,1.722-.168,3.654v6.5a.859.859,0,0,0,.6-.2l1.564-1.48q.073-.074.242-.22.872-.788.872-1.166,0-.273-.84-.378-.168-.021-.168-.294,0-.294.168-.294.441,0,1.113.063.62.063,1.029.063a7.591,7.591,0,0,0,.787-.052,8.561,8.561,0,0,1,1.05-.074q.168,0,.168.294,0,.273-.168.294a4.144,4.144,0,0,0-1.339.357,7.61,7.61,0,0,0-1.549,1.134l-1.806,1.6L135.3-2.226a7.2,7.2,0,0,0,1.47,1.313,3.863,3.863,0,0,0,1.564.462Q138.506-.43,138.506-.168Z" transform="translate(-1 20)" fill="#f37021"/>
      <path id="Path_172" data-name="Path 172" d="M1.865,0V-14.453H3.916v6.094h6.875v-6.094h2.051V0H10.791V-6.826H3.916V0ZM26.715-.342A11.726,11.726,0,0,1,23.4.244a5.037,5.037,0,0,1-3.823-1.558A5.623,5.623,0,0,1,18.1-5.352a5.917,5.917,0,0,1,1.3-3.955A4.171,4.171,0,0,1,22.74-10.85a3.53,3.53,0,0,1,2.974,1.367A6.269,6.269,0,0,1,26.763-5.6l-.01.6H20.064q.42,3.779,3.7,3.779a8.84,8.84,0,0,0,2.949-.645Zm-6.562-6.1H24.83q0-2.959-2.207-2.959T20.152-6.445ZM35.216.244a10.645,10.645,0,0,1-3.2-.615V-2.139a7.6,7.6,0,0,0,3.281.938,2.1,2.1,0,0,0,1.377-.449,1.4,1.4,0,0,0,.547-1.123q0-.986-1.533-1.631l-1.123-.479q-2.49-1.035-2.49-2.979a2.658,2.658,0,0,1,.981-2.183,4.154,4.154,0,0,1,2.69-.8,12.35,12.35,0,0,1,2.2.244l.4.078v1.6a9.575,9.575,0,0,0-2.559-.479q-1.855,0-1.855,1.348,0,.869,1.406,1.465l.928.391a6.229,6.229,0,0,1,2.227,1.4,2.672,2.672,0,0,1,.654,1.841,2.83,2.83,0,0,1-1.1,2.295A4.326,4.326,0,0,1,35.216.244Zm12.515,0a10.645,10.645,0,0,1-3.2-.615V-2.139A7.6,7.6,0,0,0,47.81-1.2a2.1,2.1,0,0,0,1.377-.449,1.4,1.4,0,0,0,.547-1.123q0-.986-1.533-1.631l-1.123-.479q-2.49-1.035-2.49-2.979a2.658,2.658,0,0,1,.981-2.183,4.154,4.154,0,0,1,2.69-.8,12.35,12.35,0,0,1,2.2.244l.4.078v1.6A9.575,9.575,0,0,0,48.3-9.395q-1.855,0-1.855,1.348,0,.869,1.406,1.465l.928.391A6.229,6.229,0,0,1,51-4.79a2.672,2.672,0,0,1,.654,1.841,2.83,2.83,0,0,1-1.1,2.295A4.326,4.326,0,0,1,47.731.244ZM65.208-.342A11.726,11.726,0,0,1,61.9.244a5.037,5.037,0,0,1-3.823-1.558,5.623,5.623,0,0,1-1.479-4.038,5.917,5.917,0,0,1,1.3-3.955,4.171,4.171,0,0,1,3.335-1.543,3.53,3.53,0,0,1,2.974,1.367A6.269,6.269,0,0,1,65.257-5.6l-.01.6H58.557q.42,3.779,3.7,3.779a8.84,8.84,0,0,0,2.949-.645Zm-6.562-6.1h4.678q0-2.959-2.207-2.959T58.645-6.445ZM70.9,0V-15.42h1.924V0Zm33.987,0V-14.453h2.051v12.92h6.5V0Zm19.674,0V-1.992A4.445,4.445,0,0,1,120.837.244,2.882,2.882,0,0,1,118.63-.63a3.307,3.307,0,0,1-.82-2.358v-7.617h1.924v6.992a3.1,3.1,0,0,0,.347,1.694,1.3,1.3,0,0,0,1.157.5q1.758,0,3.32-2.314v-6.875h1.924V0Zm11.285.244a3.048,3.048,0,0,1-2.285-.84,3.2,3.2,0,0,1-.82-2.334V-9.16h-1.328v-1.445h1.328v-1.924l1.924-.186v2.109h2.773V-9.16h-2.773v5.879q0,2.08,1.8,2.08a4.218,4.218,0,0,0,.928-.127V0A5.948,5.948,0,0,1,135.842.244ZM142.5,3.525l.225-1.67a7.646,7.646,0,0,0,3.291.791q3.252,0,3.252-3.447v-1.67a3.615,3.615,0,0,1-3.5,2.227,3.692,3.692,0,0,1-3.027-1.387,5.771,5.771,0,0,1-1.123-3.74A5.927,5.927,0,0,1,142.9-9.316a4.122,4.122,0,0,1,3.311-1.523,3.95,3.95,0,0,1,3.057,1.445v-1.211H151.2v7.715A19.045,19.045,0,0,1,150.941.8a4.05,4.05,0,0,1-.972,1.958,5.147,5.147,0,0,1-3.916,1.338A11.166,11.166,0,0,1,142.5,3.525Zm6.768-7.2v-4.4A3.793,3.793,0,0,0,146.5-9.395a2.407,2.407,0,0,0-2.08,1.064,4.984,4.984,0,0,0-.752,2.92q0,3.486,2.451,3.486A4.159,4.159,0,0,0,149.266-3.672Zm15.758,3.33a11.726,11.726,0,0,1-3.311.586,5.037,5.037,0,0,1-3.823-1.558,5.623,5.623,0,0,1-1.479-4.038,5.917,5.917,0,0,1,1.3-3.955,4.171,4.171,0,0,1,3.335-1.543,3.53,3.53,0,0,1,2.974,1.367,6.269,6.269,0,0,1,1.05,3.887l-.01.6h-6.689q.42,3.779,3.7,3.779a8.84,8.84,0,0,0,2.949-.645Zm-6.562-6.1h4.678q0-2.959-2.207-2.959T158.461-6.445ZM170.712,0V-10.605h1.924v1.992a4.439,4.439,0,0,1,3.73-2.227,2.87,2.87,0,0,1,2.2.874,3.293,3.293,0,0,1,.82,2.349V0H177.46V-6.992a3.075,3.075,0,0,0-.347-1.685,1.293,1.293,0,0,0-1.147-.5q-1.768,0-3.33,2.314V0Z" transform="translate(146 20)" fill="#929497"/>
      <path id="Path_1" data-name="Path 1" d="M1964.368,1221.33s9.691,11.823,23.573,5.864a29.555,29.555,0,0,0,8.423-5.864" transform="translate(-1745.401 -1196.33)" fill="none" stroke="#f37021" stroke-linecap="round" stroke-linejoin="bevel" stroke-width="2"/>
    </g>
  </g>
</svg>
